G04 #@! TF.GenerationSoftware,KiCad,Pcbnew,9.0.3*
G04 #@! TF.CreationDate,2025-07-21T23:33:24+01:00*
G04 #@! TF.ProjectId,dectspansion,64656374-7370-4616-9e73-696f6e2e6b69,rev?*
G04 #@! TF.SameCoordinates,Original*
G04 #@! TF.FileFunction,Copper,L4,Bot*
G04 #@! TF.FilePolarity,Positive*
%FSLAX46Y46*%
G04 Gerber Fmt 4.6, Leading zero omitted, Abs format (unit mm)*
G04 Created by KiCad (PCBNEW 9.0.3) date 2025-07-21 23:33:24*
%MOMM*%
%LPD*%
G01*
G04 APERTURE LIST*
G04 Aperture macros list*
%AMRoundRect*
0 Rectangle with rounded corners*
0 $1 Rounding radius*
0 $2 $3 $4 $5 $6 $7 $8 $9 X,Y pos of 4 corners*
0 Add a 4 corners polygon primitive as box body*
4,1,4,$2,$3,$4,$5,$6,$7,$8,$9,$2,$3,0*
0 Add four circle primitives for the rounded corners*
1,1,$1+$1,$2,$3*
1,1,$1+$1,$4,$5*
1,1,$1+$1,$6,$7*
1,1,$1+$1,$8,$9*
0 Add four rect primitives between the rounded corners*
20,1,$1+$1,$2,$3,$4,$5,0*
20,1,$1+$1,$4,$5,$6,$7,0*
20,1,$1+$1,$6,$7,$8,$9,0*
20,1,$1+$1,$8,$9,$2,$3,0*%
%AMFreePoly0*
4,1,23,0.500000,-0.750000,0.000000,-0.750000,0.000000,-0.745722,-0.065263,-0.745722,-0.191342,-0.711940,-0.304381,-0.646677,-0.396677,-0.554381,-0.461940,-0.441342,-0.495722,-0.315263,-0.495722,-0.250000,-0.500000,-0.250000,-0.500000,0.250000,-0.495722,0.250000,-0.495722,0.315263,-0.461940,0.441342,-0.396677,0.554381,-0.304381,0.646677,-0.191342,0.711940,-0.065263,0.745722,0.000000,0.745722,
0.000000,0.750000,0.500000,0.750000,0.500000,-0.750000,0.500000,-0.750000,$1*%
%AMFreePoly1*
4,1,23,0.000000,0.745722,0.065263,0.745722,0.191342,0.711940,0.304381,0.646677,0.396677,0.554381,0.461940,0.441342,0.495722,0.315263,0.495722,0.250000,0.500000,0.250000,0.500000,-0.250000,0.495722,-0.250000,0.495722,-0.315263,0.461940,-0.441342,0.396677,-0.554381,0.304381,-0.646677,0.191342,-0.711940,0.065263,-0.745722,0.000000,-0.745722,0.000000,-0.750000,-0.500000,-0.750000,
-0.500000,0.750000,0.000000,0.750000,0.000000,0.745722,0.000000,0.745722,$1*%
G04 Aperture macros list end*
G04 #@! TA.AperFunction,EtchedComponent*
%ADD10C,0.000000*%
G04 #@! TD*
G04 #@! TA.AperFunction,WasherPad*
%ADD11C,1.900000*%
G04 #@! TD*
G04 #@! TA.AperFunction,SMDPad,CuDef*
%ADD12RoundRect,0.150000X-1.600000X-0.150000X1.600000X-0.150000X1.600000X0.150000X-1.600000X0.150000X0*%
G04 #@! TD*
G04 #@! TA.AperFunction,SMDPad,CuDef*
%ADD13RoundRect,0.150000X-1.200000X-0.150000X1.200000X-0.150000X1.200000X0.150000X-1.200000X0.150000X0*%
G04 #@! TD*
G04 #@! TA.AperFunction,ComponentPad*
%ADD14C,0.700000*%
G04 #@! TD*
G04 #@! TA.AperFunction,ComponentPad*
%ADD15C,4.400000*%
G04 #@! TD*
G04 #@! TA.AperFunction,ComponentPad*
%ADD16R,1.700000X1.700000*%
G04 #@! TD*
G04 #@! TA.AperFunction,ComponentPad*
%ADD17C,1.700000*%
G04 #@! TD*
G04 #@! TA.AperFunction,SMDPad,CuDef*
%ADD18FreePoly0,270.000000*%
G04 #@! TD*
G04 #@! TA.AperFunction,SMDPad,CuDef*
%ADD19FreePoly1,270.000000*%
G04 #@! TD*
G04 #@! TA.AperFunction,ViaPad*
%ADD20C,0.800000*%
G04 #@! TD*
G04 #@! TA.AperFunction,Conductor*
%ADD21C,0.250000*%
G04 #@! TD*
G04 #@! TA.AperFunction,Conductor*
%ADD22C,0.500000*%
G04 #@! TD*
G04 #@! TA.AperFunction,Conductor*
%ADD23C,0.300000*%
G04 #@! TD*
G04 APERTURE END LIST*
D10*
G04 #@! TA.AperFunction,EtchedComponent*
G36*
X107860000Y-107960000D02*
G01*
X107260000Y-107960000D01*
X107260000Y-107460000D01*
X107860000Y-107460000D01*
X107860000Y-107960000D01*
G37*
G04 #@! TD.AperFunction*
D11*
X130160000Y-87780000D03*
X123160000Y-87780000D03*
D12*
X100500000Y-103400000D03*
D13*
X100900000Y-102600000D03*
X100900000Y-101800000D03*
X100900000Y-101000000D03*
X100900000Y-100200000D03*
X100900000Y-99400000D03*
X100900000Y-98600000D03*
X100900000Y-97800000D03*
D12*
X100500000Y-97000000D03*
X100500000Y-96200000D03*
D14*
X110850000Y-87500000D03*
X111333274Y-86333274D03*
X111333274Y-88666726D03*
X112500000Y-85850000D03*
D15*
X112500000Y-87500000D03*
D14*
X112500000Y-89150000D03*
X113666726Y-86333274D03*
X113666726Y-88666726D03*
X114150000Y-87500000D03*
D16*
X108500000Y-91960000D03*
D17*
X111040000Y-91960000D03*
X113580000Y-91960000D03*
D14*
X110850000Y-112500000D03*
X111333274Y-111333274D03*
X111333274Y-113666726D03*
X112500000Y-110850000D03*
D15*
X112500000Y-112500000D03*
D14*
X112500000Y-114150000D03*
X113666726Y-111333274D03*
X113666726Y-113666726D03*
X114150000Y-112500000D03*
D18*
X107560000Y-107060000D03*
D19*
X107560000Y-108360000D03*
D20*
X118730000Y-101675000D03*
X127500000Y-114060000D03*
X116970000Y-112320000D03*
X118740000Y-103070000D03*
X106520000Y-101080000D03*
X135640000Y-91930000D03*
X127440000Y-117000000D03*
X129000000Y-114090000D03*
X113200000Y-104790000D03*
X119340000Y-94390000D03*
X117610000Y-104900000D03*
X105950000Y-91930000D03*
X123980000Y-94410000D03*
X115880000Y-112330000D03*
X110130000Y-101070000D03*
X123060000Y-116970000D03*
X108785000Y-102255000D03*
X116735000Y-110205000D03*
X107970000Y-103000000D03*
X115200000Y-110210000D03*
X116140000Y-106360000D03*
X124990000Y-116650000D03*
X125988994Y-116605101D03*
X114490000Y-106390000D03*
X123990000Y-95850000D03*
X119360000Y-95850000D03*
D21*
X118735000Y-101670000D02*
X118730000Y-101675000D01*
D22*
X124280000Y-101670000D02*
X118735000Y-101670000D01*
X127500000Y-114060000D02*
X127500000Y-104890000D01*
X127500000Y-104890000D02*
X124280000Y-101670000D01*
X100500000Y-96200000D02*
X105450000Y-96200000D01*
X100500000Y-103400000D02*
X104260000Y-103400000D01*
D23*
X108785000Y-102255000D02*
X116735000Y-110205000D01*
D22*
X108785000Y-94215000D02*
X108785000Y-102255000D01*
X111040000Y-91960000D02*
X108785000Y-94215000D01*
X107934000Y-92526000D02*
X107934000Y-102964000D01*
D23*
X115200000Y-110210000D02*
X107990000Y-103000000D01*
D22*
X108500000Y-91960000D02*
X107934000Y-92526000D01*
X107934000Y-102964000D02*
X107970000Y-103000000D01*
X107560000Y-107060000D02*
X107560000Y-104570000D01*
X107560000Y-104570000D02*
X102390000Y-99400000D01*
D21*
X100950000Y-99450000D02*
X100900000Y-99400000D01*
D22*
X102390000Y-99400000D02*
X100900000Y-99400000D01*
D21*
X124990000Y-116320000D02*
X116140000Y-107470000D01*
X124990000Y-116650000D02*
X124990000Y-116320000D01*
X116140000Y-107470000D02*
X116140000Y-106360000D01*
X114490000Y-106390000D02*
X114490000Y-106870000D01*
X125650000Y-117410000D02*
X125988994Y-117071006D01*
X124180000Y-116950000D02*
X124640000Y-117410000D01*
X124180000Y-116560000D02*
X124180000Y-116950000D01*
X125988994Y-117071006D02*
X125988994Y-116605101D01*
X124640000Y-117410000D02*
X125650000Y-117410000D01*
X114490000Y-106870000D02*
X124180000Y-116560000D01*
D22*
X119360000Y-95850000D02*
X123990000Y-95850000D01*
G04 #@! TA.AperFunction,Conductor*
G36*
X126987228Y-81680273D02*
G01*
X135978140Y-81680499D01*
X136024596Y-81680500D01*
X136035391Y-81680971D01*
X136182239Y-81693818D01*
X136195275Y-81695662D01*
X136221903Y-81700891D01*
X136230009Y-81702771D01*
X136357362Y-81736895D01*
X136372454Y-81742000D01*
X136387124Y-81748040D01*
X136392232Y-81750281D01*
X136519922Y-81809824D01*
X136538628Y-81820624D01*
X136663572Y-81908110D01*
X136680130Y-81922003D01*
X136787989Y-82029861D01*
X136801882Y-82046419D01*
X136889365Y-82171355D01*
X136900173Y-82190074D01*
X136960408Y-82319248D01*
X136962551Y-82324114D01*
X136967623Y-82336333D01*
X136972872Y-82351777D01*
X137007233Y-82480009D01*
X137009068Y-82487870D01*
X137014197Y-82513608D01*
X137016116Y-82527034D01*
X137029056Y-82674927D01*
X137029528Y-82685807D01*
X137009491Y-117314635D01*
X137009019Y-117325372D01*
X136996102Y-117472994D01*
X136994191Y-117486379D01*
X136989110Y-117511920D01*
X136987267Y-117519821D01*
X136952893Y-117648099D01*
X136947679Y-117663459D01*
X136942501Y-117675959D01*
X136940323Y-117680910D01*
X136880155Y-117809933D01*
X136869350Y-117828648D01*
X136781861Y-117953589D01*
X136767967Y-117970147D01*
X136660108Y-118078000D01*
X136643550Y-118091893D01*
X136518603Y-118179377D01*
X136499882Y-118190184D01*
X136370852Y-118250345D01*
X136365902Y-118252523D01*
X136353410Y-118257697D01*
X136338048Y-118262911D01*
X136209766Y-118297278D01*
X136201868Y-118299120D01*
X136176338Y-118304198D01*
X136162952Y-118306108D01*
X136015226Y-118319028D01*
X136004422Y-118319500D01*
X116061499Y-118319500D01*
X116059806Y-118319003D01*
X116014130Y-118319459D01*
X116005877Y-118319266D01*
X115886660Y-118312511D01*
X115870252Y-118310478D01*
X115757073Y-118288707D01*
X115741082Y-118284508D01*
X115701764Y-118271327D01*
X115641767Y-118251213D01*
X115638864Y-118250200D01*
X115626717Y-118245787D01*
X115614354Y-118240521D01*
X115509308Y-118188882D01*
X115503141Y-118185632D01*
X115461239Y-118162022D01*
X115460997Y-118161773D01*
X115460121Y-118161385D01*
X111769390Y-116031062D01*
X104588503Y-111886189D01*
X104588504Y-111886186D01*
X104588491Y-111886183D01*
X104410462Y-111783398D01*
X102709213Y-110801181D01*
X100504941Y-109528543D01*
X100495820Y-109522733D01*
X100374691Y-109437922D01*
X100362842Y-109428497D01*
X100337922Y-109406060D01*
X100333213Y-109401591D01*
X100242003Y-109310385D01*
X100228110Y-109293829D01*
X100140612Y-109168878D01*
X100129804Y-109150159D01*
X100065342Y-109011932D01*
X100057948Y-108991622D01*
X100024554Y-108867013D01*
X100023040Y-108860705D01*
X100021272Y-108852393D01*
X100016063Y-108827892D01*
X100013829Y-108812952D01*
X100000971Y-108666064D01*
X100000500Y-108655253D01*
X100000500Y-106259760D01*
X100002026Y-106240364D01*
X100004914Y-106222127D01*
X100009639Y-106192293D01*
X100021624Y-106155406D01*
X100039237Y-106120839D01*
X100062033Y-106089464D01*
X100089464Y-106062033D01*
X100120839Y-106039237D01*
X100155406Y-106021624D01*
X100192293Y-106009639D01*
X100240365Y-106002025D01*
X100259760Y-106000500D01*
X104568995Y-106000500D01*
X104660041Y-105982389D01*
X104704328Y-105973580D01*
X104728376Y-105963618D01*
X104731927Y-105962809D01*
X104741726Y-105958089D01*
X104831811Y-105920775D01*
X104864331Y-105899045D01*
X104873601Y-105894582D01*
X104886978Y-105883913D01*
X104946542Y-105844114D01*
X104984570Y-105806085D01*
X104996541Y-105796541D01*
X105006088Y-105784567D01*
X105044114Y-105746542D01*
X105083913Y-105686978D01*
X105094582Y-105673601D01*
X105099045Y-105664331D01*
X105120775Y-105631811D01*
X105158089Y-105541726D01*
X105162809Y-105531927D01*
X105163618Y-105528376D01*
X105173580Y-105504328D01*
X105200500Y-105368993D01*
X105200500Y-105300000D01*
X105200500Y-105299500D01*
X105200500Y-105231007D01*
X105200500Y-105231004D01*
X105173581Y-105095678D01*
X105173580Y-105095674D01*
X105173580Y-105095672D01*
X105163619Y-105071624D01*
X105162809Y-105068073D01*
X105158084Y-105058263D01*
X105120775Y-104968189D01*
X105120775Y-104968188D01*
X105103887Y-104942915D01*
X105103887Y-104942914D01*
X105099046Y-104935670D01*
X105094582Y-104926399D01*
X105083908Y-104913014D01*
X105044114Y-104853458D01*
X105044112Y-104853455D01*
X105044110Y-104853453D01*
X105011021Y-104820365D01*
X105006093Y-104815437D01*
X104996541Y-104803459D01*
X104984562Y-104793906D01*
X104979634Y-104788978D01*
X104946545Y-104755888D01*
X104946544Y-104755887D01*
X104926334Y-104742383D01*
X104886982Y-104716089D01*
X104873601Y-104705418D01*
X104864332Y-104700954D01*
X104857093Y-104696117D01*
X104857087Y-104696114D01*
X104831814Y-104679227D01*
X104831813Y-104679226D01*
X104831811Y-104679225D01*
X104831808Y-104679223D01*
X104831803Y-104679221D01*
X104744957Y-104643249D01*
X104744952Y-104643247D01*
X104741733Y-104641913D01*
X104731927Y-104637191D01*
X104728380Y-104636381D01*
X104718736Y-104632386D01*
X104718727Y-104632384D01*
X104714873Y-104630788D01*
X104704328Y-104626420D01*
X104704324Y-104626419D01*
X104568995Y-104599500D01*
X104568993Y-104599500D01*
X104500207Y-104599500D01*
X104389801Y-104599500D01*
X104322762Y-104579815D01*
X104277007Y-104527011D01*
X104265804Y-104476362D01*
X104261801Y-103900500D01*
X104252930Y-102624516D01*
X104272148Y-102557344D01*
X104324633Y-102511223D01*
X104393720Y-102500799D01*
X104457476Y-102529382D01*
X104464608Y-102535976D01*
X106773181Y-104844548D01*
X106806666Y-104905871D01*
X106809500Y-104932229D01*
X106809500Y-106116321D01*
X106789815Y-106183360D01*
X106752811Y-106218647D01*
X106753625Y-106219865D01*
X106750239Y-106222127D01*
X106645555Y-106302455D01*
X106645545Y-106302464D01*
X106552464Y-106395545D01*
X106552455Y-106395555D01*
X106472132Y-106500232D01*
X106472120Y-106500250D01*
X106406303Y-106614248D01*
X106406302Y-106614249D01*
X106355800Y-106736170D01*
X106321724Y-106863341D01*
X106304500Y-106994166D01*
X106304500Y-107560002D01*
X106309644Y-107631940D01*
X106350182Y-107769994D01*
X106427967Y-107891030D01*
X106427971Y-107891034D01*
X106536700Y-107985249D01*
X106536706Y-107985254D01*
X106577174Y-108003735D01*
X106667580Y-108045023D01*
X106667583Y-108045023D01*
X106667584Y-108045024D01*
X106810000Y-108065500D01*
X106810003Y-108065500D01*
X108310000Y-108065500D01*
X108381940Y-108060355D01*
X108519992Y-108019819D01*
X108641032Y-107942031D01*
X108735254Y-107833294D01*
X108795024Y-107702416D01*
X108815500Y-107560000D01*
X108815500Y-106994174D01*
X108798275Y-106863338D01*
X108764200Y-106736171D01*
X108713701Y-106614257D01*
X108713698Y-106614252D01*
X108713697Y-106614249D01*
X108713696Y-106614248D01*
X108647879Y-106500250D01*
X108647875Y-106500243D01*
X108608320Y-106448695D01*
X108567544Y-106395555D01*
X108567541Y-106395551D01*
X108474449Y-106302459D01*
X108433848Y-106271304D01*
X108369760Y-106222127D01*
X108366375Y-106219865D01*
X108367386Y-106218350D01*
X108324277Y-106173127D01*
X108310500Y-106116321D01*
X108310500Y-104539808D01*
X108330185Y-104472769D01*
X108382989Y-104427014D01*
X108452147Y-104417070D01*
X108515703Y-104446095D01*
X108522181Y-104452127D01*
X114093057Y-110023003D01*
X114126542Y-110084326D01*
X114121558Y-110154018D01*
X114079686Y-110209951D01*
X114014222Y-110234368D01*
X113945949Y-110219516D01*
X113939404Y-110215678D01*
X113808096Y-110133172D01*
X113534880Y-110001598D01*
X113534866Y-110001592D01*
X113248645Y-109901438D01*
X113248633Y-109901434D01*
X112952982Y-109833954D01*
X112952966Y-109833952D01*
X112651633Y-109800000D01*
X112348366Y-109800000D01*
X112047033Y-109833952D01*
X112047017Y-109833954D01*
X111751366Y-109901434D01*
X111751354Y-109901438D01*
X111465133Y-110001592D01*
X111465119Y-110001598D01*
X111191903Y-110133172D01*
X110935127Y-110294515D01*
X110775425Y-110421871D01*
X111917263Y-111563709D01*
X111783398Y-111660967D01*
X111660967Y-111783398D01*
X111563709Y-111917263D01*
X110939938Y-111293492D01*
X111133274Y-111293492D01*
X111133274Y-111373056D01*
X111163722Y-111446565D01*
X111219983Y-111502826D01*
X111293492Y-111533274D01*
X111373056Y-111533274D01*
X111446565Y-111502826D01*
X111502826Y-111446565D01*
X111533274Y-111373056D01*
X111533274Y-111293492D01*
X111502826Y-111219983D01*
X111446565Y-111163722D01*
X111373056Y-111133274D01*
X111293492Y-111133274D01*
X111219983Y-111163722D01*
X111163722Y-111219983D01*
X111133274Y-111293492D01*
X110939938Y-111293492D01*
X110421871Y-110775425D01*
X110294515Y-110935127D01*
X110133172Y-111191903D01*
X110001598Y-111465119D01*
X110001592Y-111465133D01*
X109901438Y-111751354D01*
X109901434Y-111751366D01*
X109833954Y-112047017D01*
X109833952Y-112047033D01*
X109800000Y-112348366D01*
X109800000Y-112651633D01*
X109833952Y-112952966D01*
X109833954Y-112952982D01*
X109901434Y-113248633D01*
X109901438Y-113248645D01*
X110001592Y-113534866D01*
X110001598Y-113534880D01*
X110133172Y-113808096D01*
X110294515Y-114064872D01*
X110421871Y-114224573D01*
X111019500Y-113626944D01*
X111133274Y-113626944D01*
X111133274Y-113706508D01*
X111163722Y-113780017D01*
X111219983Y-113836278D01*
X111293492Y-113866726D01*
X111373056Y-113866726D01*
X111446565Y-113836278D01*
X111502826Y-113780017D01*
X111533274Y-113706508D01*
X111533274Y-113626944D01*
X111502826Y-113553435D01*
X111446565Y-113497174D01*
X111373056Y-113466726D01*
X111293492Y-113466726D01*
X111219983Y-113497174D01*
X111163722Y-113553435D01*
X111133274Y-113626944D01*
X111019500Y-113626944D01*
X111563708Y-113082736D01*
X111660967Y-113216602D01*
X111783398Y-113339033D01*
X111917262Y-113436290D01*
X110775425Y-114578127D01*
X110935127Y-114705484D01*
X111191903Y-114866827D01*
X111465119Y-114998401D01*
X111465133Y-114998407D01*
X111751354Y-115098561D01*
X111751366Y-115098565D01*
X112047017Y-115166045D01*
X112047033Y-115166047D01*
X112348366Y-115199999D01*
X112348368Y-115200000D01*
X112651632Y-115200000D01*
X112651633Y-115199999D01*
X112952966Y-115166047D01*
X112952982Y-115166045D01*
X113248633Y-115098565D01*
X113248645Y-115098561D01*
X113534866Y-114998407D01*
X113534880Y-114998401D01*
X113808096Y-114866827D01*
X114064872Y-114705484D01*
X114224573Y-114578126D01*
X113273391Y-113626944D01*
X113466726Y-113626944D01*
X113466726Y-113706508D01*
X113497174Y-113780017D01*
X113553435Y-113836278D01*
X113626944Y-113866726D01*
X113706508Y-113866726D01*
X113780017Y-113836278D01*
X113836278Y-113780017D01*
X113866726Y-113706508D01*
X113866726Y-113626944D01*
X113836278Y-113553435D01*
X113780017Y-113497174D01*
X113706508Y-113466726D01*
X113626944Y-113466726D01*
X113553435Y-113497174D01*
X113497174Y-113553435D01*
X113466726Y-113626944D01*
X113273391Y-113626944D01*
X113082737Y-113436290D01*
X113216602Y-113339033D01*
X113339033Y-113216602D01*
X113436290Y-113082737D01*
X114578126Y-114224573D01*
X114705484Y-114064872D01*
X114866827Y-113808096D01*
X114998401Y-113534880D01*
X114998407Y-113534866D01*
X115098561Y-113248645D01*
X115098565Y-113248633D01*
X115166045Y-112952982D01*
X115166047Y-112952966D01*
X115199999Y-112651633D01*
X115200000Y-112651631D01*
X115200000Y-112348368D01*
X115199999Y-112348366D01*
X115166047Y-112047033D01*
X115166045Y-112047017D01*
X115098565Y-111751366D01*
X115098561Y-111751354D01*
X114998407Y-111465133D01*
X114998401Y-111465119D01*
X114905397Y-111271995D01*
X114894045Y-111203054D01*
X114921767Y-111138919D01*
X114979762Y-111099953D01*
X115041309Y-111096576D01*
X115111306Y-111110500D01*
X115111309Y-111110500D01*
X115288693Y-111110500D01*
X115288694Y-111110499D01*
X115358691Y-111096576D01*
X115462658Y-111075896D01*
X115462661Y-111075894D01*
X115462666Y-111075894D01*
X115626547Y-111008013D01*
X115774035Y-110909464D01*
X115793717Y-110889782D01*
X115882319Y-110801181D01*
X115943642Y-110767696D01*
X116013334Y-110772680D01*
X116057681Y-110801181D01*
X116160961Y-110904461D01*
X116160965Y-110904464D01*
X116308446Y-111003009D01*
X116308459Y-111003016D01*
X116421891Y-111050000D01*
X116472334Y-111070894D01*
X116472336Y-111070894D01*
X116472341Y-111070896D01*
X116646304Y-111105499D01*
X116646307Y-111105500D01*
X116646309Y-111105500D01*
X116823693Y-111105500D01*
X116823694Y-111105499D01*
X116881682Y-111093964D01*
X116997658Y-111070896D01*
X116997661Y-111070894D01*
X116997666Y-111070894D01*
X117149476Y-111008013D01*
X117161540Y-111003016D01*
X117161540Y-111003015D01*
X117161547Y-111003013D01*
X117309035Y-110904464D01*
X117386774Y-110826724D01*
X117448095Y-110793241D01*
X117517787Y-110798225D01*
X117562135Y-110826726D01*
X123518181Y-116782771D01*
X123551666Y-116844094D01*
X123554500Y-116870452D01*
X123554500Y-117011610D01*
X123578333Y-117131433D01*
X123578335Y-117131437D01*
X123578537Y-117132452D01*
X123578604Y-117132613D01*
X123625688Y-117246286D01*
X123659915Y-117297509D01*
X123664297Y-117304067D01*
X123664300Y-117304073D01*
X123694141Y-117348733D01*
X123785586Y-117440178D01*
X123785608Y-117440198D01*
X124151016Y-117805606D01*
X124151045Y-117805637D01*
X124241263Y-117895855D01*
X124241267Y-117895858D01*
X124343707Y-117964307D01*
X124343711Y-117964309D01*
X124343714Y-117964311D01*
X124457548Y-118011463D01*
X124517971Y-118023481D01*
X124578393Y-118035500D01*
X125711607Y-118035500D01*
X125772029Y-118023481D01*
X125832452Y-118011463D01*
X125865792Y-117997652D01*
X125946286Y-117964312D01*
X125997509Y-117930084D01*
X126048733Y-117895858D01*
X126135858Y-117808733D01*
X126135859Y-117808731D01*
X126142925Y-117801665D01*
X126142928Y-117801661D01*
X126387723Y-117556866D01*
X126387727Y-117556864D01*
X126474852Y-117469739D01*
X126543305Y-117367292D01*
X126543306Y-117367291D01*
X126564985Y-117314950D01*
X126565758Y-117313234D01*
X126569436Y-117308941D01*
X126591152Y-117276440D01*
X126688458Y-117179136D01*
X126787007Y-117031648D01*
X126854888Y-116867767D01*
X126889494Y-116693792D01*
X126889494Y-116516410D01*
X126889494Y-116516407D01*
X126889493Y-116516405D01*
X126854890Y-116342442D01*
X126854887Y-116342433D01*
X126787010Y-116178560D01*
X126787003Y-116178547D01*
X126688458Y-116031066D01*
X126688455Y-116031062D01*
X126563032Y-115905639D01*
X126563028Y-115905636D01*
X126415547Y-115807091D01*
X126415534Y-115807084D01*
X126251661Y-115739207D01*
X126251652Y-115739204D01*
X126077688Y-115704601D01*
X126077685Y-115704601D01*
X125900303Y-115704601D01*
X125900300Y-115704601D01*
X125726335Y-115739204D01*
X125726326Y-115739207D01*
X125562454Y-115807084D01*
X125562438Y-115807093D01*
X125526706Y-115830968D01*
X125460028Y-115851845D01*
X125392648Y-115833359D01*
X125370136Y-115815546D01*
X116801819Y-107247229D01*
X116787115Y-107220301D01*
X116770523Y-107194483D01*
X116769631Y-107188282D01*
X116768334Y-107185906D01*
X116765500Y-107159548D01*
X116765500Y-107059361D01*
X116785185Y-106992322D01*
X116801820Y-106971679D01*
X116839461Y-106934038D01*
X116839464Y-106934035D01*
X116938013Y-106786547D01*
X117005894Y-106622666D01*
X117007569Y-106614249D01*
X117040499Y-106448695D01*
X117040500Y-106448693D01*
X117040500Y-106271306D01*
X117040499Y-106271304D01*
X117005896Y-106097341D01*
X117005893Y-106097332D01*
X116938016Y-105933459D01*
X116938009Y-105933446D01*
X116839464Y-105785965D01*
X116839461Y-105785961D01*
X116714038Y-105660538D01*
X116714034Y-105660535D01*
X116566553Y-105561990D01*
X116566540Y-105561983D01*
X116402667Y-105494106D01*
X116402658Y-105494103D01*
X116228694Y-105459500D01*
X116228691Y-105459500D01*
X116051309Y-105459500D01*
X116051306Y-105459500D01*
X115877341Y-105494103D01*
X115877332Y-105494106D01*
X115713459Y-105561983D01*
X115713446Y-105561990D01*
X115565965Y-105660535D01*
X115565961Y-105660538D01*
X115440538Y-105785961D01*
X115440535Y-105785965D01*
X115408079Y-105834539D01*
X115354466Y-105879344D01*
X115285141Y-105888051D01*
X115222114Y-105857896D01*
X115201875Y-105834538D01*
X115189467Y-105815969D01*
X115189461Y-105815961D01*
X115064038Y-105690538D01*
X115064034Y-105690535D01*
X114916553Y-105591990D01*
X114916540Y-105591983D01*
X114752667Y-105524106D01*
X114752658Y-105524103D01*
X114578694Y-105489500D01*
X114578691Y-105489500D01*
X114401309Y-105489500D01*
X114401306Y-105489500D01*
X114227341Y-105524103D01*
X114227332Y-105524106D01*
X114063459Y-105591983D01*
X114063446Y-105591990D01*
X113915965Y-105690535D01*
X113915961Y-105690538D01*
X113790538Y-105815961D01*
X113790535Y-105815965D01*
X113691990Y-105963446D01*
X113691985Y-105963456D01*
X113681408Y-105988992D01*
X113637566Y-106043396D01*
X113571272Y-106065460D01*
X113503573Y-106048180D01*
X113479166Y-106029220D01*
X109721819Y-102271873D01*
X109688334Y-102210550D01*
X109685500Y-102184192D01*
X109685500Y-102166306D01*
X109685499Y-102166304D01*
X109650896Y-101992341D01*
X109650893Y-101992332D01*
X109628250Y-101937666D01*
X109583013Y-101828453D01*
X109583011Y-101828451D01*
X109583011Y-101828449D01*
X109556398Y-101788620D01*
X109550747Y-101770573D01*
X109540523Y-101754664D01*
X109536071Y-101723702D01*
X109535520Y-101721942D01*
X109535500Y-101719729D01*
X109535500Y-101586304D01*
X117829500Y-101586304D01*
X117829500Y-101763695D01*
X117864103Y-101937658D01*
X117864106Y-101937667D01*
X117931983Y-102101540D01*
X117931990Y-102101553D01*
X118030535Y-102249034D01*
X118030538Y-102249038D01*
X118155961Y-102374461D01*
X118155965Y-102374464D01*
X118303446Y-102473009D01*
X118303459Y-102473016D01*
X118395701Y-102511223D01*
X118467334Y-102540894D01*
X118467336Y-102540894D01*
X118467341Y-102540896D01*
X118641304Y-102575499D01*
X118641307Y-102575500D01*
X118641309Y-102575500D01*
X118818693Y-102575500D01*
X118818694Y-102575499D01*
X118909967Y-102557344D01*
X118992658Y-102540896D01*
X118992661Y-102540894D01*
X118992666Y-102540894D01*
X119156547Y-102473013D01*
X119203862Y-102441397D01*
X119270538Y-102420520D01*
X119272753Y-102420500D01*
X123917770Y-102420500D01*
X123984809Y-102440185D01*
X124005451Y-102456819D01*
X126713181Y-105164548D01*
X126746666Y-105225871D01*
X126749500Y-105252229D01*
X126749500Y-113524729D01*
X126729815Y-113591768D01*
X126728602Y-113593620D01*
X126701988Y-113633449D01*
X126701987Y-113633452D01*
X126634106Y-113797332D01*
X126634103Y-113797341D01*
X126599500Y-113971304D01*
X126599500Y-114148695D01*
X126634103Y-114322658D01*
X126634106Y-114322667D01*
X126701983Y-114486540D01*
X126701990Y-114486553D01*
X126800535Y-114634034D01*
X126800538Y-114634038D01*
X126925961Y-114759461D01*
X126925965Y-114759464D01*
X127073446Y-114858009D01*
X127073459Y-114858016D01*
X127196363Y-114908923D01*
X127237334Y-114925894D01*
X127237336Y-114925894D01*
X127237341Y-114925896D01*
X127411304Y-114960499D01*
X127411307Y-114960500D01*
X127411309Y-114960500D01*
X127588693Y-114960500D01*
X127588694Y-114960499D01*
X127646682Y-114948964D01*
X127762658Y-114925896D01*
X127762661Y-114925894D01*
X127762666Y-114925894D01*
X127926547Y-114858013D01*
X128074035Y-114759464D01*
X128199464Y-114634035D01*
X128298013Y-114486547D01*
X128365894Y-114322666D01*
X128366514Y-114319552D01*
X128400499Y-114148695D01*
X128400500Y-114148693D01*
X128400500Y-113971306D01*
X128400499Y-113971304D01*
X128365896Y-113797341D01*
X128365893Y-113797332D01*
X128328273Y-113706508D01*
X128298013Y-113633453D01*
X128298011Y-113633451D01*
X128298011Y-113633449D01*
X128271398Y-113593620D01*
X128250520Y-113526942D01*
X128250500Y-113524729D01*
X128250500Y-104816080D01*
X128242425Y-104775489D01*
X128231067Y-104718387D01*
X128221659Y-104671088D01*
X128166100Y-104536959D01*
X128165411Y-104534995D01*
X128160076Y-104527011D01*
X128110205Y-104452373D01*
X128082952Y-104411585D01*
X127571867Y-103900500D01*
X124758421Y-101087052D01*
X124758414Y-101087046D01*
X124684729Y-101037812D01*
X124684729Y-101037813D01*
X124635491Y-101004913D01*
X124498917Y-100948343D01*
X124498907Y-100948340D01*
X124353920Y-100919500D01*
X124353918Y-100919500D01*
X119257787Y-100919500D01*
X119190748Y-100899815D01*
X119188895Y-100898601D01*
X119156551Y-100876989D01*
X119156547Y-100876987D01*
X118992667Y-100809106D01*
X118992658Y-100809103D01*
X118818694Y-100774500D01*
X118818691Y-100774500D01*
X118641309Y-100774500D01*
X118641306Y-100774500D01*
X118467341Y-100809103D01*
X118467332Y-100809106D01*
X118303459Y-100876983D01*
X118303446Y-100876990D01*
X118155965Y-100975535D01*
X118155961Y-100975538D01*
X118030538Y-101100961D01*
X118030535Y-101100965D01*
X117931990Y-101248446D01*
X117931983Y-101248459D01*
X117864106Y-101412332D01*
X117864103Y-101412341D01*
X117829500Y-101586304D01*
X109535500Y-101586304D01*
X109535500Y-95761304D01*
X118459500Y-95761304D01*
X118459500Y-95938695D01*
X118494103Y-96112658D01*
X118494106Y-96112667D01*
X118561983Y-96276540D01*
X118561990Y-96276553D01*
X118660535Y-96424034D01*
X118660538Y-96424038D01*
X118785961Y-96549461D01*
X118785965Y-96549464D01*
X118933446Y-96648009D01*
X118933459Y-96648016D01*
X119056363Y-96698923D01*
X119097334Y-96715894D01*
X119097336Y-96715894D01*
X119097341Y-96715896D01*
X119271304Y-96750499D01*
X119271307Y-96750500D01*
X119271309Y-96750500D01*
X119448693Y-96750500D01*
X119448694Y-96750499D01*
X119506682Y-96738964D01*
X119622658Y-96715896D01*
X119622661Y-96715894D01*
X119622666Y-96715894D01*
X119786547Y-96648013D01*
X119786550Y-96648010D01*
X119786552Y-96648010D01*
X119826378Y-96621399D01*
X119893055Y-96600520D01*
X119895270Y-96600500D01*
X123454730Y-96600500D01*
X123521769Y-96620185D01*
X123523622Y-96621399D01*
X123563447Y-96648010D01*
X123563450Y-96648011D01*
X123563453Y-96648013D01*
X123727334Y-96715894D01*
X123727336Y-96715894D01*
X123727341Y-96715896D01*
X123901304Y-96750499D01*
X123901307Y-96750500D01*
X123901309Y-96750500D01*
X124078693Y-96750500D01*
X124078694Y-96750499D01*
X124136682Y-96738964D01*
X124252658Y-96715896D01*
X124252661Y-96715894D01*
X124252666Y-96715894D01*
X124416547Y-96648013D01*
X124564035Y-96549464D01*
X124689464Y-96424035D01*
X124788013Y-96276547D01*
X124855894Y-96112666D01*
X124890500Y-95938691D01*
X124890500Y-95761309D01*
X124890500Y-95761306D01*
X124890499Y-95761304D01*
X124855896Y-95587341D01*
X124855893Y-95587332D01*
X124788016Y-95423459D01*
X124788009Y-95423446D01*
X124689464Y-95275965D01*
X124689461Y-95275961D01*
X124564038Y-95150538D01*
X124564034Y-95150535D01*
X124416553Y-95051990D01*
X124416540Y-95051983D01*
X124252667Y-94984106D01*
X124252658Y-94984103D01*
X124078694Y-94949500D01*
X124078691Y-94949500D01*
X123901309Y-94949500D01*
X123901306Y-94949500D01*
X123727341Y-94984103D01*
X123727332Y-94984106D01*
X123563452Y-95051987D01*
X123563447Y-95051989D01*
X123523622Y-95078601D01*
X123456945Y-95099480D01*
X123454730Y-95099500D01*
X119895270Y-95099500D01*
X119828231Y-95079815D01*
X119826378Y-95078601D01*
X119786552Y-95051989D01*
X119786547Y-95051987D01*
X119622667Y-94984106D01*
X119622658Y-94984103D01*
X119448694Y-94949500D01*
X119448691Y-94949500D01*
X119271309Y-94949500D01*
X119271306Y-94949500D01*
X119097341Y-94984103D01*
X119097332Y-94984106D01*
X118933459Y-95051983D01*
X118933446Y-95051990D01*
X118785965Y-95150535D01*
X118785961Y-95150538D01*
X118660538Y-95275961D01*
X118660535Y-95275965D01*
X118561990Y-95423446D01*
X118561983Y-95423459D01*
X118494106Y-95587332D01*
X118494103Y-95587341D01*
X118459500Y-95761304D01*
X109535500Y-95761304D01*
X109535500Y-94577228D01*
X109555185Y-94510189D01*
X109571814Y-94489551D01*
X110731193Y-93330172D01*
X110792514Y-93296689D01*
X110838265Y-93295382D01*
X110933713Y-93310500D01*
X110933715Y-93310500D01*
X111146286Y-93310500D01*
X111146287Y-93310500D01*
X111356243Y-93277246D01*
X111558412Y-93211557D01*
X111747816Y-93115051D01*
X111887136Y-93013830D01*
X111919786Y-92990109D01*
X111919788Y-92990106D01*
X111919792Y-92990104D01*
X112070104Y-92839792D01*
X112070106Y-92839788D01*
X112070109Y-92839786D01*
X112155890Y-92721717D01*
X112195051Y-92667816D01*
X112199793Y-92658508D01*
X112247763Y-92607711D01*
X112315583Y-92590911D01*
X112381719Y-92613445D01*
X112420763Y-92658500D01*
X112425373Y-92667547D01*
X112464728Y-92721716D01*
X113097037Y-92089408D01*
X113114075Y-92152993D01*
X113179901Y-92267007D01*
X113272993Y-92360099D01*
X113387007Y-92425925D01*
X113450590Y-92442962D01*
X112818282Y-93075269D01*
X112818282Y-93075270D01*
X112872449Y-93114624D01*
X113061782Y-93211095D01*
X113263870Y-93276757D01*
X113473754Y-93310000D01*
X113686246Y-93310000D01*
X113896127Y-93276757D01*
X113896130Y-93276757D01*
X114098217Y-93211095D01*
X114287554Y-93114622D01*
X114341716Y-93075270D01*
X114341717Y-93075270D01*
X113709408Y-92442962D01*
X113772993Y-92425925D01*
X113887007Y-92360099D01*
X113980099Y-92267007D01*
X114045925Y-92152993D01*
X114062962Y-92089408D01*
X114695270Y-92721717D01*
X114695270Y-92721716D01*
X114734622Y-92667554D01*
X114831095Y-92478217D01*
X114896757Y-92276130D01*
X114896757Y-92276127D01*
X114930000Y-92066246D01*
X114930000Y-91853753D01*
X114896757Y-91643872D01*
X114896757Y-91643869D01*
X114831095Y-91441782D01*
X114734624Y-91252449D01*
X114695270Y-91198282D01*
X114695269Y-91198282D01*
X114062962Y-91830590D01*
X114045925Y-91767007D01*
X113980099Y-91652993D01*
X113887007Y-91559901D01*
X113772993Y-91494075D01*
X113709409Y-91477037D01*
X114341716Y-90844728D01*
X114287550Y-90805375D01*
X114098217Y-90708904D01*
X113896129Y-90643242D01*
X113686246Y-90610000D01*
X113473754Y-90610000D01*
X113263872Y-90643242D01*
X113263869Y-90643242D01*
X113061782Y-90708904D01*
X112872439Y-90805380D01*
X112818282Y-90844727D01*
X112818282Y-90844728D01*
X113450591Y-91477037D01*
X113387007Y-91494075D01*
X113272993Y-91559901D01*
X113179901Y-91652993D01*
X113114075Y-91767007D01*
X113097037Y-91830591D01*
X112464728Y-91198282D01*
X112464727Y-91198282D01*
X112425380Y-91252440D01*
X112425376Y-91252446D01*
X112420760Y-91261505D01*
X112372781Y-91312297D01*
X112304959Y-91329087D01*
X112238826Y-91306543D01*
X112199794Y-91261493D01*
X112195051Y-91252184D01*
X112195049Y-91252181D01*
X112195048Y-91252179D01*
X112070109Y-91080213D01*
X111919786Y-90929890D01*
X111747820Y-90804951D01*
X111558414Y-90708444D01*
X111558413Y-90708443D01*
X111558412Y-90708443D01*
X111356243Y-90642754D01*
X111356241Y-90642753D01*
X111356240Y-90642753D01*
X111194957Y-90617208D01*
X111146287Y-90609500D01*
X110933713Y-90609500D01*
X110885042Y-90617208D01*
X110723760Y-90642753D01*
X110622672Y-90675598D01*
X110528501Y-90706197D01*
X110521585Y-90708444D01*
X110332179Y-90804951D01*
X110160215Y-90929889D01*
X110046673Y-91043431D01*
X109985350Y-91076915D01*
X109915658Y-91071931D01*
X109859725Y-91030059D01*
X109842810Y-90999082D01*
X109793797Y-90867671D01*
X109793793Y-90867664D01*
X109707547Y-90752455D01*
X109707544Y-90752452D01*
X109592335Y-90666206D01*
X109592328Y-90666202D01*
X109457482Y-90615908D01*
X109457483Y-90615908D01*
X109397883Y-90609501D01*
X109397881Y-90609500D01*
X109397873Y-90609500D01*
X109397864Y-90609500D01*
X107602129Y-90609500D01*
X107602123Y-90609501D01*
X107542516Y-90615908D01*
X107407671Y-90666202D01*
X107407664Y-90666206D01*
X107292455Y-90752452D01*
X107292452Y-90752455D01*
X107206206Y-90867664D01*
X107206202Y-90867671D01*
X107155908Y-91002517D01*
X107149501Y-91062116D01*
X107149500Y-91062135D01*
X107149500Y-92857870D01*
X107149501Y-92857876D01*
X107155908Y-92917481D01*
X107175682Y-92970496D01*
X107183500Y-93013830D01*
X107183500Y-102520993D01*
X107182536Y-102526380D01*
X107183212Y-102529436D01*
X107178082Y-102551303D01*
X107175822Y-102563948D01*
X107172713Y-102572365D01*
X107171987Y-102573453D01*
X107104106Y-102737334D01*
X107095128Y-102782467D01*
X107091740Y-102791643D01*
X107076494Y-102812147D01*
X107064650Y-102834791D01*
X107055993Y-102839720D01*
X107050051Y-102847713D01*
X107026139Y-102856720D01*
X107003934Y-102869365D01*
X106993987Y-102868831D01*
X106984667Y-102872343D01*
X106959682Y-102866992D01*
X106934165Y-102865625D01*
X106924318Y-102859420D01*
X106916346Y-102857713D01*
X106907219Y-102848645D01*
X106887737Y-102836369D01*
X104271932Y-100220564D01*
X104238447Y-100159241D01*
X104235616Y-100133745D01*
X104207664Y-96112666D01*
X104203582Y-95525362D01*
X104222800Y-95458187D01*
X104275285Y-95412066D01*
X104327579Y-95400500D01*
X104568995Y-95400500D01*
X104660041Y-95382389D01*
X104704328Y-95373580D01*
X104728376Y-95363618D01*
X104731927Y-95362809D01*
X104741726Y-95358089D01*
X104831811Y-95320775D01*
X104864331Y-95299045D01*
X104873601Y-95294582D01*
X104886978Y-95283913D01*
X104946542Y-95244114D01*
X104984570Y-95206085D01*
X104996541Y-95196541D01*
X105006088Y-95184567D01*
X105044114Y-95146542D01*
X105083913Y-95086978D01*
X105094582Y-95073601D01*
X105099045Y-95064331D01*
X105120775Y-95031811D01*
X105158089Y-94941726D01*
X105162809Y-94931927D01*
X105163618Y-94928376D01*
X105173580Y-94904328D01*
X105200500Y-94768993D01*
X105200500Y-94700000D01*
X105200500Y-94699500D01*
X105200500Y-94631007D01*
X105200500Y-94631004D01*
X105173581Y-94495678D01*
X105173580Y-94495674D01*
X105173580Y-94495672D01*
X105163619Y-94471624D01*
X105162809Y-94468073D01*
X105158084Y-94458263D01*
X105120775Y-94368189D01*
X105120775Y-94368188D01*
X105103887Y-94342915D01*
X105103887Y-94342914D01*
X105099046Y-94335670D01*
X105094582Y-94326399D01*
X105083908Y-94313014D01*
X105044114Y-94253458D01*
X105044112Y-94253455D01*
X105044110Y-94253453D01*
X105011021Y-94220365D01*
X105006093Y-94215437D01*
X104996541Y-94203459D01*
X104984562Y-94193906D01*
X104979634Y-94188978D01*
X104946545Y-94155888D01*
X104946544Y-94155887D01*
X104926334Y-94142383D01*
X104886982Y-94116089D01*
X104873601Y-94105418D01*
X104864332Y-94100954D01*
X104857093Y-94096117D01*
X104857087Y-94096114D01*
X104831814Y-94079227D01*
X104831813Y-94079226D01*
X104831811Y-94079225D01*
X104831808Y-94079223D01*
X104831803Y-94079221D01*
X104744957Y-94043249D01*
X104744952Y-94043247D01*
X104741733Y-94041913D01*
X104731927Y-94037191D01*
X104728380Y-94036381D01*
X104718736Y-94032386D01*
X104718727Y-94032384D01*
X104714873Y-94030788D01*
X104704328Y-94026420D01*
X104704324Y-94026419D01*
X104568995Y-93999500D01*
X104568993Y-93999500D01*
X104500207Y-93999500D01*
X100259757Y-93999500D01*
X100240359Y-93997973D01*
X100192299Y-93990361D01*
X100155401Y-93978372D01*
X100120844Y-93960764D01*
X100089459Y-93937961D01*
X100062037Y-93910539D01*
X100039233Y-93879152D01*
X100021627Y-93844598D01*
X100009638Y-93807700D01*
X100006783Y-93789675D01*
X100002026Y-93759635D01*
X100000500Y-93740239D01*
X100000500Y-91345171D01*
X100000972Y-91334358D01*
X100003407Y-91306543D01*
X100013866Y-91187058D01*
X100016105Y-91172090D01*
X100023078Y-91139290D01*
X100024582Y-91133022D01*
X100057985Y-91008382D01*
X100065374Y-90988083D01*
X100129844Y-90849841D01*
X100140644Y-90831137D01*
X100228137Y-90706194D01*
X100242028Y-90689640D01*
X100333269Y-90598404D01*
X100337922Y-90593990D01*
X100362891Y-90571508D01*
X100374702Y-90562114D01*
X100496256Y-90477005D01*
X100505347Y-90471214D01*
X105914277Y-87348366D01*
X109800000Y-87348366D01*
X109800000Y-87651633D01*
X109833952Y-87952966D01*
X109833954Y-87952982D01*
X109901434Y-88248633D01*
X109901438Y-88248645D01*
X110001592Y-88534866D01*
X110001598Y-88534880D01*
X110133172Y-88808096D01*
X110294515Y-89064872D01*
X110421871Y-89224573D01*
X111019500Y-88626944D01*
X111133274Y-88626944D01*
X111133274Y-88706508D01*
X111163722Y-88780017D01*
X111219983Y-88836278D01*
X111293492Y-88866726D01*
X111373056Y-88866726D01*
X111446565Y-88836278D01*
X111502826Y-88780017D01*
X111533274Y-88706508D01*
X111533274Y-88626944D01*
X111502826Y-88553435D01*
X111446565Y-88497174D01*
X111373056Y-88466726D01*
X111293492Y-88466726D01*
X111219983Y-88497174D01*
X111163722Y-88553435D01*
X111133274Y-88626944D01*
X111019500Y-88626944D01*
X111563708Y-88082736D01*
X111660967Y-88216602D01*
X111783398Y-88339033D01*
X111917262Y-88436290D01*
X110775425Y-89578127D01*
X110935127Y-89705484D01*
X111191903Y-89866827D01*
X111465119Y-89998401D01*
X111465133Y-89998407D01*
X111751354Y-90098561D01*
X111751366Y-90098565D01*
X112047017Y-90166045D01*
X112047033Y-90166047D01*
X112348366Y-90199999D01*
X112348368Y-90200000D01*
X112651632Y-90200000D01*
X112651633Y-90199999D01*
X112952966Y-90166047D01*
X112952982Y-90166045D01*
X113248633Y-90098565D01*
X113248645Y-90098561D01*
X113534866Y-89998407D01*
X113534880Y-89998401D01*
X113808096Y-89866827D01*
X114064872Y-89705484D01*
X114224573Y-89578126D01*
X113273391Y-88626944D01*
X113466726Y-88626944D01*
X113466726Y-88706508D01*
X113497174Y-88780017D01*
X113553435Y-88836278D01*
X113626944Y-88866726D01*
X113706508Y-88866726D01*
X113780017Y-88836278D01*
X113836278Y-88780017D01*
X113866726Y-88706508D01*
X113866726Y-88626944D01*
X113836278Y-88553435D01*
X113780017Y-88497174D01*
X113706508Y-88466726D01*
X113626944Y-88466726D01*
X113553435Y-88497174D01*
X113497174Y-88553435D01*
X113466726Y-88626944D01*
X113273391Y-88626944D01*
X113082737Y-88436290D01*
X113216602Y-88339033D01*
X113339033Y-88216602D01*
X113436290Y-88082737D01*
X114578126Y-89224573D01*
X114705484Y-89064872D01*
X114866827Y-88808096D01*
X114998401Y-88534880D01*
X114998407Y-88534866D01*
X115098561Y-88248645D01*
X115098565Y-88248633D01*
X115166045Y-87952982D01*
X115166047Y-87952966D01*
X115198399Y-87665837D01*
X121709500Y-87665837D01*
X121709500Y-87894162D01*
X121745215Y-88119660D01*
X121815770Y-88336803D01*
X121868762Y-88440804D01*
X121919421Y-88540228D01*
X122053621Y-88724937D01*
X122215063Y-88886379D01*
X122399772Y-89020579D01*
X122486702Y-89064872D01*
X122603196Y-89124229D01*
X122603198Y-89124229D01*
X122603201Y-89124231D01*
X122719592Y-89162049D01*
X122820339Y-89194784D01*
X123045838Y-89230500D01*
X123045843Y-89230500D01*
X123274162Y-89230500D01*
X123499660Y-89194784D01*
X123716799Y-89124231D01*
X123920228Y-89020579D01*
X124104937Y-88886379D01*
X124266379Y-88724937D01*
X124400579Y-88540228D01*
X124504231Y-88336799D01*
X124574784Y-88119660D01*
X124581616Y-88076525D01*
X124610500Y-87894162D01*
X124610500Y-87665837D01*
X128709500Y-87665837D01*
X128709500Y-87894162D01*
X128745215Y-88119660D01*
X128815770Y-88336803D01*
X128868762Y-88440804D01*
X128919421Y-88540228D01*
X129053621Y-88724937D01*
X129215063Y-88886379D01*
X129399772Y-89020579D01*
X129486702Y-89064872D01*
X129603196Y-89124229D01*
X129603198Y-89124229D01*
X129603201Y-89124231D01*
X129719592Y-89162049D01*
X129820339Y-89194784D01*
X130045838Y-89230500D01*
X130045843Y-89230500D01*
X130274162Y-89230500D01*
X130499660Y-89194784D01*
X130716799Y-89124231D01*
X130920228Y-89020579D01*
X131104937Y-88886379D01*
X131266379Y-88724937D01*
X131400579Y-88540228D01*
X131504231Y-88336799D01*
X131574784Y-88119660D01*
X131581616Y-88076525D01*
X131610500Y-87894162D01*
X131610500Y-87665837D01*
X131574784Y-87440339D01*
X131539078Y-87330448D01*
X131504231Y-87223201D01*
X131504229Y-87223198D01*
X131504229Y-87223196D01*
X131449550Y-87115884D01*
X131400579Y-87019772D01*
X131266379Y-86835063D01*
X131104937Y-86673621D01*
X130920228Y-86539421D01*
X130908164Y-86533274D01*
X130716803Y-86435770D01*
X130499660Y-86365215D01*
X130274162Y-86329500D01*
X130274157Y-86329500D01*
X130045843Y-86329500D01*
X130045838Y-86329500D01*
X129820339Y-86365215D01*
X129603196Y-86435770D01*
X129399771Y-86539421D01*
X129215061Y-86673622D01*
X129053622Y-86835061D01*
X128919421Y-87019771D01*
X128815770Y-87223196D01*
X128745215Y-87440339D01*
X128709500Y-87665837D01*
X124610500Y-87665837D01*
X124574784Y-87440339D01*
X124539078Y-87330448D01*
X124504231Y-87223201D01*
X124504229Y-87223198D01*
X124504229Y-87223196D01*
X124449550Y-87115884D01*
X124400579Y-87019772D01*
X124266379Y-86835063D01*
X124104937Y-86673621D01*
X123920228Y-86539421D01*
X123908164Y-86533274D01*
X123716803Y-86435770D01*
X123499660Y-86365215D01*
X123274162Y-86329500D01*
X123274157Y-86329500D01*
X123045843Y-86329500D01*
X123045838Y-86329500D01*
X122820339Y-86365215D01*
X122603196Y-86435770D01*
X122399771Y-86539421D01*
X122215061Y-86673622D01*
X122053622Y-86835061D01*
X121919421Y-87019771D01*
X121815770Y-87223196D01*
X121745215Y-87440339D01*
X121709500Y-87665837D01*
X115198399Y-87665837D01*
X115200000Y-87651632D01*
X115200000Y-87348368D01*
X115199999Y-87348366D01*
X115166047Y-87047033D01*
X115166045Y-87047017D01*
X115098565Y-86751366D01*
X115098561Y-86751354D01*
X114998407Y-86465133D01*
X114998401Y-86465119D01*
X114866827Y-86191903D01*
X114705484Y-85935127D01*
X114578127Y-85775425D01*
X113436290Y-86917262D01*
X113339033Y-86783398D01*
X113216602Y-86660967D01*
X113082736Y-86563709D01*
X113352953Y-86293492D01*
X113466726Y-86293492D01*
X113466726Y-86373056D01*
X113497174Y-86446565D01*
X113553435Y-86502826D01*
X113626944Y-86533274D01*
X113706508Y-86533274D01*
X113780017Y-86502826D01*
X113836278Y-86446565D01*
X113866726Y-86373056D01*
X113866726Y-86293492D01*
X113836278Y-86219983D01*
X113780017Y-86163722D01*
X113706508Y-86133274D01*
X113626944Y-86133274D01*
X113553435Y-86163722D01*
X113497174Y-86219983D01*
X113466726Y-86293492D01*
X113352953Y-86293492D01*
X114224573Y-85421871D01*
X114064872Y-85294515D01*
X113808096Y-85133172D01*
X113534880Y-85001598D01*
X113534866Y-85001592D01*
X113248645Y-84901438D01*
X113248633Y-84901434D01*
X112952982Y-84833954D01*
X112952966Y-84833952D01*
X112651633Y-84800000D01*
X112348366Y-84800000D01*
X112047033Y-84833952D01*
X112047017Y-84833954D01*
X111751366Y-84901434D01*
X111751354Y-84901438D01*
X111465133Y-85001592D01*
X111465119Y-85001598D01*
X111191903Y-85133172D01*
X110935127Y-85294515D01*
X110775425Y-85421871D01*
X111917263Y-86563709D01*
X111783398Y-86660967D01*
X111660967Y-86783398D01*
X111563709Y-86917263D01*
X110939938Y-86293492D01*
X111133274Y-86293492D01*
X111133274Y-86373056D01*
X111163722Y-86446565D01*
X111219983Y-86502826D01*
X111293492Y-86533274D01*
X111373056Y-86533274D01*
X111446565Y-86502826D01*
X111502826Y-86446565D01*
X111533274Y-86373056D01*
X111533274Y-86293492D01*
X111502826Y-86219983D01*
X111446565Y-86163722D01*
X111373056Y-86133274D01*
X111293492Y-86133274D01*
X111219983Y-86163722D01*
X111163722Y-86219983D01*
X111133274Y-86293492D01*
X110939938Y-86293492D01*
X110421871Y-85775425D01*
X110294515Y-85935127D01*
X110133172Y-86191903D01*
X110001598Y-86465119D01*
X110001592Y-86465133D01*
X109901438Y-86751354D01*
X109901434Y-86751366D01*
X109833954Y-87047017D01*
X109833952Y-87047033D01*
X109800000Y-87348366D01*
X105914277Y-87348366D01*
X115496710Y-81815945D01*
X115503876Y-81812116D01*
X115608893Y-81760356D01*
X115621336Y-81755048D01*
X115632307Y-81751063D01*
X115634640Y-81750244D01*
X115734474Y-81716430D01*
X115750169Y-81712240D01*
X115853487Y-81691811D01*
X115856066Y-81691330D01*
X115867498Y-81689329D01*
X115880930Y-81687728D01*
X115997715Y-81680259D01*
X116005875Y-81680007D01*
X116052678Y-81680100D01*
X116053602Y-81679999D01*
X126987228Y-81680273D01*
G37*
G04 #@! TD.AperFunction*
M02*
