G04 #@! TF.GenerationSoftware,KiCad,Pcbnew,9.0.3*
G04 #@! TF.CreationDate,2025-07-22T22:33:48+01:00*
G04 #@! TF.ProjectId,dectspansion,64656374-7370-4616-9e73-696f6e2e6b69,rev?*
G04 #@! TF.SameCoordinates,Original*
G04 #@! TF.FileFunction,Copper,L3,Inr*
G04 #@! TF.FilePolarity,Positive*
%FSLAX46Y46*%
G04 Gerber Fmt 4.6, Leading zero omitted, Abs format (unit mm)*
G04 Created by KiCad (PCBNEW 9.0.3) date 2025-07-22 22:33:48*
%MOMM*%
%LPD*%
G01*
G04 APERTURE LIST*
G04 #@! TA.AperFunction,WasherPad*
%ADD10C,1.900000*%
G04 #@! TD*
G04 #@! TA.AperFunction,ComponentPad*
%ADD11C,0.700000*%
G04 #@! TD*
G04 #@! TA.AperFunction,ComponentPad*
%ADD12C,4.400000*%
G04 #@! TD*
G04 #@! TA.AperFunction,ComponentPad*
%ADD13R,1.700000X1.700000*%
G04 #@! TD*
G04 #@! TA.AperFunction,ComponentPad*
%ADD14C,1.700000*%
G04 #@! TD*
G04 #@! TA.AperFunction,ViaPad*
%ADD15C,0.800000*%
G04 #@! TD*
G04 APERTURE END LIST*
D10*
X130160000Y-87780000D03*
X123160000Y-87780000D03*
D11*
X110850000Y-87500000D03*
X111333274Y-86333274D03*
X111333274Y-88666726D03*
X112500000Y-85850000D03*
D12*
X112500000Y-87500000D03*
D11*
X112500000Y-89150000D03*
X113666726Y-86333274D03*
X113666726Y-88666726D03*
X114150000Y-87500000D03*
D13*
X108500000Y-91960000D03*
D14*
X111040000Y-91960000D03*
X113580000Y-91960000D03*
D11*
X110850000Y-112500000D03*
X111333274Y-111333274D03*
X111333274Y-113666726D03*
X112500000Y-110850000D03*
D12*
X112500000Y-112500000D03*
D11*
X112500000Y-114150000D03*
X113666726Y-111333274D03*
X113666726Y-113666726D03*
X114150000Y-112500000D03*
D15*
X110790000Y-108010000D03*
X115380000Y-109960000D03*
X108785000Y-102210000D03*
X108940000Y-103970000D03*
X112360000Y-104052500D03*
X114010000Y-104050000D03*
X117580000Y-106630000D03*
X118530000Y-108170000D03*
X118740000Y-98930000D03*
X127990000Y-113890000D03*
X124280000Y-101670000D03*
X127080000Y-116960000D03*
X126250000Y-111210000D03*
X135640000Y-91930000D03*
X129730000Y-113900000D03*
X119340000Y-94390000D03*
X105950000Y-91930000D03*
X123980000Y-94410000D03*
X125480000Y-116880000D03*
X126190000Y-112790000D03*
X123990000Y-95850000D03*
X119360000Y-95850000D03*
G04 #@! TA.AperFunction,Conductor*
G36*
X126987228Y-81680273D02*
G01*
X135978140Y-81680499D01*
X136024594Y-81680500D01*
X136035393Y-81680971D01*
X136181839Y-81693783D01*
X136195180Y-81695687D01*
X136223815Y-81701383D01*
X136231636Y-81703207D01*
X136357159Y-81736840D01*
X136372503Y-81742048D01*
X136388599Y-81748716D01*
X136393469Y-81750858D01*
X136519922Y-81809824D01*
X136538628Y-81820624D01*
X136663572Y-81908110D01*
X136680130Y-81922003D01*
X136787989Y-82029861D01*
X136801882Y-82046419D01*
X136889365Y-82171355D01*
X136900173Y-82190074D01*
X136959125Y-82316495D01*
X136961298Y-82321434D01*
X136967942Y-82337473D01*
X136973155Y-82352828D01*
X137006781Y-82478322D01*
X137008622Y-82486220D01*
X137014303Y-82514774D01*
X137016215Y-82528162D01*
X137029056Y-82674928D01*
X137029528Y-82685808D01*
X137009491Y-117314634D01*
X137009019Y-117325372D01*
X136996160Y-117472321D01*
X136994225Y-117485826D01*
X136988679Y-117513560D01*
X136986860Y-117521341D01*
X136952917Y-117648009D01*
X136947608Y-117663597D01*
X136942012Y-117677030D01*
X136939929Y-117681752D01*
X136880156Y-117809932D01*
X136869347Y-117828652D01*
X136781861Y-117953589D01*
X136767967Y-117970147D01*
X136660108Y-118078000D01*
X136643550Y-118091893D01*
X136518601Y-118179378D01*
X136499880Y-118190185D01*
X136374452Y-118248667D01*
X136368810Y-118251129D01*
X136350558Y-118258560D01*
X136335889Y-118263490D01*
X136210073Y-118297197D01*
X136201312Y-118299207D01*
X136173455Y-118304543D01*
X136160930Y-118306286D01*
X136015217Y-118319029D01*
X136004414Y-118319500D01*
X116061410Y-118319500D01*
X116012803Y-118319465D01*
X116012666Y-118319424D01*
X116005877Y-118319266D01*
X115890237Y-118312713D01*
X115876470Y-118311158D01*
X115854770Y-118307469D01*
X115852130Y-118306991D01*
X115757075Y-118288707D01*
X115741082Y-118284508D01*
X115631819Y-118247878D01*
X115616530Y-118241590D01*
X115509308Y-118188881D01*
X115506038Y-118187213D01*
X115462264Y-118164061D01*
X115461427Y-118163246D01*
X115458238Y-118161835D01*
X113259866Y-116892604D01*
X113084409Y-116791304D01*
X124579500Y-116791304D01*
X124579500Y-116968695D01*
X124614103Y-117142658D01*
X124614106Y-117142667D01*
X124681983Y-117306540D01*
X124681990Y-117306553D01*
X124780535Y-117454034D01*
X124780538Y-117454038D01*
X124905961Y-117579461D01*
X124905965Y-117579464D01*
X125053446Y-117678009D01*
X125053459Y-117678016D01*
X125176363Y-117728923D01*
X125217334Y-117745894D01*
X125217336Y-117745894D01*
X125217341Y-117745896D01*
X125391304Y-117780499D01*
X125391307Y-117780500D01*
X125391309Y-117780500D01*
X125568693Y-117780500D01*
X125568694Y-117780499D01*
X125626682Y-117768964D01*
X125742658Y-117745896D01*
X125742661Y-117745894D01*
X125742666Y-117745894D01*
X125906547Y-117678013D01*
X126054035Y-117579464D01*
X126179464Y-117454035D01*
X126278013Y-117306547D01*
X126345894Y-117142666D01*
X126380500Y-116968691D01*
X126380500Y-116791309D01*
X126380500Y-116791306D01*
X126380499Y-116791304D01*
X126345896Y-116617341D01*
X126345893Y-116617332D01*
X126278016Y-116453459D01*
X126278009Y-116453446D01*
X126179464Y-116305965D01*
X126179461Y-116305961D01*
X126054038Y-116180538D01*
X126054034Y-116180535D01*
X125906553Y-116081990D01*
X125906540Y-116081983D01*
X125742667Y-116014106D01*
X125742658Y-116014103D01*
X125568694Y-115979500D01*
X125568691Y-115979500D01*
X125391309Y-115979500D01*
X125391306Y-115979500D01*
X125217341Y-116014103D01*
X125217332Y-116014106D01*
X125053459Y-116081983D01*
X125053446Y-116081990D01*
X124905965Y-116180535D01*
X124905961Y-116180538D01*
X124780538Y-116305961D01*
X124780535Y-116305965D01*
X124681990Y-116453446D01*
X124681983Y-116453459D01*
X124614106Y-116617332D01*
X124614103Y-116617341D01*
X124579500Y-116791304D01*
X113084409Y-116791304D01*
X109353164Y-114637068D01*
X105568999Y-112452279D01*
X105389016Y-112348366D01*
X109800000Y-112348366D01*
X109800000Y-112651633D01*
X109833952Y-112952966D01*
X109833954Y-112952982D01*
X109901434Y-113248633D01*
X109901438Y-113248645D01*
X110001592Y-113534866D01*
X110001598Y-113534880D01*
X110133172Y-113808096D01*
X110294515Y-114064872D01*
X110421871Y-114224573D01*
X111019500Y-113626944D01*
X111133274Y-113626944D01*
X111133274Y-113706508D01*
X111163722Y-113780017D01*
X111219983Y-113836278D01*
X111293492Y-113866726D01*
X111373056Y-113866726D01*
X111446565Y-113836278D01*
X111502826Y-113780017D01*
X111533274Y-113706508D01*
X111533274Y-113626944D01*
X111502826Y-113553435D01*
X111446565Y-113497174D01*
X111373056Y-113466726D01*
X111293492Y-113466726D01*
X111219983Y-113497174D01*
X111163722Y-113553435D01*
X111133274Y-113626944D01*
X111019500Y-113626944D01*
X111563708Y-113082736D01*
X111660967Y-113216602D01*
X111783398Y-113339033D01*
X111917262Y-113436290D01*
X110775425Y-114578127D01*
X110935127Y-114705484D01*
X111191903Y-114866827D01*
X111465119Y-114998401D01*
X111465133Y-114998407D01*
X111751354Y-115098561D01*
X111751366Y-115098565D01*
X112047017Y-115166045D01*
X112047033Y-115166047D01*
X112348366Y-115199999D01*
X112348368Y-115200000D01*
X112651632Y-115200000D01*
X112651633Y-115199999D01*
X112952966Y-115166047D01*
X112952982Y-115166045D01*
X113248633Y-115098565D01*
X113248645Y-115098561D01*
X113534866Y-114998407D01*
X113534880Y-114998401D01*
X113808096Y-114866827D01*
X114064872Y-114705484D01*
X114224573Y-114578126D01*
X113273391Y-113626944D01*
X113466726Y-113626944D01*
X113466726Y-113706508D01*
X113497174Y-113780017D01*
X113553435Y-113836278D01*
X113626944Y-113866726D01*
X113706508Y-113866726D01*
X113780017Y-113836278D01*
X113836278Y-113780017D01*
X113866726Y-113706508D01*
X113866726Y-113626944D01*
X113836278Y-113553435D01*
X113780017Y-113497174D01*
X113706508Y-113466726D01*
X113626944Y-113466726D01*
X113553435Y-113497174D01*
X113497174Y-113553435D01*
X113466726Y-113626944D01*
X113273391Y-113626944D01*
X113082737Y-113436290D01*
X113216602Y-113339033D01*
X113339033Y-113216602D01*
X113436290Y-113082737D01*
X114578126Y-114224573D01*
X114705484Y-114064872D01*
X114866827Y-113808096D01*
X114870098Y-113801304D01*
X127089500Y-113801304D01*
X127089500Y-113978695D01*
X127124103Y-114152658D01*
X127124106Y-114152667D01*
X127191983Y-114316540D01*
X127191990Y-114316553D01*
X127290535Y-114464034D01*
X127290538Y-114464038D01*
X127415961Y-114589461D01*
X127415965Y-114589464D01*
X127563446Y-114688009D01*
X127563459Y-114688016D01*
X127686363Y-114738923D01*
X127727334Y-114755894D01*
X127727336Y-114755894D01*
X127727341Y-114755896D01*
X127901304Y-114790499D01*
X127901307Y-114790500D01*
X127901309Y-114790500D01*
X128078693Y-114790500D01*
X128078694Y-114790499D01*
X128136682Y-114778964D01*
X128252658Y-114755896D01*
X128252661Y-114755894D01*
X128252666Y-114755894D01*
X128416547Y-114688013D01*
X128564035Y-114589464D01*
X128689464Y-114464035D01*
X128788013Y-114316547D01*
X128855894Y-114152666D01*
X128864338Y-114110218D01*
X128878964Y-114036682D01*
X128890500Y-113978691D01*
X128890500Y-113801309D01*
X128890500Y-113801306D01*
X128890499Y-113801304D01*
X128855896Y-113627341D01*
X128855893Y-113627332D01*
X128788016Y-113463459D01*
X128788009Y-113463446D01*
X128689464Y-113315965D01*
X128689461Y-113315961D01*
X128564038Y-113190538D01*
X128564034Y-113190535D01*
X128416553Y-113091990D01*
X128416540Y-113091983D01*
X128252667Y-113024106D01*
X128252658Y-113024103D01*
X128078694Y-112989500D01*
X128078691Y-112989500D01*
X127901309Y-112989500D01*
X127901306Y-112989500D01*
X127727341Y-113024103D01*
X127727332Y-113024106D01*
X127563459Y-113091983D01*
X127563446Y-113091990D01*
X127415965Y-113190535D01*
X127415961Y-113190538D01*
X127290538Y-113315961D01*
X127290535Y-113315965D01*
X127191990Y-113463446D01*
X127191983Y-113463459D01*
X127124106Y-113627332D01*
X127124103Y-113627341D01*
X127089500Y-113801304D01*
X114870098Y-113801304D01*
X114998401Y-113534880D01*
X114998407Y-113534866D01*
X115098561Y-113248645D01*
X115098565Y-113248633D01*
X115166045Y-112952982D01*
X115166047Y-112952966D01*
X115194403Y-112701304D01*
X125289500Y-112701304D01*
X125289500Y-112878695D01*
X125324103Y-113052658D01*
X125324106Y-113052667D01*
X125391983Y-113216540D01*
X125391990Y-113216553D01*
X125490535Y-113364034D01*
X125490538Y-113364038D01*
X125615961Y-113489461D01*
X125615965Y-113489464D01*
X125763446Y-113588009D01*
X125763459Y-113588016D01*
X125858378Y-113627332D01*
X125927334Y-113655894D01*
X125927336Y-113655894D01*
X125927341Y-113655896D01*
X126101304Y-113690499D01*
X126101307Y-113690500D01*
X126101309Y-113690500D01*
X126278693Y-113690500D01*
X126278694Y-113690499D01*
X126303213Y-113685622D01*
X126363650Y-113673601D01*
X126363655Y-113673600D01*
X126413446Y-113663695D01*
X126452666Y-113655894D01*
X126616547Y-113588013D01*
X126764035Y-113489464D01*
X126889464Y-113364035D01*
X126988013Y-113216547D01*
X127055894Y-113052666D01*
X127090500Y-112878691D01*
X127090500Y-112701309D01*
X127090500Y-112701306D01*
X127090499Y-112701304D01*
X127055896Y-112527341D01*
X127055893Y-112527332D01*
X126988016Y-112363459D01*
X126988009Y-112363446D01*
X126889464Y-112215965D01*
X126889461Y-112215961D01*
X126764038Y-112090538D01*
X126764034Y-112090535D01*
X126616553Y-111991990D01*
X126616540Y-111991983D01*
X126452667Y-111924106D01*
X126452658Y-111924103D01*
X126278694Y-111889500D01*
X126278691Y-111889500D01*
X126101309Y-111889500D01*
X126101306Y-111889500D01*
X125927341Y-111924103D01*
X125927332Y-111924106D01*
X125763459Y-111991983D01*
X125763446Y-111991990D01*
X125615965Y-112090535D01*
X125615961Y-112090538D01*
X125490538Y-112215961D01*
X125490535Y-112215965D01*
X125391990Y-112363446D01*
X125391983Y-112363459D01*
X125324106Y-112527332D01*
X125324103Y-112527341D01*
X125289500Y-112701304D01*
X115194403Y-112701304D01*
X115196653Y-112681337D01*
X115196653Y-112681335D01*
X115200000Y-112651625D01*
X115200000Y-112348368D01*
X115199999Y-112348366D01*
X115166047Y-112047033D01*
X115166045Y-112047017D01*
X115098565Y-111751366D01*
X115098561Y-111751354D01*
X114998407Y-111465133D01*
X114998401Y-111465119D01*
X114866827Y-111191903D01*
X114705484Y-110935127D01*
X114605396Y-110809620D01*
X114574664Y-110778888D01*
X113436290Y-111917262D01*
X113339033Y-111783398D01*
X113216602Y-111660967D01*
X113082736Y-111563709D01*
X113352953Y-111293492D01*
X113466726Y-111293492D01*
X113466726Y-111373056D01*
X113497174Y-111446565D01*
X113553435Y-111502826D01*
X113626944Y-111533274D01*
X113706508Y-111533274D01*
X113780017Y-111502826D01*
X113836278Y-111446565D01*
X113866726Y-111373056D01*
X113866726Y-111293492D01*
X113836278Y-111219983D01*
X113780017Y-111163722D01*
X113706508Y-111133274D01*
X113626944Y-111133274D01*
X113553435Y-111163722D01*
X113497174Y-111219983D01*
X113466726Y-111293492D01*
X113352953Y-111293492D01*
X114224573Y-110421871D01*
X114064872Y-110294515D01*
X113808096Y-110133172D01*
X113534880Y-110001598D01*
X113534866Y-110001592D01*
X113248645Y-109901438D01*
X113248633Y-109901434D01*
X113116624Y-109871304D01*
X114479500Y-109871304D01*
X114479500Y-110048695D01*
X114514103Y-110222658D01*
X114514106Y-110222667D01*
X114581983Y-110386540D01*
X114581990Y-110386553D01*
X114680535Y-110534034D01*
X114680538Y-110534038D01*
X114805961Y-110659461D01*
X114805965Y-110659464D01*
X114953446Y-110758009D01*
X114953459Y-110758016D01*
X115003850Y-110778888D01*
X115117334Y-110825894D01*
X115117336Y-110825894D01*
X115117341Y-110825896D01*
X115291304Y-110860499D01*
X115291307Y-110860500D01*
X115291309Y-110860500D01*
X115468693Y-110860500D01*
X115468694Y-110860499D01*
X115526682Y-110848964D01*
X115642658Y-110825896D01*
X115642661Y-110825894D01*
X115642666Y-110825894D01*
X115806547Y-110758013D01*
X115954035Y-110659464D01*
X116079464Y-110534035D01*
X116178013Y-110386547D01*
X116245894Y-110222666D01*
X116280500Y-110048691D01*
X116280500Y-109871309D01*
X116280500Y-109871306D01*
X116280499Y-109871304D01*
X116245896Y-109697341D01*
X116245893Y-109697332D01*
X116178016Y-109533459D01*
X116178009Y-109533446D01*
X116079464Y-109385965D01*
X116079461Y-109385961D01*
X115954038Y-109260538D01*
X115954034Y-109260535D01*
X115806553Y-109161990D01*
X115806540Y-109161983D01*
X115642667Y-109094106D01*
X115642658Y-109094103D01*
X115468694Y-109059500D01*
X115468691Y-109059500D01*
X115291309Y-109059500D01*
X115291306Y-109059500D01*
X115117341Y-109094103D01*
X115117332Y-109094106D01*
X114953459Y-109161983D01*
X114953446Y-109161990D01*
X114805965Y-109260535D01*
X114805961Y-109260538D01*
X114680538Y-109385961D01*
X114680535Y-109385965D01*
X114581990Y-109533446D01*
X114581983Y-109533459D01*
X114514106Y-109697332D01*
X114514103Y-109697341D01*
X114479500Y-109871304D01*
X113116624Y-109871304D01*
X112952982Y-109833954D01*
X112952966Y-109833952D01*
X112651633Y-109800000D01*
X112348366Y-109800000D01*
X112047033Y-109833952D01*
X112047017Y-109833954D01*
X111751366Y-109901434D01*
X111751354Y-109901438D01*
X111465133Y-110001592D01*
X111465119Y-110001598D01*
X111191903Y-110133172D01*
X110935127Y-110294515D01*
X110775425Y-110421871D01*
X111917263Y-111563709D01*
X111783398Y-111660967D01*
X111660967Y-111783398D01*
X111563709Y-111917263D01*
X110939938Y-111293492D01*
X111133274Y-111293492D01*
X111133274Y-111373056D01*
X111163722Y-111446565D01*
X111219983Y-111502826D01*
X111293492Y-111533274D01*
X111373056Y-111533274D01*
X111446565Y-111502826D01*
X111502826Y-111446565D01*
X111533274Y-111373056D01*
X111533274Y-111293492D01*
X111502826Y-111219983D01*
X111446565Y-111163722D01*
X111373056Y-111133274D01*
X111293492Y-111133274D01*
X111219983Y-111163722D01*
X111163722Y-111219983D01*
X111133274Y-111293492D01*
X110939938Y-111293492D01*
X110421871Y-110775425D01*
X110294515Y-110935127D01*
X110133172Y-111191903D01*
X110001598Y-111465119D01*
X110001592Y-111465133D01*
X109901438Y-111751354D01*
X109901434Y-111751366D01*
X109833954Y-112047017D01*
X109833952Y-112047033D01*
X109800000Y-112348366D01*
X105389016Y-112348366D01*
X102322142Y-110577705D01*
X100504941Y-109528543D01*
X100495820Y-109522732D01*
X100374946Y-109438099D01*
X100363098Y-109428676D01*
X100337411Y-109405549D01*
X100332701Y-109401079D01*
X100242003Y-109310385D01*
X100228110Y-109293829D01*
X100140612Y-109168878D01*
X100129806Y-109150164D01*
X100065337Y-109011923D01*
X100057947Y-108991619D01*
X100038803Y-108920184D01*
X100024737Y-108867698D01*
X100023228Y-108861413D01*
X100016039Y-108827599D01*
X100013801Y-108812636D01*
X100000972Y-108666063D01*
X100000500Y-108655251D01*
X100000500Y-107921304D01*
X109889500Y-107921304D01*
X109889500Y-108098695D01*
X109924103Y-108272658D01*
X109924106Y-108272667D01*
X109991983Y-108436540D01*
X109991990Y-108436553D01*
X110090535Y-108584034D01*
X110090538Y-108584038D01*
X110215961Y-108709461D01*
X110215965Y-108709464D01*
X110363446Y-108808009D01*
X110363459Y-108808016D01*
X110486363Y-108858923D01*
X110527334Y-108875894D01*
X110527336Y-108875894D01*
X110527341Y-108875896D01*
X110701304Y-108910499D01*
X110701307Y-108910500D01*
X110701309Y-108910500D01*
X110878693Y-108910500D01*
X110878694Y-108910499D01*
X110936682Y-108898964D01*
X111052658Y-108875896D01*
X111052661Y-108875894D01*
X111052666Y-108875894D01*
X111216547Y-108808013D01*
X111364035Y-108709464D01*
X111489464Y-108584035D01*
X111588013Y-108436547D01*
X111655894Y-108272666D01*
X111658674Y-108258693D01*
X111690499Y-108098695D01*
X111690500Y-108098693D01*
X111690500Y-107921306D01*
X111690499Y-107921304D01*
X111655896Y-107747341D01*
X111655893Y-107747332D01*
X111654283Y-107743446D01*
X111593194Y-107595961D01*
X111588016Y-107583459D01*
X111588009Y-107583446D01*
X111489464Y-107435965D01*
X111489461Y-107435961D01*
X111364038Y-107310538D01*
X111364034Y-107310535D01*
X111216553Y-107211990D01*
X111216540Y-107211983D01*
X111052667Y-107144106D01*
X111052658Y-107144103D01*
X110878694Y-107109500D01*
X110878691Y-107109500D01*
X110701309Y-107109500D01*
X110701306Y-107109500D01*
X110527341Y-107144103D01*
X110527332Y-107144106D01*
X110363459Y-107211983D01*
X110363446Y-107211990D01*
X110215965Y-107310535D01*
X110215961Y-107310538D01*
X110090538Y-107435961D01*
X110090535Y-107435965D01*
X109991990Y-107583446D01*
X109991983Y-107583459D01*
X109924106Y-107747332D01*
X109924103Y-107747341D01*
X109889500Y-107921304D01*
X100000500Y-107921304D01*
X100000500Y-106541304D01*
X116679500Y-106541304D01*
X116679500Y-106718695D01*
X116714103Y-106892658D01*
X116714106Y-106892667D01*
X116781983Y-107056540D01*
X116781990Y-107056553D01*
X116880535Y-107204034D01*
X116880538Y-107204038D01*
X117005961Y-107329461D01*
X117005965Y-107329464D01*
X117153446Y-107428009D01*
X117153459Y-107428016D01*
X117276363Y-107478923D01*
X117317334Y-107495894D01*
X117317336Y-107495894D01*
X117317341Y-107495896D01*
X117491304Y-107530499D01*
X117491307Y-107530500D01*
X117642289Y-107530500D01*
X117709328Y-107550185D01*
X117755083Y-107602989D01*
X117765027Y-107672147D01*
X117745392Y-107723390D01*
X117731989Y-107743448D01*
X117731983Y-107743459D01*
X117664106Y-107907332D01*
X117664103Y-107907341D01*
X117629500Y-108081304D01*
X117629500Y-108258695D01*
X117664103Y-108432658D01*
X117664106Y-108432667D01*
X117731983Y-108596540D01*
X117731990Y-108596553D01*
X117830535Y-108744034D01*
X117830538Y-108744038D01*
X117955961Y-108869461D01*
X117955965Y-108869464D01*
X118103446Y-108968009D01*
X118103459Y-108968016D01*
X118209477Y-109011929D01*
X118267334Y-109035894D01*
X118267336Y-109035894D01*
X118267341Y-109035896D01*
X118441304Y-109070499D01*
X118441307Y-109070500D01*
X118441309Y-109070500D01*
X118618693Y-109070500D01*
X118618694Y-109070499D01*
X118676682Y-109058964D01*
X118792658Y-109035896D01*
X118792661Y-109035894D01*
X118792666Y-109035894D01*
X118956547Y-108968013D01*
X119104035Y-108869464D01*
X119229464Y-108744035D01*
X119328013Y-108596547D01*
X119395894Y-108432666D01*
X119430500Y-108258691D01*
X119430500Y-108081309D01*
X119430500Y-108081306D01*
X119430499Y-108081304D01*
X119395896Y-107907341D01*
X119395893Y-107907332D01*
X119328016Y-107743459D01*
X119328009Y-107743446D01*
X119229464Y-107595965D01*
X119229461Y-107595961D01*
X119104038Y-107470538D01*
X119104034Y-107470535D01*
X118956553Y-107371990D01*
X118956540Y-107371983D01*
X118792667Y-107304106D01*
X118792658Y-107304103D01*
X118618694Y-107269500D01*
X118618691Y-107269500D01*
X118467711Y-107269500D01*
X118400672Y-107249815D01*
X118354917Y-107197011D01*
X118344973Y-107127853D01*
X118364608Y-107076610D01*
X118378010Y-107056551D01*
X118378013Y-107056547D01*
X118445894Y-106892666D01*
X118480500Y-106718691D01*
X118480500Y-106541309D01*
X118480500Y-106541306D01*
X118480499Y-106541304D01*
X118445896Y-106367341D01*
X118445893Y-106367332D01*
X118378016Y-106203459D01*
X118378009Y-106203446D01*
X118279464Y-106055965D01*
X118279461Y-106055961D01*
X118154038Y-105930538D01*
X118154034Y-105930535D01*
X118006553Y-105831990D01*
X118006540Y-105831983D01*
X117842667Y-105764106D01*
X117842658Y-105764103D01*
X117668694Y-105729500D01*
X117668691Y-105729500D01*
X117491309Y-105729500D01*
X117491306Y-105729500D01*
X117317341Y-105764103D01*
X117317332Y-105764106D01*
X117153459Y-105831983D01*
X117153446Y-105831990D01*
X117005965Y-105930535D01*
X117005961Y-105930538D01*
X116880538Y-106055961D01*
X116880535Y-106055965D01*
X116781990Y-106203446D01*
X116781983Y-106203459D01*
X116714106Y-106367332D01*
X116714103Y-106367341D01*
X116679500Y-106541304D01*
X100000500Y-106541304D01*
X100000500Y-106259760D01*
X100002026Y-106240364D01*
X100009639Y-106192293D01*
X100021624Y-106155406D01*
X100039237Y-106120839D01*
X100062033Y-106089464D01*
X100089464Y-106062033D01*
X100120839Y-106039237D01*
X100155406Y-106021624D01*
X100192293Y-106009639D01*
X100240365Y-106002025D01*
X100259760Y-106000500D01*
X104568995Y-106000500D01*
X104660041Y-105982389D01*
X104704328Y-105973580D01*
X104728376Y-105963618D01*
X104731927Y-105962809D01*
X104741726Y-105958089D01*
X104831811Y-105920775D01*
X104864331Y-105899045D01*
X104873601Y-105894582D01*
X104886978Y-105883913D01*
X104946542Y-105844114D01*
X104984570Y-105806085D01*
X104996541Y-105796541D01*
X105006088Y-105784567D01*
X105044114Y-105746542D01*
X105083913Y-105686978D01*
X105094582Y-105673601D01*
X105099045Y-105664331D01*
X105120775Y-105631811D01*
X105158089Y-105541726D01*
X105162809Y-105531927D01*
X105163618Y-105528376D01*
X105173580Y-105504328D01*
X105200500Y-105368993D01*
X105200500Y-105300000D01*
X105200500Y-105299500D01*
X105200500Y-105231007D01*
X105200500Y-105231004D01*
X105173581Y-105095678D01*
X105173580Y-105095674D01*
X105173580Y-105095672D01*
X105163619Y-105071624D01*
X105162809Y-105068073D01*
X105158084Y-105058263D01*
X105120775Y-104968189D01*
X105120775Y-104968188D01*
X105110306Y-104952522D01*
X105099044Y-104935667D01*
X105094582Y-104926399D01*
X105083908Y-104913014D01*
X105044114Y-104853458D01*
X105044112Y-104853455D01*
X105044110Y-104853453D01*
X105011021Y-104820365D01*
X105006093Y-104815437D01*
X104996541Y-104803459D01*
X104984562Y-104793906D01*
X104979634Y-104788978D01*
X104946545Y-104755888D01*
X104946544Y-104755887D01*
X104926334Y-104742383D01*
X104886982Y-104716089D01*
X104873601Y-104705418D01*
X104864332Y-104700954D01*
X104857093Y-104696117D01*
X104857087Y-104696114D01*
X104831814Y-104679227D01*
X104831813Y-104679226D01*
X104831811Y-104679225D01*
X104831808Y-104679223D01*
X104831803Y-104679221D01*
X104744957Y-104643249D01*
X104744952Y-104643247D01*
X104741733Y-104641913D01*
X104731927Y-104637191D01*
X104728380Y-104636381D01*
X104718736Y-104632386D01*
X104718727Y-104632384D01*
X104714873Y-104630788D01*
X104704328Y-104626420D01*
X104704324Y-104626419D01*
X104568995Y-104599500D01*
X104568993Y-104599500D01*
X104500207Y-104599500D01*
X98459759Y-104599500D01*
X98440360Y-104597973D01*
X98407745Y-104592807D01*
X98370847Y-104580817D01*
X98350232Y-104570313D01*
X98318849Y-104547511D01*
X98302488Y-104531150D01*
X98279686Y-104499766D01*
X98269181Y-104479150D01*
X98257192Y-104442255D01*
X98252025Y-104409631D01*
X98250500Y-104390244D01*
X98250500Y-102121304D01*
X107884500Y-102121304D01*
X107884500Y-102298695D01*
X107919103Y-102472658D01*
X107919106Y-102472667D01*
X107986983Y-102636540D01*
X107986990Y-102636553D01*
X108085535Y-102784034D01*
X108085538Y-102784038D01*
X108210961Y-102909461D01*
X108210965Y-102909464D01*
X108358446Y-103008009D01*
X108358459Y-103008016D01*
X108391300Y-103021619D01*
X108445704Y-103065459D01*
X108467769Y-103131753D01*
X108450490Y-103199453D01*
X108412739Y-103239282D01*
X108365965Y-103270535D01*
X108365961Y-103270538D01*
X108240538Y-103395961D01*
X108240535Y-103395965D01*
X108141990Y-103543446D01*
X108141983Y-103543459D01*
X108074106Y-103707332D01*
X108074103Y-103707341D01*
X108039500Y-103881304D01*
X108039500Y-104058695D01*
X108074103Y-104232658D01*
X108074106Y-104232667D01*
X108141983Y-104396540D01*
X108141990Y-104396553D01*
X108240535Y-104544034D01*
X108240538Y-104544038D01*
X108365961Y-104669461D01*
X108365965Y-104669464D01*
X108513446Y-104768009D01*
X108513459Y-104768016D01*
X108599028Y-104803459D01*
X108677334Y-104835894D01*
X108677336Y-104835894D01*
X108677341Y-104835896D01*
X108851304Y-104870499D01*
X108851307Y-104870500D01*
X108851309Y-104870500D01*
X109028693Y-104870500D01*
X109028694Y-104870499D01*
X109086682Y-104858964D01*
X109202658Y-104835896D01*
X109202661Y-104835894D01*
X109202666Y-104835894D01*
X109366547Y-104768013D01*
X109514035Y-104669464D01*
X109639464Y-104544035D01*
X109738013Y-104396547D01*
X109805894Y-104232666D01*
X109840500Y-104058691D01*
X109840500Y-103963804D01*
X111459500Y-103963804D01*
X111459500Y-104141195D01*
X111494103Y-104315158D01*
X111494106Y-104315167D01*
X111561983Y-104479040D01*
X111561990Y-104479053D01*
X111660535Y-104626534D01*
X111660538Y-104626538D01*
X111785961Y-104751961D01*
X111785965Y-104751964D01*
X111933446Y-104850509D01*
X111933459Y-104850516D01*
X111981706Y-104870500D01*
X112097334Y-104918394D01*
X112097336Y-104918394D01*
X112097341Y-104918396D01*
X112271304Y-104952999D01*
X112271307Y-104953000D01*
X112271309Y-104953000D01*
X112448693Y-104953000D01*
X112448694Y-104952999D01*
X112506682Y-104941464D01*
X112622658Y-104918396D01*
X112622661Y-104918394D01*
X112622666Y-104918394D01*
X112786547Y-104850513D01*
X112934035Y-104751964D01*
X113059464Y-104626535D01*
X113082733Y-104591709D01*
X113136344Y-104546906D01*
X113205669Y-104538197D01*
X113268696Y-104568351D01*
X113288937Y-104591711D01*
X113310532Y-104624030D01*
X113310538Y-104624038D01*
X113435961Y-104749461D01*
X113435965Y-104749464D01*
X113583446Y-104848009D01*
X113583459Y-104848016D01*
X113706363Y-104898923D01*
X113747334Y-104915894D01*
X113747336Y-104915894D01*
X113747341Y-104915896D01*
X113921304Y-104950499D01*
X113921307Y-104950500D01*
X113921309Y-104950500D01*
X114098693Y-104950500D01*
X114098694Y-104950499D01*
X114173246Y-104935670D01*
X114272658Y-104915896D01*
X114272661Y-104915894D01*
X114272666Y-104915894D01*
X114412535Y-104857958D01*
X114436540Y-104848016D01*
X114436540Y-104848015D01*
X114436547Y-104848013D01*
X114584035Y-104749464D01*
X114709464Y-104624035D01*
X114808013Y-104476547D01*
X114875894Y-104312666D01*
X114910500Y-104138691D01*
X114910500Y-103961309D01*
X114910500Y-103961306D01*
X114910499Y-103961304D01*
X114875896Y-103787341D01*
X114875893Y-103787332D01*
X114808016Y-103623459D01*
X114808009Y-103623446D01*
X114709464Y-103475965D01*
X114709461Y-103475961D01*
X114584038Y-103350538D01*
X114584034Y-103350535D01*
X114436553Y-103251990D01*
X114436540Y-103251983D01*
X114272667Y-103184106D01*
X114272658Y-103184103D01*
X114098694Y-103149500D01*
X114098691Y-103149500D01*
X113921309Y-103149500D01*
X113921306Y-103149500D01*
X113747341Y-103184103D01*
X113747332Y-103184106D01*
X113583459Y-103251983D01*
X113583446Y-103251990D01*
X113435965Y-103350535D01*
X113435961Y-103350538D01*
X113310536Y-103475963D01*
X113287265Y-103510791D01*
X113233652Y-103555595D01*
X113164327Y-103564301D01*
X113101300Y-103534145D01*
X113081063Y-103510791D01*
X113059464Y-103478465D01*
X113059462Y-103478462D01*
X112934038Y-103353038D01*
X112934034Y-103353035D01*
X112786553Y-103254490D01*
X112786540Y-103254483D01*
X112622667Y-103186606D01*
X112622658Y-103186603D01*
X112448694Y-103152000D01*
X112448691Y-103152000D01*
X112271309Y-103152000D01*
X112271306Y-103152000D01*
X112097341Y-103186603D01*
X112097332Y-103186606D01*
X111933459Y-103254483D01*
X111933446Y-103254490D01*
X111785965Y-103353035D01*
X111785961Y-103353038D01*
X111660538Y-103478461D01*
X111660535Y-103478465D01*
X111561990Y-103625946D01*
X111561983Y-103625959D01*
X111494106Y-103789832D01*
X111494103Y-103789841D01*
X111459500Y-103963804D01*
X109840500Y-103963804D01*
X109840500Y-103881309D01*
X109840500Y-103881306D01*
X109840499Y-103881304D01*
X109805896Y-103707341D01*
X109805893Y-103707332D01*
X109738016Y-103543459D01*
X109738009Y-103543446D01*
X109639464Y-103395965D01*
X109639461Y-103395961D01*
X109514038Y-103270538D01*
X109514034Y-103270535D01*
X109366553Y-103171990D01*
X109366546Y-103171986D01*
X109349239Y-103164818D01*
X109333698Y-103158380D01*
X109279296Y-103114542D01*
X109257230Y-103048248D01*
X109274508Y-102980548D01*
X109312259Y-102940718D01*
X109359035Y-102909464D01*
X109484464Y-102784035D01*
X109583013Y-102636547D01*
X109650894Y-102472666D01*
X109651821Y-102468009D01*
X109685499Y-102298695D01*
X109685500Y-102298693D01*
X109685500Y-102121306D01*
X109685499Y-102121304D01*
X109650896Y-101947341D01*
X109650893Y-101947332D01*
X109583016Y-101783459D01*
X109583014Y-101783455D01*
X109583013Y-101783453D01*
X109484464Y-101635965D01*
X109484461Y-101635961D01*
X109429804Y-101581304D01*
X123379500Y-101581304D01*
X123379500Y-101758695D01*
X123414103Y-101932658D01*
X123414106Y-101932667D01*
X123481983Y-102096540D01*
X123481990Y-102096553D01*
X123580535Y-102244034D01*
X123580538Y-102244038D01*
X123705961Y-102369461D01*
X123705965Y-102369464D01*
X123853446Y-102468009D01*
X123853459Y-102468016D01*
X123976363Y-102518923D01*
X124017334Y-102535894D01*
X124017336Y-102535894D01*
X124017341Y-102535896D01*
X124191304Y-102570499D01*
X124191307Y-102570500D01*
X124191309Y-102570500D01*
X124368693Y-102570500D01*
X124368694Y-102570499D01*
X124426682Y-102558964D01*
X124542658Y-102535896D01*
X124542661Y-102535894D01*
X124542666Y-102535894D01*
X124706547Y-102468013D01*
X124854035Y-102369464D01*
X124979464Y-102244035D01*
X125078013Y-102096547D01*
X125145894Y-101932666D01*
X125180500Y-101758691D01*
X125180500Y-101581309D01*
X125180500Y-101581306D01*
X125180499Y-101581304D01*
X125145896Y-101407341D01*
X125145893Y-101407332D01*
X125078016Y-101243459D01*
X125078009Y-101243446D01*
X124979464Y-101095965D01*
X124979461Y-101095961D01*
X124854038Y-100970538D01*
X124854034Y-100970535D01*
X124706553Y-100871990D01*
X124706540Y-100871983D01*
X124542667Y-100804106D01*
X124542658Y-100804103D01*
X124368694Y-100769500D01*
X124368691Y-100769500D01*
X124191309Y-100769500D01*
X124191306Y-100769500D01*
X124017341Y-100804103D01*
X124017332Y-100804106D01*
X123853459Y-100871983D01*
X123853446Y-100871990D01*
X123705965Y-100970535D01*
X123705961Y-100970538D01*
X123580538Y-101095961D01*
X123580535Y-101095965D01*
X123481990Y-101243446D01*
X123481983Y-101243459D01*
X123414106Y-101407332D01*
X123414103Y-101407341D01*
X123379500Y-101581304D01*
X109429804Y-101581304D01*
X109359038Y-101510538D01*
X109359034Y-101510535D01*
X109211553Y-101411990D01*
X109211540Y-101411983D01*
X109047667Y-101344106D01*
X109047658Y-101344103D01*
X108873694Y-101309500D01*
X108873691Y-101309500D01*
X108696309Y-101309500D01*
X108696306Y-101309500D01*
X108522341Y-101344103D01*
X108522332Y-101344106D01*
X108358459Y-101411983D01*
X108358446Y-101411990D01*
X108210965Y-101510535D01*
X108210961Y-101510538D01*
X108085538Y-101635961D01*
X108085535Y-101635965D01*
X107986990Y-101783446D01*
X107986983Y-101783459D01*
X107919106Y-101947332D01*
X107919103Y-101947341D01*
X107884500Y-102121304D01*
X98250500Y-102121304D01*
X98250500Y-98841304D01*
X117839500Y-98841304D01*
X117839500Y-99018695D01*
X117874103Y-99192658D01*
X117874106Y-99192667D01*
X117941983Y-99356540D01*
X117941990Y-99356553D01*
X118040535Y-99504034D01*
X118040538Y-99504038D01*
X118165961Y-99629461D01*
X118165965Y-99629464D01*
X118313446Y-99728009D01*
X118313459Y-99728016D01*
X118436363Y-99778923D01*
X118477334Y-99795894D01*
X118477336Y-99795894D01*
X118477341Y-99795896D01*
X118651304Y-99830499D01*
X118651307Y-99830500D01*
X118651309Y-99830500D01*
X118828693Y-99830500D01*
X118828694Y-99830499D01*
X118886682Y-99818964D01*
X119002658Y-99795896D01*
X119002661Y-99795894D01*
X119002666Y-99795894D01*
X119166547Y-99728013D01*
X119314035Y-99629464D01*
X119439464Y-99504035D01*
X119538013Y-99356547D01*
X119605894Y-99192666D01*
X119640500Y-99018691D01*
X119640500Y-98841309D01*
X119640500Y-98841306D01*
X119640499Y-98841304D01*
X119605896Y-98667341D01*
X119605893Y-98667332D01*
X119538016Y-98503459D01*
X119538009Y-98503446D01*
X119439464Y-98355965D01*
X119439461Y-98355961D01*
X119314038Y-98230538D01*
X119314034Y-98230535D01*
X119166553Y-98131990D01*
X119166540Y-98131983D01*
X119002667Y-98064106D01*
X119002658Y-98064103D01*
X118828694Y-98029500D01*
X118828691Y-98029500D01*
X118651309Y-98029500D01*
X118651306Y-98029500D01*
X118477341Y-98064103D01*
X118477332Y-98064106D01*
X118313459Y-98131983D01*
X118313446Y-98131990D01*
X118165965Y-98230535D01*
X118165961Y-98230538D01*
X118040538Y-98355961D01*
X118040535Y-98355965D01*
X117941990Y-98503446D01*
X117941983Y-98503459D01*
X117874106Y-98667332D01*
X117874103Y-98667341D01*
X117839500Y-98841304D01*
X98250500Y-98841304D01*
X98250500Y-95761304D01*
X118459500Y-95761304D01*
X118459500Y-95938695D01*
X118494103Y-96112658D01*
X118494106Y-96112667D01*
X118561983Y-96276540D01*
X118561990Y-96276553D01*
X118660535Y-96424034D01*
X118660538Y-96424038D01*
X118785961Y-96549461D01*
X118785965Y-96549464D01*
X118933446Y-96648009D01*
X118933459Y-96648016D01*
X119056363Y-96698923D01*
X119097334Y-96715894D01*
X119097336Y-96715894D01*
X119097341Y-96715896D01*
X119271304Y-96750499D01*
X119271307Y-96750500D01*
X119271309Y-96750500D01*
X119448693Y-96750500D01*
X119448694Y-96750499D01*
X119506682Y-96738964D01*
X119622658Y-96715896D01*
X119622661Y-96715894D01*
X119622666Y-96715894D01*
X119786547Y-96648013D01*
X119934035Y-96549464D01*
X120059464Y-96424035D01*
X120158013Y-96276547D01*
X120225894Y-96112666D01*
X120260500Y-95938691D01*
X120260500Y-95761309D01*
X120260500Y-95761306D01*
X120260499Y-95761304D01*
X123089500Y-95761304D01*
X123089500Y-95938695D01*
X123124103Y-96112658D01*
X123124106Y-96112667D01*
X123191983Y-96276540D01*
X123191990Y-96276553D01*
X123290535Y-96424034D01*
X123290538Y-96424038D01*
X123415961Y-96549461D01*
X123415965Y-96549464D01*
X123563446Y-96648009D01*
X123563459Y-96648016D01*
X123686363Y-96698923D01*
X123727334Y-96715894D01*
X123727336Y-96715894D01*
X123727341Y-96715896D01*
X123901304Y-96750499D01*
X123901307Y-96750500D01*
X123901309Y-96750500D01*
X124078693Y-96750500D01*
X124078694Y-96750499D01*
X124136682Y-96738964D01*
X124252658Y-96715896D01*
X124252661Y-96715894D01*
X124252666Y-96715894D01*
X124416547Y-96648013D01*
X124564035Y-96549464D01*
X124689464Y-96424035D01*
X124788013Y-96276547D01*
X124855894Y-96112666D01*
X124890500Y-95938691D01*
X124890500Y-95761309D01*
X124890500Y-95761306D01*
X124890499Y-95761304D01*
X124855896Y-95587341D01*
X124855893Y-95587332D01*
X124788016Y-95423459D01*
X124788009Y-95423446D01*
X124689464Y-95275965D01*
X124689461Y-95275961D01*
X124564038Y-95150538D01*
X124564034Y-95150535D01*
X124416553Y-95051990D01*
X124416540Y-95051983D01*
X124252667Y-94984106D01*
X124252658Y-94984103D01*
X124078694Y-94949500D01*
X124078691Y-94949500D01*
X123901309Y-94949500D01*
X123901306Y-94949500D01*
X123727341Y-94984103D01*
X123727332Y-94984106D01*
X123563459Y-95051983D01*
X123563446Y-95051990D01*
X123415965Y-95150535D01*
X123415961Y-95150538D01*
X123290538Y-95275961D01*
X123290535Y-95275965D01*
X123191990Y-95423446D01*
X123191983Y-95423459D01*
X123124106Y-95587332D01*
X123124103Y-95587341D01*
X123089500Y-95761304D01*
X120260499Y-95761304D01*
X120225896Y-95587341D01*
X120225893Y-95587332D01*
X120158016Y-95423459D01*
X120158009Y-95423446D01*
X120059464Y-95275965D01*
X120059461Y-95275961D01*
X119934038Y-95150538D01*
X119934034Y-95150535D01*
X119786553Y-95051990D01*
X119786540Y-95051983D01*
X119622667Y-94984106D01*
X119622658Y-94984103D01*
X119448694Y-94949500D01*
X119448691Y-94949500D01*
X119271309Y-94949500D01*
X119271306Y-94949500D01*
X119097341Y-94984103D01*
X119097332Y-94984106D01*
X118933459Y-95051983D01*
X118933446Y-95051990D01*
X118785965Y-95150535D01*
X118785961Y-95150538D01*
X118660538Y-95275961D01*
X118660535Y-95275965D01*
X118561990Y-95423446D01*
X118561983Y-95423459D01*
X118494106Y-95587332D01*
X118494103Y-95587341D01*
X118459500Y-95761304D01*
X98250500Y-95761304D01*
X98250500Y-95609755D01*
X98252025Y-95590368D01*
X98257193Y-95557740D01*
X98269177Y-95520856D01*
X98279690Y-95500225D01*
X98302484Y-95468853D01*
X98318853Y-95452484D01*
X98320753Y-95451103D01*
X98321385Y-95450022D01*
X98350224Y-95429690D01*
X98370856Y-95419177D01*
X98407742Y-95407192D01*
X98440366Y-95402025D01*
X98459756Y-95400500D01*
X104568995Y-95400500D01*
X104660041Y-95382389D01*
X104704328Y-95373580D01*
X104728376Y-95363618D01*
X104731927Y-95362809D01*
X104741726Y-95358089D01*
X104831811Y-95320775D01*
X104864331Y-95299045D01*
X104873601Y-95294582D01*
X104886978Y-95283913D01*
X104946542Y-95244114D01*
X104984570Y-95206085D01*
X104996541Y-95196541D01*
X105006088Y-95184567D01*
X105044114Y-95146542D01*
X105083913Y-95086978D01*
X105094582Y-95073601D01*
X105099045Y-95064331D01*
X105120775Y-95031811D01*
X105158089Y-94941726D01*
X105162809Y-94931927D01*
X105163618Y-94928376D01*
X105173580Y-94904328D01*
X105200500Y-94768993D01*
X105200500Y-94700000D01*
X105200500Y-94699500D01*
X105200500Y-94631007D01*
X105200500Y-94631004D01*
X105173581Y-94495678D01*
X105173580Y-94495674D01*
X105173580Y-94495672D01*
X105163619Y-94471624D01*
X105162809Y-94468073D01*
X105158084Y-94458263D01*
X105120775Y-94368189D01*
X105120775Y-94368188D01*
X105103887Y-94342915D01*
X105103887Y-94342914D01*
X105099046Y-94335670D01*
X105094582Y-94326399D01*
X105083908Y-94313014D01*
X105044114Y-94253458D01*
X105044112Y-94253455D01*
X105044110Y-94253453D01*
X105011021Y-94220365D01*
X105006093Y-94215437D01*
X104996541Y-94203459D01*
X104984562Y-94193906D01*
X104979634Y-94188978D01*
X104946545Y-94155888D01*
X104946544Y-94155887D01*
X104926334Y-94142383D01*
X104886982Y-94116089D01*
X104873601Y-94105418D01*
X104864332Y-94100954D01*
X104857093Y-94096117D01*
X104857087Y-94096114D01*
X104831814Y-94079227D01*
X104831813Y-94079226D01*
X104831811Y-94079225D01*
X104831808Y-94079223D01*
X104831803Y-94079221D01*
X104744957Y-94043249D01*
X104744952Y-94043247D01*
X104741733Y-94041913D01*
X104731927Y-94037191D01*
X104728380Y-94036381D01*
X104718736Y-94032386D01*
X104718727Y-94032384D01*
X104714873Y-94030788D01*
X104704328Y-94026420D01*
X104704324Y-94026419D01*
X104568995Y-93999500D01*
X104568993Y-93999500D01*
X104500207Y-93999500D01*
X100259757Y-93999500D01*
X100240359Y-93997973D01*
X100192299Y-93990361D01*
X100155401Y-93978372D01*
X100120844Y-93960764D01*
X100089459Y-93937961D01*
X100062037Y-93910539D01*
X100039233Y-93879152D01*
X100021627Y-93844598D01*
X100009638Y-93807700D01*
X100006783Y-93789675D01*
X100002026Y-93759635D01*
X100000500Y-93740239D01*
X100000500Y-91345170D01*
X100000972Y-91334358D01*
X100003407Y-91306543D01*
X100013898Y-91186693D01*
X100016130Y-91171763D01*
X100022878Y-91140027D01*
X100024365Y-91133832D01*
X100043579Y-91062135D01*
X107149500Y-91062135D01*
X107149500Y-92857870D01*
X107149501Y-92857876D01*
X107155908Y-92917483D01*
X107206202Y-93052328D01*
X107206206Y-93052335D01*
X107292452Y-93167544D01*
X107292455Y-93167547D01*
X107407664Y-93253793D01*
X107407671Y-93253797D01*
X107542517Y-93304091D01*
X107542516Y-93304091D01*
X107549444Y-93304835D01*
X107602127Y-93310500D01*
X109397872Y-93310499D01*
X109457483Y-93304091D01*
X109592331Y-93253796D01*
X109707546Y-93167546D01*
X109793796Y-93052331D01*
X109842810Y-92920916D01*
X109884681Y-92864984D01*
X109950145Y-92840566D01*
X110018418Y-92855417D01*
X110046673Y-92876569D01*
X110160213Y-92990109D01*
X110332179Y-93115048D01*
X110332181Y-93115049D01*
X110332184Y-93115051D01*
X110521588Y-93211557D01*
X110723757Y-93277246D01*
X110933713Y-93310500D01*
X110933714Y-93310500D01*
X111146286Y-93310500D01*
X111146287Y-93310500D01*
X111356243Y-93277246D01*
X111558412Y-93211557D01*
X111747816Y-93115051D01*
X111834138Y-93052335D01*
X111919786Y-92990109D01*
X111919788Y-92990106D01*
X111919792Y-92990104D01*
X112070104Y-92839792D01*
X112070106Y-92839788D01*
X112070109Y-92839786D01*
X112155890Y-92721717D01*
X112195051Y-92667816D01*
X112199793Y-92658508D01*
X112247763Y-92607711D01*
X112315583Y-92590911D01*
X112381719Y-92613445D01*
X112420763Y-92658500D01*
X112425373Y-92667547D01*
X112464728Y-92721716D01*
X113097037Y-92089408D01*
X113114075Y-92152993D01*
X113179901Y-92267007D01*
X113272993Y-92360099D01*
X113387007Y-92425925D01*
X113450590Y-92442962D01*
X112818282Y-93075269D01*
X112818282Y-93075270D01*
X112872449Y-93114624D01*
X113061782Y-93211095D01*
X113263870Y-93276757D01*
X113473754Y-93310000D01*
X113686246Y-93310000D01*
X113896127Y-93276757D01*
X113896130Y-93276757D01*
X114098217Y-93211095D01*
X114287554Y-93114622D01*
X114341716Y-93075270D01*
X114341717Y-93075270D01*
X113709408Y-92442962D01*
X113772993Y-92425925D01*
X113887007Y-92360099D01*
X113980099Y-92267007D01*
X114045925Y-92152993D01*
X114062962Y-92089408D01*
X114695270Y-92721717D01*
X114695270Y-92721716D01*
X114734622Y-92667554D01*
X114831095Y-92478217D01*
X114896757Y-92276130D01*
X114896757Y-92276127D01*
X114930000Y-92066246D01*
X114930000Y-91853753D01*
X114896757Y-91643872D01*
X114896757Y-91643869D01*
X114831095Y-91441782D01*
X114734624Y-91252449D01*
X114695270Y-91198282D01*
X114695269Y-91198282D01*
X114062962Y-91830590D01*
X114045925Y-91767007D01*
X113980099Y-91652993D01*
X113887007Y-91559901D01*
X113772993Y-91494075D01*
X113709409Y-91477037D01*
X114341716Y-90844728D01*
X114287550Y-90805375D01*
X114098217Y-90708904D01*
X113896129Y-90643242D01*
X113686246Y-90610000D01*
X113473754Y-90610000D01*
X113263872Y-90643242D01*
X113263869Y-90643242D01*
X113061782Y-90708904D01*
X112872439Y-90805380D01*
X112818282Y-90844727D01*
X112818282Y-90844728D01*
X113450591Y-91477037D01*
X113387007Y-91494075D01*
X113272993Y-91559901D01*
X113179901Y-91652993D01*
X113114075Y-91767007D01*
X113097037Y-91830591D01*
X112464728Y-91198282D01*
X112464727Y-91198282D01*
X112425380Y-91252440D01*
X112425376Y-91252446D01*
X112420760Y-91261505D01*
X112372781Y-91312297D01*
X112304959Y-91329087D01*
X112238826Y-91306543D01*
X112199794Y-91261493D01*
X112195051Y-91252184D01*
X112195049Y-91252181D01*
X112195048Y-91252179D01*
X112070109Y-91080213D01*
X111919786Y-90929890D01*
X111747820Y-90804951D01*
X111558414Y-90708444D01*
X111558413Y-90708443D01*
X111558412Y-90708443D01*
X111356243Y-90642754D01*
X111356241Y-90642753D01*
X111356240Y-90642753D01*
X111194957Y-90617208D01*
X111146287Y-90609500D01*
X110933713Y-90609500D01*
X110885042Y-90617208D01*
X110723760Y-90642753D01*
X110622672Y-90675598D01*
X110528501Y-90706197D01*
X110521585Y-90708444D01*
X110332179Y-90804951D01*
X110160215Y-90929889D01*
X110046673Y-91043431D01*
X109985350Y-91076915D01*
X109915658Y-91071931D01*
X109859725Y-91030059D01*
X109842810Y-90999082D01*
X109793797Y-90867671D01*
X109793793Y-90867664D01*
X109707547Y-90752455D01*
X109707544Y-90752452D01*
X109592335Y-90666206D01*
X109592328Y-90666202D01*
X109457482Y-90615908D01*
X109457483Y-90615908D01*
X109397883Y-90609501D01*
X109397881Y-90609500D01*
X109397873Y-90609500D01*
X109397864Y-90609500D01*
X107602129Y-90609500D01*
X107602123Y-90609501D01*
X107542516Y-90615908D01*
X107407671Y-90666202D01*
X107407664Y-90666206D01*
X107292455Y-90752452D01*
X107292452Y-90752455D01*
X107206206Y-90867664D01*
X107206202Y-90867671D01*
X107155908Y-91002517D01*
X107149501Y-91062116D01*
X107149500Y-91062135D01*
X100043579Y-91062135D01*
X100057984Y-91008384D01*
X100065375Y-90988082D01*
X100129844Y-90849841D01*
X100140644Y-90831137D01*
X100228137Y-90706194D01*
X100242028Y-90689640D01*
X100333848Y-90597825D01*
X100338501Y-90593411D01*
X100362601Y-90571713D01*
X100374418Y-90562313D01*
X100496262Y-90477001D01*
X100505341Y-90471218D01*
X105914278Y-87348366D01*
X109800000Y-87348366D01*
X109800000Y-87651633D01*
X109833952Y-87952966D01*
X109833954Y-87952982D01*
X109901434Y-88248633D01*
X109901438Y-88248645D01*
X110001592Y-88534866D01*
X110001598Y-88534880D01*
X110133172Y-88808096D01*
X110294515Y-89064872D01*
X110421871Y-89224573D01*
X111019500Y-88626944D01*
X111133274Y-88626944D01*
X111133274Y-88706508D01*
X111163722Y-88780017D01*
X111219983Y-88836278D01*
X111293492Y-88866726D01*
X111373056Y-88866726D01*
X111446565Y-88836278D01*
X111502826Y-88780017D01*
X111533274Y-88706508D01*
X111533274Y-88626944D01*
X111502826Y-88553435D01*
X111446565Y-88497174D01*
X111373056Y-88466726D01*
X111293492Y-88466726D01*
X111219983Y-88497174D01*
X111163722Y-88553435D01*
X111133274Y-88626944D01*
X111019500Y-88626944D01*
X111563708Y-88082736D01*
X111660967Y-88216602D01*
X111783398Y-88339033D01*
X111917262Y-88436290D01*
X110775425Y-89578127D01*
X110935127Y-89705484D01*
X111191903Y-89866827D01*
X111465119Y-89998401D01*
X111465133Y-89998407D01*
X111751354Y-90098561D01*
X111751366Y-90098565D01*
X112047017Y-90166045D01*
X112047033Y-90166047D01*
X112348366Y-90199999D01*
X112348368Y-90200000D01*
X112651632Y-90200000D01*
X112651633Y-90199999D01*
X112952966Y-90166047D01*
X112952982Y-90166045D01*
X113248633Y-90098565D01*
X113248645Y-90098561D01*
X113534866Y-89998407D01*
X113534880Y-89998401D01*
X113808096Y-89866827D01*
X114064872Y-89705484D01*
X114224573Y-89578126D01*
X113273391Y-88626944D01*
X113466726Y-88626944D01*
X113466726Y-88706508D01*
X113497174Y-88780017D01*
X113553435Y-88836278D01*
X113626944Y-88866726D01*
X113706508Y-88866726D01*
X113780017Y-88836278D01*
X113836278Y-88780017D01*
X113866726Y-88706508D01*
X113866726Y-88626944D01*
X113836278Y-88553435D01*
X113780017Y-88497174D01*
X113706508Y-88466726D01*
X113626944Y-88466726D01*
X113553435Y-88497174D01*
X113497174Y-88553435D01*
X113466726Y-88626944D01*
X113273391Y-88626944D01*
X113082737Y-88436290D01*
X113216602Y-88339033D01*
X113339033Y-88216602D01*
X113436290Y-88082737D01*
X114578126Y-89224573D01*
X114705484Y-89064872D01*
X114866827Y-88808096D01*
X114998401Y-88534880D01*
X114998407Y-88534866D01*
X115098561Y-88248645D01*
X115098565Y-88248633D01*
X115166045Y-87952982D01*
X115166047Y-87952966D01*
X115198399Y-87665837D01*
X121709500Y-87665837D01*
X121709500Y-87894162D01*
X121745215Y-88119660D01*
X121815770Y-88336803D01*
X121868762Y-88440804D01*
X121919421Y-88540228D01*
X122053621Y-88724937D01*
X122215063Y-88886379D01*
X122399772Y-89020579D01*
X122486702Y-89064872D01*
X122603196Y-89124229D01*
X122603198Y-89124229D01*
X122603201Y-89124231D01*
X122719592Y-89162049D01*
X122820339Y-89194784D01*
X123045838Y-89230500D01*
X123045843Y-89230500D01*
X123274162Y-89230500D01*
X123499660Y-89194784D01*
X123716799Y-89124231D01*
X123920228Y-89020579D01*
X124104937Y-88886379D01*
X124266379Y-88724937D01*
X124400579Y-88540228D01*
X124504231Y-88336799D01*
X124574784Y-88119660D01*
X124581616Y-88076525D01*
X124610500Y-87894162D01*
X124610500Y-87665837D01*
X128709500Y-87665837D01*
X128709500Y-87894162D01*
X128745215Y-88119660D01*
X128815770Y-88336803D01*
X128868762Y-88440804D01*
X128919421Y-88540228D01*
X129053621Y-88724937D01*
X129215063Y-88886379D01*
X129399772Y-89020579D01*
X129486702Y-89064872D01*
X129603196Y-89124229D01*
X129603198Y-89124229D01*
X129603201Y-89124231D01*
X129719592Y-89162049D01*
X129820339Y-89194784D01*
X130045838Y-89230500D01*
X130045843Y-89230500D01*
X130274162Y-89230500D01*
X130499660Y-89194784D01*
X130716799Y-89124231D01*
X130920228Y-89020579D01*
X131104937Y-88886379D01*
X131266379Y-88724937D01*
X131400579Y-88540228D01*
X131504231Y-88336799D01*
X131574784Y-88119660D01*
X131581616Y-88076525D01*
X131610500Y-87894162D01*
X131610500Y-87665837D01*
X131574784Y-87440339D01*
X131539078Y-87330448D01*
X131504231Y-87223201D01*
X131504229Y-87223198D01*
X131504229Y-87223196D01*
X131449550Y-87115884D01*
X131400579Y-87019772D01*
X131266379Y-86835063D01*
X131104937Y-86673621D01*
X130920228Y-86539421D01*
X130908164Y-86533274D01*
X130716803Y-86435770D01*
X130499660Y-86365215D01*
X130274162Y-86329500D01*
X130274157Y-86329500D01*
X130045843Y-86329500D01*
X130045838Y-86329500D01*
X129820339Y-86365215D01*
X129603196Y-86435770D01*
X129399771Y-86539421D01*
X129215061Y-86673622D01*
X129053622Y-86835061D01*
X128919421Y-87019771D01*
X128815770Y-87223196D01*
X128745215Y-87440339D01*
X128709500Y-87665837D01*
X124610500Y-87665837D01*
X124574784Y-87440339D01*
X124539078Y-87330448D01*
X124504231Y-87223201D01*
X124504229Y-87223198D01*
X124504229Y-87223196D01*
X124449550Y-87115884D01*
X124400579Y-87019772D01*
X124266379Y-86835063D01*
X124104937Y-86673621D01*
X123920228Y-86539421D01*
X123908164Y-86533274D01*
X123716803Y-86435770D01*
X123499660Y-86365215D01*
X123274162Y-86329500D01*
X123274157Y-86329500D01*
X123045843Y-86329500D01*
X123045838Y-86329500D01*
X122820339Y-86365215D01*
X122603196Y-86435770D01*
X122399771Y-86539421D01*
X122215061Y-86673622D01*
X122053622Y-86835061D01*
X121919421Y-87019771D01*
X121815770Y-87223196D01*
X121745215Y-87440339D01*
X121709500Y-87665837D01*
X115198399Y-87665837D01*
X115200000Y-87651632D01*
X115200000Y-87348368D01*
X115199999Y-87348366D01*
X115166047Y-87047033D01*
X115166045Y-87047017D01*
X115098565Y-86751366D01*
X115098561Y-86751354D01*
X114998407Y-86465133D01*
X114998401Y-86465119D01*
X114866827Y-86191903D01*
X114705484Y-85935127D01*
X114578127Y-85775425D01*
X113436290Y-86917262D01*
X113339033Y-86783398D01*
X113216602Y-86660967D01*
X113082736Y-86563709D01*
X113352953Y-86293492D01*
X113466726Y-86293492D01*
X113466726Y-86373056D01*
X113497174Y-86446565D01*
X113553435Y-86502826D01*
X113626944Y-86533274D01*
X113706508Y-86533274D01*
X113780017Y-86502826D01*
X113836278Y-86446565D01*
X113866726Y-86373056D01*
X113866726Y-86293492D01*
X113836278Y-86219983D01*
X113780017Y-86163722D01*
X113706508Y-86133274D01*
X113626944Y-86133274D01*
X113553435Y-86163722D01*
X113497174Y-86219983D01*
X113466726Y-86293492D01*
X113352953Y-86293492D01*
X114224573Y-85421871D01*
X114064872Y-85294515D01*
X113808096Y-85133172D01*
X113534880Y-85001598D01*
X113534866Y-85001592D01*
X113248645Y-84901438D01*
X113248633Y-84901434D01*
X112952982Y-84833954D01*
X112952966Y-84833952D01*
X112651633Y-84800000D01*
X112348366Y-84800000D01*
X112047033Y-84833952D01*
X112047017Y-84833954D01*
X111751366Y-84901434D01*
X111751354Y-84901438D01*
X111465133Y-85001592D01*
X111465119Y-85001598D01*
X111191903Y-85133172D01*
X110935127Y-85294515D01*
X110775425Y-85421871D01*
X111917263Y-86563709D01*
X111783398Y-86660967D01*
X111660967Y-86783398D01*
X111563709Y-86917263D01*
X110939938Y-86293492D01*
X111133274Y-86293492D01*
X111133274Y-86373056D01*
X111163722Y-86446565D01*
X111219983Y-86502826D01*
X111293492Y-86533274D01*
X111373056Y-86533274D01*
X111446565Y-86502826D01*
X111502826Y-86446565D01*
X111533274Y-86373056D01*
X111533274Y-86293492D01*
X111502826Y-86219983D01*
X111446565Y-86163722D01*
X111373056Y-86133274D01*
X111293492Y-86133274D01*
X111219983Y-86163722D01*
X111163722Y-86219983D01*
X111133274Y-86293492D01*
X110939938Y-86293492D01*
X110421871Y-85775425D01*
X110294515Y-85935127D01*
X110133172Y-86191903D01*
X110001598Y-86465119D01*
X110001592Y-86465133D01*
X109901438Y-86751354D01*
X109901434Y-86751366D01*
X109833954Y-87047017D01*
X109833952Y-87047033D01*
X109800000Y-87348366D01*
X105914278Y-87348366D01*
X115496704Y-81815949D01*
X115503869Y-81812119D01*
X115608899Y-81760353D01*
X115621325Y-81755053D01*
X115632351Y-81751048D01*
X115634673Y-81750232D01*
X115734471Y-81716431D01*
X115750169Y-81712240D01*
X115853498Y-81691808D01*
X115855962Y-81691349D01*
X115867509Y-81689328D01*
X115880954Y-81687727D01*
X115986581Y-81680972D01*
X115997715Y-81680260D01*
X116005877Y-81680007D01*
X116052678Y-81680100D01*
X116053602Y-81679999D01*
X126987228Y-81680273D01*
G37*
G04 #@! TD.AperFunction*
M02*
