M48
; DRILL file {KiCad 9.0.3} date 2025-07-21T23:34:29+0100
; FORMAT={-:-/ absolute / metric / decimal}
; #@! TF.CreationDate,2025-07-21T23:34:29+01:00
; #@! TF.GenerationSoftware,Kicad,Pcbnew,9.0.3
; #@! TF.FileFunction,Plated,1,4,PTH
FMAT,2
METRIC
; #@! TA.AperFunction,Plated,PTH,ViaDrill
T1C0.400
; #@! TA.AperFunction,Plated,PTH,ComponentDrill
T2C0.400
; #@! TA.AperFunction,Plated,PTH,ComponentDrill
T3C1.000
; #@! TA.AperFunction,Plated,PTH,ComponentDrill
T4C2.200
%
G90
G05
T1
X105.95Y-91.93
X106.52Y-101.08
X107.97Y-103.0
X108.785Y-102.255
X110.13Y-101.07
X113.2Y-104.79
X114.49Y-106.39
X115.2Y-110.21
X115.88Y-112.33
X116.14Y-106.36
X116.735Y-110.205
X116.97Y-112.32
X117.61Y-104.9
X118.73Y-101.675
X118.74Y-103.07
X119.34Y-94.39
X119.36Y-95.85
X123.06Y-116.97
X123.98Y-94.41
X123.99Y-95.85
X124.99Y-116.65
X125.989Y-116.605
X127.44Y-117.0
X127.5Y-114.06
X129.0Y-114.09
X135.64Y-91.93
T2
X110.85Y-87.5
X110.85Y-112.5
X111.333Y-86.333
X111.333Y-88.667
X111.333Y-111.333
X111.333Y-113.667
X112.5Y-85.85
X112.5Y-89.15
X112.5Y-110.85
X112.5Y-114.15
X113.667Y-86.333
X113.667Y-88.667
X113.667Y-111.333
X113.667Y-113.667
X114.15Y-87.5
X114.15Y-112.5
T3
X108.5Y-91.96
X111.04Y-91.96
X113.58Y-91.96
T4
X112.5Y-87.5
X112.5Y-112.5
M30
