M48
; DRILL file {KiCad 9.0.3} date 2025-07-22T18:38:53+0100
; FORMAT={-:-/ absolute / metric / decimal}
; #@! TF.CreationDate,2025-07-22T18:38:53+01:00
; #@! TF.GenerationSoftware,Kicad,Pcbnew,9.0.3
; #@! TF.FileFunction,Plated,1,4,PTH
FMAT,2
METRIC
; #@! TA.AperFunction,Plated,PTH,ViaDrill
T1C0.400
; #@! TA.AperFunction,Plated,PTH,ComponentDrill
T2C0.400
; #@! TA.AperFunction,Plated,PTH,ComponentDrill
T3C1.000
; #@! TA.AperFunction,Plated,PTH,ComponentDrill
T4C2.200
%
G90
G05
T1
X105.95Y-91.93
X106.53Y-100.99
X108.76Y-103.77
X108.785Y-102.255
X110.13Y-101.07
X111.36Y-108.24
X113.2Y-104.79
X113.235Y-108.245
X114.49Y-106.39
X116.14Y-106.36
X116.92Y-110.07
X116.97Y-112.32
X117.61Y-104.9
X118.73Y-101.675
X118.74Y-103.07
X119.34Y-94.39
X119.36Y-95.85
X123.98Y-94.41
X123.99Y-95.85
X125.48Y-116.88
X126.19Y-112.79
X126.25Y-111.21
X127.08Y-116.96
X127.99Y-113.89
X129.73Y-113.9
X135.64Y-91.93
T2
X110.85Y-87.5
X110.85Y-112.5
X111.333Y-86.333
X111.333Y-88.667
X111.333Y-111.333
X111.333Y-113.667
X112.5Y-85.85
X112.5Y-89.15
X112.5Y-110.85
X112.5Y-114.15
X113.667Y-86.333
X113.667Y-88.667
X113.667Y-111.333
X113.667Y-113.667
X114.15Y-87.5
X114.15Y-112.5
T3
X108.5Y-91.96
X111.04Y-91.96
X113.58Y-91.96
T4
X112.5Y-87.5
X112.5Y-112.5
M30
