G04 #@! TF.GenerationSoftware,KiCad,Pcbnew,9.0.3*
G04 #@! TF.CreationDate,2025-07-23T16:39:30+01:00*
G04 #@! TF.ProjectId,dectspansion,64656374-7370-4616-9e73-696f6e2e6b69,Prototype 2*
G04 #@! TF.SameCoordinates,Original*
G04 #@! TF.FileFunction,Legend,Bot*
G04 #@! TF.FilePolarity,Positive*
%FSLAX46Y46*%
G04 Gerber Fmt 4.6, Leading zero omitted, Abs format (unit mm)*
G04 Created by KiCad (PCBNEW 9.0.3) date 2025-07-23 16:39:30*
%MOMM*%
%LPD*%
G01*
G04 APERTURE LIST*
G04 Aperture macros list*
%AMRoundRect*
0 Rectangle with rounded corners*
0 $1 Rounding radius*
0 $2 $3 $4 $5 $6 $7 $8 $9 X,Y pos of 4 corners*
0 Add a 4 corners polygon primitive as box body*
4,1,4,$2,$3,$4,$5,$6,$7,$8,$9,$2,$3,0*
0 Add four circle primitives for the rounded corners*
1,1,$1+$1,$2,$3*
1,1,$1+$1,$4,$5*
1,1,$1+$1,$6,$7*
1,1,$1+$1,$8,$9*
0 Add four rect primitives between the rounded corners*
20,1,$1+$1,$2,$3,$4,$5,0*
20,1,$1+$1,$4,$5,$6,$7,0*
20,1,$1+$1,$6,$7,$8,$9,0*
20,1,$1+$1,$8,$9,$2,$3,0*%
%AMFreePoly0*
4,1,23,0.500000,-0.750000,0.000000,-0.750000,0.000000,-0.745722,-0.065263,-0.745722,-0.191342,-0.711940,-0.304381,-0.646677,-0.396677,-0.554381,-0.461940,-0.441342,-0.495722,-0.315263,-0.495722,-0.250000,-0.500000,-0.250000,-0.500000,0.250000,-0.495722,0.250000,-0.495722,0.315263,-0.461940,0.441342,-0.396677,0.554381,-0.304381,0.646677,-0.191342,0.711940,-0.065263,0.745722,0.000000,0.745722,
0.000000,0.750000,0.500000,0.750000,0.500000,-0.750000,0.500000,-0.750000,$1*%
%AMFreePoly1*
4,1,23,0.000000,0.745722,0.065263,0.745722,0.191342,0.711940,0.304381,0.646677,0.396677,0.554381,0.461940,0.441342,0.495722,0.315263,0.495722,0.250000,0.500000,0.250000,0.500000,-0.250000,0.495722,-0.250000,0.495722,-0.315263,0.461940,-0.441342,0.396677,-0.554381,0.304381,-0.646677,0.191342,-0.711940,0.065263,-0.745722,0.000000,-0.745722,0.000000,-0.750000,-0.500000,-0.750000,
-0.500000,0.750000,0.000000,0.750000,0.000000,0.745722,0.000000,0.745722,$1*%
G04 Aperture macros list end*
%ADD10C,0.000000*%
%ADD11C,0.200000*%
%ADD12C,0.062500*%
%ADD13C,0.300000*%
%ADD14C,0.250000*%
%ADD15C,0.120000*%
%ADD16C,1.900000*%
%ADD17RoundRect,0.150000X-1.600000X-0.150000X1.600000X-0.150000X1.600000X0.150000X-1.600000X0.150000X0*%
%ADD18RoundRect,0.150000X-1.200000X-0.150000X1.200000X-0.150000X1.200000X0.150000X-1.200000X0.150000X0*%
%ADD19C,0.700000*%
%ADD20C,4.400000*%
%ADD21R,1.700000X1.700000*%
%ADD22C,1.700000*%
%ADD23FreePoly0,90.000000*%
%ADD24FreePoly1,90.000000*%
G04 APERTURE END LIST*
D10*
G36*
X124139549Y-93386327D02*
G01*
X124149246Y-93398101D01*
X124158265Y-93410104D01*
X124166608Y-93422328D01*
X124174276Y-93434767D01*
X124181270Y-93447412D01*
X124187592Y-93460258D01*
X124193242Y-93473298D01*
X124198223Y-93486524D01*
X124202536Y-93499930D01*
X124206181Y-93513509D01*
X124209161Y-93527254D01*
X124211476Y-93541158D01*
X124213129Y-93555214D01*
X124214119Y-93569415D01*
X124214449Y-93583755D01*
X124213826Y-93604186D01*
X124211973Y-93623955D01*
X124208910Y-93642972D01*
X124204656Y-93661147D01*
X124199233Y-93678387D01*
X124192662Y-93694604D01*
X124184962Y-93709706D01*
X124180695Y-93716811D01*
X124176154Y-93723603D01*
X124171341Y-93730072D01*
X124166258Y-93736205D01*
X124160909Y-93741991D01*
X124155296Y-93747420D01*
X124149421Y-93752479D01*
X124143288Y-93757158D01*
X124136897Y-93761445D01*
X124130253Y-93765329D01*
X124123358Y-93768798D01*
X124116213Y-93771841D01*
X124108823Y-93774447D01*
X124101189Y-93776605D01*
X124093314Y-93778303D01*
X124085200Y-93779530D01*
X124076850Y-93780275D01*
X124068267Y-93780525D01*
X124054239Y-93780060D01*
X124040637Y-93778644D01*
X124027517Y-93776248D01*
X124021155Y-93774674D01*
X124014934Y-93772844D01*
X124008861Y-93770755D01*
X124002942Y-93768403D01*
X123997186Y-93765784D01*
X123991597Y-93762895D01*
X123986185Y-93759732D01*
X123980955Y-93756291D01*
X123975914Y-93752570D01*
X123971069Y-93748564D01*
X123966427Y-93744269D01*
X123961995Y-93739682D01*
X123957780Y-93734800D01*
X123953788Y-93729619D01*
X123950027Y-93724134D01*
X123946504Y-93718344D01*
X123943225Y-93712243D01*
X123940197Y-93705828D01*
X123937427Y-93699096D01*
X123934922Y-93692044D01*
X123932689Y-93684666D01*
X123930734Y-93676960D01*
X123929065Y-93668923D01*
X123927689Y-93660550D01*
X123926612Y-93651838D01*
X123925842Y-93642783D01*
X123920259Y-93564070D01*
X123919356Y-93555490D01*
X123918084Y-93547654D01*
X123916467Y-93540534D01*
X123914529Y-93534105D01*
X123912295Y-93528340D01*
X123911075Y-93525699D01*
X123909791Y-93523213D01*
X123908444Y-93520881D01*
X123907039Y-93518699D01*
X123905579Y-93516664D01*
X123904066Y-93514771D01*
X123902504Y-93513019D01*
X123900896Y-93511403D01*
X123897553Y-93508569D01*
X123894063Y-93506242D01*
X123890449Y-93504397D01*
X123886736Y-93503007D01*
X123882949Y-93502047D01*
X123879114Y-93501490D01*
X123875253Y-93501310D01*
X123872207Y-93501371D01*
X123869213Y-93501557D01*
X123866274Y-93501870D01*
X123863393Y-93502315D01*
X123860573Y-93502895D01*
X123857816Y-93503614D01*
X123855126Y-93504475D01*
X123852505Y-93505482D01*
X123849957Y-93506639D01*
X123847484Y-93507949D01*
X123845089Y-93509415D01*
X123842776Y-93511042D01*
X123840547Y-93512833D01*
X123838405Y-93514792D01*
X123836354Y-93516921D01*
X123834395Y-93519226D01*
X123832532Y-93521709D01*
X123830768Y-93524374D01*
X123829106Y-93527224D01*
X123827549Y-93530263D01*
X123826100Y-93533496D01*
X123824761Y-93536924D01*
X123823535Y-93540553D01*
X123822427Y-93544385D01*
X123821437Y-93548424D01*
X123820570Y-93552674D01*
X123819829Y-93557139D01*
X123819215Y-93561821D01*
X123818733Y-93566725D01*
X123818385Y-93571854D01*
X123818174Y-93577212D01*
X123818103Y-93582802D01*
X123818310Y-93592320D01*
X123818921Y-93601548D01*
X123819922Y-93610505D01*
X123821299Y-93619207D01*
X123823039Y-93627672D01*
X123825127Y-93635919D01*
X123827550Y-93643965D01*
X123830294Y-93651829D01*
X123833345Y-93659526D01*
X123836688Y-93667077D01*
X123840312Y-93674497D01*
X123844200Y-93681806D01*
X123848340Y-93689021D01*
X123852718Y-93696159D01*
X123857319Y-93703239D01*
X123862130Y-93710278D01*
X123792835Y-93769281D01*
X123785621Y-93760381D01*
X123778752Y-93751236D01*
X123772246Y-93741820D01*
X123766118Y-93732106D01*
X123760386Y-93722069D01*
X123755065Y-93711681D01*
X123750173Y-93700917D01*
X123745726Y-93689750D01*
X123741740Y-93678155D01*
X123738232Y-93666104D01*
X123735219Y-93653572D01*
X123732716Y-93640533D01*
X123730741Y-93626960D01*
X123729310Y-93612827D01*
X123728439Y-93598108D01*
X123728145Y-93582776D01*
X123728726Y-93564266D01*
X123730467Y-93546384D01*
X123733364Y-93529207D01*
X123737412Y-93512813D01*
X123742609Y-93497281D01*
X123745636Y-93489863D01*
X123748948Y-93482689D01*
X123752545Y-93475770D01*
X123756427Y-93469116D01*
X123760592Y-93462736D01*
X123765041Y-93456639D01*
X123769772Y-93450836D01*
X123774786Y-93445337D01*
X123780081Y-93440151D01*
X123785658Y-93435288D01*
X123791515Y-93430758D01*
X123797653Y-93426570D01*
X123804070Y-93422735D01*
X123810766Y-93419262D01*
X123817741Y-93416161D01*
X123824995Y-93413442D01*
X123832526Y-93411114D01*
X123840334Y-93409187D01*
X123848418Y-93407672D01*
X123856779Y-93406578D01*
X123865415Y-93405914D01*
X123874327Y-93405690D01*
X123881865Y-93405859D01*
X123889199Y-93406362D01*
X123896329Y-93407191D01*
X123903253Y-93408340D01*
X123909969Y-93409803D01*
X123916478Y-93411571D01*
X123922778Y-93413638D01*
X123928867Y-93415998D01*
X123934746Y-93418644D01*
X123940412Y-93421567D01*
X123945865Y-93424763D01*
X123951103Y-93428224D01*
X123956127Y-93431942D01*
X123960934Y-93435912D01*
X123965523Y-93440126D01*
X123969894Y-93444577D01*
X123974046Y-93449259D01*
X123977977Y-93454165D01*
X123981686Y-93459287D01*
X123985173Y-93464619D01*
X123988436Y-93470155D01*
X123991474Y-93475886D01*
X123994286Y-93481807D01*
X123996872Y-93487910D01*
X123999229Y-93494189D01*
X124001358Y-93500637D01*
X124003257Y-93507246D01*
X124004925Y-93514010D01*
X124007563Y-93527976D01*
X124009264Y-93542480D01*
X124016752Y-93626829D01*
X124017366Y-93632892D01*
X124018180Y-93638753D01*
X124019217Y-93644384D01*
X124020502Y-93649760D01*
X124022056Y-93654854D01*
X124023904Y-93659642D01*
X124026069Y-93664097D01*
X124027277Y-93666192D01*
X124028573Y-93668193D01*
X124029959Y-93670099D01*
X124031439Y-93671905D01*
X124033016Y-93673608D01*
X124034692Y-93675205D01*
X124036470Y-93676693D01*
X124038353Y-93678069D01*
X124040345Y-93679329D01*
X124042447Y-93680470D01*
X124044664Y-93681490D01*
X124046997Y-93682383D01*
X124049450Y-93683148D01*
X124052025Y-93683782D01*
X124054726Y-93684280D01*
X124057555Y-93684640D01*
X124060515Y-93684858D01*
X124063610Y-93684932D01*
X124067330Y-93684817D01*
X124070934Y-93684476D01*
X124074423Y-93683913D01*
X124077795Y-93683133D01*
X124081052Y-93682139D01*
X124084192Y-93680938D01*
X124087215Y-93679532D01*
X124090122Y-93677927D01*
X124092912Y-93676127D01*
X124095586Y-93674136D01*
X124098142Y-93671960D01*
X124100581Y-93669602D01*
X124102902Y-93667067D01*
X124105106Y-93664359D01*
X124107193Y-93661483D01*
X124109161Y-93658443D01*
X124111011Y-93655245D01*
X124112743Y-93651892D01*
X124114357Y-93648388D01*
X124115852Y-93644739D01*
X124117229Y-93640949D01*
X124118486Y-93637021D01*
X124119625Y-93632962D01*
X124120644Y-93628775D01*
X124121544Y-93624465D01*
X124122325Y-93620035D01*
X124122986Y-93615492D01*
X124123527Y-93610838D01*
X124123948Y-93606080D01*
X124124249Y-93601220D01*
X124124430Y-93596264D01*
X124124490Y-93591216D01*
X124124249Y-93579486D01*
X124123528Y-93568173D01*
X124122327Y-93557255D01*
X124120648Y-93546711D01*
X124118492Y-93536517D01*
X124115859Y-93526654D01*
X124112752Y-93517097D01*
X124109171Y-93507826D01*
X124105118Y-93498819D01*
X124100593Y-93490053D01*
X124095598Y-93481507D01*
X124090134Y-93473158D01*
X124084202Y-93464986D01*
X124077803Y-93456967D01*
X124070939Y-93449080D01*
X124063610Y-93441303D01*
X124129173Y-93374787D01*
X124139549Y-93386327D01*
G37*
G36*
X124827250Y-94186841D02*
G01*
X124834800Y-94187381D01*
X124842218Y-94188277D01*
X124849497Y-94189525D01*
X124856630Y-94191123D01*
X124863607Y-94193067D01*
X124870422Y-94195354D01*
X124877066Y-94197980D01*
X124883532Y-94200943D01*
X124889811Y-94204239D01*
X124895897Y-94207865D01*
X124901780Y-94211817D01*
X124907453Y-94216092D01*
X124912908Y-94220688D01*
X124918137Y-94225600D01*
X124923132Y-94230826D01*
X124927886Y-94236362D01*
X124932390Y-94242205D01*
X124936637Y-94248351D01*
X124940619Y-94254798D01*
X124944327Y-94261542D01*
X124947755Y-94268581D01*
X124950893Y-94275909D01*
X124953735Y-94283525D01*
X124956272Y-94291425D01*
X124958496Y-94299606D01*
X124960400Y-94308065D01*
X124961975Y-94316798D01*
X124963214Y-94325801D01*
X124964108Y-94335073D01*
X124964651Y-94344609D01*
X124964834Y-94354406D01*
X124964657Y-94366158D01*
X124964126Y-94377191D01*
X124963235Y-94387534D01*
X124961981Y-94397213D01*
X124960358Y-94406256D01*
X124958364Y-94414691D01*
X124955993Y-94422543D01*
X124953242Y-94429842D01*
X124950106Y-94436614D01*
X124946580Y-94442887D01*
X124942662Y-94448687D01*
X124938346Y-94454043D01*
X124933629Y-94458981D01*
X124928505Y-94463529D01*
X124922971Y-94467714D01*
X124917023Y-94471564D01*
X124917023Y-94473416D01*
X124959198Y-94473416D01*
X124959198Y-94569036D01*
X124634978Y-94569036D01*
X124624226Y-94568801D01*
X124613922Y-94568102D01*
X124604060Y-94566947D01*
X124594632Y-94565343D01*
X124585632Y-94563300D01*
X124577052Y-94560824D01*
X124568885Y-94557925D01*
X124561125Y-94554610D01*
X124553764Y-94550887D01*
X124546795Y-94546764D01*
X124540212Y-94542250D01*
X124534006Y-94537353D01*
X124528172Y-94532080D01*
X124522702Y-94526439D01*
X124517589Y-94520440D01*
X124512826Y-94514089D01*
X124508406Y-94507395D01*
X124504323Y-94500366D01*
X124500568Y-94493011D01*
X124497135Y-94485336D01*
X124494018Y-94477351D01*
X124491208Y-94469063D01*
X124488699Y-94460480D01*
X124486484Y-94451611D01*
X124484556Y-94442463D01*
X124482908Y-94433045D01*
X124480423Y-94413431D01*
X124478974Y-94392832D01*
X124478503Y-94371313D01*
X124478725Y-94358181D01*
X124479406Y-94345484D01*
X124480563Y-94333216D01*
X124482217Y-94321374D01*
X124484387Y-94309954D01*
X124487092Y-94298952D01*
X124490352Y-94288364D01*
X124494186Y-94278186D01*
X124498614Y-94268415D01*
X124503654Y-94259046D01*
X124509326Y-94250075D01*
X124515650Y-94241498D01*
X124522646Y-94233311D01*
X124530331Y-94225512D01*
X124538726Y-94218094D01*
X124547850Y-94211055D01*
X124605001Y-94286038D01*
X124602505Y-94287638D01*
X124600112Y-94289280D01*
X124597819Y-94290967D01*
X124595627Y-94292703D01*
X124593532Y-94294492D01*
X124591533Y-94296338D01*
X124589630Y-94298243D01*
X124587819Y-94300212D01*
X124586101Y-94302248D01*
X124584473Y-94304356D01*
X124582933Y-94306537D01*
X124581481Y-94308797D01*
X124580115Y-94311138D01*
X124578833Y-94313564D01*
X124577633Y-94316080D01*
X124576515Y-94318688D01*
X124575476Y-94321392D01*
X124574515Y-94324195D01*
X124573631Y-94327102D01*
X124572822Y-94330116D01*
X124572086Y-94333241D01*
X124571422Y-94336480D01*
X124570829Y-94339837D01*
X124570305Y-94343315D01*
X124569457Y-94350649D01*
X124568866Y-94358513D01*
X124568521Y-94366935D01*
X124568408Y-94375944D01*
X124568599Y-94388314D01*
X124569183Y-94399776D01*
X124570180Y-94410346D01*
X124571608Y-94420039D01*
X124573487Y-94428869D01*
X124575836Y-94436852D01*
X124578673Y-94444003D01*
X124580281Y-94447272D01*
X124582018Y-94450338D01*
X124583887Y-94453203D01*
X124585890Y-94455870D01*
X124588030Y-94458340D01*
X124590308Y-94460616D01*
X124592727Y-94462698D01*
X124595290Y-94464590D01*
X124598000Y-94466292D01*
X124600857Y-94467808D01*
X124603865Y-94469137D01*
X124607026Y-94470284D01*
X124610343Y-94471249D01*
X124613818Y-94472034D01*
X124617452Y-94472641D01*
X124621250Y-94473073D01*
X124629342Y-94473416D01*
X124679004Y-94473416D01*
X124679004Y-94359142D01*
X124757691Y-94359142D01*
X124757691Y-94473442D01*
X124792378Y-94473442D01*
X124799130Y-94473362D01*
X124805508Y-94473118D01*
X124811523Y-94472705D01*
X124817184Y-94472119D01*
X124822502Y-94471356D01*
X124827489Y-94470410D01*
X124832153Y-94469277D01*
X124836507Y-94467952D01*
X124840559Y-94466431D01*
X124844321Y-94464710D01*
X124847804Y-94462782D01*
X124851017Y-94460645D01*
X124853971Y-94458293D01*
X124856676Y-94455721D01*
X124859144Y-94452925D01*
X124861385Y-94449901D01*
X124863408Y-94446643D01*
X124865225Y-94443148D01*
X124866846Y-94439409D01*
X124868281Y-94435424D01*
X124869541Y-94431187D01*
X124870637Y-94426693D01*
X124871579Y-94421938D01*
X124872377Y-94416917D01*
X124873584Y-94406060D01*
X124874343Y-94394085D01*
X124874736Y-94380954D01*
X124874849Y-94366630D01*
X124874525Y-94354968D01*
X124873578Y-94344206D01*
X124872043Y-94334326D01*
X124869957Y-94325305D01*
X124868718Y-94321111D01*
X124867354Y-94317124D01*
X124865871Y-94313341D01*
X124864271Y-94309761D01*
X124862561Y-94306381D01*
X124860744Y-94303197D01*
X124858824Y-94300209D01*
X124856807Y-94297412D01*
X124854697Y-94294804D01*
X124852498Y-94292383D01*
X124850215Y-94290147D01*
X124847852Y-94288092D01*
X124845413Y-94286216D01*
X124842904Y-94284517D01*
X124840328Y-94282992D01*
X124837690Y-94281638D01*
X124832246Y-94279434D01*
X124826609Y-94277886D01*
X124820813Y-94276972D01*
X124814894Y-94276672D01*
X124811678Y-94276749D01*
X124808535Y-94276980D01*
X124805468Y-94277367D01*
X124802477Y-94277909D01*
X124799565Y-94278608D01*
X124796734Y-94279464D01*
X124793986Y-94280478D01*
X124791322Y-94281651D01*
X124788745Y-94282983D01*
X124786256Y-94284475D01*
X124783858Y-94286127D01*
X124781551Y-94287941D01*
X124779339Y-94289917D01*
X124777222Y-94292055D01*
X124775204Y-94294357D01*
X124773285Y-94296823D01*
X124771468Y-94299453D01*
X124769754Y-94302249D01*
X124768145Y-94305211D01*
X124766644Y-94308340D01*
X124765253Y-94311636D01*
X124763972Y-94315101D01*
X124762804Y-94318734D01*
X124761751Y-94322537D01*
X124760815Y-94326509D01*
X124759998Y-94330653D01*
X124759301Y-94334969D01*
X124758726Y-94339456D01*
X124758276Y-94344116D01*
X124757952Y-94348950D01*
X124757757Y-94353959D01*
X124757691Y-94359142D01*
X124679004Y-94359142D01*
X124679004Y-94341283D01*
X124679192Y-94331856D01*
X124679749Y-94322720D01*
X124680666Y-94313876D01*
X124681932Y-94305324D01*
X124683538Y-94297065D01*
X124685474Y-94289099D01*
X124687731Y-94281427D01*
X124690298Y-94274048D01*
X124693165Y-94266965D01*
X124696324Y-94260177D01*
X124699763Y-94253685D01*
X124703474Y-94247490D01*
X124707447Y-94241591D01*
X124711671Y-94235990D01*
X124716137Y-94230687D01*
X124720835Y-94225683D01*
X124725755Y-94220978D01*
X124730888Y-94216572D01*
X124736224Y-94212467D01*
X124741752Y-94208662D01*
X124747464Y-94205159D01*
X124753349Y-94201957D01*
X124759398Y-94199058D01*
X124765600Y-94196462D01*
X124771946Y-94194169D01*
X124778427Y-94192180D01*
X124785031Y-94190496D01*
X124791751Y-94189116D01*
X124798575Y-94188043D01*
X124805494Y-94187275D01*
X124812498Y-94186814D01*
X124814894Y-94186762D01*
X124819578Y-94186660D01*
X124827250Y-94186841D01*
G37*
G36*
X123971746Y-91819328D02*
G01*
X124959198Y-91819328D01*
X124959198Y-91914922D01*
X124676226Y-91914922D01*
X124670241Y-91915039D01*
X124664418Y-91915387D01*
X124658758Y-91915962D01*
X124653263Y-91916758D01*
X124647935Y-91917771D01*
X124642776Y-91918996D01*
X124637788Y-91920428D01*
X124632973Y-91922063D01*
X124628332Y-91923895D01*
X124623867Y-91925920D01*
X124619581Y-91928133D01*
X124615475Y-91930529D01*
X124611551Y-91933104D01*
X124607811Y-91935852D01*
X124604256Y-91938769D01*
X124600889Y-91941850D01*
X124597712Y-91945090D01*
X124594726Y-91948484D01*
X124591934Y-91952029D01*
X124589336Y-91955718D01*
X124586936Y-91959547D01*
X124584734Y-91963511D01*
X124582733Y-91967606D01*
X124580935Y-91971826D01*
X124579342Y-91976167D01*
X124577954Y-91980625D01*
X124576776Y-91985193D01*
X124575807Y-91989868D01*
X124575050Y-91994645D01*
X124574507Y-91999518D01*
X124574180Y-92004484D01*
X124574071Y-92009537D01*
X124574180Y-92014505D01*
X124574507Y-92019392D01*
X124575050Y-92024192D01*
X124575807Y-92028901D01*
X124576776Y-92033512D01*
X124577954Y-92038022D01*
X124579342Y-92042425D01*
X124580935Y-92046716D01*
X124582733Y-92050890D01*
X124584734Y-92054943D01*
X124586936Y-92058870D01*
X124589336Y-92062664D01*
X124591933Y-92066322D01*
X124594726Y-92069838D01*
X124597712Y-92073208D01*
X124600889Y-92076427D01*
X124604256Y-92079488D01*
X124607810Y-92082389D01*
X124611551Y-92085123D01*
X124615475Y-92087685D01*
X124619581Y-92090071D01*
X124623867Y-92092276D01*
X124628332Y-92094294D01*
X124632973Y-92096121D01*
X124637788Y-92097752D01*
X124642776Y-92099181D01*
X124647935Y-92100404D01*
X124653263Y-92101416D01*
X124658758Y-92102212D01*
X124664418Y-92102786D01*
X124670241Y-92103135D01*
X124676226Y-92103252D01*
X124959197Y-92103252D01*
X124959197Y-92198820D01*
X124643391Y-92198820D01*
X124633439Y-92198575D01*
X124623784Y-92197854D01*
X124614429Y-92196674D01*
X124605373Y-92195052D01*
X124596619Y-92193004D01*
X124588167Y-92190550D01*
X124580019Y-92187705D01*
X124572175Y-92184487D01*
X124564638Y-92180914D01*
X124557407Y-92177003D01*
X124550485Y-92172771D01*
X124543873Y-92168235D01*
X124537572Y-92163414D01*
X124531583Y-92158323D01*
X124525907Y-92152981D01*
X124520545Y-92147404D01*
X124515499Y-92141611D01*
X124510770Y-92135618D01*
X124506359Y-92129443D01*
X124502267Y-92123103D01*
X124498495Y-92116616D01*
X124495045Y-92109998D01*
X124491919Y-92103267D01*
X124489116Y-92096441D01*
X124486638Y-92089536D01*
X124484487Y-92082570D01*
X124482663Y-92075561D01*
X124481169Y-92068525D01*
X124480004Y-92061481D01*
X124479171Y-92054445D01*
X124478670Y-92047434D01*
X124478502Y-92040466D01*
X124478722Y-92031070D01*
X124479382Y-92021854D01*
X124480481Y-92012825D01*
X124482019Y-92003988D01*
X124483997Y-91995348D01*
X124486414Y-91986912D01*
X124489270Y-91978683D01*
X124492565Y-91970669D01*
X124496299Y-91962875D01*
X124500473Y-91955305D01*
X124505085Y-91947966D01*
X124510136Y-91940863D01*
X124515626Y-91934002D01*
X124521554Y-91927387D01*
X124527921Y-91921025D01*
X124534727Y-91914922D01*
X124158224Y-91915266D01*
X124164415Y-91921978D01*
X124170326Y-91928767D01*
X124175940Y-91935643D01*
X124181241Y-91942619D01*
X124186213Y-91949704D01*
X124190839Y-91956910D01*
X124195102Y-91964247D01*
X124198987Y-91971728D01*
X124202476Y-91979362D01*
X124205554Y-91987161D01*
X124208203Y-91995136D01*
X124210407Y-92003297D01*
X124212151Y-92011657D01*
X124213416Y-92020225D01*
X124214188Y-92029013D01*
X124214448Y-92038032D01*
X124214372Y-92043430D01*
X124214145Y-92048736D01*
X124213770Y-92053948D01*
X124213251Y-92059068D01*
X124212590Y-92064096D01*
X124211791Y-92069031D01*
X124210857Y-92073875D01*
X124209791Y-92078626D01*
X124208595Y-92083286D01*
X124207274Y-92087853D01*
X124205830Y-92092330D01*
X124204266Y-92096715D01*
X124202585Y-92101009D01*
X124200791Y-92105212D01*
X124196873Y-92113346D01*
X124192539Y-92121117D01*
X124187812Y-92128528D01*
X124182717Y-92135579D01*
X124177279Y-92142271D01*
X124171522Y-92148607D01*
X124165472Y-92154586D01*
X124159152Y-92160211D01*
X124152589Y-92165482D01*
X124146284Y-92170182D01*
X124139914Y-92174458D01*
X124133351Y-92178329D01*
X124126465Y-92181810D01*
X124119127Y-92184919D01*
X124111209Y-92187670D01*
X124102582Y-92190081D01*
X124093117Y-92192169D01*
X124082686Y-92193949D01*
X124071158Y-92195438D01*
X124058407Y-92196653D01*
X124044302Y-92197610D01*
X124011517Y-92198817D01*
X123971773Y-92199190D01*
X123950795Y-92199099D01*
X123931708Y-92198817D01*
X123914381Y-92198326D01*
X123898685Y-92197610D01*
X123884488Y-92196653D01*
X123871661Y-92195438D01*
X123860072Y-92193949D01*
X123849591Y-92192169D01*
X123840088Y-92190081D01*
X123835662Y-92188917D01*
X123831432Y-92187670D01*
X123827381Y-92186338D01*
X123823493Y-92184919D01*
X123819751Y-92183410D01*
X123816139Y-92181811D01*
X123809242Y-92178329D01*
X123802669Y-92174458D01*
X123796291Y-92170182D01*
X123789977Y-92165482D01*
X123783414Y-92160211D01*
X123777095Y-92154586D01*
X123771044Y-92148607D01*
X123765288Y-92142271D01*
X123759850Y-92135579D01*
X123754755Y-92128528D01*
X123750027Y-92121117D01*
X123745693Y-92113346D01*
X123741776Y-92105212D01*
X123738301Y-92096715D01*
X123735292Y-92087854D01*
X123732775Y-92078626D01*
X123730775Y-92069031D01*
X123729315Y-92059068D01*
X123728421Y-92048736D01*
X123728118Y-92038032D01*
X123728379Y-92028952D01*
X123729148Y-92019995D01*
X123730410Y-92011176D01*
X123730849Y-92008981D01*
X123823685Y-92008981D01*
X123823900Y-92017167D01*
X123824534Y-92024869D01*
X123825576Y-92032100D01*
X123827010Y-92038876D01*
X123828823Y-92045211D01*
X123831003Y-92051120D01*
X123833535Y-92056618D01*
X123836406Y-92061720D01*
X123839602Y-92066440D01*
X123843109Y-92070794D01*
X123846915Y-92074795D01*
X123851006Y-92078459D01*
X123855368Y-92081800D01*
X123859987Y-92084834D01*
X123864850Y-92087574D01*
X123869944Y-92090036D01*
X123875255Y-92092235D01*
X123880770Y-92094185D01*
X123892354Y-92097397D01*
X123904590Y-92099791D01*
X123917369Y-92101485D01*
X123930582Y-92102597D01*
X123944122Y-92103246D01*
X123971746Y-92103623D01*
X123985441Y-92103548D01*
X123999050Y-92103246D01*
X124012461Y-92102597D01*
X124025566Y-92101485D01*
X124038254Y-92099791D01*
X124044407Y-92098689D01*
X124050415Y-92097397D01*
X124056264Y-92095900D01*
X124061940Y-92094185D01*
X124067429Y-92092235D01*
X124072718Y-92090036D01*
X124077793Y-92087574D01*
X124082640Y-92084834D01*
X124087245Y-92081800D01*
X124091595Y-92078459D01*
X124095676Y-92074795D01*
X124099475Y-92070794D01*
X124102976Y-92066440D01*
X124106168Y-92061720D01*
X124109035Y-92056618D01*
X124111565Y-92051120D01*
X124113743Y-92045211D01*
X124115556Y-92038876D01*
X124116990Y-92032100D01*
X124118032Y-92024869D01*
X124118666Y-92017167D01*
X124118881Y-92008981D01*
X124118653Y-92000879D01*
X124117980Y-91993257D01*
X124116879Y-91986099D01*
X124115365Y-91979392D01*
X124113455Y-91973121D01*
X124111166Y-91967272D01*
X124108513Y-91961828D01*
X124105513Y-91956778D01*
X124102182Y-91952104D01*
X124098537Y-91947794D01*
X124094593Y-91943832D01*
X124090368Y-91940203D01*
X124085876Y-91936894D01*
X124081136Y-91933890D01*
X124076162Y-91931175D01*
X124070972Y-91928736D01*
X124065581Y-91926558D01*
X124060006Y-91924626D01*
X124048369Y-91921443D01*
X124036190Y-91919069D01*
X124023601Y-91917389D01*
X124010732Y-91916285D01*
X123997713Y-91915641D01*
X123971746Y-91915266D01*
X123958655Y-91915340D01*
X123945474Y-91915642D01*
X123932331Y-91916287D01*
X123919356Y-91917392D01*
X123906677Y-91919074D01*
X123900489Y-91920168D01*
X123894424Y-91921449D01*
X123888497Y-91922934D01*
X123882725Y-91924635D01*
X123877125Y-91926567D01*
X123871711Y-91928746D01*
X123866500Y-91931186D01*
X123861508Y-91933901D01*
X123856752Y-91936906D01*
X123852248Y-91940215D01*
X123848011Y-91943843D01*
X123844058Y-91947806D01*
X123840405Y-91952116D01*
X123837068Y-91956789D01*
X123834063Y-91961839D01*
X123831407Y-91967281D01*
X123829114Y-91973130D01*
X123827203Y-91979400D01*
X123825688Y-91986105D01*
X123824586Y-91993261D01*
X123823913Y-92000881D01*
X123823685Y-92008981D01*
X123730849Y-92008981D01*
X123732145Y-92002509D01*
X123734335Y-91994006D01*
X123736964Y-91985682D01*
X123740013Y-91977550D01*
X123743464Y-91969624D01*
X123747299Y-91961918D01*
X123751501Y-91954445D01*
X123756052Y-91947218D01*
X123760934Y-91940252D01*
X123766130Y-91933560D01*
X123771620Y-91927156D01*
X123777388Y-91921053D01*
X123783416Y-91915266D01*
X123733753Y-91915266D01*
X123733753Y-91819328D01*
X123971746Y-91819328D01*
G37*
G36*
X124959198Y-92849007D02*
G01*
X124673369Y-92849007D01*
X124666987Y-92849140D01*
X124660834Y-92849534D01*
X124654907Y-92850181D01*
X124649206Y-92851072D01*
X124643728Y-92852199D01*
X124638471Y-92853554D01*
X124633434Y-92855129D01*
X124628616Y-92856916D01*
X124624014Y-92858905D01*
X124619627Y-92861090D01*
X124615453Y-92863461D01*
X124611490Y-92866011D01*
X124607737Y-92868731D01*
X124604193Y-92871613D01*
X124600855Y-92874648D01*
X124597721Y-92877830D01*
X124594791Y-92881148D01*
X124592061Y-92884596D01*
X124589532Y-92888164D01*
X124587200Y-92891845D01*
X124585065Y-92895630D01*
X124583124Y-92899512D01*
X124581376Y-92903481D01*
X124579819Y-92907530D01*
X124577272Y-92915833D01*
X124575470Y-92924356D01*
X124574398Y-92933032D01*
X124574044Y-92941796D01*
X124574122Y-92946270D01*
X124574359Y-92950568D01*
X124574761Y-92954712D01*
X124575334Y-92958724D01*
X124576082Y-92962626D01*
X124577012Y-92966441D01*
X124578129Y-92970189D01*
X124579438Y-92973893D01*
X124580946Y-92977576D01*
X124582657Y-92981258D01*
X124584578Y-92984962D01*
X124586713Y-92988710D01*
X124589069Y-92992525D01*
X124591650Y-92996426D01*
X124594463Y-93000438D01*
X124597513Y-93004582D01*
X124515042Y-93073902D01*
X124510925Y-93068422D01*
X124507015Y-93062871D01*
X124503319Y-93057243D01*
X124499845Y-93051533D01*
X124496602Y-93045736D01*
X124493597Y-93039846D01*
X124490840Y-93033856D01*
X124488339Y-93027763D01*
X124486101Y-93021559D01*
X124484134Y-93015239D01*
X124482448Y-93008798D01*
X124481049Y-93002231D01*
X124479948Y-92995530D01*
X124479150Y-92988692D01*
X124478666Y-92981710D01*
X124478503Y-92974578D01*
X124478723Y-92965181D01*
X124479382Y-92955968D01*
X124480481Y-92946946D01*
X124482019Y-92938125D01*
X124483997Y-92929511D01*
X124486414Y-92921114D01*
X124489270Y-92912941D01*
X124492566Y-92905002D01*
X124496300Y-92897305D01*
X124500473Y-92889857D01*
X124505085Y-92882668D01*
X124510136Y-92875745D01*
X124515626Y-92869097D01*
X124521555Y-92862732D01*
X124527921Y-92856659D01*
X124534727Y-92850885D01*
X124534727Y-92849007D01*
X124484138Y-92849007D01*
X124484138Y-92753439D01*
X124959198Y-92753439D01*
X124959198Y-92849007D01*
G37*
G36*
X124208787Y-94888018D02*
G01*
X123923010Y-94888018D01*
X123916624Y-94888151D01*
X123910467Y-94888545D01*
X123904537Y-94889191D01*
X123898832Y-94890081D01*
X123893352Y-94891207D01*
X123888093Y-94892561D01*
X123883055Y-94894135D01*
X123878235Y-94895919D01*
X123873632Y-94897907D01*
X123869245Y-94900090D01*
X123865071Y-94902459D01*
X123861109Y-94905007D01*
X123857356Y-94907725D01*
X123853812Y-94910605D01*
X123850475Y-94913639D01*
X123847343Y-94916818D01*
X123844414Y-94920135D01*
X123841686Y-94923581D01*
X123839158Y-94927147D01*
X123836828Y-94930827D01*
X123834694Y-94934611D01*
X123832755Y-94938491D01*
X123831008Y-94942459D01*
X123829453Y-94946508D01*
X123826909Y-94954810D01*
X123825109Y-94963334D01*
X123824039Y-94972013D01*
X123823686Y-94980781D01*
X123823763Y-94985259D01*
X123824001Y-94989560D01*
X123824402Y-94993707D01*
X123824974Y-94997720D01*
X123825722Y-95001623D01*
X123826651Y-95005437D01*
X123827766Y-95009185D01*
X123829073Y-95012888D01*
X123830578Y-95016569D01*
X123832286Y-95020250D01*
X123834202Y-95023953D01*
X123836333Y-95027699D01*
X123838682Y-95031512D01*
X123841256Y-95035412D01*
X123844061Y-95039423D01*
X123847101Y-95043567D01*
X123764631Y-95112914D01*
X123760514Y-95107425D01*
X123756604Y-95101867D01*
X123752907Y-95096235D01*
X123749434Y-95090522D01*
X123746190Y-95084724D01*
X123743186Y-95078834D01*
X123740429Y-95072846D01*
X123737927Y-95066754D01*
X123735689Y-95060553D01*
X123733723Y-95054237D01*
X123732036Y-95047799D01*
X123730638Y-95041235D01*
X123729536Y-95034538D01*
X123728739Y-95027701D01*
X123728255Y-95020721D01*
X123728092Y-95013590D01*
X123728311Y-95004193D01*
X123728971Y-94994979D01*
X123730070Y-94985956D01*
X123731608Y-94977132D01*
X123733586Y-94968516D01*
X123736003Y-94960117D01*
X123738859Y-94951942D01*
X123742154Y-94944001D01*
X123745889Y-94936301D01*
X123750062Y-94928851D01*
X123754674Y-94921659D01*
X123759725Y-94914734D01*
X123765215Y-94908085D01*
X123771143Y-94901718D01*
X123777510Y-94895644D01*
X123784316Y-94889871D01*
X123784316Y-94888018D01*
X123733727Y-94888018D01*
X123733727Y-94792424D01*
X124208787Y-94792424D01*
X124208787Y-94888018D01*
G37*
G36*
X124761279Y-93076233D02*
G01*
X124794288Y-93077440D01*
X124808480Y-93078398D01*
X124821303Y-93079614D01*
X124832888Y-93081104D01*
X124843366Y-93082885D01*
X124852867Y-93084974D01*
X124861522Y-93087387D01*
X124869460Y-93090140D01*
X124876813Y-93093251D01*
X124883710Y-93096735D01*
X124890282Y-93100610D01*
X124896660Y-93104891D01*
X124902974Y-93109595D01*
X124909537Y-93114865D01*
X124915857Y-93120488D01*
X124921907Y-93126465D01*
X124927664Y-93132798D01*
X124933102Y-93139486D01*
X124938197Y-93146534D01*
X124942924Y-93153940D01*
X124947258Y-93161708D01*
X124951176Y-93169838D01*
X124952970Y-93174039D01*
X124954651Y-93178332D01*
X124956215Y-93182716D01*
X124957659Y-93187191D01*
X124958980Y-93191758D01*
X124960176Y-93196417D01*
X124961242Y-93201169D01*
X124962176Y-93206012D01*
X124962975Y-93210947D01*
X124963636Y-93215976D01*
X124964155Y-93221097D01*
X124964530Y-93226311D01*
X124964757Y-93231618D01*
X124964833Y-93237018D01*
X124964572Y-93246099D01*
X124963801Y-93255056D01*
X124962537Y-93263877D01*
X124960799Y-93272546D01*
X124958605Y-93281050D01*
X124955973Y-93289376D01*
X124952921Y-93297509D01*
X124949468Y-93305436D01*
X124945630Y-93313144D01*
X124941426Y-93320618D01*
X124936875Y-93327844D01*
X124931994Y-93334809D01*
X124926802Y-93341500D01*
X124921316Y-93347902D01*
X124915554Y-93354001D01*
X124909535Y-93359785D01*
X124959198Y-93359785D01*
X124959198Y-93455352D01*
X124291998Y-93455352D01*
X124291998Y-93359785D01*
X124534727Y-93359785D01*
X124528536Y-93353073D01*
X124522626Y-93346284D01*
X124517012Y-93339407D01*
X124511710Y-93332432D01*
X124506739Y-93325347D01*
X124502113Y-93318141D01*
X124497849Y-93310803D01*
X124493965Y-93303323D01*
X124490475Y-93295689D01*
X124487398Y-93287890D01*
X124484749Y-93279915D01*
X124482544Y-93271753D01*
X124481359Y-93266069D01*
X124574044Y-93266069D01*
X124574272Y-93274171D01*
X124574945Y-93281794D01*
X124576047Y-93288951D01*
X124577562Y-93295658D01*
X124579473Y-93301929D01*
X124581764Y-93307779D01*
X124584418Y-93313222D01*
X124587420Y-93318273D01*
X124590753Y-93322946D01*
X124594401Y-93327257D01*
X124598346Y-93331219D01*
X124602574Y-93334847D01*
X124607068Y-93338156D01*
X124611811Y-93341161D01*
X124616787Y-93343875D01*
X124621980Y-93346314D01*
X124627373Y-93348492D01*
X124632951Y-93350424D01*
X124638696Y-93352125D01*
X124644593Y-93353608D01*
X124650625Y-93354889D01*
X124656775Y-93355982D01*
X124669368Y-93357662D01*
X124682241Y-93358766D01*
X124695263Y-93359410D01*
X124708303Y-93359711D01*
X124721232Y-93359785D01*
X124747502Y-93359410D01*
X124760642Y-93358766D01*
X124773614Y-93357662D01*
X124786288Y-93355982D01*
X124798537Y-93353608D01*
X124810231Y-93350424D01*
X124815829Y-93348492D01*
X124821241Y-93346314D01*
X124826449Y-93343875D01*
X124831438Y-93341161D01*
X124836192Y-93338156D01*
X124840694Y-93334847D01*
X124844928Y-93331219D01*
X124848879Y-93327257D01*
X124852530Y-93322946D01*
X124855865Y-93318273D01*
X124858868Y-93313222D01*
X124861523Y-93307779D01*
X124863814Y-93301929D01*
X124865724Y-93295658D01*
X124867238Y-93288951D01*
X124868339Y-93281794D01*
X124869011Y-93274171D01*
X124869239Y-93266069D01*
X124869025Y-93257883D01*
X124868390Y-93250182D01*
X124867349Y-93242951D01*
X124865915Y-93236175D01*
X124864101Y-93229840D01*
X124861922Y-93223930D01*
X124859390Y-93218432D01*
X124856520Y-93213330D01*
X124853324Y-93208610D01*
X124849817Y-93204257D01*
X124846011Y-93200256D01*
X124841921Y-93196592D01*
X124837560Y-93193250D01*
X124832942Y-93190217D01*
X124828080Y-93187476D01*
X124822987Y-93185014D01*
X124817677Y-93182816D01*
X124812164Y-93180866D01*
X124806462Y-93179150D01*
X124800583Y-93177654D01*
X124794542Y-93176362D01*
X124788352Y-93175259D01*
X124775578Y-93173565D01*
X124762371Y-93172453D01*
X124748839Y-93171805D01*
X124735089Y-93171502D01*
X124721232Y-93171428D01*
X124693911Y-93171805D01*
X124680492Y-93172453D01*
X124667381Y-93173565D01*
X124654688Y-93175259D01*
X124642523Y-93177654D01*
X124630995Y-93180866D01*
X124625504Y-93182816D01*
X124620214Y-93185014D01*
X124615138Y-93187476D01*
X124610290Y-93190217D01*
X124605683Y-93193250D01*
X124601332Y-93196592D01*
X124597251Y-93200256D01*
X124593452Y-93204257D01*
X124589950Y-93208610D01*
X124586758Y-93213330D01*
X124583890Y-93218432D01*
X124581360Y-93223930D01*
X124579182Y-93229840D01*
X124577369Y-93236175D01*
X124575935Y-93242951D01*
X124574893Y-93250182D01*
X124574259Y-93257883D01*
X124574044Y-93266069D01*
X124481359Y-93266069D01*
X124480801Y-93263394D01*
X124479535Y-93254825D01*
X124478764Y-93246037D01*
X124478503Y-93237018D01*
X124478806Y-93226311D01*
X124479698Y-93215976D01*
X124481155Y-93206012D01*
X124483153Y-93196417D01*
X124485667Y-93187191D01*
X124488672Y-93178332D01*
X124492144Y-93169838D01*
X124496058Y-93161708D01*
X124500390Y-93153940D01*
X124505116Y-93146534D01*
X124510211Y-93139486D01*
X124515650Y-93132798D01*
X124521410Y-93126465D01*
X124527464Y-93120488D01*
X124533790Y-93114865D01*
X124540362Y-93109595D01*
X124546667Y-93104891D01*
X124553035Y-93100610D01*
X124559596Y-93096735D01*
X124566480Y-93093251D01*
X124570083Y-93091650D01*
X124573815Y-93090140D01*
X124577692Y-93088720D01*
X124581731Y-93087387D01*
X124585947Y-93086139D01*
X124590357Y-93084974D01*
X124599821Y-93082885D01*
X124610253Y-93081104D01*
X124621783Y-93079614D01*
X124634539Y-93078398D01*
X124648650Y-93077440D01*
X124664246Y-93076724D01*
X124681455Y-93076233D01*
X124700407Y-93075951D01*
X124721232Y-93075860D01*
X124761279Y-93076233D01*
G37*
G36*
X123990510Y-95512208D02*
G01*
X124007500Y-95513177D01*
X124023660Y-95514762D01*
X124039008Y-95516941D01*
X124053563Y-95519690D01*
X124067343Y-95522985D01*
X124080368Y-95526802D01*
X124092654Y-95531117D01*
X124104222Y-95535908D01*
X124115090Y-95541149D01*
X124125275Y-95546819D01*
X124134798Y-95552892D01*
X124143675Y-95559345D01*
X124151925Y-95566155D01*
X124159568Y-95573298D01*
X124166622Y-95580751D01*
X124173104Y-95588488D01*
X124179034Y-95596488D01*
X124184430Y-95604726D01*
X124189311Y-95613178D01*
X124193695Y-95621821D01*
X124197601Y-95630632D01*
X124204051Y-95648660D01*
X124208810Y-95667073D01*
X124212027Y-95685681D01*
X124213848Y-95704295D01*
X124214422Y-95722726D01*
X124214156Y-95734636D01*
X124213349Y-95746465D01*
X124211988Y-95758196D01*
X124210059Y-95769811D01*
X124207547Y-95781295D01*
X124204440Y-95792631D01*
X124200723Y-95803802D01*
X124196384Y-95814791D01*
X124191407Y-95825582D01*
X124185780Y-95836159D01*
X124179489Y-95846504D01*
X124172519Y-95856601D01*
X124164858Y-95866433D01*
X124156491Y-95875984D01*
X124147406Y-95885237D01*
X124137587Y-95894176D01*
X124078585Y-95824829D01*
X124083888Y-95819427D01*
X124088899Y-95813784D01*
X124093611Y-95807920D01*
X124098017Y-95801854D01*
X124102111Y-95795609D01*
X124105884Y-95789203D01*
X124109331Y-95782657D01*
X124112445Y-95775993D01*
X124115218Y-95769230D01*
X124117643Y-95762389D01*
X124119715Y-95755490D01*
X124121425Y-95748554D01*
X124122767Y-95741601D01*
X124123734Y-95734652D01*
X124124319Y-95727728D01*
X124124516Y-95720847D01*
X124124401Y-95714749D01*
X124124055Y-95708761D01*
X124123479Y-95702888D01*
X124122673Y-95697137D01*
X124121636Y-95691512D01*
X124120370Y-95686019D01*
X124118874Y-95680663D01*
X124117149Y-95675451D01*
X124115195Y-95670387D01*
X124113011Y-95665476D01*
X124110598Y-95660726D01*
X124107957Y-95656140D01*
X124105087Y-95651724D01*
X124101989Y-95647484D01*
X124098662Y-95643426D01*
X124095108Y-95639554D01*
X124091325Y-95635875D01*
X124087315Y-95632393D01*
X124083077Y-95629114D01*
X124078612Y-95626044D01*
X124073919Y-95623188D01*
X124069000Y-95620552D01*
X124063854Y-95618141D01*
X124058481Y-95615961D01*
X124052882Y-95614016D01*
X124047056Y-95612313D01*
X124041004Y-95610857D01*
X124034726Y-95609653D01*
X124028223Y-95608708D01*
X124021493Y-95608026D01*
X124014539Y-95607612D01*
X124007359Y-95607473D01*
X124007359Y-95903568D01*
X123928646Y-95903568D01*
X123917267Y-95903304D01*
X123906158Y-95902521D01*
X123895324Y-95901233D01*
X123884773Y-95899455D01*
X123874509Y-95897200D01*
X123864540Y-95894482D01*
X123854870Y-95891317D01*
X123845506Y-95887717D01*
X123836453Y-95883696D01*
X123827719Y-95879270D01*
X123819308Y-95874452D01*
X123811227Y-95869256D01*
X123803482Y-95863696D01*
X123796078Y-95857787D01*
X123789023Y-95851543D01*
X123782321Y-95844976D01*
X123775979Y-95838103D01*
X123770002Y-95830937D01*
X123764398Y-95823491D01*
X123759171Y-95815780D01*
X123754328Y-95807819D01*
X123749874Y-95799621D01*
X123745816Y-95791200D01*
X123742160Y-95782571D01*
X123738912Y-95773748D01*
X123736077Y-95764744D01*
X123733662Y-95755573D01*
X123731672Y-95746251D01*
X123730115Y-95736791D01*
X123728995Y-95727207D01*
X123728318Y-95717513D01*
X123728091Y-95707724D01*
X123728091Y-95707723D01*
X123818077Y-95707723D01*
X123818189Y-95712950D01*
X123818525Y-95718084D01*
X123819085Y-95723121D01*
X123819867Y-95728057D01*
X123820871Y-95732889D01*
X123822095Y-95737611D01*
X123823540Y-95742219D01*
X123825203Y-95746709D01*
X123827085Y-95751077D01*
X123829184Y-95755318D01*
X123831500Y-95759429D01*
X123834031Y-95763405D01*
X123836778Y-95767241D01*
X123839738Y-95770934D01*
X123842912Y-95774479D01*
X123846298Y-95777871D01*
X123849895Y-95781107D01*
X123853703Y-95784183D01*
X123857721Y-95787094D01*
X123861949Y-95789835D01*
X123866384Y-95792403D01*
X123871026Y-95794793D01*
X123875876Y-95797001D01*
X123880930Y-95799022D01*
X123886190Y-95800853D01*
X123891654Y-95802489D01*
X123897320Y-95803926D01*
X123903189Y-95805160D01*
X123909260Y-95806186D01*
X123915531Y-95807000D01*
X123922002Y-95807597D01*
X123928672Y-95807974D01*
X123928672Y-95607473D01*
X123922002Y-95607764D01*
X123915531Y-95608286D01*
X123909260Y-95609035D01*
X123903189Y-95610006D01*
X123897320Y-95611194D01*
X123891653Y-95612594D01*
X123886190Y-95614202D01*
X123880930Y-95616012D01*
X123875875Y-95618020D01*
X123871026Y-95620221D01*
X123866384Y-95622610D01*
X123861948Y-95625182D01*
X123857721Y-95627933D01*
X123853703Y-95630858D01*
X123849895Y-95633951D01*
X123846298Y-95637209D01*
X123842912Y-95640626D01*
X123839738Y-95644197D01*
X123836778Y-95647918D01*
X123834031Y-95651784D01*
X123831500Y-95655790D01*
X123829184Y-95659931D01*
X123827085Y-95664203D01*
X123825203Y-95668600D01*
X123823540Y-95673118D01*
X123822095Y-95677753D01*
X123820871Y-95682498D01*
X123819867Y-95687349D01*
X123819085Y-95692303D01*
X123818525Y-95697353D01*
X123818189Y-95702494D01*
X123818077Y-95707723D01*
X123728091Y-95707723D01*
X123728810Y-95690381D01*
X123731030Y-95672926D01*
X123732733Y-95664209D01*
X123734846Y-95655528D01*
X123737381Y-95646904D01*
X123740351Y-95638357D01*
X123743768Y-95629910D01*
X123747642Y-95621583D01*
X123751986Y-95613398D01*
X123756811Y-95605376D01*
X123762131Y-95597538D01*
X123767955Y-95589906D01*
X123774296Y-95582501D01*
X123781167Y-95575343D01*
X123788578Y-95568455D01*
X123796542Y-95561857D01*
X123805070Y-95555570D01*
X123814174Y-95549617D01*
X123823866Y-95544018D01*
X123834158Y-95538794D01*
X123845062Y-95533967D01*
X123856590Y-95529558D01*
X123868752Y-95525588D01*
X123881562Y-95522079D01*
X123895031Y-95519051D01*
X123909170Y-95516526D01*
X123923992Y-95514525D01*
X123928672Y-95514086D01*
X123939509Y-95513069D01*
X123955731Y-95512181D01*
X123972672Y-95511880D01*
X123990510Y-95512208D01*
G37*
G36*
X124959198Y-93658288D02*
G01*
X124959198Y-93742611D01*
X124626537Y-93841935D01*
X124626537Y-93843813D01*
X124959198Y-93943138D01*
X124959198Y-94027514D01*
X124484138Y-94179279D01*
X124484138Y-94078049D01*
X124816772Y-93987218D01*
X124816772Y-93985286D01*
X124484138Y-93877548D01*
X124484138Y-93808201D01*
X124816772Y-93700462D01*
X124816772Y-93698584D01*
X124484138Y-93607673D01*
X124484138Y-93506496D01*
X124959198Y-93658288D01*
G37*
G36*
X124740847Y-94996588D02*
G01*
X124757841Y-94997557D01*
X124774005Y-94999142D01*
X124789357Y-95001321D01*
X124803916Y-95004070D01*
X124817700Y-95007365D01*
X124830727Y-95011182D01*
X124843017Y-95015497D01*
X124854588Y-95020288D01*
X124865458Y-95025529D01*
X124875646Y-95031199D01*
X124885170Y-95037272D01*
X124894049Y-95043725D01*
X124902301Y-95050535D01*
X124909946Y-95057678D01*
X124917000Y-95065130D01*
X124923484Y-95072868D01*
X124929415Y-95080868D01*
X124934812Y-95089106D01*
X124939694Y-95097558D01*
X124944079Y-95106201D01*
X124947985Y-95115012D01*
X124954436Y-95133040D01*
X124959196Y-95151453D01*
X124962412Y-95170061D01*
X124964233Y-95188675D01*
X124964807Y-95207106D01*
X124964542Y-95219016D01*
X124963735Y-95230843D01*
X124962374Y-95242571D01*
X124960444Y-95254184D01*
X124957933Y-95265664D01*
X124954826Y-95276997D01*
X124951109Y-95288164D01*
X124946769Y-95299151D01*
X124941793Y-95309940D01*
X124936165Y-95320515D01*
X124929874Y-95330860D01*
X124922905Y-95340958D01*
X124915243Y-95350793D01*
X124906877Y-95360348D01*
X124897791Y-95369608D01*
X124887972Y-95378555D01*
X124828917Y-95309208D01*
X124834229Y-95303806D01*
X124839247Y-95298162D01*
X124843963Y-95292295D01*
X124848372Y-95286227D01*
X124852467Y-95279978D01*
X124856240Y-95273569D01*
X124859686Y-95267020D01*
X124862797Y-95260353D01*
X124865567Y-95253588D01*
X124867990Y-95246745D01*
X124870058Y-95239846D01*
X124871765Y-95232912D01*
X124873104Y-95225961D01*
X124874069Y-95219017D01*
X124874653Y-95212099D01*
X124874849Y-95205227D01*
X124874733Y-95199129D01*
X124874388Y-95193141D01*
X124873812Y-95187268D01*
X124873005Y-95181516D01*
X124871969Y-95175892D01*
X124870703Y-95170399D01*
X124869208Y-95165043D01*
X124867483Y-95159831D01*
X124865528Y-95154766D01*
X124863345Y-95149856D01*
X124860933Y-95145106D01*
X124858292Y-95140520D01*
X124855423Y-95136104D01*
X124852326Y-95131864D01*
X124849000Y-95127806D01*
X124845447Y-95123934D01*
X124841666Y-95120255D01*
X124837657Y-95116773D01*
X124833421Y-95113494D01*
X124828957Y-95110424D01*
X124824267Y-95107568D01*
X124819350Y-95104932D01*
X124814206Y-95102521D01*
X124808836Y-95100341D01*
X124803239Y-95098396D01*
X124797417Y-95096693D01*
X124791368Y-95095237D01*
X124785094Y-95094033D01*
X124778594Y-95093088D01*
X124771869Y-95092405D01*
X124764919Y-95091992D01*
X124757744Y-95091853D01*
X124757744Y-95387895D01*
X124678977Y-95387895D01*
X124667603Y-95387632D01*
X124656499Y-95386849D01*
X124645670Y-95385563D01*
X124635122Y-95383786D01*
X124624862Y-95381534D01*
X124614896Y-95378819D01*
X124605229Y-95375656D01*
X124595868Y-95372059D01*
X124586818Y-95368043D01*
X124578086Y-95363620D01*
X124569678Y-95358806D01*
X124561599Y-95353614D01*
X124553856Y-95348058D01*
X124546454Y-95342153D01*
X124539400Y-95335912D01*
X124532699Y-95329350D01*
X124526358Y-95322480D01*
X124520383Y-95315317D01*
X124514779Y-95307874D01*
X124509553Y-95300167D01*
X124504710Y-95292208D01*
X124500257Y-95284012D01*
X124496200Y-95275593D01*
X124492544Y-95266965D01*
X124489296Y-95258142D01*
X124486461Y-95249138D01*
X124484047Y-95239968D01*
X124482057Y-95230644D01*
X124480499Y-95221182D01*
X124479379Y-95211595D01*
X124478703Y-95201898D01*
X124478476Y-95192104D01*
X124568408Y-95192104D01*
X124568521Y-95197330D01*
X124568857Y-95202465D01*
X124569418Y-95207503D01*
X124570201Y-95212440D01*
X124571206Y-95217272D01*
X124572431Y-95221995D01*
X124573877Y-95226605D01*
X124575542Y-95231097D01*
X124577426Y-95235466D01*
X124579526Y-95239709D01*
X124581844Y-95243822D01*
X124584377Y-95247799D01*
X124587125Y-95251637D01*
X124590087Y-95255331D01*
X124593262Y-95258877D01*
X124596649Y-95262271D01*
X124600248Y-95265509D01*
X124604057Y-95268585D01*
X124608076Y-95271497D01*
X124612303Y-95274238D01*
X124616739Y-95276806D01*
X124621381Y-95279196D01*
X124626230Y-95281404D01*
X124631284Y-95283425D01*
X124636543Y-95285255D01*
X124642005Y-95286889D01*
X124647670Y-95288324D01*
X124653536Y-95289555D01*
X124659604Y-95290578D01*
X124665871Y-95291388D01*
X124672338Y-95291982D01*
X124679004Y-95292354D01*
X124679004Y-95091853D01*
X124672338Y-95092144D01*
X124665871Y-95092667D01*
X124659604Y-95093416D01*
X124653536Y-95094387D01*
X124647669Y-95095574D01*
X124642005Y-95096975D01*
X124636543Y-95098582D01*
X124631284Y-95100392D01*
X124626230Y-95102400D01*
X124621381Y-95104601D01*
X124616739Y-95106990D01*
X124612303Y-95109562D01*
X124608076Y-95112313D01*
X124604057Y-95115238D01*
X124600248Y-95118331D01*
X124596649Y-95121589D01*
X124593262Y-95125006D01*
X124590087Y-95128577D01*
X124587125Y-95132298D01*
X124584377Y-95136164D01*
X124581844Y-95140170D01*
X124579526Y-95144312D01*
X124577426Y-95148583D01*
X124575542Y-95152981D01*
X124573877Y-95157499D01*
X124572431Y-95162133D01*
X124571206Y-95166878D01*
X124570201Y-95171730D01*
X124569418Y-95176683D01*
X124568857Y-95181733D01*
X124568521Y-95186875D01*
X124568408Y-95192104D01*
X124478476Y-95192104D01*
X124479195Y-95174770D01*
X124481413Y-95157321D01*
X124483114Y-95148607D01*
X124485226Y-95139928D01*
X124487760Y-95131305D01*
X124490728Y-95122760D01*
X124494142Y-95114313D01*
X124498014Y-95105987D01*
X124502356Y-95097802D01*
X124507180Y-95089780D01*
X124512496Y-95081941D01*
X124518318Y-95074308D01*
X124524657Y-95066902D01*
X124531525Y-95059743D01*
X124538934Y-95052853D01*
X124546895Y-95046254D01*
X124555421Y-95039966D01*
X124564523Y-95034011D01*
X124574213Y-95028410D01*
X124584503Y-95023185D01*
X124595405Y-95018356D01*
X124606930Y-95013946D01*
X124619091Y-95009974D01*
X124631899Y-95006463D01*
X124645366Y-95003434D01*
X124659505Y-95000908D01*
X124674326Y-94998906D01*
X124679004Y-94998467D01*
X124689841Y-94997450D01*
X124706064Y-94996561D01*
X124723004Y-94996259D01*
X124740847Y-94996588D01*
G37*
G36*
X124827250Y-92266310D02*
G01*
X124834800Y-92266850D01*
X124842218Y-92267745D01*
X124849497Y-92268993D01*
X124856630Y-92270591D01*
X124863607Y-92272534D01*
X124870422Y-92274820D01*
X124877066Y-92277446D01*
X124883532Y-92280407D01*
X124889811Y-92283702D01*
X124895897Y-92287327D01*
X124901780Y-92291278D01*
X124907453Y-92295552D01*
X124912908Y-92300146D01*
X124918137Y-92305058D01*
X124923132Y-92310282D01*
X124927886Y-92315817D01*
X124932390Y-92321658D01*
X124936637Y-92327804D01*
X124940619Y-92334250D01*
X124944327Y-92340993D01*
X124947755Y-92348029D01*
X124950893Y-92355357D01*
X124953735Y-92362972D01*
X124956272Y-92370871D01*
X124958496Y-92379051D01*
X124960400Y-92387509D01*
X124961975Y-92396241D01*
X124963214Y-92405245D01*
X124964108Y-92414516D01*
X124964651Y-92424052D01*
X124964834Y-92433849D01*
X124964657Y-92445605D01*
X124964126Y-92456641D01*
X124963235Y-92466986D01*
X124961981Y-92476666D01*
X124960358Y-92485710D01*
X124958364Y-92494144D01*
X124955993Y-92501995D01*
X124953242Y-92509292D01*
X124950106Y-92516061D01*
X124946580Y-92522330D01*
X124942662Y-92528127D01*
X124938346Y-92533478D01*
X124933629Y-92538412D01*
X124928505Y-92542955D01*
X124922971Y-92547135D01*
X124917023Y-92550980D01*
X124917023Y-92552859D01*
X124959198Y-92552859D01*
X124959198Y-92648452D01*
X124634978Y-92648452D01*
X124624226Y-92648218D01*
X124613922Y-92647519D01*
X124604060Y-92646364D01*
X124594632Y-92644761D01*
X124585632Y-92642718D01*
X124577052Y-92640243D01*
X124568885Y-92637344D01*
X124561125Y-92634030D01*
X124553764Y-92630308D01*
X124546795Y-92626186D01*
X124540212Y-92621673D01*
X124534006Y-92616776D01*
X124528172Y-92611504D01*
X124522702Y-92605864D01*
X124517589Y-92599865D01*
X124512826Y-92593515D01*
X124508406Y-92586822D01*
X124504323Y-92579793D01*
X124500568Y-92572438D01*
X124497135Y-92564764D01*
X124494018Y-92556779D01*
X124491208Y-92548491D01*
X124488699Y-92539908D01*
X124486484Y-92531038D01*
X124484556Y-92521890D01*
X124482908Y-92512471D01*
X124480423Y-92492855D01*
X124478974Y-92472252D01*
X124478503Y-92450729D01*
X124478725Y-92437594D01*
X124479406Y-92424893D01*
X124480563Y-92412625D01*
X124482217Y-92400783D01*
X124484387Y-92389365D01*
X124487092Y-92378365D01*
X124490352Y-92367780D01*
X124494186Y-92357606D01*
X124498614Y-92347838D01*
X124503654Y-92338473D01*
X124509326Y-92329506D01*
X124515650Y-92320933D01*
X124522646Y-92312749D01*
X124530331Y-92304952D01*
X124538726Y-92297536D01*
X124547850Y-92290498D01*
X124605001Y-92365454D01*
X124602505Y-92367054D01*
X124600112Y-92368696D01*
X124597819Y-92370384D01*
X124595627Y-92372122D01*
X124593532Y-92373912D01*
X124591533Y-92375759D01*
X124589630Y-92377666D01*
X124587819Y-92379637D01*
X124586101Y-92381675D01*
X124584473Y-92383784D01*
X124582933Y-92385968D01*
X124581481Y-92388230D01*
X124580115Y-92390573D01*
X124578833Y-92393002D01*
X124577633Y-92395520D01*
X124576515Y-92398130D01*
X124575476Y-92400837D01*
X124574515Y-92403643D01*
X124573631Y-92406552D01*
X124572822Y-92409569D01*
X124572086Y-92412696D01*
X124571422Y-92415937D01*
X124570829Y-92419295D01*
X124570305Y-92422775D01*
X124569457Y-92430114D01*
X124568866Y-92437980D01*
X124568521Y-92446403D01*
X124568408Y-92455413D01*
X124568599Y-92467778D01*
X124569183Y-92479236D01*
X124570180Y-92489803D01*
X124571608Y-92499493D01*
X124573487Y-92508320D01*
X124575836Y-92516301D01*
X124578673Y-92523451D01*
X124580281Y-92526718D01*
X124582018Y-92529784D01*
X124583887Y-92532649D01*
X124585890Y-92535315D01*
X124588030Y-92537785D01*
X124590308Y-92540060D01*
X124592727Y-92542142D01*
X124595290Y-92544033D01*
X124598000Y-92545736D01*
X124600857Y-92547251D01*
X124603865Y-92548580D01*
X124607026Y-92549727D01*
X124610343Y-92550692D01*
X124613818Y-92551477D01*
X124617452Y-92552084D01*
X124621250Y-92552516D01*
X124629342Y-92552859D01*
X124679004Y-92552859D01*
X124679004Y-92438559D01*
X124757691Y-92438559D01*
X124757691Y-92552859D01*
X124792378Y-92552859D01*
X124799130Y-92552778D01*
X124805508Y-92552534D01*
X124811523Y-92552121D01*
X124817184Y-92551535D01*
X124822502Y-92550772D01*
X124827489Y-92549826D01*
X124832153Y-92548693D01*
X124836507Y-92547369D01*
X124840559Y-92545848D01*
X124844321Y-92544126D01*
X124847804Y-92542199D01*
X124851017Y-92540061D01*
X124853971Y-92537709D01*
X124856676Y-92535137D01*
X124859144Y-92532342D01*
X124861385Y-92529317D01*
X124863408Y-92526060D01*
X124865225Y-92522564D01*
X124866846Y-92518826D01*
X124868281Y-92514840D01*
X124869541Y-92510603D01*
X124870637Y-92506109D01*
X124871579Y-92501354D01*
X124872377Y-92496334D01*
X124873584Y-92485477D01*
X124874343Y-92473501D01*
X124874736Y-92460370D01*
X124874849Y-92446046D01*
X124874525Y-92434379D01*
X124873578Y-92423614D01*
X124872043Y-92413730D01*
X124869957Y-92404706D01*
X124868718Y-92400510D01*
X124867354Y-92396522D01*
X124865871Y-92392739D01*
X124864271Y-92389158D01*
X124862561Y-92385776D01*
X124860744Y-92382592D01*
X124858824Y-92379602D01*
X124856807Y-92376805D01*
X124854697Y-92374197D01*
X124852498Y-92371775D01*
X124850215Y-92369538D01*
X124847852Y-92367483D01*
X124845413Y-92365607D01*
X124842904Y-92363908D01*
X124840328Y-92362382D01*
X124837690Y-92361028D01*
X124832246Y-92358824D01*
X124826609Y-92357276D01*
X124820813Y-92356362D01*
X124814894Y-92356062D01*
X124811678Y-92356139D01*
X124808535Y-92356370D01*
X124805468Y-92356757D01*
X124802477Y-92357299D01*
X124799565Y-92357998D01*
X124796734Y-92358854D01*
X124793986Y-92359869D01*
X124791322Y-92361041D01*
X124788745Y-92362374D01*
X124786256Y-92363866D01*
X124783858Y-92365518D01*
X124781551Y-92367332D01*
X124779339Y-92369309D01*
X124777222Y-92371447D01*
X124775204Y-92373750D01*
X124773285Y-92376216D01*
X124771468Y-92378847D01*
X124769754Y-92381644D01*
X124768145Y-92384607D01*
X124766644Y-92387737D01*
X124765253Y-92391034D01*
X124763972Y-92394499D01*
X124762804Y-92398134D01*
X124761751Y-92401938D01*
X124760815Y-92405912D01*
X124759998Y-92410057D01*
X124759301Y-92414374D01*
X124758726Y-92418864D01*
X124758276Y-92423526D01*
X124757952Y-92428362D01*
X124757757Y-92433373D01*
X124757691Y-92438559D01*
X124679004Y-92438559D01*
X124679004Y-92420726D01*
X124679192Y-92411297D01*
X124679749Y-92402159D01*
X124680666Y-92393314D01*
X124681932Y-92384761D01*
X124683538Y-92376501D01*
X124685474Y-92368534D01*
X124687731Y-92360862D01*
X124690298Y-92353484D01*
X124693165Y-92346402D01*
X124696324Y-92339615D01*
X124699763Y-92333124D01*
X124703474Y-92326930D01*
X124707447Y-92321032D01*
X124711671Y-92315433D01*
X124716137Y-92310132D01*
X124720835Y-92305129D01*
X124725755Y-92300426D01*
X124730888Y-92296022D01*
X124736224Y-92291919D01*
X124741752Y-92288116D01*
X124747464Y-92284615D01*
X124753349Y-92281415D01*
X124759398Y-92278518D01*
X124765600Y-92275923D01*
X124771946Y-92273632D01*
X124778427Y-92271645D01*
X124785031Y-92269962D01*
X124791751Y-92268584D01*
X124798575Y-92267511D01*
X124805494Y-92266744D01*
X124812498Y-92266283D01*
X124814894Y-92266231D01*
X124819578Y-92266130D01*
X124827250Y-92266310D01*
G37*
G36*
X124059486Y-94308402D02*
G01*
X124069140Y-94309123D01*
X124078496Y-94310304D01*
X124087551Y-94311928D01*
X124096306Y-94313978D01*
X124104758Y-94316436D01*
X124112906Y-94319285D01*
X124120750Y-94322508D01*
X124128287Y-94326088D01*
X124135517Y-94330008D01*
X124142439Y-94334251D01*
X124149051Y-94338799D01*
X124155353Y-94343635D01*
X124161342Y-94348742D01*
X124167018Y-94354104D01*
X124172380Y-94359702D01*
X124177426Y-94365519D01*
X124182155Y-94371539D01*
X124186566Y-94377744D01*
X124190658Y-94384118D01*
X124194429Y-94390642D01*
X124197879Y-94397300D01*
X124201006Y-94404075D01*
X124203809Y-94410949D01*
X124206286Y-94417906D01*
X124208437Y-94424927D01*
X124211756Y-94439097D01*
X124213754Y-94453322D01*
X124214254Y-94460411D01*
X124214422Y-94467463D01*
X124214202Y-94476688D01*
X124213542Y-94485751D01*
X124212444Y-94494643D01*
X124210905Y-94503355D01*
X124208928Y-94511875D01*
X124206511Y-94520196D01*
X124203654Y-94528306D01*
X124200359Y-94536195D01*
X124196625Y-94543855D01*
X124192452Y-94551274D01*
X124187839Y-94558444D01*
X124182788Y-94565355D01*
X124177299Y-94571996D01*
X124171370Y-94578357D01*
X124165003Y-94584430D01*
X124158198Y-94590203D01*
X124158198Y-94592055D01*
X124208839Y-94592055D01*
X124208839Y-94687596D01*
X123733727Y-94687596D01*
X123733727Y-94592055D01*
X124016699Y-94592055D01*
X124022679Y-94591938D01*
X124028498Y-94591590D01*
X124034155Y-94591015D01*
X124039647Y-94590219D01*
X124044972Y-94589207D01*
X124050129Y-94587984D01*
X124055115Y-94586555D01*
X124059930Y-94584924D01*
X124064570Y-94583097D01*
X124069034Y-94581078D01*
X124073320Y-94578873D01*
X124077427Y-94576487D01*
X124081351Y-94573924D01*
X124085092Y-94571190D01*
X124088648Y-94568289D01*
X124092016Y-94565227D01*
X124095194Y-94562008D01*
X124098182Y-94558637D01*
X124100976Y-94555120D01*
X124103575Y-94551461D01*
X124105977Y-94547665D01*
X124108180Y-94543738D01*
X124110183Y-94539684D01*
X124111982Y-94535508D01*
X124113577Y-94531215D01*
X124114966Y-94526811D01*
X124116146Y-94522299D01*
X124117116Y-94517686D01*
X124117874Y-94512976D01*
X124118417Y-94508174D01*
X124118745Y-94503285D01*
X124118854Y-94498313D01*
X124118745Y-94493263D01*
X124118417Y-94488299D01*
X124117874Y-94483428D01*
X124117116Y-94478653D01*
X124116146Y-94473979D01*
X124114966Y-94469411D01*
X124113577Y-94464955D01*
X124111982Y-94460614D01*
X124110183Y-94456394D01*
X124108180Y-94452300D01*
X124105977Y-94448335D01*
X124103575Y-94444506D01*
X124100976Y-94440817D01*
X124098182Y-94437272D01*
X124095194Y-94433877D01*
X124092016Y-94430636D01*
X124088648Y-94427555D01*
X124085092Y-94424637D01*
X124081351Y-94421888D01*
X124077427Y-94419313D01*
X124073320Y-94416916D01*
X124069034Y-94414702D01*
X124064570Y-94412676D01*
X124059930Y-94410843D01*
X124055115Y-94409208D01*
X124050129Y-94407775D01*
X124044972Y-94406550D01*
X124039647Y-94405536D01*
X124034155Y-94404739D01*
X124028498Y-94404164D01*
X124022679Y-94403816D01*
X124016699Y-94403699D01*
X123733727Y-94403699D01*
X123733727Y-94308158D01*
X124049534Y-94308158D01*
X124049534Y-94308157D01*
X124059486Y-94308402D01*
G37*
G36*
X124959198Y-94769591D02*
G01*
X124673369Y-94769591D01*
X124666987Y-94769724D01*
X124660834Y-94770117D01*
X124654907Y-94770763D01*
X124649206Y-94771653D01*
X124643728Y-94772780D01*
X124638471Y-94774134D01*
X124633434Y-94775707D01*
X124628616Y-94777492D01*
X124624014Y-94779479D01*
X124619627Y-94781662D01*
X124615453Y-94784031D01*
X124611490Y-94786579D01*
X124607737Y-94789297D01*
X124604193Y-94792177D01*
X124600855Y-94795211D01*
X124597721Y-94798390D01*
X124594791Y-94801707D01*
X124592061Y-94805153D01*
X124589532Y-94808720D01*
X124587200Y-94812399D01*
X124585065Y-94816183D01*
X124583124Y-94820063D01*
X124581376Y-94824032D01*
X124579819Y-94828080D01*
X124577272Y-94836383D01*
X124575470Y-94844907D01*
X124574398Y-94853585D01*
X124574044Y-94862353D01*
X124574122Y-94866831D01*
X124574359Y-94871133D01*
X124574761Y-94875279D01*
X124575334Y-94879292D01*
X124576082Y-94883195D01*
X124577012Y-94887009D01*
X124578129Y-94890757D01*
X124579438Y-94894460D01*
X124580946Y-94898141D01*
X124582657Y-94901822D01*
X124584578Y-94905525D01*
X124586713Y-94909271D01*
X124589069Y-94913084D01*
X124591650Y-94916985D01*
X124594463Y-94920996D01*
X124597513Y-94925139D01*
X124515042Y-94994486D01*
X124510925Y-94989005D01*
X124507015Y-94983452D01*
X124503319Y-94977822D01*
X124499845Y-94972110D01*
X124496602Y-94966309D01*
X124493597Y-94960415D01*
X124490840Y-94954423D01*
X124488339Y-94948326D01*
X124486101Y-94942121D01*
X124484134Y-94935800D01*
X124482448Y-94929359D01*
X124481049Y-94922792D01*
X124479948Y-94916094D01*
X124479150Y-94909260D01*
X124478666Y-94902285D01*
X124478503Y-94895162D01*
X124478723Y-94885765D01*
X124479382Y-94876553D01*
X124480481Y-94867533D01*
X124482019Y-94858712D01*
X124483997Y-94850101D01*
X124486414Y-94841706D01*
X124489270Y-94833536D01*
X124492566Y-94825599D01*
X124496300Y-94817904D01*
X124500473Y-94810459D01*
X124505085Y-94803272D01*
X124510136Y-94796351D01*
X124515626Y-94789705D01*
X124521555Y-94783341D01*
X124527921Y-94777269D01*
X124534727Y-94771496D01*
X124534727Y-94769591D01*
X124484138Y-94769591D01*
X124484138Y-94674050D01*
X124959198Y-94674050D01*
X124959198Y-94769591D01*
G37*
G36*
X123987649Y-95101843D02*
G01*
X124003000Y-95102752D01*
X124017754Y-95104244D01*
X124031918Y-95106300D01*
X124045496Y-95108902D01*
X124058496Y-95112031D01*
X124070924Y-95115668D01*
X124082787Y-95119794D01*
X124094091Y-95124391D01*
X124104841Y-95129440D01*
X124115046Y-95134923D01*
X124124710Y-95140820D01*
X124133841Y-95147113D01*
X124142444Y-95153784D01*
X124150527Y-95160813D01*
X124158095Y-95168182D01*
X124165155Y-95175872D01*
X124171714Y-95183864D01*
X124177777Y-95192140D01*
X124183351Y-95200682D01*
X124188442Y-95209469D01*
X124193057Y-95218484D01*
X124197203Y-95227708D01*
X124200885Y-95237123D01*
X124206884Y-95256447D01*
X124211105Y-95276308D01*
X124213601Y-95296555D01*
X124214422Y-95317040D01*
X124214020Y-95330393D01*
X124212838Y-95343394D01*
X124210906Y-95356041D01*
X124208256Y-95368334D01*
X124204920Y-95380269D01*
X124200929Y-95391847D01*
X124196316Y-95403064D01*
X124191112Y-95413920D01*
X124185348Y-95424413D01*
X124179057Y-95434541D01*
X124172270Y-95444303D01*
X124165018Y-95453697D01*
X124157334Y-95462722D01*
X124149249Y-95471376D01*
X124140795Y-95479657D01*
X124132004Y-95487564D01*
X124069219Y-95417290D01*
X124074564Y-95412780D01*
X124079694Y-95408035D01*
X124084590Y-95403062D01*
X124089235Y-95397868D01*
X124093610Y-95392460D01*
X124097699Y-95386844D01*
X124101483Y-95381029D01*
X124104944Y-95375020D01*
X124108065Y-95368825D01*
X124110828Y-95362450D01*
X124113214Y-95355903D01*
X124115207Y-95349190D01*
X124116787Y-95342319D01*
X124117939Y-95335296D01*
X124118348Y-95331730D01*
X124118642Y-95328129D01*
X124118821Y-95324493D01*
X124118881Y-95320823D01*
X124118751Y-95313627D01*
X124118361Y-95306619D01*
X124117706Y-95299803D01*
X124116786Y-95293181D01*
X124115596Y-95286756D01*
X124114134Y-95280530D01*
X124112397Y-95274506D01*
X124110383Y-95268687D01*
X124108088Y-95263074D01*
X124105511Y-95257672D01*
X124102648Y-95252481D01*
X124099497Y-95247506D01*
X124096054Y-95242747D01*
X124092318Y-95238209D01*
X124088285Y-95233894D01*
X124083953Y-95229804D01*
X124079318Y-95225941D01*
X124074379Y-95222309D01*
X124069133Y-95218910D01*
X124063576Y-95215746D01*
X124057706Y-95212821D01*
X124051520Y-95210137D01*
X124045016Y-95207696D01*
X124038190Y-95205500D01*
X124031041Y-95203554D01*
X124023564Y-95201858D01*
X124015759Y-95200416D01*
X124007621Y-95199231D01*
X123999148Y-95198305D01*
X123990338Y-95197640D01*
X123981187Y-95197239D01*
X123971693Y-95197104D01*
X123952896Y-95197639D01*
X123935480Y-95199230D01*
X123927283Y-95200415D01*
X123919422Y-95201856D01*
X123911896Y-95203551D01*
X123904700Y-95205497D01*
X123897832Y-95207691D01*
X123891290Y-95210131D01*
X123885069Y-95212815D01*
X123879168Y-95215739D01*
X123873583Y-95218902D01*
X123868311Y-95222300D01*
X123863350Y-95225932D01*
X123858696Y-95229794D01*
X123854347Y-95233883D01*
X123850300Y-95238198D01*
X123846552Y-95242736D01*
X123843099Y-95247494D01*
X123839939Y-95252469D01*
X123837070Y-95257660D01*
X123834487Y-95263063D01*
X123832189Y-95268676D01*
X123830172Y-95274496D01*
X123828434Y-95280520D01*
X123826971Y-95286747D01*
X123825780Y-95293174D01*
X123824205Y-95306615D01*
X123823685Y-95320823D01*
X123823924Y-95328129D01*
X123824628Y-95335297D01*
X123825779Y-95342321D01*
X123827360Y-95349194D01*
X123829352Y-95355908D01*
X123831739Y-95362457D01*
X123834501Y-95368833D01*
X123837622Y-95375030D01*
X123841084Y-95381040D01*
X123844868Y-95386856D01*
X123848956Y-95392471D01*
X123853332Y-95397879D01*
X123857977Y-95403072D01*
X123862873Y-95408043D01*
X123868002Y-95412784D01*
X123873348Y-95417290D01*
X123810562Y-95487564D01*
X123801757Y-95479652D01*
X123793292Y-95471367D01*
X123785197Y-95462710D01*
X123777506Y-95453683D01*
X123770249Y-95444286D01*
X123763457Y-95434523D01*
X123757163Y-95424394D01*
X123751398Y-95413900D01*
X123746193Y-95403045D01*
X123741579Y-95391828D01*
X123737589Y-95380252D01*
X123734254Y-95368319D01*
X123731605Y-95356029D01*
X123729674Y-95343385D01*
X123728987Y-95336931D01*
X123728492Y-95330388D01*
X123728192Y-95323758D01*
X123728091Y-95317040D01*
X123728913Y-95296555D01*
X123729949Y-95286392D01*
X123731411Y-95276308D01*
X123733306Y-95266320D01*
X123735640Y-95256447D01*
X123738419Y-95246708D01*
X123741650Y-95237123D01*
X123745339Y-95227708D01*
X123749493Y-95218484D01*
X123754119Y-95209469D01*
X123759222Y-95200682D01*
X123764811Y-95192140D01*
X123770890Y-95183864D01*
X123777466Y-95175872D01*
X123784547Y-95168182D01*
X123792138Y-95160813D01*
X123800246Y-95153784D01*
X123808878Y-95147113D01*
X123818039Y-95140820D01*
X123827738Y-95134923D01*
X123837979Y-95129440D01*
X123848770Y-95124391D01*
X123860117Y-95119794D01*
X123872026Y-95115668D01*
X123884505Y-95112031D01*
X123897559Y-95108902D01*
X123911196Y-95106300D01*
X123925421Y-95104244D01*
X123940241Y-95102752D01*
X123955663Y-95101843D01*
X123971693Y-95101536D01*
X123987649Y-95101843D01*
G37*
G36*
X122171019Y-91853803D02*
G01*
X122172030Y-91853828D01*
X122173037Y-91853903D01*
X122174040Y-91854026D01*
X122175037Y-91854197D01*
X122176026Y-91854413D01*
X122177006Y-91854674D01*
X122177974Y-91854978D01*
X122178931Y-91855325D01*
X122180801Y-91856140D01*
X122182604Y-91857108D01*
X122184326Y-91858221D01*
X122185958Y-91859468D01*
X122187485Y-91860840D01*
X122188896Y-91862326D01*
X122190180Y-91863916D01*
X122190769Y-91864747D01*
X122191323Y-91865601D01*
X122191838Y-91866476D01*
X122192313Y-91867371D01*
X122192747Y-91868285D01*
X122193139Y-91869216D01*
X122193487Y-91870164D01*
X122193789Y-91871126D01*
X122194043Y-91872102D01*
X122194249Y-91873091D01*
X122273201Y-92297350D01*
X122273406Y-92298347D01*
X122273657Y-92299346D01*
X122274292Y-92301346D01*
X122275094Y-92303338D01*
X122276053Y-92305308D01*
X122277157Y-92307244D01*
X122278393Y-92309132D01*
X122279751Y-92310959D01*
X122281218Y-92312713D01*
X122282783Y-92314380D01*
X122284434Y-92315948D01*
X122286160Y-92317403D01*
X122287950Y-92318733D01*
X122289790Y-92319925D01*
X122291671Y-92320965D01*
X122293580Y-92321840D01*
X122294541Y-92322213D01*
X122295505Y-92322539D01*
X122626367Y-92454989D01*
X122628249Y-92455809D01*
X122630242Y-92456493D01*
X122632329Y-92457042D01*
X122634492Y-92457458D01*
X122636715Y-92457741D01*
X122638980Y-92457894D01*
X122641270Y-92457916D01*
X122643568Y-92457810D01*
X122645856Y-92457577D01*
X122648117Y-92457217D01*
X122650334Y-92456733D01*
X122652490Y-92456124D01*
X122654567Y-92455393D01*
X122656548Y-92454540D01*
X122658416Y-92453567D01*
X122660154Y-92452476D01*
X123011335Y-92211493D01*
X123012182Y-92210944D01*
X123013054Y-92210438D01*
X123013950Y-92209974D01*
X123014867Y-92209553D01*
X123015803Y-92209174D01*
X123016758Y-92208837D01*
X123018711Y-92208288D01*
X123020712Y-92207906D01*
X123022744Y-92207689D01*
X123024793Y-92207635D01*
X123026843Y-92207743D01*
X123028879Y-92208011D01*
X123030884Y-92208439D01*
X123032844Y-92209025D01*
X123034742Y-92209767D01*
X123036565Y-92210664D01*
X123037442Y-92211170D01*
X123038295Y-92211715D01*
X123039121Y-92212297D01*
X123039918Y-92212917D01*
X123040685Y-92213576D01*
X123041418Y-92214271D01*
X123357940Y-92530845D01*
X123358633Y-92531577D01*
X123359289Y-92532341D01*
X123359907Y-92533135D01*
X123360488Y-92533959D01*
X123361030Y-92534809D01*
X123361535Y-92535685D01*
X123362001Y-92536583D01*
X123362429Y-92537502D01*
X123362819Y-92538441D01*
X123363169Y-92539397D01*
X123363753Y-92541353D01*
X123364180Y-92543355D01*
X123364448Y-92545387D01*
X123364557Y-92547435D01*
X123364503Y-92549483D01*
X123364288Y-92551515D01*
X123364118Y-92552520D01*
X123363908Y-92553515D01*
X123363656Y-92554500D01*
X123363362Y-92555470D01*
X123363027Y-92556425D01*
X123362649Y-92557363D01*
X123362230Y-92558281D01*
X123361768Y-92559179D01*
X123361264Y-92560053D01*
X123360718Y-92560902D01*
X123123942Y-92905866D01*
X123122867Y-92907600D01*
X123121924Y-92909458D01*
X123121113Y-92911423D01*
X123120434Y-92913478D01*
X123119889Y-92915605D01*
X123119478Y-92917788D01*
X123119200Y-92920010D01*
X123119057Y-92922253D01*
X123119049Y-92924501D01*
X123119176Y-92926737D01*
X123119439Y-92928943D01*
X123119838Y-92931103D01*
X123120374Y-92933200D01*
X123121047Y-92935216D01*
X123121857Y-92937134D01*
X123122804Y-92938939D01*
X123204032Y-93091074D01*
X123204466Y-93091981D01*
X123204849Y-93092897D01*
X123205179Y-93093818D01*
X123205458Y-93094744D01*
X123205686Y-93095673D01*
X123205864Y-93096604D01*
X123205992Y-93097534D01*
X123206072Y-93098463D01*
X123206103Y-93099389D01*
X123206086Y-93100309D01*
X123206022Y-93101223D01*
X123205911Y-93102129D01*
X123205754Y-93103025D01*
X123205552Y-93103910D01*
X123205305Y-93104782D01*
X123205014Y-93105639D01*
X123204679Y-93106481D01*
X123204301Y-93107304D01*
X123203881Y-93108108D01*
X123203418Y-93108892D01*
X123202915Y-93109652D01*
X123202371Y-93110389D01*
X123201787Y-93111100D01*
X123201163Y-93111783D01*
X123200500Y-93112438D01*
X123199800Y-93113062D01*
X123199061Y-93113654D01*
X123198285Y-93114213D01*
X123197473Y-93114736D01*
X123196625Y-93115222D01*
X123195742Y-93115670D01*
X123194824Y-93116077D01*
X122436872Y-93429767D01*
X122435929Y-93430132D01*
X122434972Y-93430449D01*
X122434002Y-93430719D01*
X122433022Y-93430942D01*
X122432032Y-93431118D01*
X122431036Y-93431249D01*
X122429029Y-93431376D01*
X122427015Y-93431327D01*
X122425009Y-93431107D01*
X122423024Y-93430721D01*
X122421076Y-93430174D01*
X122419179Y-93429470D01*
X122417348Y-93428614D01*
X122415595Y-93427612D01*
X122413938Y-93426467D01*
X122412388Y-93425184D01*
X122411659Y-93424493D01*
X122410962Y-93423769D01*
X122410299Y-93423013D01*
X122409672Y-93422226D01*
X122409084Y-93421408D01*
X122408535Y-93420559D01*
X122385225Y-93382486D01*
X122383480Y-93379738D01*
X122381488Y-93376808D01*
X122379293Y-93373749D01*
X122376937Y-93370616D01*
X122374465Y-93367462D01*
X122371920Y-93364340D01*
X122369345Y-93361304D01*
X122366784Y-93358409D01*
X122349532Y-93333209D01*
X122330801Y-93309159D01*
X122310656Y-93286323D01*
X122289162Y-93264768D01*
X122266384Y-93244560D01*
X122242388Y-93225763D01*
X122217239Y-93208445D01*
X122191001Y-93192670D01*
X122163742Y-93178505D01*
X122149749Y-93172047D01*
X122135525Y-93166015D01*
X122121078Y-93160419D01*
X122106416Y-93155267D01*
X122091547Y-93150566D01*
X122076480Y-93146325D01*
X122061222Y-93142552D01*
X122045783Y-93139256D01*
X122030169Y-93136444D01*
X122014389Y-93134125D01*
X121998452Y-93132307D01*
X121982364Y-93130998D01*
X121966136Y-93130207D01*
X121949774Y-93129941D01*
X121924298Y-93130585D01*
X121899156Y-93132497D01*
X121874380Y-93135646D01*
X121850000Y-93140000D01*
X121826049Y-93145528D01*
X121802556Y-93152200D01*
X121779553Y-93159984D01*
X121757072Y-93168848D01*
X121735142Y-93178763D01*
X121713796Y-93189697D01*
X121693064Y-93201618D01*
X121672978Y-93214495D01*
X121653569Y-93228298D01*
X121634867Y-93242996D01*
X121616904Y-93258556D01*
X121599711Y-93274949D01*
X121583319Y-93292143D01*
X121567759Y-93310106D01*
X121553062Y-93328808D01*
X121539260Y-93348218D01*
X121526383Y-93368305D01*
X121514463Y-93389036D01*
X121503530Y-93410382D01*
X121493616Y-93432311D01*
X121484752Y-93454792D01*
X121476969Y-93477794D01*
X121470298Y-93501286D01*
X121464770Y-93525237D01*
X121460416Y-93549615D01*
X121457268Y-93574389D01*
X121455356Y-93599529D01*
X121454712Y-93625003D01*
X121455356Y-93650477D01*
X121457268Y-93675616D01*
X121460416Y-93700390D01*
X121464770Y-93724768D01*
X121470298Y-93748718D01*
X121476969Y-93772209D01*
X121484752Y-93795210D01*
X121493616Y-93817690D01*
X121503530Y-93839618D01*
X121514463Y-93860963D01*
X121526383Y-93881694D01*
X121539260Y-93901779D01*
X121553062Y-93921188D01*
X121567759Y-93939889D01*
X121583319Y-93957851D01*
X121599711Y-93975043D01*
X121616904Y-93991435D01*
X121634867Y-94006994D01*
X121653569Y-94021690D01*
X121672978Y-94035492D01*
X121693064Y-94048369D01*
X121713796Y-94060289D01*
X121735142Y-94071221D01*
X121757072Y-94081135D01*
X121779553Y-94089999D01*
X121802556Y-94097782D01*
X121826049Y-94104453D01*
X121850000Y-94109981D01*
X121874380Y-94114334D01*
X121899156Y-94117482D01*
X121924298Y-94119394D01*
X121949774Y-94120038D01*
X121982364Y-94118982D01*
X122014389Y-94115856D01*
X122045783Y-94110726D01*
X122076480Y-94103658D01*
X122106416Y-94094718D01*
X122135525Y-94083971D01*
X122163742Y-94071482D01*
X122191001Y-94057319D01*
X122217238Y-94041545D01*
X122242388Y-94024227D01*
X122266384Y-94005431D01*
X122289162Y-93985222D01*
X122310656Y-93963666D01*
X122330801Y-93940828D01*
X122349532Y-93916774D01*
X122366784Y-93891570D01*
X122369345Y-93888691D01*
X122371920Y-93885666D01*
X122374465Y-93882550D01*
X122376937Y-93879400D01*
X122379293Y-93876268D01*
X122381488Y-93873212D01*
X122383480Y-93870287D01*
X122385225Y-93867546D01*
X122408535Y-93829473D01*
X122409084Y-93828629D01*
X122409672Y-93827815D01*
X122410299Y-93827032D01*
X122410962Y-93826279D01*
X122411659Y-93825558D01*
X122412388Y-93824870D01*
X122413148Y-93824214D01*
X122413938Y-93823591D01*
X122414754Y-93823003D01*
X122415595Y-93822449D01*
X122416461Y-93821931D01*
X122417348Y-93821448D01*
X122418254Y-93821002D01*
X122419179Y-93820593D01*
X122420121Y-93820221D01*
X122421076Y-93819888D01*
X122422045Y-93819594D01*
X122423024Y-93819339D01*
X122424013Y-93819125D01*
X122425009Y-93818951D01*
X122426010Y-93818818D01*
X122427015Y-93818728D01*
X122428022Y-93818680D01*
X122429029Y-93818675D01*
X122430034Y-93818714D01*
X122431036Y-93818798D01*
X122432032Y-93818926D01*
X122433022Y-93819100D01*
X122434002Y-93819321D01*
X122434972Y-93819588D01*
X122435929Y-93819902D01*
X122436872Y-93820265D01*
X123194850Y-94133929D01*
X123195768Y-94134336D01*
X123196651Y-94134784D01*
X123197499Y-94135270D01*
X123198311Y-94135792D01*
X123199086Y-94136350D01*
X123199824Y-94136941D01*
X123200524Y-94137565D01*
X123201185Y-94138219D01*
X123201808Y-94138902D01*
X123202392Y-94139612D01*
X123202935Y-94140348D01*
X123203438Y-94141107D01*
X123203899Y-94141890D01*
X123204319Y-94142693D01*
X123204696Y-94143516D01*
X123205030Y-94144357D01*
X123205321Y-94145213D01*
X123205567Y-94146085D01*
X123205769Y-94146969D01*
X123205926Y-94147865D01*
X123206036Y-94148771D01*
X123206100Y-94149685D01*
X123206117Y-94150606D01*
X123206087Y-94151531D01*
X123206008Y-94152461D01*
X123205880Y-94153392D01*
X123205703Y-94154324D01*
X123205477Y-94155254D01*
X123205199Y-94156182D01*
X123204871Y-94157105D01*
X123204490Y-94158022D01*
X123204058Y-94158932D01*
X123122831Y-94311067D01*
X123121883Y-94312876D01*
X123121072Y-94314798D01*
X123120398Y-94316816D01*
X123119861Y-94318914D01*
X123119460Y-94321074D01*
X123119196Y-94323281D01*
X123119067Y-94325516D01*
X123119074Y-94327763D01*
X123119216Y-94330005D01*
X123119492Y-94332225D01*
X123119904Y-94334406D01*
X123120449Y-94336532D01*
X123121129Y-94338585D01*
X123121942Y-94340549D01*
X123122889Y-94342406D01*
X123123968Y-94344140D01*
X123360744Y-94689131D01*
X123361291Y-94689977D01*
X123361795Y-94690849D01*
X123362256Y-94691745D01*
X123362676Y-94692662D01*
X123363053Y-94693598D01*
X123363388Y-94694552D01*
X123363934Y-94696505D01*
X123364314Y-94698505D01*
X123364530Y-94700537D01*
X123364583Y-94702584D01*
X123364475Y-94704632D01*
X123364206Y-94706664D01*
X123363779Y-94708666D01*
X123363195Y-94710621D01*
X123362455Y-94712515D01*
X123361561Y-94714331D01*
X123361057Y-94715206D01*
X123360514Y-94716055D01*
X123359933Y-94716877D01*
X123359315Y-94717670D01*
X123358659Y-94718432D01*
X123357966Y-94719161D01*
X123041445Y-95035735D01*
X123040711Y-95036433D01*
X123039945Y-95037093D01*
X123039147Y-95037716D01*
X123038321Y-95038300D01*
X123037469Y-95038846D01*
X123036591Y-95039354D01*
X123035690Y-95039823D01*
X123034769Y-95040254D01*
X123033828Y-95040646D01*
X123032870Y-95040998D01*
X123030910Y-95041585D01*
X123028905Y-95042014D01*
X123026870Y-95042283D01*
X123024820Y-95042391D01*
X123022771Y-95042336D01*
X123020738Y-95042117D01*
X123019733Y-95041945D01*
X123018737Y-95041732D01*
X123017754Y-95041478D01*
X123016784Y-95041181D01*
X123015830Y-95040842D01*
X123014893Y-95040462D01*
X123013976Y-95040038D01*
X123013081Y-95039573D01*
X123012208Y-95039064D01*
X123011362Y-95038513D01*
X122660180Y-94797504D01*
X122658442Y-94796421D01*
X122656574Y-94795456D01*
X122654593Y-94794609D01*
X122652516Y-94793882D01*
X122650360Y-94793277D01*
X122648143Y-94792794D01*
X122645882Y-94792435D01*
X122643594Y-94792202D01*
X122641296Y-94792096D01*
X122639006Y-94792118D01*
X122636741Y-94792269D01*
X122634518Y-94792552D01*
X122632355Y-94792966D01*
X122630268Y-94793514D01*
X122628275Y-94794198D01*
X122626393Y-94795017D01*
X122295531Y-94927467D01*
X122294567Y-94927795D01*
X122293606Y-94928169D01*
X122291697Y-94929046D01*
X122289817Y-94930086D01*
X122287976Y-94931276D01*
X122286187Y-94932603D01*
X122284461Y-94934054D01*
X122282809Y-94935617D01*
X122281244Y-94937280D01*
X122279777Y-94939029D01*
X122278419Y-94940852D01*
X122277183Y-94942736D01*
X122276080Y-94944668D01*
X122275121Y-94946636D01*
X122274318Y-94948628D01*
X122273979Y-94949628D01*
X122273683Y-94950630D01*
X122273432Y-94951630D01*
X122273227Y-94952629D01*
X122194275Y-95376889D01*
X122194069Y-95377875D01*
X122193815Y-95378849D01*
X122193513Y-95379810D01*
X122193165Y-95380756D01*
X122192774Y-95381686D01*
X122192339Y-95382599D01*
X122191864Y-95383493D01*
X122191349Y-95384367D01*
X122190796Y-95385221D01*
X122190206Y-95386052D01*
X122189581Y-95386860D01*
X122188923Y-95387642D01*
X122188232Y-95388399D01*
X122187511Y-95389129D01*
X122186761Y-95389830D01*
X122185984Y-95390501D01*
X122185181Y-95391142D01*
X122184353Y-95391750D01*
X122183502Y-95392325D01*
X122182630Y-95392864D01*
X122181738Y-95393368D01*
X122180827Y-95393835D01*
X122179900Y-95394263D01*
X122178957Y-95394651D01*
X122178001Y-95394999D01*
X122177032Y-95395304D01*
X122176052Y-95395565D01*
X122175063Y-95395782D01*
X122174067Y-95395953D01*
X122173064Y-95396076D01*
X122172056Y-95396151D01*
X122171045Y-95396177D01*
X121723396Y-95396230D01*
X121722383Y-95396207D01*
X121721374Y-95396134D01*
X121720370Y-95396013D01*
X121719373Y-95395845D01*
X121718384Y-95395630D01*
X121717404Y-95395371D01*
X121716436Y-95395069D01*
X121715480Y-95394724D01*
X121714538Y-95394338D01*
X121713612Y-95393912D01*
X121711813Y-95392946D01*
X121710093Y-95391835D01*
X121708464Y-95390591D01*
X121706939Y-95389222D01*
X121705529Y-95387738D01*
X121704245Y-95386151D01*
X121703100Y-95384468D01*
X121702583Y-95383595D01*
X121702105Y-95382702D01*
X121701668Y-95381790D01*
X121701273Y-95380861D01*
X121700921Y-95379915D01*
X121700613Y-95378955D01*
X121700353Y-95377981D01*
X121700140Y-95376994D01*
X121619257Y-94942046D01*
X121618793Y-94940052D01*
X121618154Y-94938048D01*
X121617351Y-94936047D01*
X121616395Y-94934061D01*
X121615298Y-94932105D01*
X121614070Y-94930192D01*
X121612724Y-94928334D01*
X121611270Y-94926545D01*
X121609719Y-94924838D01*
X121608083Y-94923227D01*
X121606373Y-94921724D01*
X121604601Y-94920343D01*
X121602777Y-94919097D01*
X121600913Y-94918000D01*
X121599021Y-94917063D01*
X121597111Y-94916302D01*
X121286067Y-94782978D01*
X121284205Y-94782115D01*
X121282231Y-94781389D01*
X121280163Y-94780800D01*
X121278018Y-94780347D01*
X121275813Y-94780029D01*
X121273564Y-94779844D01*
X121271289Y-94779791D01*
X121269005Y-94779869D01*
X121266728Y-94780078D01*
X121264476Y-94780416D01*
X121262266Y-94780882D01*
X121260115Y-94781475D01*
X121258040Y-94782194D01*
X121256057Y-94783038D01*
X121254184Y-94784005D01*
X121252438Y-94785095D01*
X120883080Y-95038513D01*
X120882233Y-95039060D01*
X120881361Y-95039564D01*
X120880466Y-95040027D01*
X120879550Y-95040447D01*
X120878614Y-95040825D01*
X120877660Y-95041162D01*
X120875708Y-95041710D01*
X120873710Y-95042094D01*
X120871679Y-95042313D01*
X120869633Y-95042369D01*
X120867585Y-95042264D01*
X120865553Y-95041998D01*
X120863550Y-95041572D01*
X120861592Y-95040988D01*
X120859695Y-95040247D01*
X120857875Y-95039350D01*
X120856998Y-95038844D01*
X120856146Y-95038298D01*
X120855320Y-95037715D01*
X120854523Y-95037093D01*
X120853757Y-95036433D01*
X120853023Y-95035735D01*
X120536502Y-94719214D01*
X120535804Y-94718480D01*
X120535144Y-94717714D01*
X120534521Y-94716918D01*
X120533937Y-94716093D01*
X120533391Y-94715241D01*
X120532883Y-94714365D01*
X120532413Y-94713466D01*
X120531983Y-94712546D01*
X120531591Y-94711607D01*
X120531239Y-94710651D01*
X120530651Y-94708696D01*
X120530223Y-94706696D01*
X120529954Y-94704665D01*
X120529846Y-94702620D01*
X120529901Y-94700576D01*
X120530120Y-94698548D01*
X120530292Y-94697545D01*
X120530505Y-94696551D01*
X120530759Y-94695569D01*
X120531056Y-94694601D01*
X120531394Y-94693648D01*
X120531775Y-94692713D01*
X120532198Y-94691797D01*
X120532664Y-94690902D01*
X120533173Y-94690030D01*
X120533724Y-94689184D01*
X120791640Y-94313343D01*
X120792727Y-94311605D01*
X120793695Y-94309735D01*
X120794542Y-94307751D01*
X120795269Y-94305671D01*
X120795872Y-94303512D01*
X120796352Y-94301292D01*
X120796707Y-94299028D01*
X120796935Y-94296737D01*
X120797036Y-94294437D01*
X120797008Y-94292146D01*
X120796851Y-94289881D01*
X120796562Y-94287659D01*
X120796142Y-94285498D01*
X120795588Y-94283416D01*
X120794899Y-94281429D01*
X120794074Y-94279556D01*
X120670646Y-93978037D01*
X120670305Y-93977078D01*
X120669919Y-93976122D01*
X120669488Y-93975170D01*
X120669015Y-93974225D01*
X120667949Y-93972356D01*
X120666732Y-93970527D01*
X120665379Y-93968750D01*
X120663902Y-93967035D01*
X120662314Y-93965394D01*
X120660628Y-93963839D01*
X120658858Y-93962379D01*
X120657016Y-93961028D01*
X120655116Y-93959795D01*
X120653170Y-93958693D01*
X120651192Y-93957732D01*
X120649194Y-93956924D01*
X120647190Y-93956280D01*
X120646190Y-93956023D01*
X120645193Y-93955812D01*
X120195322Y-93872071D01*
X120194333Y-93871863D01*
X120193357Y-93871606D01*
X120192395Y-93871303D01*
X120191447Y-93870955D01*
X120190516Y-93870562D01*
X120189602Y-93870128D01*
X120188707Y-93869652D01*
X120187832Y-93869137D01*
X120186979Y-93868585D01*
X120186147Y-93867996D01*
X120185340Y-93867372D01*
X120184557Y-93866715D01*
X120183800Y-93866026D01*
X120183071Y-93865307D01*
X120182370Y-93864559D01*
X120181699Y-93863783D01*
X120181060Y-93862981D01*
X120180452Y-93862156D01*
X120179878Y-93861307D01*
X120179339Y-93860437D01*
X120178836Y-93859546D01*
X120178371Y-93858638D01*
X120177943Y-93857712D01*
X120177556Y-93856771D01*
X120177209Y-93855817D01*
X120176905Y-93854849D01*
X120176644Y-93853871D01*
X120176428Y-93852883D01*
X120176257Y-93851887D01*
X120176134Y-93850885D01*
X120176059Y-93849878D01*
X120176034Y-93848867D01*
X120176034Y-93401192D01*
X120176059Y-93400184D01*
X120176134Y-93399179D01*
X120176257Y-93398179D01*
X120176428Y-93397185D01*
X120176644Y-93396199D01*
X120176905Y-93395222D01*
X120177209Y-93394256D01*
X120177556Y-93393303D01*
X120177943Y-93392363D01*
X120178371Y-93391439D01*
X120179339Y-93389643D01*
X120180452Y-93387925D01*
X120181699Y-93386299D01*
X120183071Y-93384777D01*
X120184557Y-93383369D01*
X120186147Y-93382089D01*
X120186979Y-93381500D01*
X120187832Y-93380948D01*
X120188707Y-93380433D01*
X120189602Y-93379958D01*
X120190516Y-93379523D01*
X120191447Y-93379131D01*
X120192395Y-93378783D01*
X120193357Y-93378479D01*
X120194333Y-93378223D01*
X120195322Y-93378015D01*
X120645193Y-93294300D01*
X120647190Y-93293832D01*
X120649194Y-93293189D01*
X120651192Y-93292382D01*
X120653170Y-93291423D01*
X120655116Y-93290322D01*
X120657016Y-93289091D01*
X120658858Y-93287741D01*
X120660628Y-93286284D01*
X120662314Y-93284729D01*
X120663902Y-93283089D01*
X120665379Y-93281374D01*
X120666732Y-93279596D01*
X120667949Y-93277766D01*
X120669015Y-93275895D01*
X120669919Y-93273995D01*
X120670646Y-93272076D01*
X120794074Y-92970530D01*
X120794899Y-92968652D01*
X120795588Y-92966661D01*
X120796142Y-92964575D01*
X120796563Y-92962412D01*
X120796851Y-92960188D01*
X120797008Y-92957921D01*
X120797036Y-92955629D01*
X120796935Y-92953329D01*
X120796707Y-92951038D01*
X120796352Y-92948775D01*
X120795872Y-92946556D01*
X120795269Y-92944399D01*
X120794542Y-92942322D01*
X120793695Y-92940342D01*
X120792727Y-92938476D01*
X120791640Y-92936743D01*
X120533724Y-92560929D01*
X120533173Y-92560080D01*
X120532664Y-92559205D01*
X120532198Y-92558308D01*
X120531775Y-92557390D01*
X120531394Y-92556452D01*
X120531056Y-92555497D01*
X120530505Y-92553542D01*
X120530120Y-92551541D01*
X120529901Y-92549509D01*
X120529846Y-92547462D01*
X120529954Y-92545414D01*
X120530223Y-92543382D01*
X120530652Y-92541380D01*
X120531239Y-92539424D01*
X120531983Y-92537529D01*
X120532883Y-92535711D01*
X120533391Y-92534836D01*
X120533937Y-92533985D01*
X120534521Y-92533162D01*
X120535144Y-92532367D01*
X120535804Y-92531603D01*
X120536502Y-92530872D01*
X120853023Y-92214324D01*
X120853757Y-92213628D01*
X120854523Y-92212970D01*
X120855320Y-92212349D01*
X120856146Y-92211766D01*
X120856998Y-92211221D01*
X120857875Y-92210714D01*
X120858775Y-92210246D01*
X120859695Y-92209816D01*
X120860635Y-92209425D01*
X120861592Y-92209072D01*
X120863550Y-92208485D01*
X120865553Y-92208056D01*
X120867585Y-92207786D01*
X120869633Y-92207677D01*
X120871679Y-92207730D01*
X120873710Y-92207947D01*
X120874714Y-92208118D01*
X120875708Y-92208330D01*
X120876691Y-92208584D01*
X120877660Y-92208880D01*
X120878614Y-92209218D01*
X120879550Y-92209598D01*
X120880466Y-92210021D01*
X120881361Y-92210486D01*
X120882233Y-92210995D01*
X120883080Y-92211546D01*
X121252438Y-92464990D01*
X121254184Y-92466071D01*
X121256057Y-92467030D01*
X121258040Y-92467867D01*
X121260115Y-92468580D01*
X121262266Y-92469168D01*
X121264476Y-92469631D01*
X121266728Y-92469966D01*
X121269005Y-92470173D01*
X121271289Y-92470251D01*
X121273564Y-92470198D01*
X121275813Y-92470014D01*
X121278018Y-92469697D01*
X121280163Y-92469247D01*
X121282231Y-92468661D01*
X121284205Y-92467939D01*
X121286067Y-92467081D01*
X121597111Y-92333731D01*
X121598067Y-92333375D01*
X121599021Y-92332974D01*
X121600913Y-92332043D01*
X121602777Y-92330950D01*
X121604601Y-92329708D01*
X121606373Y-92328331D01*
X121608083Y-92326832D01*
X121609719Y-92325223D01*
X121611270Y-92323518D01*
X121612724Y-92321730D01*
X121614070Y-92319872D01*
X121615298Y-92317957D01*
X121616395Y-92315998D01*
X121617351Y-92314008D01*
X121618154Y-92312001D01*
X121618793Y-92309990D01*
X121619047Y-92308986D01*
X121619257Y-92307987D01*
X121700140Y-91873065D01*
X121700353Y-91872073D01*
X121700613Y-91871095D01*
X121700921Y-91870131D01*
X121701272Y-91869182D01*
X121701668Y-91868250D01*
X121702105Y-91867335D01*
X121702583Y-91866439D01*
X121703100Y-91865564D01*
X121703654Y-91864710D01*
X121704244Y-91863878D01*
X121704869Y-91863070D01*
X121705527Y-91862288D01*
X121706217Y-91861531D01*
X121706937Y-91860802D01*
X121707685Y-91860102D01*
X121708461Y-91859432D01*
X121709262Y-91858793D01*
X121710088Y-91858186D01*
X121710936Y-91857613D01*
X121711806Y-91857075D01*
X121712696Y-91856573D01*
X121713604Y-91856108D01*
X121714529Y-91855681D01*
X121715469Y-91855295D01*
X121716423Y-91854949D01*
X121717390Y-91854645D01*
X121718368Y-91854385D01*
X121719355Y-91854169D01*
X121720350Y-91853999D01*
X121721352Y-91853876D01*
X121722359Y-91853802D01*
X121723370Y-91853776D01*
X122171019Y-91853803D01*
G37*
G36*
X123989413Y-91346615D02*
G01*
X124006607Y-91347153D01*
X124022498Y-91348061D01*
X124037180Y-91349349D01*
X124050749Y-91351026D01*
X124063298Y-91353103D01*
X124074922Y-91355589D01*
X124085716Y-91358493D01*
X124095774Y-91361825D01*
X124105192Y-91365596D01*
X124114064Y-91369813D01*
X124122484Y-91374488D01*
X124130547Y-91379630D01*
X124138348Y-91385248D01*
X124145981Y-91391352D01*
X124153542Y-91397952D01*
X124159013Y-91403085D01*
X124164499Y-91408653D01*
X124169948Y-91414674D01*
X124175310Y-91421166D01*
X124180535Y-91428147D01*
X124185571Y-91435634D01*
X124190369Y-91443645D01*
X124194876Y-91452199D01*
X124197005Y-91456684D01*
X124199043Y-91461312D01*
X124200983Y-91466084D01*
X124202819Y-91471003D01*
X124204545Y-91476071D01*
X124206153Y-91481290D01*
X124207639Y-91486662D01*
X124208995Y-91492190D01*
X124210215Y-91497876D01*
X124211293Y-91503722D01*
X124212223Y-91509730D01*
X124212998Y-91515903D01*
X124213611Y-91522242D01*
X124214058Y-91528750D01*
X124214330Y-91535430D01*
X124214422Y-91542283D01*
X124214058Y-91555810D01*
X124212998Y-91568654D01*
X124211293Y-91580831D01*
X124208995Y-91592360D01*
X124206153Y-91603257D01*
X124202819Y-91613542D01*
X124199043Y-91623231D01*
X124194876Y-91632343D01*
X124190368Y-91640896D01*
X124185571Y-91648906D01*
X124180535Y-91656393D01*
X124175310Y-91663373D01*
X124169948Y-91669864D01*
X124164498Y-91675885D01*
X124159013Y-91681453D01*
X124153542Y-91686586D01*
X124145981Y-91693187D01*
X124138347Y-91699292D01*
X124130545Y-91704911D01*
X124122480Y-91710054D01*
X124114059Y-91714731D01*
X124105185Y-91718951D01*
X124095766Y-91722724D01*
X124085706Y-91726059D01*
X124074911Y-91728966D01*
X124063286Y-91731454D01*
X124050737Y-91733533D01*
X124037169Y-91735212D01*
X124022488Y-91736502D01*
X124006600Y-91737411D01*
X123989408Y-91737950D01*
X123970820Y-91738127D01*
X123952387Y-91737950D01*
X123935332Y-91737411D01*
X123919562Y-91736502D01*
X123904984Y-91735212D01*
X123891505Y-91733533D01*
X123879031Y-91731454D01*
X123867469Y-91728966D01*
X123856725Y-91726059D01*
X123846706Y-91722724D01*
X123837319Y-91718951D01*
X123828469Y-91714731D01*
X123820065Y-91710054D01*
X123812011Y-91704911D01*
X123804216Y-91699292D01*
X123796585Y-91693187D01*
X123789025Y-91686586D01*
X123783553Y-91681453D01*
X123778066Y-91675885D01*
X123772614Y-91669864D01*
X123767248Y-91663373D01*
X123762019Y-91656393D01*
X123756979Y-91648906D01*
X123752177Y-91640896D01*
X123747664Y-91632343D01*
X123745532Y-91627858D01*
X123743492Y-91623231D01*
X123741550Y-91618460D01*
X123739711Y-91613542D01*
X123737984Y-91608475D01*
X123736373Y-91603257D01*
X123734885Y-91597886D01*
X123733527Y-91592360D01*
X123732305Y-91586675D01*
X123731225Y-91580831D01*
X123730294Y-91574825D01*
X123729518Y-91568654D01*
X123728904Y-91562316D01*
X123728457Y-91555810D01*
X123728184Y-91549133D01*
X123728092Y-91542283D01*
X123823685Y-91542283D01*
X123823858Y-91548393D01*
X123824367Y-91554419D01*
X123825197Y-91560340D01*
X123826333Y-91566138D01*
X123827760Y-91571794D01*
X123829463Y-91577288D01*
X123831427Y-91582602D01*
X123833637Y-91587715D01*
X123836078Y-91592609D01*
X123838735Y-91597264D01*
X123841593Y-91601663D01*
X123844637Y-91605784D01*
X123847852Y-91609609D01*
X123851222Y-91613119D01*
X123854734Y-91616295D01*
X123858372Y-91619118D01*
X123863048Y-91622315D01*
X123867654Y-91625236D01*
X123872275Y-91627891D01*
X123876995Y-91630288D01*
X123881897Y-91632439D01*
X123887064Y-91634352D01*
X123892580Y-91636036D01*
X123898530Y-91637503D01*
X123904996Y-91638761D01*
X123912062Y-91639819D01*
X123919812Y-91640689D01*
X123928329Y-91641379D01*
X123937698Y-91641898D01*
X123948001Y-91642257D01*
X123959323Y-91642466D01*
X123971747Y-91642533D01*
X123995184Y-91642257D01*
X124005361Y-91641898D01*
X124014621Y-91641379D01*
X124023046Y-91640689D01*
X124030717Y-91639819D01*
X124037719Y-91638761D01*
X124044133Y-91637503D01*
X124050042Y-91636036D01*
X124055529Y-91634352D01*
X124060675Y-91632439D01*
X124065564Y-91630288D01*
X124070278Y-91627891D01*
X124074899Y-91625236D01*
X124079511Y-91622315D01*
X124084194Y-91619118D01*
X124086026Y-91617752D01*
X124087828Y-91616295D01*
X124091337Y-91613119D01*
X124094705Y-91609609D01*
X124097919Y-91605784D01*
X124100962Y-91601663D01*
X124103820Y-91597264D01*
X124106478Y-91592609D01*
X124108920Y-91587715D01*
X124111131Y-91582602D01*
X124113097Y-91577288D01*
X124114801Y-91571794D01*
X124116230Y-91566138D01*
X124117367Y-91560340D01*
X124118198Y-91554419D01*
X124118708Y-91548393D01*
X124118881Y-91542283D01*
X124118708Y-91536167D01*
X124118199Y-91530138D01*
X124117370Y-91524213D01*
X124116234Y-91518412D01*
X124114807Y-91512754D01*
X124113104Y-91507258D01*
X124111140Y-91501944D01*
X124108930Y-91496830D01*
X124106489Y-91491937D01*
X124103832Y-91487282D01*
X124100974Y-91482886D01*
X124097930Y-91478766D01*
X124094715Y-91474944D01*
X124091344Y-91471437D01*
X124087832Y-91468265D01*
X124084194Y-91465448D01*
X124079510Y-91462250D01*
X124074897Y-91459328D01*
X124070272Y-91456672D01*
X124065549Y-91454273D01*
X124060647Y-91452120D01*
X124055480Y-91450205D01*
X124049965Y-91448518D01*
X124044017Y-91447049D01*
X124037554Y-91445789D01*
X124030491Y-91444728D01*
X124022745Y-91443856D01*
X124014230Y-91443164D01*
X124004865Y-91442643D01*
X123994564Y-91442282D01*
X123983244Y-91442073D01*
X123970820Y-91442005D01*
X123947381Y-91442282D01*
X123937201Y-91442643D01*
X123927939Y-91443164D01*
X123919511Y-91443856D01*
X123911836Y-91444728D01*
X123904831Y-91445789D01*
X123898414Y-91447049D01*
X123892503Y-91448518D01*
X123887015Y-91450205D01*
X123881868Y-91452120D01*
X123876980Y-91454273D01*
X123872269Y-91456672D01*
X123867652Y-91459328D01*
X123863047Y-91462250D01*
X123858372Y-91465448D01*
X123856541Y-91466811D01*
X123854739Y-91468265D01*
X123851230Y-91471437D01*
X123847861Y-91474944D01*
X123844648Y-91478766D01*
X123841605Y-91482886D01*
X123838747Y-91487282D01*
X123836089Y-91491937D01*
X123833647Y-91496830D01*
X123831436Y-91501944D01*
X123829470Y-91507258D01*
X123827766Y-91512754D01*
X123826337Y-91518412D01*
X123825200Y-91524213D01*
X123824368Y-91530138D01*
X123823859Y-91536167D01*
X123823685Y-91542283D01*
X123728092Y-91542283D01*
X123728457Y-91528750D01*
X123729518Y-91515903D01*
X123731225Y-91503722D01*
X123733527Y-91492190D01*
X123736373Y-91481290D01*
X123739711Y-91471003D01*
X123743492Y-91461312D01*
X123747664Y-91452199D01*
X123752177Y-91443645D01*
X123756979Y-91435634D01*
X123762020Y-91428147D01*
X123767248Y-91421166D01*
X123772614Y-91414674D01*
X123778066Y-91408653D01*
X123783553Y-91403085D01*
X123789025Y-91397952D01*
X123796589Y-91391352D01*
X123804223Y-91385248D01*
X123812021Y-91379630D01*
X123820076Y-91374488D01*
X123828481Y-91369813D01*
X123837330Y-91365596D01*
X123846717Y-91361825D01*
X123856735Y-91358493D01*
X123867478Y-91355589D01*
X123879038Y-91353103D01*
X123891511Y-91351026D01*
X123904988Y-91349349D01*
X123919564Y-91348061D01*
X123935333Y-91347153D01*
X123952387Y-91346615D01*
X123970820Y-91346438D01*
X123989413Y-91346615D01*
G37*
G36*
X124208787Y-92832444D02*
G01*
X123925868Y-92832444D01*
X123919883Y-92832561D01*
X123914060Y-92832909D01*
X123908400Y-92833485D01*
X123902905Y-92834281D01*
X123897577Y-92835295D01*
X123892418Y-92836521D01*
X123887430Y-92837954D01*
X123882615Y-92839589D01*
X123877974Y-92841422D01*
X123873509Y-92843448D01*
X123869223Y-92845662D01*
X123865117Y-92848059D01*
X123861193Y-92850635D01*
X123857452Y-92853385D01*
X123853898Y-92856303D01*
X123850531Y-92859385D01*
X123847354Y-92862626D01*
X123844368Y-92866022D01*
X123841575Y-92869568D01*
X123838978Y-92873258D01*
X123836577Y-92877088D01*
X123834376Y-92881053D01*
X123832375Y-92885149D01*
X123830577Y-92889370D01*
X123828983Y-92893713D01*
X123827596Y-92898171D01*
X123826417Y-92902740D01*
X123825449Y-92907415D01*
X123824692Y-92912193D01*
X123824149Y-92917066D01*
X123823822Y-92922032D01*
X123823712Y-92927085D01*
X123823822Y-92932054D01*
X123824149Y-92936941D01*
X123824692Y-92941741D01*
X123825449Y-92946449D01*
X123826417Y-92951061D01*
X123827596Y-92955570D01*
X123828984Y-92959973D01*
X123830577Y-92964265D01*
X123832375Y-92968439D01*
X123834376Y-92972492D01*
X123836578Y-92976418D01*
X123838978Y-92980213D01*
X123841576Y-92983871D01*
X123844368Y-92987387D01*
X123847354Y-92990757D01*
X123850531Y-92993975D01*
X123853898Y-92997037D01*
X123857453Y-92999937D01*
X123861193Y-93002671D01*
X123865117Y-93005234D01*
X123869223Y-93007620D01*
X123873509Y-93009824D01*
X123877974Y-93011843D01*
X123882615Y-93013670D01*
X123887430Y-93015300D01*
X123892419Y-93016730D01*
X123897578Y-93017953D01*
X123902905Y-93018965D01*
X123908400Y-93019760D01*
X123914060Y-93020335D01*
X123919883Y-93020683D01*
X123925868Y-93020801D01*
X124208787Y-93020801D01*
X124208787Y-93116368D01*
X123893033Y-93116368D01*
X123883076Y-93116124D01*
X123873417Y-93115403D01*
X123864057Y-93114223D01*
X123854998Y-93112600D01*
X123846239Y-93110553D01*
X123837784Y-93108098D01*
X123829633Y-93105254D01*
X123821786Y-93102036D01*
X123814246Y-93098463D01*
X123807013Y-93094552D01*
X123800089Y-93090319D01*
X123793475Y-93085784D01*
X123787172Y-93080962D01*
X123781181Y-93075871D01*
X123775503Y-93070529D01*
X123770140Y-93064953D01*
X123765093Y-93059160D01*
X123760363Y-93053167D01*
X123755951Y-93046992D01*
X123751859Y-93040652D01*
X123748086Y-93034164D01*
X123744636Y-93027546D01*
X123741509Y-93020816D01*
X123738706Y-93013989D01*
X123734076Y-93000119D01*
X123730758Y-92986074D01*
X123728760Y-92971993D01*
X123728259Y-92964982D01*
X123728092Y-92958015D01*
X123728311Y-92948618D01*
X123728971Y-92939405D01*
X123730070Y-92930384D01*
X123731608Y-92921562D01*
X123733586Y-92912949D01*
X123736003Y-92904552D01*
X123738859Y-92896381D01*
X123742154Y-92888443D01*
X123745889Y-92880747D01*
X123750062Y-92873301D01*
X123754674Y-92866113D01*
X123759725Y-92859193D01*
X123765215Y-92852548D01*
X123771143Y-92846187D01*
X123777510Y-92840117D01*
X123784316Y-92834349D01*
X123784316Y-92832444D01*
X123733727Y-92832444D01*
X123733727Y-92736876D01*
X124208787Y-92736876D01*
X124208787Y-92832444D01*
G37*
G36*
X123990510Y-92263971D02*
G01*
X124007500Y-92264940D01*
X124023660Y-92266525D01*
X124039008Y-92268704D01*
X124053563Y-92271453D01*
X124067343Y-92274748D01*
X124080368Y-92278564D01*
X124092654Y-92282880D01*
X124104222Y-92287670D01*
X124115090Y-92292912D01*
X124125275Y-92298581D01*
X124134798Y-92304654D01*
X124143675Y-92311107D01*
X124151925Y-92317916D01*
X124159568Y-92325059D01*
X124166622Y-92332510D01*
X124173104Y-92340247D01*
X124179034Y-92348246D01*
X124184430Y-92356483D01*
X124189311Y-92364935D01*
X124193695Y-92373577D01*
X124197601Y-92382386D01*
X124204051Y-92400412D01*
X124208810Y-92418822D01*
X124212027Y-92437426D01*
X124213848Y-92456036D01*
X124214422Y-92474462D01*
X124214156Y-92486377D01*
X124213349Y-92498209D01*
X124211988Y-92509940D01*
X124210059Y-92521556D01*
X124207547Y-92533039D01*
X124204440Y-92544374D01*
X124200723Y-92555543D01*
X124196384Y-92566531D01*
X124191407Y-92577321D01*
X124185780Y-92587897D01*
X124179489Y-92598242D01*
X124172519Y-92608341D01*
X124164858Y-92618176D01*
X124156491Y-92627732D01*
X124147406Y-92636992D01*
X124137587Y-92645939D01*
X124078585Y-92576592D01*
X124083888Y-92571195D01*
X124088899Y-92565555D01*
X124093611Y-92559693D01*
X124098017Y-92553629D01*
X124102111Y-92547383D01*
X124105884Y-92540978D01*
X124109331Y-92534432D01*
X124112445Y-92527766D01*
X124115218Y-92521002D01*
X124117643Y-92514159D01*
X124119715Y-92507259D01*
X124121425Y-92500321D01*
X124122767Y-92493367D01*
X124123734Y-92486417D01*
X124124319Y-92479491D01*
X124124516Y-92472610D01*
X124124401Y-92466512D01*
X124124055Y-92460524D01*
X124123479Y-92454651D01*
X124122673Y-92448899D01*
X124121636Y-92443273D01*
X124120370Y-92437779D01*
X124118874Y-92432423D01*
X124117149Y-92427210D01*
X124115195Y-92422145D01*
X124113011Y-92417233D01*
X124110598Y-92412481D01*
X124107957Y-92407894D01*
X124105087Y-92403478D01*
X124101989Y-92399237D01*
X124098662Y-92395177D01*
X124095108Y-92391304D01*
X124091325Y-92387623D01*
X124087315Y-92384140D01*
X124083077Y-92380860D01*
X124078612Y-92377789D01*
X124073919Y-92374932D01*
X124069000Y-92372295D01*
X124063854Y-92369883D01*
X124058481Y-92367701D01*
X124052882Y-92365756D01*
X124047056Y-92364052D01*
X124041004Y-92362596D01*
X124034726Y-92361391D01*
X124028223Y-92360445D01*
X124021493Y-92359763D01*
X124014539Y-92359349D01*
X124007359Y-92359210D01*
X124007359Y-92655305D01*
X123928646Y-92655305D01*
X123917267Y-92655041D01*
X123906158Y-92654259D01*
X123895324Y-92652972D01*
X123884773Y-92651195D01*
X123874509Y-92648942D01*
X123864540Y-92646226D01*
X123854870Y-92643063D01*
X123845506Y-92639465D01*
X123836453Y-92635447D01*
X123827719Y-92631024D01*
X123819308Y-92626208D01*
X123811227Y-92621015D01*
X123803482Y-92615458D01*
X123796078Y-92609552D01*
X123789023Y-92603310D01*
X123782321Y-92596746D01*
X123775979Y-92589875D01*
X123770002Y-92582711D01*
X123764398Y-92575267D01*
X123759171Y-92567559D01*
X123754328Y-92559599D01*
X123749874Y-92551402D01*
X123745816Y-92542982D01*
X123742160Y-92534353D01*
X123738912Y-92525529D01*
X123736077Y-92516524D01*
X123733662Y-92507353D01*
X123731672Y-92498029D01*
X123730115Y-92488566D01*
X123728995Y-92478979D01*
X123728318Y-92469281D01*
X123728091Y-92459487D01*
X123818077Y-92459487D01*
X123818189Y-92464713D01*
X123818525Y-92469848D01*
X123819085Y-92474885D01*
X123819867Y-92479822D01*
X123820871Y-92484654D01*
X123822095Y-92489377D01*
X123823540Y-92493985D01*
X123825203Y-92498476D01*
X123827085Y-92502845D01*
X123829184Y-92507087D01*
X123831500Y-92511199D01*
X123834031Y-92515175D01*
X123836778Y-92519012D01*
X123839738Y-92522706D01*
X123842912Y-92526251D01*
X123846298Y-92529645D01*
X123849895Y-92532881D01*
X123853703Y-92535957D01*
X123857721Y-92538868D01*
X123861949Y-92541610D01*
X123866384Y-92544178D01*
X123871026Y-92546568D01*
X123875876Y-92548776D01*
X123880930Y-92550797D01*
X123886190Y-92552627D01*
X123891654Y-92554263D01*
X123897320Y-92555699D01*
X123903189Y-92556931D01*
X123909260Y-92557955D01*
X123915531Y-92558767D01*
X123922002Y-92559363D01*
X123928672Y-92559738D01*
X123928672Y-92359210D01*
X123922002Y-92359503D01*
X123915531Y-92360028D01*
X123909260Y-92360779D01*
X123903189Y-92361752D01*
X123897320Y-92362942D01*
X123891653Y-92364344D01*
X123886190Y-92365953D01*
X123880930Y-92367764D01*
X123875875Y-92369774D01*
X123871026Y-92371976D01*
X123866384Y-92374366D01*
X123861948Y-92376939D01*
X123857721Y-92379691D01*
X123853703Y-92382616D01*
X123849895Y-92385711D01*
X123846298Y-92388969D01*
X123842912Y-92392387D01*
X123839738Y-92395958D01*
X123836778Y-92399680D01*
X123834031Y-92403546D01*
X123831500Y-92407553D01*
X123829184Y-92411694D01*
X123827085Y-92415966D01*
X123825203Y-92420364D01*
X123823540Y-92424882D01*
X123822095Y-92429516D01*
X123820871Y-92434261D01*
X123819867Y-92439113D01*
X123819085Y-92444066D01*
X123818525Y-92449116D01*
X123818189Y-92454258D01*
X123818077Y-92459487D01*
X123728091Y-92459487D01*
X123728810Y-92442149D01*
X123731030Y-92424697D01*
X123732733Y-92415982D01*
X123734846Y-92407301D01*
X123737381Y-92398677D01*
X123740351Y-92390132D01*
X123743768Y-92381685D01*
X123747642Y-92373358D01*
X123751986Y-92365173D01*
X123756811Y-92357151D01*
X123762131Y-92349313D01*
X123767955Y-92341680D01*
X123774296Y-92334274D01*
X123781167Y-92327116D01*
X123788578Y-92320227D01*
X123796542Y-92313628D01*
X123805070Y-92307341D01*
X123814174Y-92301387D01*
X123823866Y-92295787D01*
X123834158Y-92290563D01*
X123845062Y-92285735D01*
X123856590Y-92281325D01*
X123868752Y-92277354D01*
X123881562Y-92273844D01*
X123895031Y-92270815D01*
X123909170Y-92268290D01*
X123923992Y-92266289D01*
X123928672Y-92265849D01*
X123939509Y-92264833D01*
X123955731Y-92263944D01*
X123972672Y-92263643D01*
X123990510Y-92263971D01*
G37*
G36*
X123989413Y-93835048D02*
G01*
X124006607Y-93835588D01*
X124022498Y-93836498D01*
X124037180Y-93837790D01*
X124050749Y-93839471D01*
X124063298Y-93841553D01*
X124074922Y-93844043D01*
X124085716Y-93846952D01*
X124095774Y-93850290D01*
X124105192Y-93854065D01*
X124114064Y-93858287D01*
X124122484Y-93862966D01*
X124130547Y-93868111D01*
X124138348Y-93873731D01*
X124145981Y-93879837D01*
X124153542Y-93886438D01*
X124159013Y-93891570D01*
X124164499Y-93897138D01*
X124169948Y-93903157D01*
X124175310Y-93909647D01*
X124180535Y-93916625D01*
X124185571Y-93924109D01*
X124190369Y-93932118D01*
X124194876Y-93940667D01*
X124197005Y-93945151D01*
X124199043Y-93949777D01*
X124200983Y-93954547D01*
X124202819Y-93959464D01*
X124204545Y-93964530D01*
X124206153Y-93969747D01*
X124207639Y-93975117D01*
X124208995Y-93980642D01*
X124210215Y-93986326D01*
X124211293Y-93992169D01*
X124212223Y-93998175D01*
X124212998Y-94004345D01*
X124213611Y-94010682D01*
X124214058Y-94017188D01*
X124214330Y-94023865D01*
X124214422Y-94030715D01*
X124214058Y-94044252D01*
X124212998Y-94057103D01*
X124211293Y-94069286D01*
X124208995Y-94080819D01*
X124206153Y-94091719D01*
X124202819Y-94102006D01*
X124199043Y-94111697D01*
X124194876Y-94120809D01*
X124190368Y-94129361D01*
X124185571Y-94137371D01*
X124180535Y-94144856D01*
X124175310Y-94151835D01*
X124169948Y-94158326D01*
X124164498Y-94164346D01*
X124159013Y-94169913D01*
X124153542Y-94175046D01*
X124145981Y-94181645D01*
X124138347Y-94187750D01*
X124130545Y-94193368D01*
X124122480Y-94198509D01*
X124114059Y-94203184D01*
X124105185Y-94207402D01*
X124095766Y-94211172D01*
X124085706Y-94214505D01*
X124074911Y-94217409D01*
X124063286Y-94219895D01*
X124050737Y-94221971D01*
X124037169Y-94223649D01*
X124022488Y-94224937D01*
X124006600Y-94225845D01*
X123989408Y-94226383D01*
X123970820Y-94226560D01*
X123952387Y-94226383D01*
X123935332Y-94225845D01*
X123919562Y-94224937D01*
X123904984Y-94223649D01*
X123891505Y-94221971D01*
X123879031Y-94219895D01*
X123867469Y-94217409D01*
X123856725Y-94214505D01*
X123846706Y-94211172D01*
X123837319Y-94207402D01*
X123828469Y-94203184D01*
X123820065Y-94198509D01*
X123812011Y-94193368D01*
X123804216Y-94187750D01*
X123796585Y-94181645D01*
X123789025Y-94175046D01*
X123783553Y-94169913D01*
X123778066Y-94164346D01*
X123772614Y-94158326D01*
X123767248Y-94151835D01*
X123762019Y-94144856D01*
X123756979Y-94137371D01*
X123752177Y-94129361D01*
X123747664Y-94120809D01*
X123745532Y-94116324D01*
X123743492Y-94111697D01*
X123741550Y-94106925D01*
X123739711Y-94102006D01*
X123737984Y-94096939D01*
X123736373Y-94091720D01*
X123734885Y-94086347D01*
X123733527Y-94080819D01*
X123732305Y-94075132D01*
X123731225Y-94069286D01*
X123730294Y-94063277D01*
X123729518Y-94057103D01*
X123728904Y-94050762D01*
X123728457Y-94044252D01*
X123728184Y-94037570D01*
X123728092Y-94030715D01*
X123823685Y-94030715D01*
X123823858Y-94036830D01*
X123824367Y-94042860D01*
X123825197Y-94048785D01*
X123826333Y-94054586D01*
X123827760Y-94060244D01*
X123829463Y-94065739D01*
X123831427Y-94071054D01*
X123833637Y-94076167D01*
X123836078Y-94081061D01*
X123838735Y-94085716D01*
X123841593Y-94090112D01*
X123844637Y-94094231D01*
X123847852Y-94098054D01*
X123851222Y-94101560D01*
X123854734Y-94104732D01*
X123858372Y-94107550D01*
X123863048Y-94110752D01*
X123867654Y-94113676D01*
X123872275Y-94116333D01*
X123876995Y-94118732D01*
X123881897Y-94120883D01*
X123887064Y-94122796D01*
X123892580Y-94124480D01*
X123898530Y-94125945D01*
X123904996Y-94127202D01*
X123912062Y-94128259D01*
X123919812Y-94129127D01*
X123928329Y-94129815D01*
X123937698Y-94130333D01*
X123948001Y-94130691D01*
X123959323Y-94130899D01*
X123971747Y-94130966D01*
X123995184Y-94130691D01*
X124005361Y-94130333D01*
X124014621Y-94129815D01*
X124023046Y-94129127D01*
X124030717Y-94128259D01*
X124037719Y-94127202D01*
X124044133Y-94125945D01*
X124050042Y-94124480D01*
X124055529Y-94122796D01*
X124060675Y-94120883D01*
X124065564Y-94118732D01*
X124070278Y-94116333D01*
X124074899Y-94113676D01*
X124079511Y-94110752D01*
X124084194Y-94107550D01*
X124086026Y-94106187D01*
X124087828Y-94104732D01*
X124091337Y-94101560D01*
X124094705Y-94098054D01*
X124097919Y-94094231D01*
X124100962Y-94090112D01*
X124103820Y-94085716D01*
X124106478Y-94081061D01*
X124108920Y-94076167D01*
X124111131Y-94071054D01*
X124113097Y-94065739D01*
X124114801Y-94060244D01*
X124116230Y-94054586D01*
X124117367Y-94048785D01*
X124118198Y-94042860D01*
X124118708Y-94036830D01*
X124118881Y-94030715D01*
X124118708Y-94024609D01*
X124118199Y-94018585D01*
X124117370Y-94012665D01*
X124116234Y-94006867D01*
X124114807Y-94001211D01*
X124113104Y-93995717D01*
X124111140Y-93990403D01*
X124108930Y-93985289D01*
X124106489Y-93980396D01*
X124103832Y-93975741D01*
X124100974Y-93971346D01*
X124097930Y-93967229D01*
X124094715Y-93963409D01*
X124091344Y-93959907D01*
X124087832Y-93956742D01*
X124084194Y-93953933D01*
X124079510Y-93950731D01*
X124074897Y-93947805D01*
X124070272Y-93945145D01*
X124065549Y-93942743D01*
X124060647Y-93940588D01*
X124055480Y-93938671D01*
X124049965Y-93936982D01*
X124044017Y-93935511D01*
X124037554Y-93934250D01*
X124030491Y-93933188D01*
X124022745Y-93932316D01*
X124014230Y-93931624D01*
X124004865Y-93931102D01*
X123994564Y-93930741D01*
X123983244Y-93930532D01*
X123970820Y-93930464D01*
X123947381Y-93930741D01*
X123937201Y-93931102D01*
X123927939Y-93931624D01*
X123919511Y-93932316D01*
X123911836Y-93933188D01*
X123904831Y-93934250D01*
X123898414Y-93935511D01*
X123892503Y-93936982D01*
X123887015Y-93938671D01*
X123881868Y-93940588D01*
X123876980Y-93942743D01*
X123872269Y-93945145D01*
X123867652Y-93947805D01*
X123863047Y-93950731D01*
X123858372Y-93953933D01*
X123856541Y-93955292D01*
X123854739Y-93956742D01*
X123851230Y-93959907D01*
X123847861Y-93963409D01*
X123844648Y-93967229D01*
X123841605Y-93971346D01*
X123838747Y-93975741D01*
X123836089Y-93980396D01*
X123833647Y-93985289D01*
X123831436Y-93990403D01*
X123829470Y-93995717D01*
X123827766Y-94001211D01*
X123826337Y-94006867D01*
X123825200Y-94012665D01*
X123824368Y-94018585D01*
X123823859Y-94024609D01*
X123823685Y-94030715D01*
X123728092Y-94030715D01*
X123728457Y-94017188D01*
X123729518Y-94004345D01*
X123731225Y-93992169D01*
X123733527Y-93980642D01*
X123736373Y-93969747D01*
X123739711Y-93959464D01*
X123743492Y-93949777D01*
X123747664Y-93940668D01*
X123752177Y-93932118D01*
X123756979Y-93924110D01*
X123762020Y-93916625D01*
X123767248Y-93909647D01*
X123772614Y-93903157D01*
X123778066Y-93897138D01*
X123783553Y-93891570D01*
X123789025Y-93886438D01*
X123796589Y-93879837D01*
X123804223Y-93873731D01*
X123812021Y-93868111D01*
X123820076Y-93862966D01*
X123828481Y-93858287D01*
X123837330Y-93854065D01*
X123846717Y-93850290D01*
X123856735Y-93846952D01*
X123867478Y-93844043D01*
X123879038Y-93841553D01*
X123891511Y-93839471D01*
X123904988Y-93837790D01*
X123919564Y-93836498D01*
X123935333Y-93835588D01*
X123952387Y-93835048D01*
X123970820Y-93834871D01*
X123989413Y-93835048D01*
G37*
D11*
X123637945Y-85291695D02*
X123637945Y-84491695D01*
X123637945Y-84491695D02*
X123333183Y-84491695D01*
X123333183Y-84491695D02*
X123256993Y-84529790D01*
X123256993Y-84529790D02*
X123218898Y-84567885D01*
X123218898Y-84567885D02*
X123180802Y-84644076D01*
X123180802Y-84644076D02*
X123180802Y-84758361D01*
X123180802Y-84758361D02*
X123218898Y-84834552D01*
X123218898Y-84834552D02*
X123256993Y-84872647D01*
X123256993Y-84872647D02*
X123333183Y-84910742D01*
X123333183Y-84910742D02*
X123637945Y-84910742D01*
X122837945Y-85291695D02*
X122837945Y-84758361D01*
X122837945Y-84910742D02*
X122799850Y-84834552D01*
X122799850Y-84834552D02*
X122761755Y-84796457D01*
X122761755Y-84796457D02*
X122685564Y-84758361D01*
X122685564Y-84758361D02*
X122609374Y-84758361D01*
X122228422Y-85291695D02*
X122304612Y-85253600D01*
X122304612Y-85253600D02*
X122342707Y-85215504D01*
X122342707Y-85215504D02*
X122380803Y-85139314D01*
X122380803Y-85139314D02*
X122380803Y-84910742D01*
X122380803Y-84910742D02*
X122342707Y-84834552D01*
X122342707Y-84834552D02*
X122304612Y-84796457D01*
X122304612Y-84796457D02*
X122228422Y-84758361D01*
X122228422Y-84758361D02*
X122114136Y-84758361D01*
X122114136Y-84758361D02*
X122037945Y-84796457D01*
X122037945Y-84796457D02*
X121999850Y-84834552D01*
X121999850Y-84834552D02*
X121961755Y-84910742D01*
X121961755Y-84910742D02*
X121961755Y-85139314D01*
X121961755Y-85139314D02*
X121999850Y-85215504D01*
X121999850Y-85215504D02*
X122037945Y-85253600D01*
X122037945Y-85253600D02*
X122114136Y-85291695D01*
X122114136Y-85291695D02*
X122228422Y-85291695D01*
X121733183Y-84758361D02*
X121428421Y-84758361D01*
X121618897Y-84491695D02*
X121618897Y-85177409D01*
X121618897Y-85177409D02*
X121580802Y-85253600D01*
X121580802Y-85253600D02*
X121504612Y-85291695D01*
X121504612Y-85291695D02*
X121428421Y-85291695D01*
X121047469Y-85291695D02*
X121123659Y-85253600D01*
X121123659Y-85253600D02*
X121161754Y-85215504D01*
X121161754Y-85215504D02*
X121199850Y-85139314D01*
X121199850Y-85139314D02*
X121199850Y-84910742D01*
X121199850Y-84910742D02*
X121161754Y-84834552D01*
X121161754Y-84834552D02*
X121123659Y-84796457D01*
X121123659Y-84796457D02*
X121047469Y-84758361D01*
X121047469Y-84758361D02*
X120933183Y-84758361D01*
X120933183Y-84758361D02*
X120856992Y-84796457D01*
X120856992Y-84796457D02*
X120818897Y-84834552D01*
X120818897Y-84834552D02*
X120780802Y-84910742D01*
X120780802Y-84910742D02*
X120780802Y-85139314D01*
X120780802Y-85139314D02*
X120818897Y-85215504D01*
X120818897Y-85215504D02*
X120856992Y-85253600D01*
X120856992Y-85253600D02*
X120933183Y-85291695D01*
X120933183Y-85291695D02*
X121047469Y-85291695D01*
X120552230Y-84758361D02*
X120247468Y-84758361D01*
X120437944Y-84491695D02*
X120437944Y-85177409D01*
X120437944Y-85177409D02*
X120399849Y-85253600D01*
X120399849Y-85253600D02*
X120323659Y-85291695D01*
X120323659Y-85291695D02*
X120247468Y-85291695D01*
X120056992Y-84758361D02*
X119866516Y-85291695D01*
X119676039Y-84758361D02*
X119866516Y-85291695D01*
X119866516Y-85291695D02*
X119942706Y-85482171D01*
X119942706Y-85482171D02*
X119980801Y-85520266D01*
X119980801Y-85520266D02*
X120056992Y-85558361D01*
X119371277Y-84758361D02*
X119371277Y-85558361D01*
X119371277Y-84796457D02*
X119295087Y-84758361D01*
X119295087Y-84758361D02*
X119142706Y-84758361D01*
X119142706Y-84758361D02*
X119066515Y-84796457D01*
X119066515Y-84796457D02*
X119028420Y-84834552D01*
X119028420Y-84834552D02*
X118990325Y-84910742D01*
X118990325Y-84910742D02*
X118990325Y-85139314D01*
X118990325Y-85139314D02*
X119028420Y-85215504D01*
X119028420Y-85215504D02*
X119066515Y-85253600D01*
X119066515Y-85253600D02*
X119142706Y-85291695D01*
X119142706Y-85291695D02*
X119295087Y-85291695D01*
X119295087Y-85291695D02*
X119371277Y-85253600D01*
X118342705Y-85253600D02*
X118418896Y-85291695D01*
X118418896Y-85291695D02*
X118571277Y-85291695D01*
X118571277Y-85291695D02*
X118647467Y-85253600D01*
X118647467Y-85253600D02*
X118685563Y-85177409D01*
X118685563Y-85177409D02*
X118685563Y-84872647D01*
X118685563Y-84872647D02*
X118647467Y-84796457D01*
X118647467Y-84796457D02*
X118571277Y-84758361D01*
X118571277Y-84758361D02*
X118418896Y-84758361D01*
X118418896Y-84758361D02*
X118342705Y-84796457D01*
X118342705Y-84796457D02*
X118304610Y-84872647D01*
X118304610Y-84872647D02*
X118304610Y-84948838D01*
X118304610Y-84948838D02*
X118685563Y-85025028D01*
X116933182Y-85291695D02*
X117390325Y-85291695D01*
X117161753Y-85291695D02*
X117161753Y-84491695D01*
X117161753Y-84491695D02*
X117237944Y-84605980D01*
X117237944Y-84605980D02*
X117314134Y-84682171D01*
X117314134Y-84682171D02*
X117390325Y-84720266D01*
X136041695Y-84162054D02*
X135241695Y-84162054D01*
X136041695Y-84504911D02*
X135622647Y-84504911D01*
X135622647Y-84504911D02*
X135546457Y-84466816D01*
X135546457Y-84466816D02*
X135508361Y-84390625D01*
X135508361Y-84390625D02*
X135508361Y-84276339D01*
X135508361Y-84276339D02*
X135546457Y-84200149D01*
X135546457Y-84200149D02*
X135584552Y-84162054D01*
X135508361Y-84771578D02*
X135508361Y-85076340D01*
X135241695Y-84885864D02*
X135927409Y-84885864D01*
X135927409Y-84885864D02*
X136003600Y-84923959D01*
X136003600Y-84923959D02*
X136041695Y-85000149D01*
X136041695Y-85000149D02*
X136041695Y-85076340D01*
X135508361Y-85228721D02*
X135508361Y-85533483D01*
X135241695Y-85343007D02*
X135927409Y-85343007D01*
X135927409Y-85343007D02*
X136003600Y-85381102D01*
X136003600Y-85381102D02*
X136041695Y-85457292D01*
X136041695Y-85457292D02*
X136041695Y-85533483D01*
X135508361Y-85800150D02*
X136308361Y-85800150D01*
X135546457Y-85800150D02*
X135508361Y-85876340D01*
X135508361Y-85876340D02*
X135508361Y-86028721D01*
X135508361Y-86028721D02*
X135546457Y-86104912D01*
X135546457Y-86104912D02*
X135584552Y-86143007D01*
X135584552Y-86143007D02*
X135660742Y-86181102D01*
X135660742Y-86181102D02*
X135889314Y-86181102D01*
X135889314Y-86181102D02*
X135965504Y-86143007D01*
X135965504Y-86143007D02*
X136003600Y-86104912D01*
X136003600Y-86104912D02*
X136041695Y-86028721D01*
X136041695Y-86028721D02*
X136041695Y-85876340D01*
X136041695Y-85876340D02*
X136003600Y-85800150D01*
X136003600Y-86485864D02*
X136041695Y-86562055D01*
X136041695Y-86562055D02*
X136041695Y-86714436D01*
X136041695Y-86714436D02*
X136003600Y-86790626D01*
X136003600Y-86790626D02*
X135927409Y-86828722D01*
X135927409Y-86828722D02*
X135889314Y-86828722D01*
X135889314Y-86828722D02*
X135813123Y-86790626D01*
X135813123Y-86790626D02*
X135775028Y-86714436D01*
X135775028Y-86714436D02*
X135775028Y-86600150D01*
X135775028Y-86600150D02*
X135736933Y-86523960D01*
X135736933Y-86523960D02*
X135660742Y-86485864D01*
X135660742Y-86485864D02*
X135622647Y-86485864D01*
X135622647Y-86485864D02*
X135546457Y-86523960D01*
X135546457Y-86523960D02*
X135508361Y-86600150D01*
X135508361Y-86600150D02*
X135508361Y-86714436D01*
X135508361Y-86714436D02*
X135546457Y-86790626D01*
X135965504Y-87171579D02*
X136003600Y-87209674D01*
X136003600Y-87209674D02*
X136041695Y-87171579D01*
X136041695Y-87171579D02*
X136003600Y-87133483D01*
X136003600Y-87133483D02*
X135965504Y-87171579D01*
X135965504Y-87171579D02*
X136041695Y-87171579D01*
X135546457Y-87171579D02*
X135584552Y-87209674D01*
X135584552Y-87209674D02*
X135622647Y-87171579D01*
X135622647Y-87171579D02*
X135584552Y-87133483D01*
X135584552Y-87133483D02*
X135546457Y-87171579D01*
X135546457Y-87171579D02*
X135622647Y-87171579D01*
X135203600Y-88123959D02*
X136232171Y-87438245D01*
X135203600Y-88962054D02*
X136232171Y-88276340D01*
X135508361Y-89571578D02*
X136155980Y-89571578D01*
X136155980Y-89571578D02*
X136232171Y-89533483D01*
X136232171Y-89533483D02*
X136270266Y-89495387D01*
X136270266Y-89495387D02*
X136308361Y-89419197D01*
X136308361Y-89419197D02*
X136308361Y-89304911D01*
X136308361Y-89304911D02*
X136270266Y-89228721D01*
X136003600Y-89571578D02*
X136041695Y-89495387D01*
X136041695Y-89495387D02*
X136041695Y-89343006D01*
X136041695Y-89343006D02*
X136003600Y-89266816D01*
X136003600Y-89266816D02*
X135965504Y-89228721D01*
X135965504Y-89228721D02*
X135889314Y-89190625D01*
X135889314Y-89190625D02*
X135660742Y-89190625D01*
X135660742Y-89190625D02*
X135584552Y-89228721D01*
X135584552Y-89228721D02*
X135546457Y-89266816D01*
X135546457Y-89266816D02*
X135508361Y-89343006D01*
X135508361Y-89343006D02*
X135508361Y-89495387D01*
X135508361Y-89495387D02*
X135546457Y-89571578D01*
X136041695Y-89952531D02*
X135508361Y-89952531D01*
X135241695Y-89952531D02*
X135279790Y-89914435D01*
X135279790Y-89914435D02*
X135317885Y-89952531D01*
X135317885Y-89952531D02*
X135279790Y-89990626D01*
X135279790Y-89990626D02*
X135241695Y-89952531D01*
X135241695Y-89952531D02*
X135317885Y-89952531D01*
X135508361Y-90219197D02*
X135508361Y-90523959D01*
X135241695Y-90333483D02*
X135927409Y-90333483D01*
X135927409Y-90333483D02*
X136003600Y-90371578D01*
X136003600Y-90371578D02*
X136041695Y-90447768D01*
X136041695Y-90447768D02*
X136041695Y-90523959D01*
X136041695Y-90790626D02*
X135241695Y-90790626D01*
X136041695Y-91133483D02*
X135622647Y-91133483D01*
X135622647Y-91133483D02*
X135546457Y-91095388D01*
X135546457Y-91095388D02*
X135508361Y-91019197D01*
X135508361Y-91019197D02*
X135508361Y-90904911D01*
X135508361Y-90904911D02*
X135546457Y-90828721D01*
X135546457Y-90828721D02*
X135584552Y-90790626D01*
X135508361Y-91857293D02*
X136041695Y-91857293D01*
X135508361Y-91514436D02*
X135927409Y-91514436D01*
X135927409Y-91514436D02*
X136003600Y-91552531D01*
X136003600Y-91552531D02*
X136041695Y-91628721D01*
X136041695Y-91628721D02*
X136041695Y-91743007D01*
X136041695Y-91743007D02*
X136003600Y-91819198D01*
X136003600Y-91819198D02*
X135965504Y-91857293D01*
X136041695Y-92238246D02*
X135241695Y-92238246D01*
X135546457Y-92238246D02*
X135508361Y-92314436D01*
X135508361Y-92314436D02*
X135508361Y-92466817D01*
X135508361Y-92466817D02*
X135546457Y-92543008D01*
X135546457Y-92543008D02*
X135584552Y-92581103D01*
X135584552Y-92581103D02*
X135660742Y-92619198D01*
X135660742Y-92619198D02*
X135889314Y-92619198D01*
X135889314Y-92619198D02*
X135965504Y-92581103D01*
X135965504Y-92581103D02*
X136003600Y-92543008D01*
X136003600Y-92543008D02*
X136041695Y-92466817D01*
X136041695Y-92466817D02*
X136041695Y-92314436D01*
X136041695Y-92314436D02*
X136003600Y-92238246D01*
X135965504Y-92962056D02*
X136003600Y-93000151D01*
X136003600Y-93000151D02*
X136041695Y-92962056D01*
X136041695Y-92962056D02*
X136003600Y-92923960D01*
X136003600Y-92923960D02*
X135965504Y-92962056D01*
X135965504Y-92962056D02*
X136041695Y-92962056D01*
X136003600Y-93685865D02*
X136041695Y-93609674D01*
X136041695Y-93609674D02*
X136041695Y-93457293D01*
X136041695Y-93457293D02*
X136003600Y-93381103D01*
X136003600Y-93381103D02*
X135965504Y-93343008D01*
X135965504Y-93343008D02*
X135889314Y-93304912D01*
X135889314Y-93304912D02*
X135660742Y-93304912D01*
X135660742Y-93304912D02*
X135584552Y-93343008D01*
X135584552Y-93343008D02*
X135546457Y-93381103D01*
X135546457Y-93381103D02*
X135508361Y-93457293D01*
X135508361Y-93457293D02*
X135508361Y-93609674D01*
X135508361Y-93609674D02*
X135546457Y-93685865D01*
X136041695Y-94143007D02*
X136003600Y-94066817D01*
X136003600Y-94066817D02*
X135965504Y-94028722D01*
X135965504Y-94028722D02*
X135889314Y-93990626D01*
X135889314Y-93990626D02*
X135660742Y-93990626D01*
X135660742Y-93990626D02*
X135584552Y-94028722D01*
X135584552Y-94028722D02*
X135546457Y-94066817D01*
X135546457Y-94066817D02*
X135508361Y-94143007D01*
X135508361Y-94143007D02*
X135508361Y-94257293D01*
X135508361Y-94257293D02*
X135546457Y-94333484D01*
X135546457Y-94333484D02*
X135584552Y-94371579D01*
X135584552Y-94371579D02*
X135660742Y-94409674D01*
X135660742Y-94409674D02*
X135889314Y-94409674D01*
X135889314Y-94409674D02*
X135965504Y-94371579D01*
X135965504Y-94371579D02*
X136003600Y-94333484D01*
X136003600Y-94333484D02*
X136041695Y-94257293D01*
X136041695Y-94257293D02*
X136041695Y-94143007D01*
X136041695Y-94752532D02*
X135508361Y-94752532D01*
X135584552Y-94752532D02*
X135546457Y-94790627D01*
X135546457Y-94790627D02*
X135508361Y-94866817D01*
X135508361Y-94866817D02*
X135508361Y-94981103D01*
X135508361Y-94981103D02*
X135546457Y-95057294D01*
X135546457Y-95057294D02*
X135622647Y-95095389D01*
X135622647Y-95095389D02*
X136041695Y-95095389D01*
X135622647Y-95095389D02*
X135546457Y-95133484D01*
X135546457Y-95133484D02*
X135508361Y-95209675D01*
X135508361Y-95209675D02*
X135508361Y-95323960D01*
X135508361Y-95323960D02*
X135546457Y-95400151D01*
X135546457Y-95400151D02*
X135622647Y-95438246D01*
X135622647Y-95438246D02*
X136041695Y-95438246D01*
X135203600Y-96390627D02*
X136232171Y-95704913D01*
X135508361Y-96657294D02*
X136194076Y-96657294D01*
X136194076Y-96657294D02*
X136270266Y-96619198D01*
X136270266Y-96619198D02*
X136308361Y-96543008D01*
X136308361Y-96543008D02*
X136308361Y-96504913D01*
X135241695Y-96657294D02*
X135279790Y-96619198D01*
X135279790Y-96619198D02*
X135317885Y-96657294D01*
X135317885Y-96657294D02*
X135279790Y-96695389D01*
X135279790Y-96695389D02*
X135241695Y-96657294D01*
X135241695Y-96657294D02*
X135317885Y-96657294D01*
X136041695Y-97381103D02*
X135622647Y-97381103D01*
X135622647Y-97381103D02*
X135546457Y-97343008D01*
X135546457Y-97343008D02*
X135508361Y-97266817D01*
X135508361Y-97266817D02*
X135508361Y-97114436D01*
X135508361Y-97114436D02*
X135546457Y-97038246D01*
X136003600Y-97381103D02*
X136041695Y-97304912D01*
X136041695Y-97304912D02*
X136041695Y-97114436D01*
X136041695Y-97114436D02*
X136003600Y-97038246D01*
X136003600Y-97038246D02*
X135927409Y-97000150D01*
X135927409Y-97000150D02*
X135851219Y-97000150D01*
X135851219Y-97000150D02*
X135775028Y-97038246D01*
X135775028Y-97038246D02*
X135736933Y-97114436D01*
X135736933Y-97114436D02*
X135736933Y-97304912D01*
X135736933Y-97304912D02*
X135698838Y-97381103D01*
X136003600Y-97723960D02*
X136041695Y-97800151D01*
X136041695Y-97800151D02*
X136041695Y-97952532D01*
X136041695Y-97952532D02*
X136003600Y-98028722D01*
X136003600Y-98028722D02*
X135927409Y-98066818D01*
X135927409Y-98066818D02*
X135889314Y-98066818D01*
X135889314Y-98066818D02*
X135813123Y-98028722D01*
X135813123Y-98028722D02*
X135775028Y-97952532D01*
X135775028Y-97952532D02*
X135775028Y-97838246D01*
X135775028Y-97838246D02*
X135736933Y-97762056D01*
X135736933Y-97762056D02*
X135660742Y-97723960D01*
X135660742Y-97723960D02*
X135622647Y-97723960D01*
X135622647Y-97723960D02*
X135546457Y-97762056D01*
X135546457Y-97762056D02*
X135508361Y-97838246D01*
X135508361Y-97838246D02*
X135508361Y-97952532D01*
X135508361Y-97952532D02*
X135546457Y-98028722D01*
X136041695Y-98523960D02*
X136003600Y-98447770D01*
X136003600Y-98447770D02*
X135965504Y-98409675D01*
X135965504Y-98409675D02*
X135889314Y-98371579D01*
X135889314Y-98371579D02*
X135660742Y-98371579D01*
X135660742Y-98371579D02*
X135584552Y-98409675D01*
X135584552Y-98409675D02*
X135546457Y-98447770D01*
X135546457Y-98447770D02*
X135508361Y-98523960D01*
X135508361Y-98523960D02*
X135508361Y-98638246D01*
X135508361Y-98638246D02*
X135546457Y-98714437D01*
X135546457Y-98714437D02*
X135584552Y-98752532D01*
X135584552Y-98752532D02*
X135660742Y-98790627D01*
X135660742Y-98790627D02*
X135889314Y-98790627D01*
X135889314Y-98790627D02*
X135965504Y-98752532D01*
X135965504Y-98752532D02*
X136003600Y-98714437D01*
X136003600Y-98714437D02*
X136041695Y-98638246D01*
X136041695Y-98638246D02*
X136041695Y-98523960D01*
X135508361Y-99133485D02*
X136041695Y-99133485D01*
X135584552Y-99133485D02*
X135546457Y-99171580D01*
X135546457Y-99171580D02*
X135508361Y-99247770D01*
X135508361Y-99247770D02*
X135508361Y-99362056D01*
X135508361Y-99362056D02*
X135546457Y-99438247D01*
X135546457Y-99438247D02*
X135622647Y-99476342D01*
X135622647Y-99476342D02*
X136041695Y-99476342D01*
X136041695Y-100200152D02*
X135622647Y-100200152D01*
X135622647Y-100200152D02*
X135546457Y-100162057D01*
X135546457Y-100162057D02*
X135508361Y-100085866D01*
X135508361Y-100085866D02*
X135508361Y-99933485D01*
X135508361Y-99933485D02*
X135546457Y-99857295D01*
X136003600Y-100200152D02*
X136041695Y-100123961D01*
X136041695Y-100123961D02*
X136041695Y-99933485D01*
X136041695Y-99933485D02*
X136003600Y-99857295D01*
X136003600Y-99857295D02*
X135927409Y-99819199D01*
X135927409Y-99819199D02*
X135851219Y-99819199D01*
X135851219Y-99819199D02*
X135775028Y-99857295D01*
X135775028Y-99857295D02*
X135736933Y-99933485D01*
X135736933Y-99933485D02*
X135736933Y-100123961D01*
X135736933Y-100123961D02*
X135698838Y-100200152D01*
X136041695Y-100695390D02*
X136003600Y-100619200D01*
X136003600Y-100619200D02*
X135927409Y-100581105D01*
X135927409Y-100581105D02*
X135241695Y-100581105D01*
X136003600Y-101304915D02*
X136041695Y-101228724D01*
X136041695Y-101228724D02*
X136041695Y-101076343D01*
X136041695Y-101076343D02*
X136003600Y-101000153D01*
X136003600Y-101000153D02*
X135927409Y-100962057D01*
X135927409Y-100962057D02*
X135622647Y-100962057D01*
X135622647Y-100962057D02*
X135546457Y-101000153D01*
X135546457Y-101000153D02*
X135508361Y-101076343D01*
X135508361Y-101076343D02*
X135508361Y-101228724D01*
X135508361Y-101228724D02*
X135546457Y-101304915D01*
X135546457Y-101304915D02*
X135622647Y-101343010D01*
X135622647Y-101343010D02*
X135698838Y-101343010D01*
X135698838Y-101343010D02*
X135775028Y-100962057D01*
X136041695Y-101609676D02*
X135508361Y-102028724D01*
X135508361Y-101609676D02*
X136041695Y-102028724D01*
X136041695Y-102676343D02*
X135622647Y-102676343D01*
X135622647Y-102676343D02*
X135546457Y-102638248D01*
X135546457Y-102638248D02*
X135508361Y-102562057D01*
X135508361Y-102562057D02*
X135508361Y-102409676D01*
X135508361Y-102409676D02*
X135546457Y-102333486D01*
X136003600Y-102676343D02*
X136041695Y-102600152D01*
X136041695Y-102600152D02*
X136041695Y-102409676D01*
X136041695Y-102409676D02*
X136003600Y-102333486D01*
X136003600Y-102333486D02*
X135927409Y-102295390D01*
X135927409Y-102295390D02*
X135851219Y-102295390D01*
X135851219Y-102295390D02*
X135775028Y-102333486D01*
X135775028Y-102333486D02*
X135736933Y-102409676D01*
X135736933Y-102409676D02*
X135736933Y-102600152D01*
X135736933Y-102600152D02*
X135698838Y-102676343D01*
X135508361Y-103057296D02*
X136041695Y-103057296D01*
X135584552Y-103057296D02*
X135546457Y-103095391D01*
X135546457Y-103095391D02*
X135508361Y-103171581D01*
X135508361Y-103171581D02*
X135508361Y-103285867D01*
X135508361Y-103285867D02*
X135546457Y-103362058D01*
X135546457Y-103362058D02*
X135622647Y-103400153D01*
X135622647Y-103400153D02*
X136041695Y-103400153D01*
X136041695Y-104123963D02*
X135241695Y-104123963D01*
X136003600Y-104123963D02*
X136041695Y-104047772D01*
X136041695Y-104047772D02*
X136041695Y-103895391D01*
X136041695Y-103895391D02*
X136003600Y-103819201D01*
X136003600Y-103819201D02*
X135965504Y-103781106D01*
X135965504Y-103781106D02*
X135889314Y-103743010D01*
X135889314Y-103743010D02*
X135660742Y-103743010D01*
X135660742Y-103743010D02*
X135584552Y-103781106D01*
X135584552Y-103781106D02*
X135546457Y-103819201D01*
X135546457Y-103819201D02*
X135508361Y-103895391D01*
X135508361Y-103895391D02*
X135508361Y-104047772D01*
X135508361Y-104047772D02*
X135546457Y-104123963D01*
X136003600Y-104809678D02*
X136041695Y-104733487D01*
X136041695Y-104733487D02*
X136041695Y-104581106D01*
X136041695Y-104581106D02*
X136003600Y-104504916D01*
X136003600Y-104504916D02*
X135927409Y-104466820D01*
X135927409Y-104466820D02*
X135622647Y-104466820D01*
X135622647Y-104466820D02*
X135546457Y-104504916D01*
X135546457Y-104504916D02*
X135508361Y-104581106D01*
X135508361Y-104581106D02*
X135508361Y-104733487D01*
X135508361Y-104733487D02*
X135546457Y-104809678D01*
X135546457Y-104809678D02*
X135622647Y-104847773D01*
X135622647Y-104847773D02*
X135698838Y-104847773D01*
X135698838Y-104847773D02*
X135775028Y-104466820D01*
X136041695Y-105190630D02*
X135508361Y-105190630D01*
X135660742Y-105190630D02*
X135584552Y-105228725D01*
X135584552Y-105228725D02*
X135546457Y-105266820D01*
X135546457Y-105266820D02*
X135508361Y-105343011D01*
X135508361Y-105343011D02*
X135508361Y-105419201D01*
X135736933Y-105685868D02*
X135736933Y-106295392D01*
X135508361Y-106676344D02*
X136194076Y-106676344D01*
X136194076Y-106676344D02*
X136270266Y-106638248D01*
X136270266Y-106638248D02*
X136308361Y-106562058D01*
X136308361Y-106562058D02*
X136308361Y-106523963D01*
X135241695Y-106676344D02*
X135279790Y-106638248D01*
X135279790Y-106638248D02*
X135317885Y-106676344D01*
X135317885Y-106676344D02*
X135279790Y-106714439D01*
X135279790Y-106714439D02*
X135241695Y-106676344D01*
X135241695Y-106676344D02*
X135317885Y-106676344D01*
X136041695Y-107400153D02*
X135622647Y-107400153D01*
X135622647Y-107400153D02*
X135546457Y-107362058D01*
X135546457Y-107362058D02*
X135508361Y-107285867D01*
X135508361Y-107285867D02*
X135508361Y-107133486D01*
X135508361Y-107133486D02*
X135546457Y-107057296D01*
X136003600Y-107400153D02*
X136041695Y-107323962D01*
X136041695Y-107323962D02*
X136041695Y-107133486D01*
X136041695Y-107133486D02*
X136003600Y-107057296D01*
X136003600Y-107057296D02*
X135927409Y-107019200D01*
X135927409Y-107019200D02*
X135851219Y-107019200D01*
X135851219Y-107019200D02*
X135775028Y-107057296D01*
X135775028Y-107057296D02*
X135736933Y-107133486D01*
X135736933Y-107133486D02*
X135736933Y-107323962D01*
X135736933Y-107323962D02*
X135698838Y-107400153D01*
X135203600Y-108352534D02*
X136232171Y-107666820D01*
X136041695Y-108962058D02*
X135241695Y-108962058D01*
X136003600Y-108962058D02*
X136041695Y-108885867D01*
X136041695Y-108885867D02*
X136041695Y-108733486D01*
X136041695Y-108733486D02*
X136003600Y-108657296D01*
X136003600Y-108657296D02*
X135965504Y-108619201D01*
X135965504Y-108619201D02*
X135889314Y-108581105D01*
X135889314Y-108581105D02*
X135660742Y-108581105D01*
X135660742Y-108581105D02*
X135584552Y-108619201D01*
X135584552Y-108619201D02*
X135546457Y-108657296D01*
X135546457Y-108657296D02*
X135508361Y-108733486D01*
X135508361Y-108733486D02*
X135508361Y-108885867D01*
X135508361Y-108885867D02*
X135546457Y-108962058D01*
X136003600Y-109647773D02*
X136041695Y-109571582D01*
X136041695Y-109571582D02*
X136041695Y-109419201D01*
X136041695Y-109419201D02*
X136003600Y-109343011D01*
X136003600Y-109343011D02*
X135927409Y-109304915D01*
X135927409Y-109304915D02*
X135622647Y-109304915D01*
X135622647Y-109304915D02*
X135546457Y-109343011D01*
X135546457Y-109343011D02*
X135508361Y-109419201D01*
X135508361Y-109419201D02*
X135508361Y-109571582D01*
X135508361Y-109571582D02*
X135546457Y-109647773D01*
X135546457Y-109647773D02*
X135622647Y-109685868D01*
X135622647Y-109685868D02*
X135698838Y-109685868D01*
X135698838Y-109685868D02*
X135775028Y-109304915D01*
X136003600Y-110371582D02*
X136041695Y-110295391D01*
X136041695Y-110295391D02*
X136041695Y-110143010D01*
X136041695Y-110143010D02*
X136003600Y-110066820D01*
X136003600Y-110066820D02*
X135965504Y-110028725D01*
X135965504Y-110028725D02*
X135889314Y-109990629D01*
X135889314Y-109990629D02*
X135660742Y-109990629D01*
X135660742Y-109990629D02*
X135584552Y-110028725D01*
X135584552Y-110028725D02*
X135546457Y-110066820D01*
X135546457Y-110066820D02*
X135508361Y-110143010D01*
X135508361Y-110143010D02*
X135508361Y-110295391D01*
X135508361Y-110295391D02*
X135546457Y-110371582D01*
X135508361Y-110600153D02*
X135508361Y-110904915D01*
X135241695Y-110714439D02*
X135927409Y-110714439D01*
X135927409Y-110714439D02*
X136003600Y-110752534D01*
X136003600Y-110752534D02*
X136041695Y-110828724D01*
X136041695Y-110828724D02*
X136041695Y-110904915D01*
X136003600Y-111133486D02*
X136041695Y-111209677D01*
X136041695Y-111209677D02*
X136041695Y-111362058D01*
X136041695Y-111362058D02*
X136003600Y-111438248D01*
X136003600Y-111438248D02*
X135927409Y-111476344D01*
X135927409Y-111476344D02*
X135889314Y-111476344D01*
X135889314Y-111476344D02*
X135813123Y-111438248D01*
X135813123Y-111438248D02*
X135775028Y-111362058D01*
X135775028Y-111362058D02*
X135775028Y-111247772D01*
X135775028Y-111247772D02*
X135736933Y-111171582D01*
X135736933Y-111171582D02*
X135660742Y-111133486D01*
X135660742Y-111133486D02*
X135622647Y-111133486D01*
X135622647Y-111133486D02*
X135546457Y-111171582D01*
X135546457Y-111171582D02*
X135508361Y-111247772D01*
X135508361Y-111247772D02*
X135508361Y-111362058D01*
X135508361Y-111362058D02*
X135546457Y-111438248D01*
X135508361Y-111819201D02*
X136308361Y-111819201D01*
X135546457Y-111819201D02*
X135508361Y-111895391D01*
X135508361Y-111895391D02*
X135508361Y-112047772D01*
X135508361Y-112047772D02*
X135546457Y-112123963D01*
X135546457Y-112123963D02*
X135584552Y-112162058D01*
X135584552Y-112162058D02*
X135660742Y-112200153D01*
X135660742Y-112200153D02*
X135889314Y-112200153D01*
X135889314Y-112200153D02*
X135965504Y-112162058D01*
X135965504Y-112162058D02*
X136003600Y-112123963D01*
X136003600Y-112123963D02*
X136041695Y-112047772D01*
X136041695Y-112047772D02*
X136041695Y-111895391D01*
X136041695Y-111895391D02*
X136003600Y-111819201D01*
X136041695Y-112885868D02*
X135622647Y-112885868D01*
X135622647Y-112885868D02*
X135546457Y-112847773D01*
X135546457Y-112847773D02*
X135508361Y-112771582D01*
X135508361Y-112771582D02*
X135508361Y-112619201D01*
X135508361Y-112619201D02*
X135546457Y-112543011D01*
X136003600Y-112885868D02*
X136041695Y-112809677D01*
X136041695Y-112809677D02*
X136041695Y-112619201D01*
X136041695Y-112619201D02*
X136003600Y-112543011D01*
X136003600Y-112543011D02*
X135927409Y-112504915D01*
X135927409Y-112504915D02*
X135851219Y-112504915D01*
X135851219Y-112504915D02*
X135775028Y-112543011D01*
X135775028Y-112543011D02*
X135736933Y-112619201D01*
X135736933Y-112619201D02*
X135736933Y-112809677D01*
X135736933Y-112809677D02*
X135698838Y-112885868D01*
X135508361Y-113266821D02*
X136041695Y-113266821D01*
X135584552Y-113266821D02*
X135546457Y-113304916D01*
X135546457Y-113304916D02*
X135508361Y-113381106D01*
X135508361Y-113381106D02*
X135508361Y-113495392D01*
X135508361Y-113495392D02*
X135546457Y-113571583D01*
X135546457Y-113571583D02*
X135622647Y-113609678D01*
X135622647Y-113609678D02*
X136041695Y-113609678D01*
X136003600Y-113952535D02*
X136041695Y-114028726D01*
X136041695Y-114028726D02*
X136041695Y-114181107D01*
X136041695Y-114181107D02*
X136003600Y-114257297D01*
X136003600Y-114257297D02*
X135927409Y-114295393D01*
X135927409Y-114295393D02*
X135889314Y-114295393D01*
X135889314Y-114295393D02*
X135813123Y-114257297D01*
X135813123Y-114257297D02*
X135775028Y-114181107D01*
X135775028Y-114181107D02*
X135775028Y-114066821D01*
X135775028Y-114066821D02*
X135736933Y-113990631D01*
X135736933Y-113990631D02*
X135660742Y-113952535D01*
X135660742Y-113952535D02*
X135622647Y-113952535D01*
X135622647Y-113952535D02*
X135546457Y-113990631D01*
X135546457Y-113990631D02*
X135508361Y-114066821D01*
X135508361Y-114066821D02*
X135508361Y-114181107D01*
X135508361Y-114181107D02*
X135546457Y-114257297D01*
X136041695Y-114638250D02*
X135508361Y-114638250D01*
X135241695Y-114638250D02*
X135279790Y-114600154D01*
X135279790Y-114600154D02*
X135317885Y-114638250D01*
X135317885Y-114638250D02*
X135279790Y-114676345D01*
X135279790Y-114676345D02*
X135241695Y-114638250D01*
X135241695Y-114638250D02*
X135317885Y-114638250D01*
X136041695Y-115133487D02*
X136003600Y-115057297D01*
X136003600Y-115057297D02*
X135965504Y-115019202D01*
X135965504Y-115019202D02*
X135889314Y-114981106D01*
X135889314Y-114981106D02*
X135660742Y-114981106D01*
X135660742Y-114981106D02*
X135584552Y-115019202D01*
X135584552Y-115019202D02*
X135546457Y-115057297D01*
X135546457Y-115057297D02*
X135508361Y-115133487D01*
X135508361Y-115133487D02*
X135508361Y-115247773D01*
X135508361Y-115247773D02*
X135546457Y-115323964D01*
X135546457Y-115323964D02*
X135584552Y-115362059D01*
X135584552Y-115362059D02*
X135660742Y-115400154D01*
X135660742Y-115400154D02*
X135889314Y-115400154D01*
X135889314Y-115400154D02*
X135965504Y-115362059D01*
X135965504Y-115362059D02*
X136003600Y-115323964D01*
X136003600Y-115323964D02*
X136041695Y-115247773D01*
X136041695Y-115247773D02*
X136041695Y-115133487D01*
X135508361Y-115743012D02*
X136041695Y-115743012D01*
X135584552Y-115743012D02*
X135546457Y-115781107D01*
X135546457Y-115781107D02*
X135508361Y-115857297D01*
X135508361Y-115857297D02*
X135508361Y-115971583D01*
X135508361Y-115971583D02*
X135546457Y-116047774D01*
X135546457Y-116047774D02*
X135622647Y-116085869D01*
X135622647Y-116085869D02*
X136041695Y-116085869D01*
D12*
X123267201Y-96450401D02*
X123291011Y-96426592D01*
X123291011Y-96426592D02*
X123314820Y-96355163D01*
X123314820Y-96355163D02*
X123314820Y-96307544D01*
X123314820Y-96307544D02*
X123291011Y-96236116D01*
X123291011Y-96236116D02*
X123243391Y-96188497D01*
X123243391Y-96188497D02*
X123195772Y-96164687D01*
X123195772Y-96164687D02*
X123100534Y-96140878D01*
X123100534Y-96140878D02*
X123029106Y-96140878D01*
X123029106Y-96140878D02*
X122933868Y-96164687D01*
X122933868Y-96164687D02*
X122886249Y-96188497D01*
X122886249Y-96188497D02*
X122838630Y-96236116D01*
X122838630Y-96236116D02*
X122814820Y-96307544D01*
X122814820Y-96307544D02*
X122814820Y-96355163D01*
X122814820Y-96355163D02*
X122838630Y-96426592D01*
X122838630Y-96426592D02*
X122862439Y-96450401D01*
X123052915Y-96664687D02*
X123052915Y-96831354D01*
X123314820Y-96902782D02*
X123314820Y-96664687D01*
X123314820Y-96664687D02*
X122814820Y-96664687D01*
X122814820Y-96664687D02*
X122814820Y-96902782D01*
X123314820Y-97402782D02*
X123076725Y-97236116D01*
X123314820Y-97117068D02*
X122814820Y-97117068D01*
X122814820Y-97117068D02*
X122814820Y-97307544D01*
X122814820Y-97307544D02*
X122838630Y-97355163D01*
X122838630Y-97355163D02*
X122862439Y-97378973D01*
X122862439Y-97378973D02*
X122910058Y-97402782D01*
X122910058Y-97402782D02*
X122981487Y-97402782D01*
X122981487Y-97402782D02*
X123029106Y-97378973D01*
X123029106Y-97378973D02*
X123052915Y-97355163D01*
X123052915Y-97355163D02*
X123076725Y-97307544D01*
X123076725Y-97307544D02*
X123076725Y-97117068D01*
X123314820Y-97617068D02*
X122814820Y-97617068D01*
X122814820Y-97617068D02*
X123314820Y-97902782D01*
X123314820Y-97902782D02*
X122814820Y-97902782D01*
X122814820Y-98617068D02*
X122814820Y-98712306D01*
X122814820Y-98712306D02*
X122838630Y-98759925D01*
X122838630Y-98759925D02*
X122886249Y-98807544D01*
X122886249Y-98807544D02*
X122981487Y-98831354D01*
X122981487Y-98831354D02*
X123148153Y-98831354D01*
X123148153Y-98831354D02*
X123243391Y-98807544D01*
X123243391Y-98807544D02*
X123291011Y-98759925D01*
X123291011Y-98759925D02*
X123314820Y-98712306D01*
X123314820Y-98712306D02*
X123314820Y-98617068D01*
X123314820Y-98617068D02*
X123291011Y-98569449D01*
X123291011Y-98569449D02*
X123243391Y-98521830D01*
X123243391Y-98521830D02*
X123148153Y-98498021D01*
X123148153Y-98498021D02*
X122981487Y-98498021D01*
X122981487Y-98498021D02*
X122886249Y-98521830D01*
X122886249Y-98521830D02*
X122838630Y-98569449D01*
X122838630Y-98569449D02*
X122814820Y-98617068D01*
X122981487Y-99045640D02*
X123481487Y-99045640D01*
X123005296Y-99045640D02*
X122981487Y-99093259D01*
X122981487Y-99093259D02*
X122981487Y-99188497D01*
X122981487Y-99188497D02*
X123005296Y-99236116D01*
X123005296Y-99236116D02*
X123029106Y-99259926D01*
X123029106Y-99259926D02*
X123076725Y-99283735D01*
X123076725Y-99283735D02*
X123219582Y-99283735D01*
X123219582Y-99283735D02*
X123267201Y-99259926D01*
X123267201Y-99259926D02*
X123291011Y-99236116D01*
X123291011Y-99236116D02*
X123314820Y-99188497D01*
X123314820Y-99188497D02*
X123314820Y-99093259D01*
X123314820Y-99093259D02*
X123291011Y-99045640D01*
X123291011Y-99688497D02*
X123314820Y-99640878D01*
X123314820Y-99640878D02*
X123314820Y-99545640D01*
X123314820Y-99545640D02*
X123291011Y-99498021D01*
X123291011Y-99498021D02*
X123243391Y-99474212D01*
X123243391Y-99474212D02*
X123052915Y-99474212D01*
X123052915Y-99474212D02*
X123005296Y-99498021D01*
X123005296Y-99498021D02*
X122981487Y-99545640D01*
X122981487Y-99545640D02*
X122981487Y-99640878D01*
X122981487Y-99640878D02*
X123005296Y-99688497D01*
X123005296Y-99688497D02*
X123052915Y-99712307D01*
X123052915Y-99712307D02*
X123100534Y-99712307D01*
X123100534Y-99712307D02*
X123148153Y-99474212D01*
X122981487Y-99926592D02*
X123314820Y-99926592D01*
X123029106Y-99926592D02*
X123005296Y-99950402D01*
X123005296Y-99950402D02*
X122981487Y-99998021D01*
X122981487Y-99998021D02*
X122981487Y-100069449D01*
X122981487Y-100069449D02*
X123005296Y-100117068D01*
X123005296Y-100117068D02*
X123052915Y-100140878D01*
X123052915Y-100140878D02*
X123314820Y-100140878D01*
X123314820Y-100759925D02*
X122814820Y-100759925D01*
X123052915Y-100759925D02*
X123052915Y-101045639D01*
X123314820Y-101045639D02*
X122814820Y-101045639D01*
X123314820Y-101498021D02*
X123052915Y-101498021D01*
X123052915Y-101498021D02*
X123005296Y-101474211D01*
X123005296Y-101474211D02*
X122981487Y-101426592D01*
X122981487Y-101426592D02*
X122981487Y-101331354D01*
X122981487Y-101331354D02*
X123005296Y-101283735D01*
X123291011Y-101498021D02*
X123314820Y-101450402D01*
X123314820Y-101450402D02*
X123314820Y-101331354D01*
X123314820Y-101331354D02*
X123291011Y-101283735D01*
X123291011Y-101283735D02*
X123243391Y-101259926D01*
X123243391Y-101259926D02*
X123195772Y-101259926D01*
X123195772Y-101259926D02*
X123148153Y-101283735D01*
X123148153Y-101283735D02*
X123124344Y-101331354D01*
X123124344Y-101331354D02*
X123124344Y-101450402D01*
X123124344Y-101450402D02*
X123100534Y-101498021D01*
X123314820Y-101736116D02*
X122981487Y-101736116D01*
X123076725Y-101736116D02*
X123029106Y-101759926D01*
X123029106Y-101759926D02*
X123005296Y-101783735D01*
X123005296Y-101783735D02*
X122981487Y-101831354D01*
X122981487Y-101831354D02*
X122981487Y-101878973D01*
X123314820Y-102259926D02*
X122814820Y-102259926D01*
X123291011Y-102259926D02*
X123314820Y-102212307D01*
X123314820Y-102212307D02*
X123314820Y-102117069D01*
X123314820Y-102117069D02*
X123291011Y-102069450D01*
X123291011Y-102069450D02*
X123267201Y-102045640D01*
X123267201Y-102045640D02*
X123219582Y-102021831D01*
X123219582Y-102021831D02*
X123076725Y-102021831D01*
X123076725Y-102021831D02*
X123029106Y-102045640D01*
X123029106Y-102045640D02*
X123005296Y-102069450D01*
X123005296Y-102069450D02*
X122981487Y-102117069D01*
X122981487Y-102117069D02*
X122981487Y-102212307D01*
X122981487Y-102212307D02*
X123005296Y-102259926D01*
X122981487Y-102450402D02*
X123314820Y-102545640D01*
X123314820Y-102545640D02*
X123076725Y-102640878D01*
X123076725Y-102640878D02*
X123314820Y-102736116D01*
X123314820Y-102736116D02*
X122981487Y-102831354D01*
X123314820Y-103236117D02*
X123052915Y-103236117D01*
X123052915Y-103236117D02*
X123005296Y-103212307D01*
X123005296Y-103212307D02*
X122981487Y-103164688D01*
X122981487Y-103164688D02*
X122981487Y-103069450D01*
X122981487Y-103069450D02*
X123005296Y-103021831D01*
X123291011Y-103236117D02*
X123314820Y-103188498D01*
X123314820Y-103188498D02*
X123314820Y-103069450D01*
X123314820Y-103069450D02*
X123291011Y-103021831D01*
X123291011Y-103021831D02*
X123243391Y-102998022D01*
X123243391Y-102998022D02*
X123195772Y-102998022D01*
X123195772Y-102998022D02*
X123148153Y-103021831D01*
X123148153Y-103021831D02*
X123124344Y-103069450D01*
X123124344Y-103069450D02*
X123124344Y-103188498D01*
X123124344Y-103188498D02*
X123100534Y-103236117D01*
X123314820Y-103474212D02*
X122981487Y-103474212D01*
X123076725Y-103474212D02*
X123029106Y-103498022D01*
X123029106Y-103498022D02*
X123005296Y-103521831D01*
X123005296Y-103521831D02*
X122981487Y-103569450D01*
X122981487Y-103569450D02*
X122981487Y-103617069D01*
X123291011Y-103974212D02*
X123314820Y-103926593D01*
X123314820Y-103926593D02*
X123314820Y-103831355D01*
X123314820Y-103831355D02*
X123291011Y-103783736D01*
X123291011Y-103783736D02*
X123243391Y-103759927D01*
X123243391Y-103759927D02*
X123052915Y-103759927D01*
X123052915Y-103759927D02*
X123005296Y-103783736D01*
X123005296Y-103783736D02*
X122981487Y-103831355D01*
X122981487Y-103831355D02*
X122981487Y-103926593D01*
X122981487Y-103926593D02*
X123005296Y-103974212D01*
X123005296Y-103974212D02*
X123052915Y-103998022D01*
X123052915Y-103998022D02*
X123100534Y-103998022D01*
X123100534Y-103998022D02*
X123148153Y-103759927D01*
X123314820Y-104831354D02*
X123314820Y-104593259D01*
X123314820Y-104593259D02*
X122814820Y-104593259D01*
X123314820Y-104998021D02*
X122981487Y-104998021D01*
X122814820Y-104998021D02*
X122838630Y-104974212D01*
X122838630Y-104974212D02*
X122862439Y-104998021D01*
X122862439Y-104998021D02*
X122838630Y-105021831D01*
X122838630Y-105021831D02*
X122814820Y-104998021D01*
X122814820Y-104998021D02*
X122862439Y-104998021D01*
X123291011Y-105450402D02*
X123314820Y-105402783D01*
X123314820Y-105402783D02*
X123314820Y-105307545D01*
X123314820Y-105307545D02*
X123291011Y-105259926D01*
X123291011Y-105259926D02*
X123267201Y-105236116D01*
X123267201Y-105236116D02*
X123219582Y-105212307D01*
X123219582Y-105212307D02*
X123076725Y-105212307D01*
X123076725Y-105212307D02*
X123029106Y-105236116D01*
X123029106Y-105236116D02*
X123005296Y-105259926D01*
X123005296Y-105259926D02*
X122981487Y-105307545D01*
X122981487Y-105307545D02*
X122981487Y-105402783D01*
X122981487Y-105402783D02*
X123005296Y-105450402D01*
X123291011Y-105855163D02*
X123314820Y-105807544D01*
X123314820Y-105807544D02*
X123314820Y-105712306D01*
X123314820Y-105712306D02*
X123291011Y-105664687D01*
X123291011Y-105664687D02*
X123243391Y-105640878D01*
X123243391Y-105640878D02*
X123052915Y-105640878D01*
X123052915Y-105640878D02*
X123005296Y-105664687D01*
X123005296Y-105664687D02*
X122981487Y-105712306D01*
X122981487Y-105712306D02*
X122981487Y-105807544D01*
X122981487Y-105807544D02*
X123005296Y-105855163D01*
X123005296Y-105855163D02*
X123052915Y-105878973D01*
X123052915Y-105878973D02*
X123100534Y-105878973D01*
X123100534Y-105878973D02*
X123148153Y-105640878D01*
X122981487Y-106093258D02*
X123314820Y-106093258D01*
X123029106Y-106093258D02*
X123005296Y-106117068D01*
X123005296Y-106117068D02*
X122981487Y-106164687D01*
X122981487Y-106164687D02*
X122981487Y-106236115D01*
X122981487Y-106236115D02*
X123005296Y-106283734D01*
X123005296Y-106283734D02*
X123052915Y-106307544D01*
X123052915Y-106307544D02*
X123314820Y-106307544D01*
X123291011Y-106759925D02*
X123314820Y-106712306D01*
X123314820Y-106712306D02*
X123314820Y-106617068D01*
X123314820Y-106617068D02*
X123291011Y-106569449D01*
X123291011Y-106569449D02*
X123267201Y-106545639D01*
X123267201Y-106545639D02*
X123219582Y-106521830D01*
X123219582Y-106521830D02*
X123076725Y-106521830D01*
X123076725Y-106521830D02*
X123029106Y-106545639D01*
X123029106Y-106545639D02*
X123005296Y-106569449D01*
X123005296Y-106569449D02*
X122981487Y-106617068D01*
X122981487Y-106617068D02*
X122981487Y-106712306D01*
X122981487Y-106712306D02*
X123005296Y-106759925D01*
X123291011Y-107164686D02*
X123314820Y-107117067D01*
X123314820Y-107117067D02*
X123314820Y-107021829D01*
X123314820Y-107021829D02*
X123291011Y-106974210D01*
X123291011Y-106974210D02*
X123243391Y-106950401D01*
X123243391Y-106950401D02*
X123052915Y-106950401D01*
X123052915Y-106950401D02*
X123005296Y-106974210D01*
X123005296Y-106974210D02*
X122981487Y-107021829D01*
X122981487Y-107021829D02*
X122981487Y-107117067D01*
X122981487Y-107117067D02*
X123005296Y-107164686D01*
X123005296Y-107164686D02*
X123052915Y-107188496D01*
X123052915Y-107188496D02*
X123100534Y-107188496D01*
X123100534Y-107188496D02*
X123148153Y-106950401D01*
X122814820Y-107712305D02*
X123314820Y-107878971D01*
X123314820Y-107878971D02*
X122814820Y-108045638D01*
X123291011Y-108402780D02*
X123314820Y-108355161D01*
X123314820Y-108355161D02*
X123314820Y-108259923D01*
X123314820Y-108259923D02*
X123291011Y-108212304D01*
X123291011Y-108212304D02*
X123243391Y-108188495D01*
X123243391Y-108188495D02*
X123052915Y-108188495D01*
X123052915Y-108188495D02*
X123005296Y-108212304D01*
X123005296Y-108212304D02*
X122981487Y-108259923D01*
X122981487Y-108259923D02*
X122981487Y-108355161D01*
X122981487Y-108355161D02*
X123005296Y-108402780D01*
X123005296Y-108402780D02*
X123052915Y-108426590D01*
X123052915Y-108426590D02*
X123100534Y-108426590D01*
X123100534Y-108426590D02*
X123148153Y-108188495D01*
X123314820Y-108640875D02*
X122981487Y-108640875D01*
X123076725Y-108640875D02*
X123029106Y-108664685D01*
X123029106Y-108664685D02*
X123005296Y-108688494D01*
X123005296Y-108688494D02*
X122981487Y-108736113D01*
X122981487Y-108736113D02*
X122981487Y-108783732D01*
X123291011Y-108926590D02*
X123314820Y-108974209D01*
X123314820Y-108974209D02*
X123314820Y-109069447D01*
X123314820Y-109069447D02*
X123291011Y-109117066D01*
X123291011Y-109117066D02*
X123243391Y-109140875D01*
X123243391Y-109140875D02*
X123219582Y-109140875D01*
X123219582Y-109140875D02*
X123171963Y-109117066D01*
X123171963Y-109117066D02*
X123148153Y-109069447D01*
X123148153Y-109069447D02*
X123148153Y-108998018D01*
X123148153Y-108998018D02*
X123124344Y-108950399D01*
X123124344Y-108950399D02*
X123076725Y-108926590D01*
X123076725Y-108926590D02*
X123052915Y-108926590D01*
X123052915Y-108926590D02*
X123005296Y-108950399D01*
X123005296Y-108950399D02*
X122981487Y-108998018D01*
X122981487Y-108998018D02*
X122981487Y-109069447D01*
X122981487Y-109069447D02*
X123005296Y-109117066D01*
X123314820Y-109355161D02*
X122981487Y-109355161D01*
X122814820Y-109355161D02*
X122838630Y-109331352D01*
X122838630Y-109331352D02*
X122862439Y-109355161D01*
X122862439Y-109355161D02*
X122838630Y-109378971D01*
X122838630Y-109378971D02*
X122814820Y-109355161D01*
X122814820Y-109355161D02*
X122862439Y-109355161D01*
X123314820Y-109664685D02*
X123291011Y-109617066D01*
X123291011Y-109617066D02*
X123267201Y-109593256D01*
X123267201Y-109593256D02*
X123219582Y-109569447D01*
X123219582Y-109569447D02*
X123076725Y-109569447D01*
X123076725Y-109569447D02*
X123029106Y-109593256D01*
X123029106Y-109593256D02*
X123005296Y-109617066D01*
X123005296Y-109617066D02*
X122981487Y-109664685D01*
X122981487Y-109664685D02*
X122981487Y-109736113D01*
X122981487Y-109736113D02*
X123005296Y-109783732D01*
X123005296Y-109783732D02*
X123029106Y-109807542D01*
X123029106Y-109807542D02*
X123076725Y-109831351D01*
X123076725Y-109831351D02*
X123219582Y-109831351D01*
X123219582Y-109831351D02*
X123267201Y-109807542D01*
X123267201Y-109807542D02*
X123291011Y-109783732D01*
X123291011Y-109783732D02*
X123314820Y-109736113D01*
X123314820Y-109736113D02*
X123314820Y-109664685D01*
X122981487Y-110045637D02*
X123314820Y-110045637D01*
X123029106Y-110045637D02*
X123005296Y-110069447D01*
X123005296Y-110069447D02*
X122981487Y-110117066D01*
X122981487Y-110117066D02*
X122981487Y-110188494D01*
X122981487Y-110188494D02*
X123005296Y-110236113D01*
X123005296Y-110236113D02*
X123052915Y-110259923D01*
X123052915Y-110259923D02*
X123314820Y-110259923D01*
X122862439Y-110855161D02*
X122838630Y-110878970D01*
X122838630Y-110878970D02*
X122814820Y-110926589D01*
X122814820Y-110926589D02*
X122814820Y-111045637D01*
X122814820Y-111045637D02*
X122838630Y-111093256D01*
X122838630Y-111093256D02*
X122862439Y-111117065D01*
X122862439Y-111117065D02*
X122910058Y-111140875D01*
X122910058Y-111140875D02*
X122957677Y-111140875D01*
X122957677Y-111140875D02*
X123029106Y-111117065D01*
X123029106Y-111117065D02*
X123314820Y-110831351D01*
X123314820Y-110831351D02*
X123314820Y-111140875D01*
X123124344Y-111736112D02*
X123124344Y-112117065D01*
X124095983Y-96140878D02*
X124119792Y-96212306D01*
X124119792Y-96212306D02*
X124119792Y-96331354D01*
X124119792Y-96331354D02*
X124095983Y-96378973D01*
X124095983Y-96378973D02*
X124072173Y-96402782D01*
X124072173Y-96402782D02*
X124024554Y-96426592D01*
X124024554Y-96426592D02*
X123976935Y-96426592D01*
X123976935Y-96426592D02*
X123929316Y-96402782D01*
X123929316Y-96402782D02*
X123905506Y-96378973D01*
X123905506Y-96378973D02*
X123881697Y-96331354D01*
X123881697Y-96331354D02*
X123857887Y-96236116D01*
X123857887Y-96236116D02*
X123834078Y-96188497D01*
X123834078Y-96188497D02*
X123810268Y-96164687D01*
X123810268Y-96164687D02*
X123762649Y-96140878D01*
X123762649Y-96140878D02*
X123715030Y-96140878D01*
X123715030Y-96140878D02*
X123667411Y-96164687D01*
X123667411Y-96164687D02*
X123643602Y-96188497D01*
X123643602Y-96188497D02*
X123619792Y-96236116D01*
X123619792Y-96236116D02*
X123619792Y-96355163D01*
X123619792Y-96355163D02*
X123643602Y-96426592D01*
X123786459Y-96569449D02*
X123786459Y-96759925D01*
X123619792Y-96640877D02*
X124048363Y-96640877D01*
X124048363Y-96640877D02*
X124095983Y-96664687D01*
X124095983Y-96664687D02*
X124119792Y-96712306D01*
X124119792Y-96712306D02*
X124119792Y-96759925D01*
X124119792Y-96926591D02*
X123786459Y-96926591D01*
X123881697Y-96926591D02*
X123834078Y-96950401D01*
X123834078Y-96950401D02*
X123810268Y-96974210D01*
X123810268Y-96974210D02*
X123786459Y-97021829D01*
X123786459Y-97021829D02*
X123786459Y-97069448D01*
X124119792Y-97307544D02*
X124095983Y-97259925D01*
X124095983Y-97259925D02*
X124072173Y-97236115D01*
X124072173Y-97236115D02*
X124024554Y-97212306D01*
X124024554Y-97212306D02*
X123881697Y-97212306D01*
X123881697Y-97212306D02*
X123834078Y-97236115D01*
X123834078Y-97236115D02*
X123810268Y-97259925D01*
X123810268Y-97259925D02*
X123786459Y-97307544D01*
X123786459Y-97307544D02*
X123786459Y-97378972D01*
X123786459Y-97378972D02*
X123810268Y-97426591D01*
X123810268Y-97426591D02*
X123834078Y-97450401D01*
X123834078Y-97450401D02*
X123881697Y-97474210D01*
X123881697Y-97474210D02*
X124024554Y-97474210D01*
X124024554Y-97474210D02*
X124072173Y-97450401D01*
X124072173Y-97450401D02*
X124095983Y-97426591D01*
X124095983Y-97426591D02*
X124119792Y-97378972D01*
X124119792Y-97378972D02*
X124119792Y-97307544D01*
X123786459Y-97688496D02*
X124119792Y-97688496D01*
X123834078Y-97688496D02*
X123810268Y-97712306D01*
X123810268Y-97712306D02*
X123786459Y-97759925D01*
X123786459Y-97759925D02*
X123786459Y-97831353D01*
X123786459Y-97831353D02*
X123810268Y-97878972D01*
X123810268Y-97878972D02*
X123857887Y-97902782D01*
X123857887Y-97902782D02*
X124119792Y-97902782D01*
X123786459Y-98355163D02*
X124191221Y-98355163D01*
X124191221Y-98355163D02*
X124238840Y-98331353D01*
X124238840Y-98331353D02*
X124262649Y-98307544D01*
X124262649Y-98307544D02*
X124286459Y-98259925D01*
X124286459Y-98259925D02*
X124286459Y-98188496D01*
X124286459Y-98188496D02*
X124262649Y-98140877D01*
X124095983Y-98355163D02*
X124119792Y-98307544D01*
X124119792Y-98307544D02*
X124119792Y-98212306D01*
X124119792Y-98212306D02*
X124095983Y-98164687D01*
X124095983Y-98164687D02*
X124072173Y-98140877D01*
X124072173Y-98140877D02*
X124024554Y-98117068D01*
X124024554Y-98117068D02*
X123881697Y-98117068D01*
X123881697Y-98117068D02*
X123834078Y-98140877D01*
X123834078Y-98140877D02*
X123810268Y-98164687D01*
X123810268Y-98164687D02*
X123786459Y-98212306D01*
X123786459Y-98212306D02*
X123786459Y-98307544D01*
X123786459Y-98307544D02*
X123810268Y-98355163D01*
X124119792Y-98664687D02*
X124095983Y-98617068D01*
X124095983Y-98617068D02*
X124048363Y-98593258D01*
X124048363Y-98593258D02*
X123619792Y-98593258D01*
X123786459Y-98807544D02*
X124119792Y-98926592D01*
X123786459Y-99045639D02*
X124119792Y-98926592D01*
X124119792Y-98926592D02*
X124238840Y-98878973D01*
X124238840Y-98878973D02*
X124262649Y-98855163D01*
X124262649Y-98855163D02*
X124286459Y-98807544D01*
X124119792Y-99902781D02*
X123881697Y-99736115D01*
X124119792Y-99617067D02*
X123619792Y-99617067D01*
X123619792Y-99617067D02*
X123619792Y-99807543D01*
X123619792Y-99807543D02*
X123643602Y-99855162D01*
X123643602Y-99855162D02*
X123667411Y-99878972D01*
X123667411Y-99878972D02*
X123715030Y-99902781D01*
X123715030Y-99902781D02*
X123786459Y-99902781D01*
X123786459Y-99902781D02*
X123834078Y-99878972D01*
X123834078Y-99878972D02*
X123857887Y-99855162D01*
X123857887Y-99855162D02*
X123881697Y-99807543D01*
X123881697Y-99807543D02*
X123881697Y-99617067D01*
X124095983Y-100307543D02*
X124119792Y-100259924D01*
X124119792Y-100259924D02*
X124119792Y-100164686D01*
X124119792Y-100164686D02*
X124095983Y-100117067D01*
X124095983Y-100117067D02*
X124048363Y-100093258D01*
X124048363Y-100093258D02*
X123857887Y-100093258D01*
X123857887Y-100093258D02*
X123810268Y-100117067D01*
X123810268Y-100117067D02*
X123786459Y-100164686D01*
X123786459Y-100164686D02*
X123786459Y-100259924D01*
X123786459Y-100259924D02*
X123810268Y-100307543D01*
X123810268Y-100307543D02*
X123857887Y-100331353D01*
X123857887Y-100331353D02*
X123905506Y-100331353D01*
X123905506Y-100331353D02*
X123953125Y-100093258D01*
X124095983Y-100759924D02*
X124119792Y-100712305D01*
X124119792Y-100712305D02*
X124119792Y-100617067D01*
X124119792Y-100617067D02*
X124095983Y-100569448D01*
X124095983Y-100569448D02*
X124072173Y-100545638D01*
X124072173Y-100545638D02*
X124024554Y-100521829D01*
X124024554Y-100521829D02*
X123881697Y-100521829D01*
X123881697Y-100521829D02*
X123834078Y-100545638D01*
X123834078Y-100545638D02*
X123810268Y-100569448D01*
X123810268Y-100569448D02*
X123786459Y-100617067D01*
X123786459Y-100617067D02*
X123786459Y-100712305D01*
X123786459Y-100712305D02*
X123810268Y-100759924D01*
X124119792Y-100974209D02*
X123786459Y-100974209D01*
X123619792Y-100974209D02*
X123643602Y-100950400D01*
X123643602Y-100950400D02*
X123667411Y-100974209D01*
X123667411Y-100974209D02*
X123643602Y-100998019D01*
X123643602Y-100998019D02*
X123619792Y-100974209D01*
X123619792Y-100974209D02*
X123667411Y-100974209D01*
X123786459Y-101212304D02*
X124286459Y-101212304D01*
X123810268Y-101212304D02*
X123786459Y-101259923D01*
X123786459Y-101259923D02*
X123786459Y-101355161D01*
X123786459Y-101355161D02*
X123810268Y-101402780D01*
X123810268Y-101402780D02*
X123834078Y-101426590D01*
X123834078Y-101426590D02*
X123881697Y-101450399D01*
X123881697Y-101450399D02*
X124024554Y-101450399D01*
X124024554Y-101450399D02*
X124072173Y-101426590D01*
X124072173Y-101426590D02*
X124095983Y-101402780D01*
X124095983Y-101402780D02*
X124119792Y-101355161D01*
X124119792Y-101355161D02*
X124119792Y-101259923D01*
X124119792Y-101259923D02*
X124095983Y-101212304D01*
X124119792Y-101664685D02*
X123786459Y-101664685D01*
X123881697Y-101664685D02*
X123834078Y-101688495D01*
X123834078Y-101688495D02*
X123810268Y-101712304D01*
X123810268Y-101712304D02*
X123786459Y-101759923D01*
X123786459Y-101759923D02*
X123786459Y-101807542D01*
X124119792Y-102045638D02*
X124095983Y-101998019D01*
X124095983Y-101998019D02*
X124072173Y-101974209D01*
X124072173Y-101974209D02*
X124024554Y-101950400D01*
X124024554Y-101950400D02*
X123881697Y-101950400D01*
X123881697Y-101950400D02*
X123834078Y-101974209D01*
X123834078Y-101974209D02*
X123810268Y-101998019D01*
X123810268Y-101998019D02*
X123786459Y-102045638D01*
X123786459Y-102045638D02*
X123786459Y-102117066D01*
X123786459Y-102117066D02*
X123810268Y-102164685D01*
X123810268Y-102164685D02*
X123834078Y-102188495D01*
X123834078Y-102188495D02*
X123881697Y-102212304D01*
X123881697Y-102212304D02*
X124024554Y-102212304D01*
X124024554Y-102212304D02*
X124072173Y-102188495D01*
X124072173Y-102188495D02*
X124095983Y-102164685D01*
X124095983Y-102164685D02*
X124119792Y-102117066D01*
X124119792Y-102117066D02*
X124119792Y-102045638D01*
X124095983Y-102640876D02*
X124119792Y-102593257D01*
X124119792Y-102593257D02*
X124119792Y-102498019D01*
X124119792Y-102498019D02*
X124095983Y-102450400D01*
X124095983Y-102450400D02*
X124072173Y-102426590D01*
X124072173Y-102426590D02*
X124024554Y-102402781D01*
X124024554Y-102402781D02*
X123881697Y-102402781D01*
X123881697Y-102402781D02*
X123834078Y-102426590D01*
X123834078Y-102426590D02*
X123810268Y-102450400D01*
X123810268Y-102450400D02*
X123786459Y-102498019D01*
X123786459Y-102498019D02*
X123786459Y-102593257D01*
X123786459Y-102593257D02*
X123810268Y-102640876D01*
X124119792Y-103069447D02*
X123857887Y-103069447D01*
X123857887Y-103069447D02*
X123810268Y-103045637D01*
X123810268Y-103045637D02*
X123786459Y-102998018D01*
X123786459Y-102998018D02*
X123786459Y-102902780D01*
X123786459Y-102902780D02*
X123810268Y-102855161D01*
X124095983Y-103069447D02*
X124119792Y-103021828D01*
X124119792Y-103021828D02*
X124119792Y-102902780D01*
X124119792Y-102902780D02*
X124095983Y-102855161D01*
X124095983Y-102855161D02*
X124048363Y-102831352D01*
X124048363Y-102831352D02*
X124000744Y-102831352D01*
X124000744Y-102831352D02*
X123953125Y-102855161D01*
X123953125Y-102855161D02*
X123929316Y-102902780D01*
X123929316Y-102902780D02*
X123929316Y-103021828D01*
X123929316Y-103021828D02*
X123905506Y-103069447D01*
X124119792Y-103378971D02*
X124095983Y-103331352D01*
X124095983Y-103331352D02*
X124048363Y-103307542D01*
X124048363Y-103307542D02*
X123619792Y-103307542D01*
X124924764Y-96164687D02*
X124424764Y-96164687D01*
X124924764Y-96378973D02*
X124662859Y-96378973D01*
X124662859Y-96378973D02*
X124615240Y-96355163D01*
X124615240Y-96355163D02*
X124591431Y-96307544D01*
X124591431Y-96307544D02*
X124591431Y-96236116D01*
X124591431Y-96236116D02*
X124615240Y-96188497D01*
X124615240Y-96188497D02*
X124639050Y-96164687D01*
X124591431Y-96545640D02*
X124591431Y-96736116D01*
X124424764Y-96617068D02*
X124853335Y-96617068D01*
X124853335Y-96617068D02*
X124900955Y-96640878D01*
X124900955Y-96640878D02*
X124924764Y-96688497D01*
X124924764Y-96688497D02*
X124924764Y-96736116D01*
X124591431Y-96831354D02*
X124591431Y-97021830D01*
X124424764Y-96902782D02*
X124853335Y-96902782D01*
X124853335Y-96902782D02*
X124900955Y-96926592D01*
X124900955Y-96926592D02*
X124924764Y-96974211D01*
X124924764Y-96974211D02*
X124924764Y-97021830D01*
X124591431Y-97188496D02*
X125091431Y-97188496D01*
X124615240Y-97188496D02*
X124591431Y-97236115D01*
X124591431Y-97236115D02*
X124591431Y-97331353D01*
X124591431Y-97331353D02*
X124615240Y-97378972D01*
X124615240Y-97378972D02*
X124639050Y-97402782D01*
X124639050Y-97402782D02*
X124686669Y-97426591D01*
X124686669Y-97426591D02*
X124829526Y-97426591D01*
X124829526Y-97426591D02*
X124877145Y-97402782D01*
X124877145Y-97402782D02*
X124900955Y-97378972D01*
X124900955Y-97378972D02*
X124924764Y-97331353D01*
X124924764Y-97331353D02*
X124924764Y-97236115D01*
X124924764Y-97236115D02*
X124900955Y-97188496D01*
X124900955Y-97617068D02*
X124924764Y-97664687D01*
X124924764Y-97664687D02*
X124924764Y-97759925D01*
X124924764Y-97759925D02*
X124900955Y-97807544D01*
X124900955Y-97807544D02*
X124853335Y-97831353D01*
X124853335Y-97831353D02*
X124829526Y-97831353D01*
X124829526Y-97831353D02*
X124781907Y-97807544D01*
X124781907Y-97807544D02*
X124758097Y-97759925D01*
X124758097Y-97759925D02*
X124758097Y-97688496D01*
X124758097Y-97688496D02*
X124734288Y-97640877D01*
X124734288Y-97640877D02*
X124686669Y-97617068D01*
X124686669Y-97617068D02*
X124662859Y-97617068D01*
X124662859Y-97617068D02*
X124615240Y-97640877D01*
X124615240Y-97640877D02*
X124591431Y-97688496D01*
X124591431Y-97688496D02*
X124591431Y-97759925D01*
X124591431Y-97759925D02*
X124615240Y-97807544D01*
X124877145Y-98045639D02*
X124900955Y-98069449D01*
X124900955Y-98069449D02*
X124924764Y-98045639D01*
X124924764Y-98045639D02*
X124900955Y-98021830D01*
X124900955Y-98021830D02*
X124877145Y-98045639D01*
X124877145Y-98045639D02*
X124924764Y-98045639D01*
X124615240Y-98045639D02*
X124639050Y-98069449D01*
X124639050Y-98069449D02*
X124662859Y-98045639D01*
X124662859Y-98045639D02*
X124639050Y-98021830D01*
X124639050Y-98021830D02*
X124615240Y-98045639D01*
X124615240Y-98045639D02*
X124662859Y-98045639D01*
X124400955Y-98640877D02*
X125043812Y-98212306D01*
X124400955Y-99164687D02*
X125043812Y-98736116D01*
X124900955Y-99545640D02*
X124924764Y-99498021D01*
X124924764Y-99498021D02*
X124924764Y-99402783D01*
X124924764Y-99402783D02*
X124900955Y-99355164D01*
X124900955Y-99355164D02*
X124877145Y-99331354D01*
X124877145Y-99331354D02*
X124829526Y-99307545D01*
X124829526Y-99307545D02*
X124686669Y-99307545D01*
X124686669Y-99307545D02*
X124639050Y-99331354D01*
X124639050Y-99331354D02*
X124615240Y-99355164D01*
X124615240Y-99355164D02*
X124591431Y-99402783D01*
X124591431Y-99402783D02*
X124591431Y-99498021D01*
X124591431Y-99498021D02*
X124615240Y-99545640D01*
X124900955Y-99950401D02*
X124924764Y-99902782D01*
X124924764Y-99902782D02*
X124924764Y-99807544D01*
X124924764Y-99807544D02*
X124900955Y-99759925D01*
X124900955Y-99759925D02*
X124853335Y-99736116D01*
X124853335Y-99736116D02*
X124662859Y-99736116D01*
X124662859Y-99736116D02*
X124615240Y-99759925D01*
X124615240Y-99759925D02*
X124591431Y-99807544D01*
X124591431Y-99807544D02*
X124591431Y-99902782D01*
X124591431Y-99902782D02*
X124615240Y-99950401D01*
X124615240Y-99950401D02*
X124662859Y-99974211D01*
X124662859Y-99974211D02*
X124710478Y-99974211D01*
X124710478Y-99974211D02*
X124758097Y-99736116D01*
X124924764Y-100188496D02*
X124591431Y-100188496D01*
X124686669Y-100188496D02*
X124639050Y-100212306D01*
X124639050Y-100212306D02*
X124615240Y-100236115D01*
X124615240Y-100236115D02*
X124591431Y-100283734D01*
X124591431Y-100283734D02*
X124591431Y-100331353D01*
X124591431Y-100498020D02*
X124924764Y-100498020D01*
X124639050Y-100498020D02*
X124615240Y-100521830D01*
X124615240Y-100521830D02*
X124591431Y-100569449D01*
X124591431Y-100569449D02*
X124591431Y-100640877D01*
X124591431Y-100640877D02*
X124615240Y-100688496D01*
X124615240Y-100688496D02*
X124662859Y-100712306D01*
X124662859Y-100712306D02*
X124924764Y-100712306D01*
X124734288Y-100950401D02*
X124734288Y-101331354D01*
X124924764Y-101640878D02*
X124900955Y-101593259D01*
X124900955Y-101593259D02*
X124877145Y-101569449D01*
X124877145Y-101569449D02*
X124829526Y-101545640D01*
X124829526Y-101545640D02*
X124686669Y-101545640D01*
X124686669Y-101545640D02*
X124639050Y-101569449D01*
X124639050Y-101569449D02*
X124615240Y-101593259D01*
X124615240Y-101593259D02*
X124591431Y-101640878D01*
X124591431Y-101640878D02*
X124591431Y-101712306D01*
X124591431Y-101712306D02*
X124615240Y-101759925D01*
X124615240Y-101759925D02*
X124639050Y-101783735D01*
X124639050Y-101783735D02*
X124686669Y-101807544D01*
X124686669Y-101807544D02*
X124829526Y-101807544D01*
X124829526Y-101807544D02*
X124877145Y-101783735D01*
X124877145Y-101783735D02*
X124900955Y-101759925D01*
X124900955Y-101759925D02*
X124924764Y-101712306D01*
X124924764Y-101712306D02*
X124924764Y-101640878D01*
X124924764Y-102021830D02*
X124424764Y-102021830D01*
X124924764Y-102236116D02*
X124662859Y-102236116D01*
X124662859Y-102236116D02*
X124615240Y-102212306D01*
X124615240Y-102212306D02*
X124591431Y-102164687D01*
X124591431Y-102164687D02*
X124591431Y-102093259D01*
X124591431Y-102093259D02*
X124615240Y-102045640D01*
X124615240Y-102045640D02*
X124639050Y-102021830D01*
X124924764Y-102545640D02*
X124900955Y-102498021D01*
X124900955Y-102498021D02*
X124853335Y-102474211D01*
X124853335Y-102474211D02*
X124424764Y-102474211D01*
X124877145Y-102736116D02*
X124900955Y-102759926D01*
X124900955Y-102759926D02*
X124924764Y-102736116D01*
X124924764Y-102736116D02*
X124900955Y-102712307D01*
X124900955Y-102712307D02*
X124877145Y-102736116D01*
X124877145Y-102736116D02*
X124924764Y-102736116D01*
X124591431Y-102926592D02*
X124924764Y-103021830D01*
X124924764Y-103021830D02*
X124686669Y-103117068D01*
X124686669Y-103117068D02*
X124924764Y-103212306D01*
X124924764Y-103212306D02*
X124591431Y-103307544D01*
X124900955Y-103688497D02*
X124924764Y-103640878D01*
X124924764Y-103640878D02*
X124924764Y-103545640D01*
X124924764Y-103545640D02*
X124900955Y-103498021D01*
X124900955Y-103498021D02*
X124853335Y-103474212D01*
X124853335Y-103474212D02*
X124662859Y-103474212D01*
X124662859Y-103474212D02*
X124615240Y-103498021D01*
X124615240Y-103498021D02*
X124591431Y-103545640D01*
X124591431Y-103545640D02*
X124591431Y-103640878D01*
X124591431Y-103640878D02*
X124615240Y-103688497D01*
X124615240Y-103688497D02*
X124662859Y-103712307D01*
X124662859Y-103712307D02*
X124710478Y-103712307D01*
X124710478Y-103712307D02*
X124758097Y-103474212D01*
X124924764Y-103926592D02*
X124424764Y-103926592D01*
X124615240Y-103926592D02*
X124591431Y-103974211D01*
X124591431Y-103974211D02*
X124591431Y-104069449D01*
X124591431Y-104069449D02*
X124615240Y-104117068D01*
X124615240Y-104117068D02*
X124639050Y-104140878D01*
X124639050Y-104140878D02*
X124686669Y-104164687D01*
X124686669Y-104164687D02*
X124829526Y-104164687D01*
X124829526Y-104164687D02*
X124877145Y-104140878D01*
X124877145Y-104140878D02*
X124900955Y-104117068D01*
X124900955Y-104117068D02*
X124924764Y-104069449D01*
X124924764Y-104069449D02*
X124924764Y-103974211D01*
X124924764Y-103974211D02*
X124900955Y-103926592D01*
X124877145Y-104378973D02*
X124900955Y-104402783D01*
X124900955Y-104402783D02*
X124924764Y-104378973D01*
X124924764Y-104378973D02*
X124900955Y-104355164D01*
X124900955Y-104355164D02*
X124877145Y-104378973D01*
X124877145Y-104378973D02*
X124924764Y-104378973D01*
X124900955Y-104831354D02*
X124924764Y-104783735D01*
X124924764Y-104783735D02*
X124924764Y-104688497D01*
X124924764Y-104688497D02*
X124900955Y-104640878D01*
X124900955Y-104640878D02*
X124877145Y-104617068D01*
X124877145Y-104617068D02*
X124829526Y-104593259D01*
X124829526Y-104593259D02*
X124686669Y-104593259D01*
X124686669Y-104593259D02*
X124639050Y-104617068D01*
X124639050Y-104617068D02*
X124615240Y-104640878D01*
X124615240Y-104640878D02*
X124591431Y-104688497D01*
X124591431Y-104688497D02*
X124591431Y-104783735D01*
X124591431Y-104783735D02*
X124615240Y-104831354D01*
X124900955Y-105236115D02*
X124924764Y-105188496D01*
X124924764Y-105188496D02*
X124924764Y-105093258D01*
X124924764Y-105093258D02*
X124900955Y-105045639D01*
X124900955Y-105045639D02*
X124853335Y-105021830D01*
X124853335Y-105021830D02*
X124662859Y-105021830D01*
X124662859Y-105021830D02*
X124615240Y-105045639D01*
X124615240Y-105045639D02*
X124591431Y-105093258D01*
X124591431Y-105093258D02*
X124591431Y-105188496D01*
X124591431Y-105188496D02*
X124615240Y-105236115D01*
X124615240Y-105236115D02*
X124662859Y-105259925D01*
X124662859Y-105259925D02*
X124710478Y-105259925D01*
X124710478Y-105259925D02*
X124758097Y-105021830D01*
X124924764Y-105474210D02*
X124591431Y-105474210D01*
X124686669Y-105474210D02*
X124639050Y-105498020D01*
X124639050Y-105498020D02*
X124615240Y-105521829D01*
X124615240Y-105521829D02*
X124591431Y-105569448D01*
X124591431Y-105569448D02*
X124591431Y-105617067D01*
X124591431Y-105783734D02*
X124924764Y-105783734D01*
X124639050Y-105783734D02*
X124615240Y-105807544D01*
X124615240Y-105807544D02*
X124591431Y-105855163D01*
X124591431Y-105855163D02*
X124591431Y-105926591D01*
X124591431Y-105926591D02*
X124615240Y-105974210D01*
X124615240Y-105974210D02*
X124662859Y-105998020D01*
X124662859Y-105998020D02*
X124924764Y-105998020D01*
X124877145Y-106236115D02*
X124900955Y-106259925D01*
X124900955Y-106259925D02*
X124924764Y-106236115D01*
X124924764Y-106236115D02*
X124900955Y-106212306D01*
X124900955Y-106212306D02*
X124877145Y-106236115D01*
X124877145Y-106236115D02*
X124924764Y-106236115D01*
X124900955Y-106688496D02*
X124924764Y-106640877D01*
X124924764Y-106640877D02*
X124924764Y-106545639D01*
X124924764Y-106545639D02*
X124900955Y-106498020D01*
X124900955Y-106498020D02*
X124877145Y-106474210D01*
X124877145Y-106474210D02*
X124829526Y-106450401D01*
X124829526Y-106450401D02*
X124686669Y-106450401D01*
X124686669Y-106450401D02*
X124639050Y-106474210D01*
X124639050Y-106474210D02*
X124615240Y-106498020D01*
X124615240Y-106498020D02*
X124591431Y-106545639D01*
X124591431Y-106545639D02*
X124591431Y-106640877D01*
X124591431Y-106640877D02*
X124615240Y-106688496D01*
X124924764Y-106902781D02*
X124424764Y-106902781D01*
X124924764Y-107117067D02*
X124662859Y-107117067D01*
X124662859Y-107117067D02*
X124615240Y-107093257D01*
X124615240Y-107093257D02*
X124591431Y-107045638D01*
X124591431Y-107045638D02*
X124591431Y-106974210D01*
X124591431Y-106974210D02*
X124615240Y-106926591D01*
X124615240Y-106926591D02*
X124639050Y-106902781D01*
D13*
X128916917Y-83607542D02*
X128916917Y-82407542D01*
X128916917Y-82407542D02*
X128631203Y-82407542D01*
X128631203Y-82407542D02*
X128459774Y-82464685D01*
X128459774Y-82464685D02*
X128345489Y-82578971D01*
X128345489Y-82578971D02*
X128288346Y-82693257D01*
X128288346Y-82693257D02*
X128231203Y-82921828D01*
X128231203Y-82921828D02*
X128231203Y-83093257D01*
X128231203Y-83093257D02*
X128288346Y-83321828D01*
X128288346Y-83321828D02*
X128345489Y-83436114D01*
X128345489Y-83436114D02*
X128459774Y-83550400D01*
X128459774Y-83550400D02*
X128631203Y-83607542D01*
X128631203Y-83607542D02*
X128916917Y-83607542D01*
X127716917Y-82978971D02*
X127316917Y-82978971D01*
X127145489Y-83607542D02*
X127716917Y-83607542D01*
X127716917Y-83607542D02*
X127716917Y-82407542D01*
X127716917Y-82407542D02*
X127145489Y-82407542D01*
X125945489Y-83493257D02*
X126002632Y-83550400D01*
X126002632Y-83550400D02*
X126174060Y-83607542D01*
X126174060Y-83607542D02*
X126288346Y-83607542D01*
X126288346Y-83607542D02*
X126459775Y-83550400D01*
X126459775Y-83550400D02*
X126574060Y-83436114D01*
X126574060Y-83436114D02*
X126631203Y-83321828D01*
X126631203Y-83321828D02*
X126688346Y-83093257D01*
X126688346Y-83093257D02*
X126688346Y-82921828D01*
X126688346Y-82921828D02*
X126631203Y-82693257D01*
X126631203Y-82693257D02*
X126574060Y-82578971D01*
X126574060Y-82578971D02*
X126459775Y-82464685D01*
X126459775Y-82464685D02*
X126288346Y-82407542D01*
X126288346Y-82407542D02*
X126174060Y-82407542D01*
X126174060Y-82407542D02*
X126002632Y-82464685D01*
X126002632Y-82464685D02*
X125945489Y-82521828D01*
X125602632Y-82407542D02*
X124916918Y-82407542D01*
X125259775Y-83607542D02*
X125259775Y-82407542D01*
X124574060Y-83550400D02*
X124459774Y-83607542D01*
X124459774Y-83607542D02*
X124231203Y-83607542D01*
X124231203Y-83607542D02*
X124116917Y-83550400D01*
X124116917Y-83550400D02*
X124059774Y-83436114D01*
X124059774Y-83436114D02*
X124059774Y-83378971D01*
X124059774Y-83378971D02*
X124116917Y-83264685D01*
X124116917Y-83264685D02*
X124231203Y-83207542D01*
X124231203Y-83207542D02*
X124402632Y-83207542D01*
X124402632Y-83207542D02*
X124516917Y-83150400D01*
X124516917Y-83150400D02*
X124574060Y-83036114D01*
X124574060Y-83036114D02*
X124574060Y-82978971D01*
X124574060Y-82978971D02*
X124516917Y-82864685D01*
X124516917Y-82864685D02*
X124402632Y-82807542D01*
X124402632Y-82807542D02*
X124231203Y-82807542D01*
X124231203Y-82807542D02*
X124116917Y-82864685D01*
X123545488Y-82807542D02*
X123545488Y-84007542D01*
X123545488Y-82864685D02*
X123431203Y-82807542D01*
X123431203Y-82807542D02*
X123202631Y-82807542D01*
X123202631Y-82807542D02*
X123088345Y-82864685D01*
X123088345Y-82864685D02*
X123031203Y-82921828D01*
X123031203Y-82921828D02*
X122974060Y-83036114D01*
X122974060Y-83036114D02*
X122974060Y-83378971D01*
X122974060Y-83378971D02*
X123031203Y-83493257D01*
X123031203Y-83493257D02*
X123088345Y-83550400D01*
X123088345Y-83550400D02*
X123202631Y-83607542D01*
X123202631Y-83607542D02*
X123431203Y-83607542D01*
X123431203Y-83607542D02*
X123545488Y-83550400D01*
X121945489Y-83607542D02*
X121945489Y-82978971D01*
X121945489Y-82978971D02*
X122002631Y-82864685D01*
X122002631Y-82864685D02*
X122116917Y-82807542D01*
X122116917Y-82807542D02*
X122345489Y-82807542D01*
X122345489Y-82807542D02*
X122459774Y-82864685D01*
X121945489Y-83550400D02*
X122059774Y-83607542D01*
X122059774Y-83607542D02*
X122345489Y-83607542D01*
X122345489Y-83607542D02*
X122459774Y-83550400D01*
X122459774Y-83550400D02*
X122516917Y-83436114D01*
X122516917Y-83436114D02*
X122516917Y-83321828D01*
X122516917Y-83321828D02*
X122459774Y-83207542D01*
X122459774Y-83207542D02*
X122345489Y-83150400D01*
X122345489Y-83150400D02*
X122059774Y-83150400D01*
X122059774Y-83150400D02*
X121945489Y-83093257D01*
X121374060Y-82807542D02*
X121374060Y-83607542D01*
X121374060Y-82921828D02*
X121316917Y-82864685D01*
X121316917Y-82864685D02*
X121202632Y-82807542D01*
X121202632Y-82807542D02*
X121031203Y-82807542D01*
X121031203Y-82807542D02*
X120916917Y-82864685D01*
X120916917Y-82864685D02*
X120859775Y-82978971D01*
X120859775Y-82978971D02*
X120859775Y-83607542D01*
X120345489Y-83550400D02*
X120231203Y-83607542D01*
X120231203Y-83607542D02*
X120002632Y-83607542D01*
X120002632Y-83607542D02*
X119888346Y-83550400D01*
X119888346Y-83550400D02*
X119831203Y-83436114D01*
X119831203Y-83436114D02*
X119831203Y-83378971D01*
X119831203Y-83378971D02*
X119888346Y-83264685D01*
X119888346Y-83264685D02*
X120002632Y-83207542D01*
X120002632Y-83207542D02*
X120174061Y-83207542D01*
X120174061Y-83207542D02*
X120288346Y-83150400D01*
X120288346Y-83150400D02*
X120345489Y-83036114D01*
X120345489Y-83036114D02*
X120345489Y-82978971D01*
X120345489Y-82978971D02*
X120288346Y-82864685D01*
X120288346Y-82864685D02*
X120174061Y-82807542D01*
X120174061Y-82807542D02*
X120002632Y-82807542D01*
X120002632Y-82807542D02*
X119888346Y-82864685D01*
X119316917Y-83607542D02*
X119316917Y-82807542D01*
X119316917Y-82407542D02*
X119374060Y-82464685D01*
X119374060Y-82464685D02*
X119316917Y-82521828D01*
X119316917Y-82521828D02*
X119259774Y-82464685D01*
X119259774Y-82464685D02*
X119316917Y-82407542D01*
X119316917Y-82407542D02*
X119316917Y-82521828D01*
X118574060Y-83607542D02*
X118688345Y-83550400D01*
X118688345Y-83550400D02*
X118745488Y-83493257D01*
X118745488Y-83493257D02*
X118802631Y-83378971D01*
X118802631Y-83378971D02*
X118802631Y-83036114D01*
X118802631Y-83036114D02*
X118745488Y-82921828D01*
X118745488Y-82921828D02*
X118688345Y-82864685D01*
X118688345Y-82864685D02*
X118574060Y-82807542D01*
X118574060Y-82807542D02*
X118402631Y-82807542D01*
X118402631Y-82807542D02*
X118288345Y-82864685D01*
X118288345Y-82864685D02*
X118231203Y-82921828D01*
X118231203Y-82921828D02*
X118174060Y-83036114D01*
X118174060Y-83036114D02*
X118174060Y-83378971D01*
X118174060Y-83378971D02*
X118231203Y-83493257D01*
X118231203Y-83493257D02*
X118288345Y-83550400D01*
X118288345Y-83550400D02*
X118402631Y-83607542D01*
X118402631Y-83607542D02*
X118574060Y-83607542D01*
X117659774Y-82807542D02*
X117659774Y-83607542D01*
X117659774Y-82921828D02*
X117602631Y-82864685D01*
X117602631Y-82864685D02*
X117488346Y-82807542D01*
X117488346Y-82807542D02*
X117316917Y-82807542D01*
X117316917Y-82807542D02*
X117202631Y-82864685D01*
X117202631Y-82864685D02*
X117145489Y-82978971D01*
X117145489Y-82978971D02*
X117145489Y-83607542D01*
D14*
X103290809Y-96435901D02*
X103338428Y-96578758D01*
X103338428Y-96578758D02*
X103386047Y-96626377D01*
X103386047Y-96626377D02*
X103481285Y-96673996D01*
X103481285Y-96673996D02*
X103624142Y-96673996D01*
X103624142Y-96673996D02*
X103719380Y-96626377D01*
X103719380Y-96626377D02*
X103767000Y-96578758D01*
X103767000Y-96578758D02*
X103814619Y-96483520D01*
X103814619Y-96483520D02*
X103814619Y-96102568D01*
X103814619Y-96102568D02*
X102814619Y-96102568D01*
X102814619Y-96102568D02*
X102814619Y-96435901D01*
X102814619Y-96435901D02*
X102862238Y-96531139D01*
X102862238Y-96531139D02*
X102909857Y-96578758D01*
X102909857Y-96578758D02*
X103005095Y-96626377D01*
X103005095Y-96626377D02*
X103100333Y-96626377D01*
X103100333Y-96626377D02*
X103195571Y-96578758D01*
X103195571Y-96578758D02*
X103243190Y-96531139D01*
X103243190Y-96531139D02*
X103290809Y-96435901D01*
X103290809Y-96435901D02*
X103290809Y-96102568D01*
X102814619Y-97293044D02*
X102814619Y-97483520D01*
X102814619Y-97483520D02*
X102862238Y-97578758D01*
X102862238Y-97578758D02*
X102957476Y-97673996D01*
X102957476Y-97673996D02*
X103147952Y-97721615D01*
X103147952Y-97721615D02*
X103481285Y-97721615D01*
X103481285Y-97721615D02*
X103671761Y-97673996D01*
X103671761Y-97673996D02*
X103767000Y-97578758D01*
X103767000Y-97578758D02*
X103814619Y-97483520D01*
X103814619Y-97483520D02*
X103814619Y-97293044D01*
X103814619Y-97293044D02*
X103767000Y-97197806D01*
X103767000Y-97197806D02*
X103671761Y-97102568D01*
X103671761Y-97102568D02*
X103481285Y-97054949D01*
X103481285Y-97054949D02*
X103147952Y-97054949D01*
X103147952Y-97054949D02*
X102957476Y-97102568D01*
X102957476Y-97102568D02*
X102862238Y-97197806D01*
X102862238Y-97197806D02*
X102814619Y-97293044D01*
X102814619Y-98007330D02*
X102814619Y-98578758D01*
X103814619Y-98293044D02*
X102814619Y-98293044D01*
X102814619Y-98769235D02*
X102814619Y-99340663D01*
X103814619Y-99054949D02*
X102814619Y-99054949D01*
X102814619Y-99864473D02*
X102814619Y-100054949D01*
X102814619Y-100054949D02*
X102862238Y-100150187D01*
X102862238Y-100150187D02*
X102957476Y-100245425D01*
X102957476Y-100245425D02*
X103147952Y-100293044D01*
X103147952Y-100293044D02*
X103481285Y-100293044D01*
X103481285Y-100293044D02*
X103671761Y-100245425D01*
X103671761Y-100245425D02*
X103767000Y-100150187D01*
X103767000Y-100150187D02*
X103814619Y-100054949D01*
X103814619Y-100054949D02*
X103814619Y-99864473D01*
X103814619Y-99864473D02*
X103767000Y-99769235D01*
X103767000Y-99769235D02*
X103671761Y-99673997D01*
X103671761Y-99673997D02*
X103481285Y-99626378D01*
X103481285Y-99626378D02*
X103147952Y-99626378D01*
X103147952Y-99626378D02*
X102957476Y-99673997D01*
X102957476Y-99673997D02*
X102862238Y-99769235D01*
X102862238Y-99769235D02*
X102814619Y-99864473D01*
X103814619Y-100721616D02*
X102814619Y-100721616D01*
X102814619Y-100721616D02*
X103528904Y-101054949D01*
X103528904Y-101054949D02*
X102814619Y-101388282D01*
X102814619Y-101388282D02*
X103814619Y-101388282D01*
X103719380Y-101864473D02*
X103767000Y-101912092D01*
X103767000Y-101912092D02*
X103814619Y-101864473D01*
X103814619Y-101864473D02*
X103767000Y-101816854D01*
X103767000Y-101816854D02*
X103719380Y-101864473D01*
X103719380Y-101864473D02*
X103814619Y-101864473D01*
X103433666Y-101864473D02*
X102862238Y-101816854D01*
X102862238Y-101816854D02*
X102814619Y-101864473D01*
X102814619Y-101864473D02*
X102862238Y-101912092D01*
X102862238Y-101912092D02*
X103433666Y-101864473D01*
X103433666Y-101864473D02*
X102814619Y-101864473D01*
D11*
X103341695Y-103791101D02*
X103341695Y-103333958D01*
X103341695Y-103562530D02*
X102541695Y-103562530D01*
X102541695Y-103562530D02*
X102655980Y-103486339D01*
X102655980Y-103486339D02*
X102732171Y-103410149D01*
X102732171Y-103410149D02*
X102770266Y-103333958D01*
D15*
X102750000Y-90300000D02*
X102750000Y-91700000D01*
X103450000Y-92400000D02*
X104050000Y-92400000D01*
X104050000Y-89600000D02*
X103450000Y-89600000D01*
X104750000Y-91700000D02*
X104750000Y-90300000D01*
X102750000Y-90300000D02*
G75*
G02*
X103450000Y-89600000I700000J0D01*
G01*
X103450000Y-92400000D02*
G75*
G02*
X102750000Y-91700000I-1J699999D01*
G01*
X104050000Y-89600000D02*
G75*
G02*
X104750000Y-90300000I0J-700000D01*
G01*
X104750000Y-91700000D02*
G75*
G02*
X104050000Y-92400000I-699999J-1D01*
G01*
%LPC*%
D16*
X130160000Y-87780000D03*
X123160000Y-87780000D03*
D17*
X100500000Y-103400000D03*
D18*
X100900000Y-102600000D03*
X100900000Y-101800000D03*
X100900000Y-101000000D03*
X100900000Y-100200000D03*
X100900000Y-99400000D03*
X100900000Y-98600000D03*
X100900000Y-97800000D03*
D17*
X100500000Y-97000000D03*
X100500000Y-96200000D03*
D19*
X110850000Y-87500000D03*
X111333274Y-86333274D03*
X111333274Y-88666726D03*
X112500000Y-85850000D03*
D20*
X112500000Y-87500000D03*
D19*
X112500000Y-89150000D03*
X113666726Y-86333274D03*
X113666726Y-88666726D03*
X114150000Y-87500000D03*
D21*
X117620000Y-113310000D03*
D22*
X117620000Y-115850000D03*
D21*
X108540000Y-92430000D03*
D22*
X111080000Y-92430000D03*
X113620000Y-92430000D03*
D19*
X110850000Y-112500000D03*
X111333274Y-111333274D03*
X111333274Y-113666726D03*
X112500000Y-110850000D03*
D20*
X112500000Y-112500000D03*
D19*
X112500000Y-114150000D03*
X113666726Y-111333274D03*
X113666726Y-113666726D03*
X114150000Y-112500000D03*
D23*
X103750000Y-91650000D03*
D24*
X103750000Y-90350000D03*
%LPD*%
M02*
