M48
; DRILL file {KiCad 9.0.3} date 2025-07-23T07:51:37+0100
; FORMAT={-:-/ absolute / metric / decimal}
; #@! TF.CreationDate,2025-07-23T07:51:37+01:00
; #@! TF.GenerationSoftware,Kicad,Pcbnew,9.0.3
; #@! TF.FileFunction,Plated,1,4,PTH
FMAT,2
METRIC
; #@! TA.AperFunction,Plated,PTH,ViaDrill
T1C0.400
; #@! TA.AperFunction,Plated,PTH,ComponentDrill
T2C0.400
; #@! TA.AperFunction,Plated,PTH,ComponentDrill
T3C1.000
; #@! TA.AperFunction,Plated,PTH,ComponentDrill
T4C2.200
%
G90
G05
T1
X102.14Y-91.91
X103.5Y-108.15
X105.12Y-91.92
X107.442Y-104.648
X108.784Y-103.814
X108.785Y-102.21
X110.236Y-101.854
X112.36Y-104.052
X113.14Y-108.27
X114.01Y-104.05
X114.67Y-106.96
X115.73Y-111.83
X115.87Y-108.127
X117.22Y-111.84
X117.58Y-106.63
X118.53Y-108.17
X118.74Y-98.93
X119.0Y-106.66
X119.34Y-94.39
X119.36Y-95.85
X119.47Y-109.07
X120.0Y-98.28
X123.98Y-94.41
X123.99Y-95.85
X124.28Y-101.67
X125.12Y-111.61
X125.48Y-116.88
X125.984Y-101.6
X126.19Y-112.79
X127.08Y-116.96
X127.99Y-113.89
X129.73Y-113.9
X135.28Y-88.61
T2
X110.85Y-87.5
X110.85Y-112.5
X111.333Y-86.333
X111.333Y-88.667
X111.333Y-111.333
X111.333Y-113.667
X112.5Y-85.85
X112.5Y-89.15
X112.5Y-110.85
X112.5Y-114.15
X113.667Y-86.333
X113.667Y-88.667
X113.667Y-111.333
X113.667Y-113.667
X114.15Y-87.5
X114.15Y-112.5
T3
X108.54Y-92.43
X111.08Y-92.43
X113.62Y-92.43
X117.62Y-113.31
X117.62Y-115.85
T4
X112.5Y-87.5
X112.5Y-112.5
M30
