G04 #@! TF.GenerationSoftware,KiCad,Pcbnew,9.0.3*
G04 #@! TF.CreationDate,2025-07-23T00:48:51+01:00*
G04 #@! TF.ProjectId,dectspansion,64656374-7370-4616-9e73-696f6e2e6b69,rev?*
G04 #@! TF.SameCoordinates,Original*
G04 #@! TF.FileFunction,Legend,Top*
G04 #@! TF.FilePolarity,Positive*
%FSLAX46Y46*%
G04 Gerber Fmt 4.6, Leading zero omitted, Abs format (unit mm)*
G04 Created by KiCad (PCBNEW 9.0.3) date 2025-07-23 00:48:51*
%MOMM*%
%LPD*%
G01*
G04 APERTURE LIST*
G04 Aperture macros list*
%AMRoundRect*
0 Rectangle with rounded corners*
0 $1 Rounding radius*
0 $2 $3 $4 $5 $6 $7 $8 $9 X,Y pos of 4 corners*
0 Add a 4 corners polygon primitive as box body*
4,1,4,$2,$3,$4,$5,$6,$7,$8,$9,$2,$3,0*
0 Add four circle primitives for the rounded corners*
1,1,$1+$1,$2,$3*
1,1,$1+$1,$4,$5*
1,1,$1+$1,$6,$7*
1,1,$1+$1,$8,$9*
0 Add four rect primitives between the rounded corners*
20,1,$1+$1,$2,$3,$4,$5,0*
20,1,$1+$1,$4,$5,$6,$7,0*
20,1,$1+$1,$6,$7,$8,$9,0*
20,1,$1+$1,$8,$9,$2,$3,0*%
G04 Aperture macros list end*
%ADD10C,0.000000*%
%ADD11C,0.150000*%
%ADD12C,0.200000*%
%ADD13C,0.300000*%
%ADD14C,0.250000*%
%ADD15C,0.100000*%
%ADD16C,0.120000*%
%ADD17C,0.127000*%
%ADD18C,1.900000*%
%ADD19R,2.000000X3.000000*%
%ADD20R,3.000000X2.000000*%
%ADD21RoundRect,0.250000X0.475000X-0.250000X0.475000X0.250000X-0.475000X0.250000X-0.475000X-0.250000X0*%
%ADD22RoundRect,0.150000X1.600000X0.150000X-1.600000X0.150000X-1.600000X-0.150000X1.600000X-0.150000X0*%
%ADD23RoundRect,0.150000X1.200000X0.150000X-1.200000X0.150000X-1.200000X-0.150000X1.200000X-0.150000X0*%
%ADD24RoundRect,0.200000X-0.275000X0.200000X-0.275000X-0.200000X0.275000X-0.200000X0.275000X0.200000X0*%
%ADD25RoundRect,0.225000X-0.225000X-0.250000X0.225000X-0.250000X0.225000X0.250000X-0.225000X0.250000X0*%
%ADD26RoundRect,0.200000X0.275000X-0.200000X0.275000X0.200000X-0.275000X0.200000X-0.275000X-0.200000X0*%
%ADD27RoundRect,0.053000X0.159000X-0.519000X0.159000X0.519000X-0.159000X0.519000X-0.159000X-0.519000X0*%
%ADD28RoundRect,0.053000X0.519000X-0.159000X0.519000X0.159000X-0.519000X0.159000X-0.519000X-0.159000X0*%
%ADD29C,0.700000*%
%ADD30C,4.400000*%
%ADD31RoundRect,0.225000X0.225000X0.250000X-0.225000X0.250000X-0.225000X-0.250000X0.225000X-0.250000X0*%
%ADD32R,1.700000X1.700000*%
%ADD33C,1.700000*%
%ADD34RoundRect,0.200000X-0.200000X-0.275000X0.200000X-0.275000X0.200000X0.275000X-0.200000X0.275000X0*%
%ADD35RoundRect,0.225000X0.250000X-0.225000X0.250000X0.225000X-0.250000X0.225000X-0.250000X-0.225000X0*%
%ADD36RoundRect,0.218750X0.256250X-0.218750X0.256250X0.218750X-0.256250X0.218750X-0.256250X-0.218750X0*%
%ADD37R,0.660000X0.550000*%
%ADD38RoundRect,0.075000X-0.075000X0.370000X-0.075000X-0.370000X0.075000X-0.370000X0.075000X0.370000X0*%
%ADD39R,0.550000X0.800000*%
%ADD40RoundRect,0.075000X-0.370000X-0.075000X0.370000X-0.075000X0.370000X0.075000X-0.370000X0.075000X0*%
G04 APERTURE END LIST*
D10*
G36*
X135201437Y-91134105D02*
G01*
X135202444Y-91134179D01*
X135203446Y-91134302D01*
X135204441Y-91134472D01*
X135205428Y-91134688D01*
X135206406Y-91134948D01*
X135207373Y-91135252D01*
X135208327Y-91135598D01*
X135209267Y-91135984D01*
X135210192Y-91136411D01*
X135211100Y-91136876D01*
X135211990Y-91137378D01*
X135212860Y-91137916D01*
X135213708Y-91138489D01*
X135214534Y-91139096D01*
X135215335Y-91139735D01*
X135216111Y-91140405D01*
X135216859Y-91141105D01*
X135217579Y-91141834D01*
X135218269Y-91142591D01*
X135218927Y-91143373D01*
X135219552Y-91144181D01*
X135220142Y-91145013D01*
X135220696Y-91145867D01*
X135221213Y-91146742D01*
X135221691Y-91147638D01*
X135222128Y-91148553D01*
X135222524Y-91149485D01*
X135222875Y-91150434D01*
X135223183Y-91151398D01*
X135223443Y-91152376D01*
X135223656Y-91153368D01*
X135304539Y-91588290D01*
X135304749Y-91589289D01*
X135305003Y-91590293D01*
X135305642Y-91592304D01*
X135306445Y-91594311D01*
X135307401Y-91596301D01*
X135308498Y-91598260D01*
X135309726Y-91600175D01*
X135311072Y-91602033D01*
X135312526Y-91603821D01*
X135314077Y-91605526D01*
X135315713Y-91607135D01*
X135317423Y-91608634D01*
X135319195Y-91610011D01*
X135321019Y-91611253D01*
X135322883Y-91612346D01*
X135324775Y-91613277D01*
X135325729Y-91613678D01*
X135326685Y-91614034D01*
X135637729Y-91747384D01*
X135639591Y-91748242D01*
X135641565Y-91748964D01*
X135643633Y-91749550D01*
X135645778Y-91750000D01*
X135647983Y-91750317D01*
X135650232Y-91750501D01*
X135652507Y-91750554D01*
X135654791Y-91750476D01*
X135657068Y-91750269D01*
X135659320Y-91749934D01*
X135661530Y-91749471D01*
X135663681Y-91748883D01*
X135665756Y-91748170D01*
X135667739Y-91747333D01*
X135669612Y-91746374D01*
X135671358Y-91745293D01*
X136040716Y-91491849D01*
X136041563Y-91491298D01*
X136042435Y-91490789D01*
X136043330Y-91490324D01*
X136044246Y-91489901D01*
X136045182Y-91489521D01*
X136046136Y-91489183D01*
X136047105Y-91488887D01*
X136048088Y-91488633D01*
X136049082Y-91488421D01*
X136050086Y-91488250D01*
X136052117Y-91488033D01*
X136054163Y-91487980D01*
X136056211Y-91488089D01*
X136058243Y-91488359D01*
X136060246Y-91488788D01*
X136062204Y-91489375D01*
X136063161Y-91489728D01*
X136064101Y-91490119D01*
X136065021Y-91490549D01*
X136065921Y-91491017D01*
X136066798Y-91491524D01*
X136067650Y-91492069D01*
X136068476Y-91492652D01*
X136069273Y-91493273D01*
X136070039Y-91493931D01*
X136070773Y-91494627D01*
X136387294Y-91811175D01*
X136387992Y-91811906D01*
X136388652Y-91812670D01*
X136389275Y-91813465D01*
X136389859Y-91814288D01*
X136390405Y-91815139D01*
X136390913Y-91816014D01*
X136391813Y-91817832D01*
X136392557Y-91819727D01*
X136393144Y-91821683D01*
X136393573Y-91823685D01*
X136393842Y-91825717D01*
X136393950Y-91827765D01*
X136393895Y-91829812D01*
X136393676Y-91831844D01*
X136393291Y-91833845D01*
X136392740Y-91835800D01*
X136392402Y-91836755D01*
X136392021Y-91837693D01*
X136391598Y-91838611D01*
X136391132Y-91839508D01*
X136390623Y-91840383D01*
X136390072Y-91841232D01*
X136132156Y-92217046D01*
X136131069Y-92218779D01*
X136130101Y-92220645D01*
X136129254Y-92222625D01*
X136128527Y-92224702D01*
X136127924Y-92226859D01*
X136127444Y-92229078D01*
X136127089Y-92231341D01*
X136126861Y-92233632D01*
X136126760Y-92235932D01*
X136126788Y-92238224D01*
X136126945Y-92240491D01*
X136127233Y-92242715D01*
X136127654Y-92244878D01*
X136128208Y-92246964D01*
X136128897Y-92248955D01*
X136129722Y-92250833D01*
X136253150Y-92552379D01*
X136253877Y-92554298D01*
X136254781Y-92556198D01*
X136255847Y-92558069D01*
X136257064Y-92559899D01*
X136258417Y-92561677D01*
X136259894Y-92563392D01*
X136261482Y-92565032D01*
X136263168Y-92566587D01*
X136264938Y-92568044D01*
X136266780Y-92569394D01*
X136268680Y-92570625D01*
X136270626Y-92571726D01*
X136272604Y-92572685D01*
X136274602Y-92573492D01*
X136276606Y-92574135D01*
X136278603Y-92574603D01*
X136728474Y-92658318D01*
X136729463Y-92658526D01*
X136730439Y-92658782D01*
X136731401Y-92659086D01*
X136732349Y-92659434D01*
X136733280Y-92659826D01*
X136734194Y-92660261D01*
X136735089Y-92660736D01*
X136735964Y-92661251D01*
X136736817Y-92661803D01*
X136737649Y-92662392D01*
X136739239Y-92663672D01*
X136740725Y-92665080D01*
X136742097Y-92666602D01*
X136743344Y-92668228D01*
X136744457Y-92669946D01*
X136745425Y-92671742D01*
X136745853Y-92672666D01*
X136746240Y-92673606D01*
X136746587Y-92674559D01*
X136746891Y-92675525D01*
X136747152Y-92676502D01*
X136747368Y-92677488D01*
X136747539Y-92678482D01*
X136747662Y-92679482D01*
X136747737Y-92680487D01*
X136747762Y-92681495D01*
X136747762Y-93129170D01*
X136747737Y-93130181D01*
X136747662Y-93131188D01*
X136747539Y-93132190D01*
X136747368Y-93133186D01*
X136747152Y-93134174D01*
X136746891Y-93135152D01*
X136746587Y-93136120D01*
X136746240Y-93137074D01*
X136745853Y-93138015D01*
X136745425Y-93138941D01*
X136744960Y-93139849D01*
X136744457Y-93140740D01*
X136743918Y-93141610D01*
X136743344Y-93142459D01*
X136742736Y-93143284D01*
X136742097Y-93144086D01*
X136741426Y-93144862D01*
X136740725Y-93145610D01*
X136739996Y-93146329D01*
X136739239Y-93147018D01*
X136738456Y-93147675D01*
X136737649Y-93148299D01*
X136736817Y-93148888D01*
X136735964Y-93149440D01*
X136735089Y-93149955D01*
X136734194Y-93150431D01*
X136733280Y-93150865D01*
X136732349Y-93151258D01*
X136731401Y-93151606D01*
X136730439Y-93151909D01*
X136729463Y-93152166D01*
X136728474Y-93152374D01*
X136278603Y-93236115D01*
X136277606Y-93236326D01*
X136276606Y-93236583D01*
X136274602Y-93237227D01*
X136272604Y-93238035D01*
X136270626Y-93238996D01*
X136268680Y-93240098D01*
X136266780Y-93241331D01*
X136264938Y-93242682D01*
X136263168Y-93244142D01*
X136261482Y-93245697D01*
X136259894Y-93247338D01*
X136258417Y-93249053D01*
X136257064Y-93250830D01*
X136255847Y-93252659D01*
X136254781Y-93254528D01*
X136254308Y-93255473D01*
X136253877Y-93256425D01*
X136253491Y-93257381D01*
X136253150Y-93258340D01*
X136129722Y-93559859D01*
X136128897Y-93561732D01*
X136128208Y-93563719D01*
X136127654Y-93565801D01*
X136127234Y-93567962D01*
X136126945Y-93570184D01*
X136126788Y-93572449D01*
X136126760Y-93574740D01*
X136126861Y-93577040D01*
X136127089Y-93579331D01*
X136127444Y-93581595D01*
X136127924Y-93583815D01*
X136128527Y-93585974D01*
X136129254Y-93588054D01*
X136130101Y-93590038D01*
X136131069Y-93591908D01*
X136132156Y-93593646D01*
X136390072Y-93969487D01*
X136390623Y-93970333D01*
X136391132Y-93971205D01*
X136391598Y-93972100D01*
X136392021Y-93973016D01*
X136392402Y-93973951D01*
X136392740Y-93974904D01*
X136393037Y-93975872D01*
X136393291Y-93976854D01*
X136393504Y-93977848D01*
X136393676Y-93978851D01*
X136393895Y-93980879D01*
X136393950Y-93982923D01*
X136393842Y-93984968D01*
X136393573Y-93986999D01*
X136393145Y-93988999D01*
X136392557Y-93990954D01*
X136392205Y-93991910D01*
X136391813Y-93992849D01*
X136391383Y-93993769D01*
X136390913Y-93994668D01*
X136390405Y-93995544D01*
X136389859Y-93996396D01*
X136389275Y-93997221D01*
X136388652Y-93998017D01*
X136387992Y-93998783D01*
X136387294Y-93999517D01*
X136070773Y-94316038D01*
X136070039Y-94316736D01*
X136069273Y-94317396D01*
X136068476Y-94318018D01*
X136067650Y-94318601D01*
X136066798Y-94319147D01*
X136065921Y-94319653D01*
X136064101Y-94320550D01*
X136062204Y-94321291D01*
X136060246Y-94321875D01*
X136058243Y-94322301D01*
X136056211Y-94322567D01*
X136054163Y-94322672D01*
X136052117Y-94322616D01*
X136050086Y-94322397D01*
X136048088Y-94322013D01*
X136046136Y-94321465D01*
X136045182Y-94321128D01*
X136044246Y-94320750D01*
X136043330Y-94320330D01*
X136042435Y-94319867D01*
X136041563Y-94319363D01*
X136040716Y-94318816D01*
X135671358Y-94065398D01*
X135669612Y-94064308D01*
X135667739Y-94063341D01*
X135665756Y-94062497D01*
X135663681Y-94061778D01*
X135661530Y-94061185D01*
X135659320Y-94060719D01*
X135657068Y-94060381D01*
X135654791Y-94060172D01*
X135652507Y-94060094D01*
X135650232Y-94060147D01*
X135647983Y-94060332D01*
X135645778Y-94060650D01*
X135643633Y-94061103D01*
X135641565Y-94061692D01*
X135639591Y-94062418D01*
X135637729Y-94063281D01*
X135326685Y-94196605D01*
X135324775Y-94197366D01*
X135322883Y-94198303D01*
X135321019Y-94199400D01*
X135319195Y-94200646D01*
X135317423Y-94202027D01*
X135315713Y-94203530D01*
X135314077Y-94205141D01*
X135312526Y-94206848D01*
X135311072Y-94208637D01*
X135309726Y-94210495D01*
X135308498Y-94212408D01*
X135307401Y-94214364D01*
X135306445Y-94216350D01*
X135305642Y-94218351D01*
X135305003Y-94220355D01*
X135304539Y-94222349D01*
X135223656Y-94657297D01*
X135223443Y-94658284D01*
X135223183Y-94659258D01*
X135222875Y-94660218D01*
X135222523Y-94661164D01*
X135222128Y-94662093D01*
X135221691Y-94663005D01*
X135221213Y-94663898D01*
X135220696Y-94664771D01*
X135219551Y-94666454D01*
X135218267Y-94668041D01*
X135216857Y-94669525D01*
X135215332Y-94670894D01*
X135213703Y-94672138D01*
X135211983Y-94673249D01*
X135210184Y-94674215D01*
X135209258Y-94674641D01*
X135208316Y-94675027D01*
X135207360Y-94675372D01*
X135206392Y-94675674D01*
X135205412Y-94675933D01*
X135204423Y-94676148D01*
X135203426Y-94676316D01*
X135202422Y-94676437D01*
X135201413Y-94676510D01*
X135200400Y-94676533D01*
X134752751Y-94676480D01*
X134751740Y-94676454D01*
X134750732Y-94676379D01*
X134749729Y-94676256D01*
X134748733Y-94676085D01*
X134747744Y-94675868D01*
X134746764Y-94675607D01*
X134745795Y-94675302D01*
X134744839Y-94674954D01*
X134743896Y-94674566D01*
X134742969Y-94674138D01*
X134742058Y-94673671D01*
X134741166Y-94673167D01*
X134740294Y-94672628D01*
X134739443Y-94672053D01*
X134738615Y-94671445D01*
X134737812Y-94670804D01*
X134737035Y-94670133D01*
X134736285Y-94669432D01*
X134735564Y-94668702D01*
X134734873Y-94667945D01*
X134734215Y-94667163D01*
X134733590Y-94666355D01*
X134733000Y-94665524D01*
X134732447Y-94664670D01*
X134731932Y-94663796D01*
X134731457Y-94662902D01*
X134731022Y-94661989D01*
X134730631Y-94661059D01*
X134730283Y-94660113D01*
X134729981Y-94659152D01*
X134729727Y-94658178D01*
X134729521Y-94657192D01*
X134650569Y-94232932D01*
X134650364Y-94231933D01*
X134650113Y-94230933D01*
X134649817Y-94229931D01*
X134649478Y-94228931D01*
X134648675Y-94226939D01*
X134647716Y-94224971D01*
X134646613Y-94223039D01*
X134645377Y-94221155D01*
X134644019Y-94219332D01*
X134642552Y-94217583D01*
X134640987Y-94215920D01*
X134639335Y-94214357D01*
X134637609Y-94212906D01*
X134635820Y-94211579D01*
X134633979Y-94210389D01*
X134632099Y-94209349D01*
X134630190Y-94208472D01*
X134629229Y-94208098D01*
X134628265Y-94207770D01*
X134297403Y-94075320D01*
X134295521Y-94074501D01*
X134293528Y-94073817D01*
X134291441Y-94073269D01*
X134289278Y-94072855D01*
X134287055Y-94072572D01*
X134284790Y-94072421D01*
X134282500Y-94072399D01*
X134280202Y-94072505D01*
X134277914Y-94072738D01*
X134275653Y-94073097D01*
X134273436Y-94073580D01*
X134271280Y-94074185D01*
X134269203Y-94074912D01*
X134267222Y-94075759D01*
X134265354Y-94076724D01*
X134263616Y-94077807D01*
X133912434Y-94318816D01*
X133911588Y-94319367D01*
X133910715Y-94319876D01*
X133909820Y-94320341D01*
X133908903Y-94320765D01*
X133907966Y-94321145D01*
X133907012Y-94321484D01*
X133906042Y-94321781D01*
X133905059Y-94322035D01*
X133904063Y-94322248D01*
X133903058Y-94322420D01*
X133901025Y-94322639D01*
X133898976Y-94322694D01*
X133896926Y-94322586D01*
X133894891Y-94322317D01*
X133892886Y-94321888D01*
X133890926Y-94321301D01*
X133889968Y-94320949D01*
X133889027Y-94320557D01*
X133888106Y-94320126D01*
X133887205Y-94319657D01*
X133886327Y-94319149D01*
X133885475Y-94318603D01*
X133884649Y-94318019D01*
X133883851Y-94317396D01*
X133883085Y-94316736D01*
X133882351Y-94316038D01*
X133565830Y-93999464D01*
X133565137Y-93998735D01*
X133564481Y-93997973D01*
X133563863Y-93997180D01*
X133563282Y-93996358D01*
X133562739Y-93995509D01*
X133562235Y-93994634D01*
X133561341Y-93992818D01*
X133560601Y-93990924D01*
X133560017Y-93988969D01*
X133559590Y-93986967D01*
X133559321Y-93984935D01*
X133559213Y-93982887D01*
X133559266Y-93980840D01*
X133559482Y-93978808D01*
X133559862Y-93976808D01*
X133560408Y-93974855D01*
X133560743Y-93973901D01*
X133561120Y-93972965D01*
X133561540Y-93972048D01*
X133562001Y-93971152D01*
X133562505Y-93970280D01*
X133563052Y-93969434D01*
X133799828Y-93624443D01*
X133800907Y-93622709D01*
X133801854Y-93620852D01*
X133802667Y-93618888D01*
X133803347Y-93616835D01*
X133803892Y-93614709D01*
X133804304Y-93612528D01*
X133804580Y-93610308D01*
X133804722Y-93608066D01*
X133804729Y-93605819D01*
X133804600Y-93603584D01*
X133804336Y-93601377D01*
X133803935Y-93599217D01*
X133803398Y-93597119D01*
X133802724Y-93595101D01*
X133801913Y-93593179D01*
X133800965Y-93591370D01*
X133719738Y-93439235D01*
X133719306Y-93438325D01*
X133718925Y-93437408D01*
X133718597Y-93436485D01*
X133718319Y-93435557D01*
X133718093Y-93434627D01*
X133717916Y-93433695D01*
X133717788Y-93432764D01*
X133717709Y-93431834D01*
X133717679Y-93430909D01*
X133717696Y-93429988D01*
X133717760Y-93429074D01*
X133717870Y-93428168D01*
X133718027Y-93427272D01*
X133718229Y-93426388D01*
X133718475Y-93425516D01*
X133718766Y-93424660D01*
X133719100Y-93423819D01*
X133719477Y-93422996D01*
X133719897Y-93422193D01*
X133720358Y-93421410D01*
X133720861Y-93420651D01*
X133721404Y-93419915D01*
X133721988Y-93419205D01*
X133722611Y-93418522D01*
X133723272Y-93417868D01*
X133723972Y-93417244D01*
X133724710Y-93416653D01*
X133725485Y-93416095D01*
X133726297Y-93415573D01*
X133727145Y-93415087D01*
X133728028Y-93414639D01*
X133728946Y-93414232D01*
X134486924Y-93100568D01*
X134487867Y-93100205D01*
X134488824Y-93099891D01*
X134489794Y-93099624D01*
X134490774Y-93099403D01*
X134491764Y-93099229D01*
X134492760Y-93099101D01*
X134493762Y-93099017D01*
X134494767Y-93098978D01*
X134495774Y-93098983D01*
X134496781Y-93099031D01*
X134497786Y-93099121D01*
X134498787Y-93099254D01*
X134499783Y-93099428D01*
X134500772Y-93099642D01*
X134501751Y-93099897D01*
X134502720Y-93100191D01*
X134503675Y-93100524D01*
X134504617Y-93100896D01*
X134505542Y-93101305D01*
X134506448Y-93101751D01*
X134507335Y-93102234D01*
X134508201Y-93102752D01*
X134509042Y-93103306D01*
X134509858Y-93103894D01*
X134510648Y-93104517D01*
X134511408Y-93105173D01*
X134512137Y-93105861D01*
X134512834Y-93106582D01*
X134513497Y-93107335D01*
X134514124Y-93108118D01*
X134514712Y-93108932D01*
X134515261Y-93109776D01*
X134538571Y-93147849D01*
X134540316Y-93150590D01*
X134542308Y-93153515D01*
X134544503Y-93156571D01*
X134546859Y-93159703D01*
X134549331Y-93162853D01*
X134551876Y-93165969D01*
X134554451Y-93168994D01*
X134557012Y-93171873D01*
X134574264Y-93197077D01*
X134592995Y-93221131D01*
X134613140Y-93243969D01*
X134634634Y-93265525D01*
X134657412Y-93285734D01*
X134681408Y-93304530D01*
X134706558Y-93321848D01*
X134732795Y-93337622D01*
X134760054Y-93351785D01*
X134788271Y-93364274D01*
X134817380Y-93375021D01*
X134847316Y-93383961D01*
X134878013Y-93391029D01*
X134909407Y-93396159D01*
X134941432Y-93399285D01*
X134974022Y-93400341D01*
X134999498Y-93399697D01*
X135024640Y-93397785D01*
X135049416Y-93394637D01*
X135073796Y-93390284D01*
X135097747Y-93384756D01*
X135121240Y-93378085D01*
X135144243Y-93370302D01*
X135166724Y-93361438D01*
X135188654Y-93351524D01*
X135210000Y-93340592D01*
X135230732Y-93328672D01*
X135250818Y-93315795D01*
X135270227Y-93301993D01*
X135288929Y-93287297D01*
X135306892Y-93271738D01*
X135324085Y-93255346D01*
X135340477Y-93238154D01*
X135356037Y-93220192D01*
X135370734Y-93201491D01*
X135384536Y-93182082D01*
X135397413Y-93161997D01*
X135409333Y-93141266D01*
X135420266Y-93119921D01*
X135430180Y-93097993D01*
X135439044Y-93075513D01*
X135446827Y-93052512D01*
X135453498Y-93029021D01*
X135459026Y-93005071D01*
X135463380Y-92980693D01*
X135466528Y-92955919D01*
X135468440Y-92930780D01*
X135469084Y-92905306D01*
X135468440Y-92879832D01*
X135466528Y-92854692D01*
X135463380Y-92829918D01*
X135459026Y-92805540D01*
X135453498Y-92781589D01*
X135446827Y-92758097D01*
X135439044Y-92735095D01*
X135430180Y-92712614D01*
X135420266Y-92690685D01*
X135409333Y-92669339D01*
X135397413Y-92648608D01*
X135384536Y-92628521D01*
X135370734Y-92609111D01*
X135356037Y-92590409D01*
X135340477Y-92572446D01*
X135324085Y-92555252D01*
X135306892Y-92538859D01*
X135288929Y-92523299D01*
X135270227Y-92508601D01*
X135250818Y-92494798D01*
X135230732Y-92481921D01*
X135210000Y-92470000D01*
X135188654Y-92459066D01*
X135166724Y-92449151D01*
X135144243Y-92440287D01*
X135121240Y-92432503D01*
X135097747Y-92425831D01*
X135073796Y-92420303D01*
X135049416Y-92415949D01*
X135024640Y-92412800D01*
X134999498Y-92410888D01*
X134974022Y-92410244D01*
X134957660Y-92410510D01*
X134941432Y-92411301D01*
X134925344Y-92412610D01*
X134909407Y-92414428D01*
X134893627Y-92416747D01*
X134878013Y-92419559D01*
X134862574Y-92422855D01*
X134847316Y-92426628D01*
X134832249Y-92430869D01*
X134817380Y-92435570D01*
X134802718Y-92440722D01*
X134788271Y-92446318D01*
X134774047Y-92452350D01*
X134760054Y-92458808D01*
X134732795Y-92472973D01*
X134706557Y-92488748D01*
X134681408Y-92506066D01*
X134657412Y-92524863D01*
X134634634Y-92545071D01*
X134613140Y-92566626D01*
X134592995Y-92589462D01*
X134574264Y-92613512D01*
X134557012Y-92638712D01*
X134554451Y-92641607D01*
X134551876Y-92644643D01*
X134549331Y-92647765D01*
X134546859Y-92650919D01*
X134544503Y-92654052D01*
X134542308Y-92657111D01*
X134540316Y-92660041D01*
X134538571Y-92662789D01*
X134515261Y-92700862D01*
X134514712Y-92701711D01*
X134514124Y-92702529D01*
X134513497Y-92703316D01*
X134512834Y-92704072D01*
X134512137Y-92704796D01*
X134511408Y-92705487D01*
X134509858Y-92706770D01*
X134508201Y-92707915D01*
X134506448Y-92708917D01*
X134504617Y-92709773D01*
X134502720Y-92710477D01*
X134500772Y-92711024D01*
X134498787Y-92711410D01*
X134496781Y-92711630D01*
X134494767Y-92711679D01*
X134492760Y-92711552D01*
X134491764Y-92711421D01*
X134490774Y-92711245D01*
X134489794Y-92711022D01*
X134488824Y-92710752D01*
X134487867Y-92710435D01*
X134486924Y-92710070D01*
X133728972Y-92396380D01*
X133728054Y-92395973D01*
X133727171Y-92395525D01*
X133726323Y-92395039D01*
X133725511Y-92394516D01*
X133724735Y-92393957D01*
X133723996Y-92393365D01*
X133723296Y-92392741D01*
X133722633Y-92392086D01*
X133722009Y-92391403D01*
X133721425Y-92390692D01*
X133720881Y-92389955D01*
X133720378Y-92389195D01*
X133719915Y-92388411D01*
X133719495Y-92387607D01*
X133719117Y-92386784D01*
X133718782Y-92385942D01*
X133718491Y-92385085D01*
X133718244Y-92384213D01*
X133718042Y-92383328D01*
X133717885Y-92382432D01*
X133717774Y-92381526D01*
X133717710Y-92380612D01*
X133717693Y-92379692D01*
X133717724Y-92378766D01*
X133717804Y-92377837D01*
X133717932Y-92376907D01*
X133718110Y-92375976D01*
X133718338Y-92375047D01*
X133718617Y-92374121D01*
X133718947Y-92373200D01*
X133719330Y-92372284D01*
X133719764Y-92371377D01*
X133800992Y-92219242D01*
X133801939Y-92217437D01*
X133802749Y-92215519D01*
X133803422Y-92213503D01*
X133803958Y-92211406D01*
X133804357Y-92209246D01*
X133804620Y-92207040D01*
X133804747Y-92204804D01*
X133804739Y-92202556D01*
X133804596Y-92200313D01*
X133804318Y-92198091D01*
X133803907Y-92195908D01*
X133803362Y-92193781D01*
X133802683Y-92191726D01*
X133801872Y-92189761D01*
X133800929Y-92187903D01*
X133799854Y-92186169D01*
X133563078Y-91841205D01*
X133562532Y-91840356D01*
X133562028Y-91839482D01*
X133561566Y-91838584D01*
X133561147Y-91837666D01*
X133560769Y-91836728D01*
X133560434Y-91835773D01*
X133560140Y-91834803D01*
X133559888Y-91833818D01*
X133559678Y-91832823D01*
X133559508Y-91831818D01*
X133559293Y-91829786D01*
X133559239Y-91827738D01*
X133559348Y-91825690D01*
X133559616Y-91823658D01*
X133560043Y-91821656D01*
X133560627Y-91819700D01*
X133560977Y-91818744D01*
X133561367Y-91817805D01*
X133561795Y-91816886D01*
X133562261Y-91815988D01*
X133562766Y-91815112D01*
X133563308Y-91814262D01*
X133563889Y-91813438D01*
X133564507Y-91812644D01*
X133565163Y-91811880D01*
X133565856Y-91811148D01*
X133882378Y-91494574D01*
X133883111Y-91493879D01*
X133883878Y-91493220D01*
X133884675Y-91492600D01*
X133885501Y-91492018D01*
X133886354Y-91491473D01*
X133887231Y-91490967D01*
X133889054Y-91490070D01*
X133890952Y-91489328D01*
X133892912Y-91488742D01*
X133894917Y-91488314D01*
X133896953Y-91488046D01*
X133899003Y-91487938D01*
X133901052Y-91487992D01*
X133903084Y-91488209D01*
X133905085Y-91488591D01*
X133907038Y-91489140D01*
X133907993Y-91489477D01*
X133908929Y-91489856D01*
X133909846Y-91490277D01*
X133910742Y-91490741D01*
X133911614Y-91491247D01*
X133912461Y-91491796D01*
X134263642Y-91732779D01*
X134265380Y-91733870D01*
X134267248Y-91734843D01*
X134269229Y-91735696D01*
X134271306Y-91736427D01*
X134273462Y-91737036D01*
X134275679Y-91737520D01*
X134277940Y-91737880D01*
X134280228Y-91738113D01*
X134282526Y-91738219D01*
X134284816Y-91738197D01*
X134287081Y-91738044D01*
X134289304Y-91737761D01*
X134291467Y-91737345D01*
X134293554Y-91736796D01*
X134295547Y-91736112D01*
X134297429Y-91735292D01*
X134628291Y-91602842D01*
X134629255Y-91602516D01*
X134630216Y-91602143D01*
X134632125Y-91601268D01*
X134634006Y-91600228D01*
X134635846Y-91599036D01*
X134637636Y-91597706D01*
X134639362Y-91596251D01*
X134641013Y-91594683D01*
X134642578Y-91593016D01*
X134644045Y-91591262D01*
X134645403Y-91589435D01*
X134646639Y-91587547D01*
X134647743Y-91585611D01*
X134648702Y-91583641D01*
X134649504Y-91581649D01*
X134650139Y-91579649D01*
X134650390Y-91578650D01*
X134650595Y-91577653D01*
X134729547Y-91153394D01*
X134729753Y-91152405D01*
X134730007Y-91151429D01*
X134730309Y-91150467D01*
X134730657Y-91149519D01*
X134731049Y-91148588D01*
X134731483Y-91147674D01*
X134731958Y-91146779D01*
X134732473Y-91145904D01*
X134733027Y-91145050D01*
X134733616Y-91144219D01*
X134734900Y-91142629D01*
X134736311Y-91141143D01*
X134737838Y-91139771D01*
X134739470Y-91138524D01*
X134741192Y-91137411D01*
X134742995Y-91136443D01*
X134744865Y-91135628D01*
X134745822Y-91135281D01*
X134746790Y-91134977D01*
X134747770Y-91134716D01*
X134748759Y-91134500D01*
X134749756Y-91134329D01*
X134750759Y-91134206D01*
X134751766Y-91134131D01*
X134752777Y-91134106D01*
X135200426Y-91134079D01*
X135201437Y-91134105D01*
G37*
D11*
X108328333Y-90905427D02*
X108044999Y-90500665D01*
X107842618Y-90905427D02*
X107842618Y-90055427D01*
X107842618Y-90055427D02*
X108166428Y-90055427D01*
X108166428Y-90055427D02*
X108247380Y-90095903D01*
X108247380Y-90095903D02*
X108287857Y-90136379D01*
X108287857Y-90136379D02*
X108328333Y-90217331D01*
X108328333Y-90217331D02*
X108328333Y-90338760D01*
X108328333Y-90338760D02*
X108287857Y-90419712D01*
X108287857Y-90419712D02*
X108247380Y-90460189D01*
X108247380Y-90460189D02*
X108166428Y-90500665D01*
X108166428Y-90500665D02*
X107842618Y-90500665D01*
X108611666Y-90055427D02*
X109178333Y-90905427D01*
X109178333Y-90055427D02*
X108611666Y-90905427D01*
D12*
X122280625Y-116941695D02*
X122280625Y-117513123D01*
X122280625Y-117513123D02*
X122242530Y-117627409D01*
X122242530Y-117627409D02*
X122166339Y-117703600D01*
X122166339Y-117703600D02*
X122052054Y-117741695D01*
X122052054Y-117741695D02*
X121975863Y-117741695D01*
X123004435Y-117741695D02*
X123004435Y-117322647D01*
X123004435Y-117322647D02*
X122966340Y-117246457D01*
X122966340Y-117246457D02*
X122890149Y-117208361D01*
X122890149Y-117208361D02*
X122737768Y-117208361D01*
X122737768Y-117208361D02*
X122661578Y-117246457D01*
X123004435Y-117703600D02*
X122928244Y-117741695D01*
X122928244Y-117741695D02*
X122737768Y-117741695D01*
X122737768Y-117741695D02*
X122661578Y-117703600D01*
X122661578Y-117703600D02*
X122623482Y-117627409D01*
X122623482Y-117627409D02*
X122623482Y-117551219D01*
X122623482Y-117551219D02*
X122661578Y-117475028D01*
X122661578Y-117475028D02*
X122737768Y-117436933D01*
X122737768Y-117436933D02*
X122928244Y-117436933D01*
X122928244Y-117436933D02*
X123004435Y-117398838D01*
X123347292Y-117703600D02*
X123423483Y-117741695D01*
X123423483Y-117741695D02*
X123575864Y-117741695D01*
X123575864Y-117741695D02*
X123652054Y-117703600D01*
X123652054Y-117703600D02*
X123690150Y-117627409D01*
X123690150Y-117627409D02*
X123690150Y-117589314D01*
X123690150Y-117589314D02*
X123652054Y-117513123D01*
X123652054Y-117513123D02*
X123575864Y-117475028D01*
X123575864Y-117475028D02*
X123461578Y-117475028D01*
X123461578Y-117475028D02*
X123385388Y-117436933D01*
X123385388Y-117436933D02*
X123347292Y-117360742D01*
X123347292Y-117360742D02*
X123347292Y-117322647D01*
X123347292Y-117322647D02*
X123385388Y-117246457D01*
X123385388Y-117246457D02*
X123461578Y-117208361D01*
X123461578Y-117208361D02*
X123575864Y-117208361D01*
X123575864Y-117208361D02*
X123652054Y-117246457D01*
X124147292Y-117741695D02*
X124071102Y-117703600D01*
X124071102Y-117703600D02*
X124033007Y-117665504D01*
X124033007Y-117665504D02*
X123994911Y-117589314D01*
X123994911Y-117589314D02*
X123994911Y-117360742D01*
X123994911Y-117360742D02*
X124033007Y-117284552D01*
X124033007Y-117284552D02*
X124071102Y-117246457D01*
X124071102Y-117246457D02*
X124147292Y-117208361D01*
X124147292Y-117208361D02*
X124261578Y-117208361D01*
X124261578Y-117208361D02*
X124337769Y-117246457D01*
X124337769Y-117246457D02*
X124375864Y-117284552D01*
X124375864Y-117284552D02*
X124413959Y-117360742D01*
X124413959Y-117360742D02*
X124413959Y-117589314D01*
X124413959Y-117589314D02*
X124375864Y-117665504D01*
X124375864Y-117665504D02*
X124337769Y-117703600D01*
X124337769Y-117703600D02*
X124261578Y-117741695D01*
X124261578Y-117741695D02*
X124147292Y-117741695D01*
X124756817Y-117208361D02*
X124756817Y-117741695D01*
X124756817Y-117284552D02*
X124794912Y-117246457D01*
X124794912Y-117246457D02*
X124871102Y-117208361D01*
X124871102Y-117208361D02*
X124985388Y-117208361D01*
X124985388Y-117208361D02*
X125061579Y-117246457D01*
X125061579Y-117246457D02*
X125099674Y-117322647D01*
X125099674Y-117322647D02*
X125099674Y-117741695D01*
X126052055Y-117513123D02*
X126433008Y-117513123D01*
X125975865Y-117741695D02*
X126242532Y-116941695D01*
X126242532Y-116941695D02*
X126509198Y-117741695D01*
X126890150Y-117741695D02*
X126813960Y-117703600D01*
X126813960Y-117703600D02*
X126775865Y-117627409D01*
X126775865Y-117627409D02*
X126775865Y-116941695D01*
X127499675Y-117703600D02*
X127423484Y-117741695D01*
X127423484Y-117741695D02*
X127271103Y-117741695D01*
X127271103Y-117741695D02*
X127194913Y-117703600D01*
X127194913Y-117703600D02*
X127156817Y-117627409D01*
X127156817Y-117627409D02*
X127156817Y-117322647D01*
X127156817Y-117322647D02*
X127194913Y-117246457D01*
X127194913Y-117246457D02*
X127271103Y-117208361D01*
X127271103Y-117208361D02*
X127423484Y-117208361D01*
X127423484Y-117208361D02*
X127499675Y-117246457D01*
X127499675Y-117246457D02*
X127537770Y-117322647D01*
X127537770Y-117322647D02*
X127537770Y-117398838D01*
X127537770Y-117398838D02*
X127156817Y-117475028D01*
X127804436Y-117741695D02*
X128223484Y-117208361D01*
X127804436Y-117208361D02*
X128223484Y-117741695D01*
X128871103Y-117741695D02*
X128871103Y-117322647D01*
X128871103Y-117322647D02*
X128833008Y-117246457D01*
X128833008Y-117246457D02*
X128756817Y-117208361D01*
X128756817Y-117208361D02*
X128604436Y-117208361D01*
X128604436Y-117208361D02*
X128528246Y-117246457D01*
X128871103Y-117703600D02*
X128794912Y-117741695D01*
X128794912Y-117741695D02*
X128604436Y-117741695D01*
X128604436Y-117741695D02*
X128528246Y-117703600D01*
X128528246Y-117703600D02*
X128490150Y-117627409D01*
X128490150Y-117627409D02*
X128490150Y-117551219D01*
X128490150Y-117551219D02*
X128528246Y-117475028D01*
X128528246Y-117475028D02*
X128604436Y-117436933D01*
X128604436Y-117436933D02*
X128794912Y-117436933D01*
X128794912Y-117436933D02*
X128871103Y-117398838D01*
X129252056Y-117208361D02*
X129252056Y-117741695D01*
X129252056Y-117284552D02*
X129290151Y-117246457D01*
X129290151Y-117246457D02*
X129366341Y-117208361D01*
X129366341Y-117208361D02*
X129480627Y-117208361D01*
X129480627Y-117208361D02*
X129556818Y-117246457D01*
X129556818Y-117246457D02*
X129594913Y-117322647D01*
X129594913Y-117322647D02*
X129594913Y-117741695D01*
X130318723Y-117741695D02*
X130318723Y-116941695D01*
X130318723Y-117703600D02*
X130242532Y-117741695D01*
X130242532Y-117741695D02*
X130090151Y-117741695D01*
X130090151Y-117741695D02*
X130013961Y-117703600D01*
X130013961Y-117703600D02*
X129975866Y-117665504D01*
X129975866Y-117665504D02*
X129937770Y-117589314D01*
X129937770Y-117589314D02*
X129937770Y-117360742D01*
X129937770Y-117360742D02*
X129975866Y-117284552D01*
X129975866Y-117284552D02*
X130013961Y-117246457D01*
X130013961Y-117246457D02*
X130090151Y-117208361D01*
X130090151Y-117208361D02*
X130242532Y-117208361D01*
X130242532Y-117208361D02*
X130318723Y-117246457D01*
X131004438Y-117703600D02*
X130928247Y-117741695D01*
X130928247Y-117741695D02*
X130775866Y-117741695D01*
X130775866Y-117741695D02*
X130699676Y-117703600D01*
X130699676Y-117703600D02*
X130661580Y-117627409D01*
X130661580Y-117627409D02*
X130661580Y-117322647D01*
X130661580Y-117322647D02*
X130699676Y-117246457D01*
X130699676Y-117246457D02*
X130775866Y-117208361D01*
X130775866Y-117208361D02*
X130928247Y-117208361D01*
X130928247Y-117208361D02*
X131004438Y-117246457D01*
X131004438Y-117246457D02*
X131042533Y-117322647D01*
X131042533Y-117322647D02*
X131042533Y-117398838D01*
X131042533Y-117398838D02*
X130661580Y-117475028D01*
X131385390Y-117741695D02*
X131385390Y-117208361D01*
X131385390Y-117360742D02*
X131423485Y-117284552D01*
X131423485Y-117284552D02*
X131461580Y-117246457D01*
X131461580Y-117246457D02*
X131537771Y-117208361D01*
X131537771Y-117208361D02*
X131613961Y-117208361D01*
X132452056Y-117017885D02*
X132490152Y-116979790D01*
X132490152Y-116979790D02*
X132566342Y-116941695D01*
X132566342Y-116941695D02*
X132756818Y-116941695D01*
X132756818Y-116941695D02*
X132833009Y-116979790D01*
X132833009Y-116979790D02*
X132871104Y-117017885D01*
X132871104Y-117017885D02*
X132909199Y-117094076D01*
X132909199Y-117094076D02*
X132909199Y-117170266D01*
X132909199Y-117170266D02*
X132871104Y-117284552D01*
X132871104Y-117284552D02*
X132413961Y-117741695D01*
X132413961Y-117741695D02*
X132909199Y-117741695D01*
X133404438Y-116941695D02*
X133480628Y-116941695D01*
X133480628Y-116941695D02*
X133556819Y-116979790D01*
X133556819Y-116979790D02*
X133594914Y-117017885D01*
X133594914Y-117017885D02*
X133633009Y-117094076D01*
X133633009Y-117094076D02*
X133671104Y-117246457D01*
X133671104Y-117246457D02*
X133671104Y-117436933D01*
X133671104Y-117436933D02*
X133633009Y-117589314D01*
X133633009Y-117589314D02*
X133594914Y-117665504D01*
X133594914Y-117665504D02*
X133556819Y-117703600D01*
X133556819Y-117703600D02*
X133480628Y-117741695D01*
X133480628Y-117741695D02*
X133404438Y-117741695D01*
X133404438Y-117741695D02*
X133328247Y-117703600D01*
X133328247Y-117703600D02*
X133290152Y-117665504D01*
X133290152Y-117665504D02*
X133252057Y-117589314D01*
X133252057Y-117589314D02*
X133213961Y-117436933D01*
X133213961Y-117436933D02*
X133213961Y-117246457D01*
X133213961Y-117246457D02*
X133252057Y-117094076D01*
X133252057Y-117094076D02*
X133290152Y-117017885D01*
X133290152Y-117017885D02*
X133328247Y-116979790D01*
X133328247Y-116979790D02*
X133404438Y-116941695D01*
X133975866Y-117017885D02*
X134013962Y-116979790D01*
X134013962Y-116979790D02*
X134090152Y-116941695D01*
X134090152Y-116941695D02*
X134280628Y-116941695D01*
X134280628Y-116941695D02*
X134356819Y-116979790D01*
X134356819Y-116979790D02*
X134394914Y-117017885D01*
X134394914Y-117017885D02*
X134433009Y-117094076D01*
X134433009Y-117094076D02*
X134433009Y-117170266D01*
X134433009Y-117170266D02*
X134394914Y-117284552D01*
X134394914Y-117284552D02*
X133937771Y-117741695D01*
X133937771Y-117741695D02*
X134433009Y-117741695D01*
X135156819Y-116941695D02*
X134775867Y-116941695D01*
X134775867Y-116941695D02*
X134737771Y-117322647D01*
X134737771Y-117322647D02*
X134775867Y-117284552D01*
X134775867Y-117284552D02*
X134852057Y-117246457D01*
X134852057Y-117246457D02*
X135042533Y-117246457D01*
X135042533Y-117246457D02*
X135118724Y-117284552D01*
X135118724Y-117284552D02*
X135156819Y-117322647D01*
X135156819Y-117322647D02*
X135194914Y-117398838D01*
X135194914Y-117398838D02*
X135194914Y-117589314D01*
X135194914Y-117589314D02*
X135156819Y-117665504D01*
X135156819Y-117665504D02*
X135118724Y-117703600D01*
X135118724Y-117703600D02*
X135042533Y-117741695D01*
X135042533Y-117741695D02*
X134852057Y-117741695D01*
X134852057Y-117741695D02*
X134775867Y-117703600D01*
X134775867Y-117703600D02*
X134737771Y-117665504D01*
D11*
X112992381Y-90095903D02*
X112911428Y-90055427D01*
X112911428Y-90055427D02*
X112790000Y-90055427D01*
X112790000Y-90055427D02*
X112668571Y-90095903D01*
X112668571Y-90095903D02*
X112587619Y-90176855D01*
X112587619Y-90176855D02*
X112547142Y-90257808D01*
X112547142Y-90257808D02*
X112506666Y-90419712D01*
X112506666Y-90419712D02*
X112506666Y-90541141D01*
X112506666Y-90541141D02*
X112547142Y-90703046D01*
X112547142Y-90703046D02*
X112587619Y-90783998D01*
X112587619Y-90783998D02*
X112668571Y-90864951D01*
X112668571Y-90864951D02*
X112790000Y-90905427D01*
X112790000Y-90905427D02*
X112870952Y-90905427D01*
X112870952Y-90905427D02*
X112992381Y-90864951D01*
X112992381Y-90864951D02*
X113032857Y-90824474D01*
X113032857Y-90824474D02*
X113032857Y-90541141D01*
X113032857Y-90541141D02*
X112870952Y-90541141D01*
X113397142Y-90905427D02*
X113397142Y-90055427D01*
X113397142Y-90055427D02*
X113882857Y-90905427D01*
X113882857Y-90905427D02*
X113882857Y-90055427D01*
X114287618Y-90905427D02*
X114287618Y-90055427D01*
X114287618Y-90055427D02*
X114489999Y-90055427D01*
X114489999Y-90055427D02*
X114611428Y-90095903D01*
X114611428Y-90095903D02*
X114692380Y-90176855D01*
X114692380Y-90176855D02*
X114732857Y-90257808D01*
X114732857Y-90257808D02*
X114773333Y-90419712D01*
X114773333Y-90419712D02*
X114773333Y-90541141D01*
X114773333Y-90541141D02*
X114732857Y-90703046D01*
X114732857Y-90703046D02*
X114692380Y-90783998D01*
X114692380Y-90783998D02*
X114611428Y-90864951D01*
X114611428Y-90864951D02*
X114489999Y-90905427D01*
X114489999Y-90905427D02*
X114287618Y-90905427D01*
D13*
X116083082Y-92717542D02*
X116083082Y-91517542D01*
X116083082Y-91517542D02*
X116368796Y-91517542D01*
X116368796Y-91517542D02*
X116540225Y-91574685D01*
X116540225Y-91574685D02*
X116654510Y-91688971D01*
X116654510Y-91688971D02*
X116711653Y-91803257D01*
X116711653Y-91803257D02*
X116768796Y-92031828D01*
X116768796Y-92031828D02*
X116768796Y-92203257D01*
X116768796Y-92203257D02*
X116711653Y-92431828D01*
X116711653Y-92431828D02*
X116654510Y-92546114D01*
X116654510Y-92546114D02*
X116540225Y-92660400D01*
X116540225Y-92660400D02*
X116368796Y-92717542D01*
X116368796Y-92717542D02*
X116083082Y-92717542D01*
X117283082Y-92088971D02*
X117683082Y-92088971D01*
X117854510Y-92717542D02*
X117283082Y-92717542D01*
X117283082Y-92717542D02*
X117283082Y-91517542D01*
X117283082Y-91517542D02*
X117854510Y-91517542D01*
X119054510Y-92603257D02*
X118997367Y-92660400D01*
X118997367Y-92660400D02*
X118825939Y-92717542D01*
X118825939Y-92717542D02*
X118711653Y-92717542D01*
X118711653Y-92717542D02*
X118540224Y-92660400D01*
X118540224Y-92660400D02*
X118425939Y-92546114D01*
X118425939Y-92546114D02*
X118368796Y-92431828D01*
X118368796Y-92431828D02*
X118311653Y-92203257D01*
X118311653Y-92203257D02*
X118311653Y-92031828D01*
X118311653Y-92031828D02*
X118368796Y-91803257D01*
X118368796Y-91803257D02*
X118425939Y-91688971D01*
X118425939Y-91688971D02*
X118540224Y-91574685D01*
X118540224Y-91574685D02*
X118711653Y-91517542D01*
X118711653Y-91517542D02*
X118825939Y-91517542D01*
X118825939Y-91517542D02*
X118997367Y-91574685D01*
X118997367Y-91574685D02*
X119054510Y-91631828D01*
X119397367Y-91517542D02*
X120083082Y-91517542D01*
X119740224Y-92717542D02*
X119740224Y-91517542D01*
X120425939Y-92660400D02*
X120540225Y-92717542D01*
X120540225Y-92717542D02*
X120768796Y-92717542D01*
X120768796Y-92717542D02*
X120883082Y-92660400D01*
X120883082Y-92660400D02*
X120940225Y-92546114D01*
X120940225Y-92546114D02*
X120940225Y-92488971D01*
X120940225Y-92488971D02*
X120883082Y-92374685D01*
X120883082Y-92374685D02*
X120768796Y-92317542D01*
X120768796Y-92317542D02*
X120597368Y-92317542D01*
X120597368Y-92317542D02*
X120483082Y-92260400D01*
X120483082Y-92260400D02*
X120425939Y-92146114D01*
X120425939Y-92146114D02*
X120425939Y-92088971D01*
X120425939Y-92088971D02*
X120483082Y-91974685D01*
X120483082Y-91974685D02*
X120597368Y-91917542D01*
X120597368Y-91917542D02*
X120768796Y-91917542D01*
X120768796Y-91917542D02*
X120883082Y-91974685D01*
X121454511Y-91917542D02*
X121454511Y-93117542D01*
X121454511Y-91974685D02*
X121568797Y-91917542D01*
X121568797Y-91917542D02*
X121797368Y-91917542D01*
X121797368Y-91917542D02*
X121911654Y-91974685D01*
X121911654Y-91974685D02*
X121968797Y-92031828D01*
X121968797Y-92031828D02*
X122025939Y-92146114D01*
X122025939Y-92146114D02*
X122025939Y-92488971D01*
X122025939Y-92488971D02*
X121968797Y-92603257D01*
X121968797Y-92603257D02*
X121911654Y-92660400D01*
X121911654Y-92660400D02*
X121797368Y-92717542D01*
X121797368Y-92717542D02*
X121568797Y-92717542D01*
X121568797Y-92717542D02*
X121454511Y-92660400D01*
X123054511Y-92717542D02*
X123054511Y-92088971D01*
X123054511Y-92088971D02*
X122997368Y-91974685D01*
X122997368Y-91974685D02*
X122883082Y-91917542D01*
X122883082Y-91917542D02*
X122654511Y-91917542D01*
X122654511Y-91917542D02*
X122540225Y-91974685D01*
X123054511Y-92660400D02*
X122940225Y-92717542D01*
X122940225Y-92717542D02*
X122654511Y-92717542D01*
X122654511Y-92717542D02*
X122540225Y-92660400D01*
X122540225Y-92660400D02*
X122483082Y-92546114D01*
X122483082Y-92546114D02*
X122483082Y-92431828D01*
X122483082Y-92431828D02*
X122540225Y-92317542D01*
X122540225Y-92317542D02*
X122654511Y-92260400D01*
X122654511Y-92260400D02*
X122940225Y-92260400D01*
X122940225Y-92260400D02*
X123054511Y-92203257D01*
X123625939Y-91917542D02*
X123625939Y-92717542D01*
X123625939Y-92031828D02*
X123683082Y-91974685D01*
X123683082Y-91974685D02*
X123797367Y-91917542D01*
X123797367Y-91917542D02*
X123968796Y-91917542D01*
X123968796Y-91917542D02*
X124083082Y-91974685D01*
X124083082Y-91974685D02*
X124140225Y-92088971D01*
X124140225Y-92088971D02*
X124140225Y-92717542D01*
X124654510Y-92660400D02*
X124768796Y-92717542D01*
X124768796Y-92717542D02*
X124997367Y-92717542D01*
X124997367Y-92717542D02*
X125111653Y-92660400D01*
X125111653Y-92660400D02*
X125168796Y-92546114D01*
X125168796Y-92546114D02*
X125168796Y-92488971D01*
X125168796Y-92488971D02*
X125111653Y-92374685D01*
X125111653Y-92374685D02*
X124997367Y-92317542D01*
X124997367Y-92317542D02*
X124825939Y-92317542D01*
X124825939Y-92317542D02*
X124711653Y-92260400D01*
X124711653Y-92260400D02*
X124654510Y-92146114D01*
X124654510Y-92146114D02*
X124654510Y-92088971D01*
X124654510Y-92088971D02*
X124711653Y-91974685D01*
X124711653Y-91974685D02*
X124825939Y-91917542D01*
X124825939Y-91917542D02*
X124997367Y-91917542D01*
X124997367Y-91917542D02*
X125111653Y-91974685D01*
X125683082Y-92717542D02*
X125683082Y-91917542D01*
X125683082Y-91517542D02*
X125625939Y-91574685D01*
X125625939Y-91574685D02*
X125683082Y-91631828D01*
X125683082Y-91631828D02*
X125740225Y-91574685D01*
X125740225Y-91574685D02*
X125683082Y-91517542D01*
X125683082Y-91517542D02*
X125683082Y-91631828D01*
X126425939Y-92717542D02*
X126311654Y-92660400D01*
X126311654Y-92660400D02*
X126254511Y-92603257D01*
X126254511Y-92603257D02*
X126197368Y-92488971D01*
X126197368Y-92488971D02*
X126197368Y-92146114D01*
X126197368Y-92146114D02*
X126254511Y-92031828D01*
X126254511Y-92031828D02*
X126311654Y-91974685D01*
X126311654Y-91974685D02*
X126425939Y-91917542D01*
X126425939Y-91917542D02*
X126597368Y-91917542D01*
X126597368Y-91917542D02*
X126711654Y-91974685D01*
X126711654Y-91974685D02*
X126768797Y-92031828D01*
X126768797Y-92031828D02*
X126825939Y-92146114D01*
X126825939Y-92146114D02*
X126825939Y-92488971D01*
X126825939Y-92488971D02*
X126768797Y-92603257D01*
X126768797Y-92603257D02*
X126711654Y-92660400D01*
X126711654Y-92660400D02*
X126597368Y-92717542D01*
X126597368Y-92717542D02*
X126425939Y-92717542D01*
X127340225Y-91917542D02*
X127340225Y-92717542D01*
X127340225Y-92031828D02*
X127397368Y-91974685D01*
X127397368Y-91974685D02*
X127511653Y-91917542D01*
X127511653Y-91917542D02*
X127683082Y-91917542D01*
X127683082Y-91917542D02*
X127797368Y-91974685D01*
X127797368Y-91974685D02*
X127854511Y-92088971D01*
X127854511Y-92088971D02*
X127854511Y-92717542D01*
D11*
X115644367Y-113568935D02*
X115644367Y-112921316D01*
X115968177Y-113245125D02*
X115320558Y-113245125D01*
D12*
X121092054Y-94391695D02*
X121092054Y-93591695D01*
X121092054Y-93591695D02*
X121396816Y-93591695D01*
X121396816Y-93591695D02*
X121473006Y-93629790D01*
X121473006Y-93629790D02*
X121511101Y-93667885D01*
X121511101Y-93667885D02*
X121549197Y-93744076D01*
X121549197Y-93744076D02*
X121549197Y-93858361D01*
X121549197Y-93858361D02*
X121511101Y-93934552D01*
X121511101Y-93934552D02*
X121473006Y-93972647D01*
X121473006Y-93972647D02*
X121396816Y-94010742D01*
X121396816Y-94010742D02*
X121092054Y-94010742D01*
X121892054Y-94391695D02*
X121892054Y-93858361D01*
X121892054Y-94010742D02*
X121930149Y-93934552D01*
X121930149Y-93934552D02*
X121968244Y-93896457D01*
X121968244Y-93896457D02*
X122044435Y-93858361D01*
X122044435Y-93858361D02*
X122120625Y-93858361D01*
X122501577Y-94391695D02*
X122425387Y-94353600D01*
X122425387Y-94353600D02*
X122387292Y-94315504D01*
X122387292Y-94315504D02*
X122349196Y-94239314D01*
X122349196Y-94239314D02*
X122349196Y-94010742D01*
X122349196Y-94010742D02*
X122387292Y-93934552D01*
X122387292Y-93934552D02*
X122425387Y-93896457D01*
X122425387Y-93896457D02*
X122501577Y-93858361D01*
X122501577Y-93858361D02*
X122615863Y-93858361D01*
X122615863Y-93858361D02*
X122692054Y-93896457D01*
X122692054Y-93896457D02*
X122730149Y-93934552D01*
X122730149Y-93934552D02*
X122768244Y-94010742D01*
X122768244Y-94010742D02*
X122768244Y-94239314D01*
X122768244Y-94239314D02*
X122730149Y-94315504D01*
X122730149Y-94315504D02*
X122692054Y-94353600D01*
X122692054Y-94353600D02*
X122615863Y-94391695D01*
X122615863Y-94391695D02*
X122501577Y-94391695D01*
X122996816Y-93858361D02*
X123301578Y-93858361D01*
X123111102Y-93591695D02*
X123111102Y-94277409D01*
X123111102Y-94277409D02*
X123149197Y-94353600D01*
X123149197Y-94353600D02*
X123225387Y-94391695D01*
X123225387Y-94391695D02*
X123301578Y-94391695D01*
X123682530Y-94391695D02*
X123606340Y-94353600D01*
X123606340Y-94353600D02*
X123568245Y-94315504D01*
X123568245Y-94315504D02*
X123530149Y-94239314D01*
X123530149Y-94239314D02*
X123530149Y-94010742D01*
X123530149Y-94010742D02*
X123568245Y-93934552D01*
X123568245Y-93934552D02*
X123606340Y-93896457D01*
X123606340Y-93896457D02*
X123682530Y-93858361D01*
X123682530Y-93858361D02*
X123796816Y-93858361D01*
X123796816Y-93858361D02*
X123873007Y-93896457D01*
X123873007Y-93896457D02*
X123911102Y-93934552D01*
X123911102Y-93934552D02*
X123949197Y-94010742D01*
X123949197Y-94010742D02*
X123949197Y-94239314D01*
X123949197Y-94239314D02*
X123911102Y-94315504D01*
X123911102Y-94315504D02*
X123873007Y-94353600D01*
X123873007Y-94353600D02*
X123796816Y-94391695D01*
X123796816Y-94391695D02*
X123682530Y-94391695D01*
X124177769Y-93858361D02*
X124482531Y-93858361D01*
X124292055Y-93591695D02*
X124292055Y-94277409D01*
X124292055Y-94277409D02*
X124330150Y-94353600D01*
X124330150Y-94353600D02*
X124406340Y-94391695D01*
X124406340Y-94391695D02*
X124482531Y-94391695D01*
X124673007Y-93858361D02*
X124863483Y-94391695D01*
X125053960Y-93858361D02*
X124863483Y-94391695D01*
X124863483Y-94391695D02*
X124787293Y-94582171D01*
X124787293Y-94582171D02*
X124749198Y-94620266D01*
X124749198Y-94620266D02*
X124673007Y-94658361D01*
X125358722Y-93858361D02*
X125358722Y-94658361D01*
X125358722Y-93896457D02*
X125434912Y-93858361D01*
X125434912Y-93858361D02*
X125587293Y-93858361D01*
X125587293Y-93858361D02*
X125663484Y-93896457D01*
X125663484Y-93896457D02*
X125701579Y-93934552D01*
X125701579Y-93934552D02*
X125739674Y-94010742D01*
X125739674Y-94010742D02*
X125739674Y-94239314D01*
X125739674Y-94239314D02*
X125701579Y-94315504D01*
X125701579Y-94315504D02*
X125663484Y-94353600D01*
X125663484Y-94353600D02*
X125587293Y-94391695D01*
X125587293Y-94391695D02*
X125434912Y-94391695D01*
X125434912Y-94391695D02*
X125358722Y-94353600D01*
X126387294Y-94353600D02*
X126311103Y-94391695D01*
X126311103Y-94391695D02*
X126158722Y-94391695D01*
X126158722Y-94391695D02*
X126082532Y-94353600D01*
X126082532Y-94353600D02*
X126044436Y-94277409D01*
X126044436Y-94277409D02*
X126044436Y-93972647D01*
X126044436Y-93972647D02*
X126082532Y-93896457D01*
X126082532Y-93896457D02*
X126158722Y-93858361D01*
X126158722Y-93858361D02*
X126311103Y-93858361D01*
X126311103Y-93858361D02*
X126387294Y-93896457D01*
X126387294Y-93896457D02*
X126425389Y-93972647D01*
X126425389Y-93972647D02*
X126425389Y-94048838D01*
X126425389Y-94048838D02*
X126044436Y-94125028D01*
X127796817Y-94391695D02*
X127339674Y-94391695D01*
X127568246Y-94391695D02*
X127568246Y-93591695D01*
X127568246Y-93591695D02*
X127492055Y-93705980D01*
X127492055Y-93705980D02*
X127415865Y-93782171D01*
X127415865Y-93782171D02*
X127339674Y-93820266D01*
D11*
X110422381Y-90055427D02*
X110908095Y-90055427D01*
X110665238Y-90905427D02*
X110665238Y-90055427D01*
X111110476Y-90055427D02*
X111677143Y-90905427D01*
X111677143Y-90055427D02*
X111110476Y-90905427D01*
X115554367Y-116148935D02*
X115554367Y-115501316D01*
X125776666Y-83184819D02*
X125776666Y-83899104D01*
X125776666Y-83899104D02*
X125729047Y-84041961D01*
X125729047Y-84041961D02*
X125633809Y-84137200D01*
X125633809Y-84137200D02*
X125490952Y-84184819D01*
X125490952Y-84184819D02*
X125395714Y-84184819D01*
X126157619Y-83184819D02*
X126776666Y-83184819D01*
X126776666Y-83184819D02*
X126443333Y-83565771D01*
X126443333Y-83565771D02*
X126586190Y-83565771D01*
X126586190Y-83565771D02*
X126681428Y-83613390D01*
X126681428Y-83613390D02*
X126729047Y-83661009D01*
X126729047Y-83661009D02*
X126776666Y-83756247D01*
X126776666Y-83756247D02*
X126776666Y-83994342D01*
X126776666Y-83994342D02*
X126729047Y-84089580D01*
X126729047Y-84089580D02*
X126681428Y-84137200D01*
X126681428Y-84137200D02*
X126586190Y-84184819D01*
X126586190Y-84184819D02*
X126300476Y-84184819D01*
X126300476Y-84184819D02*
X126205238Y-84137200D01*
X126205238Y-84137200D02*
X126157619Y-84089580D01*
X110393333Y-95049580D02*
X110345714Y-95097200D01*
X110345714Y-95097200D02*
X110202857Y-95144819D01*
X110202857Y-95144819D02*
X110107619Y-95144819D01*
X110107619Y-95144819D02*
X109964762Y-95097200D01*
X109964762Y-95097200D02*
X109869524Y-95001961D01*
X109869524Y-95001961D02*
X109821905Y-94906723D01*
X109821905Y-94906723D02*
X109774286Y-94716247D01*
X109774286Y-94716247D02*
X109774286Y-94573390D01*
X109774286Y-94573390D02*
X109821905Y-94382914D01*
X109821905Y-94382914D02*
X109869524Y-94287676D01*
X109869524Y-94287676D02*
X109964762Y-94192438D01*
X109964762Y-94192438D02*
X110107619Y-94144819D01*
X110107619Y-94144819D02*
X110202857Y-94144819D01*
X110202857Y-94144819D02*
X110345714Y-94192438D01*
X110345714Y-94192438D02*
X110393333Y-94240057D01*
X110774286Y-94240057D02*
X110821905Y-94192438D01*
X110821905Y-94192438D02*
X110917143Y-94144819D01*
X110917143Y-94144819D02*
X111155238Y-94144819D01*
X111155238Y-94144819D02*
X111250476Y-94192438D01*
X111250476Y-94192438D02*
X111298095Y-94240057D01*
X111298095Y-94240057D02*
X111345714Y-94335295D01*
X111345714Y-94335295D02*
X111345714Y-94430533D01*
X111345714Y-94430533D02*
X111298095Y-94573390D01*
X111298095Y-94573390D02*
X110726667Y-95144819D01*
X110726667Y-95144819D02*
X111345714Y-95144819D01*
D14*
G36*
X103707855Y-99893634D02*
G01*
X103764268Y-99950048D01*
X103789619Y-100000748D01*
X103789619Y-100132207D01*
X103764268Y-100182907D01*
X103707855Y-100239321D01*
X103565896Y-100274811D01*
X103263341Y-100274811D01*
X103121381Y-100239321D01*
X103064970Y-100182910D01*
X103039619Y-100132208D01*
X103039619Y-100000748D01*
X103064970Y-99950046D01*
X103121381Y-99893635D01*
X103263341Y-99858145D01*
X103565896Y-99858145D01*
X103707855Y-99893634D01*
G37*
G36*
X103269145Y-98883495D02*
G01*
X103288077Y-98902428D01*
X103313428Y-98953129D01*
X103313428Y-99179573D01*
X103039619Y-99179573D01*
X103039619Y-98953129D01*
X103064969Y-98902427D01*
X103083902Y-98883495D01*
X103134604Y-98858145D01*
X103218444Y-98858145D01*
X103269145Y-98883495D01*
G37*
G36*
X104164619Y-102840103D02*
G01*
X102617185Y-102840103D01*
X102617185Y-102393008D01*
X102742185Y-102393008D01*
X102743157Y-102399812D01*
X102742185Y-102406616D01*
X102746579Y-102423767D01*
X102749083Y-102441292D01*
X102752584Y-102447205D01*
X102754290Y-102453862D01*
X102767000Y-102474812D01*
X102909857Y-102665288D01*
X102926410Y-102683356D01*
X102968377Y-102708205D01*
X103016661Y-102715103D01*
X103063907Y-102702998D01*
X103102925Y-102673735D01*
X103127774Y-102631768D01*
X103134672Y-102583484D01*
X103122567Y-102536238D01*
X103109857Y-102515288D01*
X103023250Y-102399812D01*
X103109857Y-102284336D01*
X103122567Y-102263386D01*
X103134672Y-102216140D01*
X103127774Y-102167856D01*
X103102925Y-102125889D01*
X103063907Y-102096626D01*
X103016661Y-102084521D01*
X102968377Y-102091419D01*
X102926410Y-102116268D01*
X102909857Y-102134336D01*
X102767000Y-102324812D01*
X102754290Y-102345762D01*
X102752584Y-102352418D01*
X102749083Y-102358332D01*
X102746579Y-102375856D01*
X102742185Y-102393008D01*
X102617185Y-102393008D01*
X102617185Y-100685526D01*
X102789619Y-100685526D01*
X102789619Y-101256954D01*
X102792021Y-101281340D01*
X102810685Y-101326400D01*
X102845173Y-101360888D01*
X102890233Y-101379552D01*
X102939005Y-101379552D01*
X102984065Y-101360888D01*
X103018553Y-101326400D01*
X103037217Y-101281340D01*
X103039619Y-101256954D01*
X103039619Y-101096240D01*
X103914619Y-101096240D01*
X103939005Y-101093838D01*
X103984065Y-101075174D01*
X104018553Y-101040686D01*
X104037217Y-100995626D01*
X104037217Y-100946854D01*
X104018553Y-100901794D01*
X103984065Y-100867306D01*
X103939005Y-100848642D01*
X103914619Y-100846240D01*
X103039619Y-100846240D01*
X103039619Y-100685526D01*
X103037217Y-100661140D01*
X103018553Y-100616080D01*
X102984065Y-100581592D01*
X102939005Y-100562928D01*
X102890233Y-100562928D01*
X102845173Y-100581592D01*
X102810685Y-100616080D01*
X102792021Y-100661140D01*
X102789619Y-100685526D01*
X102617185Y-100685526D01*
X102617185Y-99971240D01*
X102789619Y-99971240D01*
X102789619Y-100161716D01*
X102792021Y-100186102D01*
X102793739Y-100190250D01*
X102794058Y-100194732D01*
X102802816Y-100217618D01*
X102850434Y-100312855D01*
X102857043Y-100323353D01*
X102858305Y-100326400D01*
X102861120Y-100329831D01*
X102863489Y-100333593D01*
X102865983Y-100335756D01*
X102873850Y-100345342D01*
X102969088Y-100440580D01*
X102988030Y-100456125D01*
X102996615Y-100459681D01*
X103004084Y-100465215D01*
X103027159Y-100473460D01*
X103217635Y-100521079D01*
X103221864Y-100521704D01*
X103223566Y-100522409D01*
X103232745Y-100523313D01*
X103241875Y-100524663D01*
X103243697Y-100524391D01*
X103247952Y-100524811D01*
X103581285Y-100524811D01*
X103585539Y-100524391D01*
X103587361Y-100524663D01*
X103596489Y-100523313D01*
X103605671Y-100522409D01*
X103607372Y-100521704D01*
X103611602Y-100521079D01*
X103802078Y-100473460D01*
X103825153Y-100465215D01*
X103832619Y-100459682D01*
X103841207Y-100456126D01*
X103860149Y-100440581D01*
X103955388Y-100345343D01*
X103963257Y-100335754D01*
X103965749Y-100333593D01*
X103968114Y-100329835D01*
X103970933Y-100326401D01*
X103972196Y-100323350D01*
X103978803Y-100312856D01*
X104026422Y-100217618D01*
X104035180Y-100194732D01*
X104035498Y-100190251D01*
X104037217Y-100186102D01*
X104039619Y-100161716D01*
X104039619Y-99971240D01*
X104037217Y-99946854D01*
X104035498Y-99942704D01*
X104035180Y-99938224D01*
X104026422Y-99915338D01*
X103978803Y-99820100D01*
X103972196Y-99809605D01*
X103970933Y-99806555D01*
X103968114Y-99803120D01*
X103965749Y-99799363D01*
X103963257Y-99797201D01*
X103955388Y-99787613D01*
X103860149Y-99692375D01*
X103841207Y-99676830D01*
X103832619Y-99673273D01*
X103825153Y-99667741D01*
X103802078Y-99659496D01*
X103611602Y-99611877D01*
X103607372Y-99611251D01*
X103605671Y-99610547D01*
X103596489Y-99609642D01*
X103587361Y-99608293D01*
X103585539Y-99608564D01*
X103581285Y-99608145D01*
X103247952Y-99608145D01*
X103243697Y-99608564D01*
X103241875Y-99608293D01*
X103232745Y-99609642D01*
X103223566Y-99610547D01*
X103221864Y-99611251D01*
X103217635Y-99611877D01*
X103027159Y-99659496D01*
X103004084Y-99667741D01*
X102996615Y-99673274D01*
X102988030Y-99676831D01*
X102969088Y-99692376D01*
X102873850Y-99787614D01*
X102865983Y-99797199D01*
X102863489Y-99799363D01*
X102861120Y-99803124D01*
X102858305Y-99806556D01*
X102857043Y-99809602D01*
X102850434Y-99820101D01*
X102802816Y-99915338D01*
X102794058Y-99938224D01*
X102793739Y-99942705D01*
X102792021Y-99946854D01*
X102789619Y-99971240D01*
X102617185Y-99971240D01*
X102617185Y-98923621D01*
X102789619Y-98923621D01*
X102789619Y-99304573D01*
X102792021Y-99328959D01*
X102810685Y-99374019D01*
X102845173Y-99408507D01*
X102890233Y-99427171D01*
X102914619Y-99429573D01*
X103914619Y-99429573D01*
X103939005Y-99427171D01*
X103984065Y-99408507D01*
X104018553Y-99374019D01*
X104037217Y-99328959D01*
X104037217Y-99280187D01*
X104018553Y-99235127D01*
X103984065Y-99200639D01*
X103939005Y-99181975D01*
X103914619Y-99179573D01*
X103563428Y-99179573D01*
X103563428Y-98923621D01*
X103561026Y-98899235D01*
X103559307Y-98895085D01*
X103558989Y-98890605D01*
X103550231Y-98867719D01*
X103502612Y-98772481D01*
X103496005Y-98761986D01*
X103494742Y-98758936D01*
X103491923Y-98755501D01*
X103489558Y-98751744D01*
X103487066Y-98749582D01*
X103479197Y-98739994D01*
X103431578Y-98692376D01*
X103421992Y-98684509D01*
X103419829Y-98682015D01*
X103416067Y-98679646D01*
X103412636Y-98676831D01*
X103409589Y-98675569D01*
X103399091Y-98668960D01*
X103303854Y-98621342D01*
X103280968Y-98612584D01*
X103276486Y-98612265D01*
X103272338Y-98610547D01*
X103247952Y-98608145D01*
X103105095Y-98608145D01*
X103080709Y-98610547D01*
X103076559Y-98612265D01*
X103072079Y-98612584D01*
X103049193Y-98621342D01*
X102953955Y-98668961D01*
X102943460Y-98675567D01*
X102940410Y-98676831D01*
X102936975Y-98679649D01*
X102933218Y-98682015D01*
X102931056Y-98684506D01*
X102921468Y-98692376D01*
X102873850Y-98739995D01*
X102865983Y-98749580D01*
X102863489Y-98751744D01*
X102861120Y-98755505D01*
X102858305Y-98758937D01*
X102857043Y-98761983D01*
X102850434Y-98772482D01*
X102802816Y-98867719D01*
X102794058Y-98890605D01*
X102793739Y-98895086D01*
X102792021Y-98899235D01*
X102789619Y-98923621D01*
X102617185Y-98923621D01*
X102617185Y-97488245D01*
X102742185Y-97488245D01*
X102743157Y-97495049D01*
X102742185Y-97501853D01*
X102746579Y-97519004D01*
X102749083Y-97536529D01*
X102752584Y-97542442D01*
X102754290Y-97549099D01*
X102767000Y-97570049D01*
X102909857Y-97760525D01*
X102926410Y-97778593D01*
X102968377Y-97803442D01*
X103016661Y-97810340D01*
X103063907Y-97798235D01*
X103102925Y-97768972D01*
X103127774Y-97727005D01*
X103134672Y-97678721D01*
X103122567Y-97631475D01*
X103109857Y-97610525D01*
X103023250Y-97495049D01*
X103109857Y-97379573D01*
X103122567Y-97358623D01*
X103134672Y-97311377D01*
X103127774Y-97263093D01*
X103102925Y-97221126D01*
X103063907Y-97191863D01*
X103016661Y-97179758D01*
X102968377Y-97186656D01*
X102926410Y-97211505D01*
X102909857Y-97229573D01*
X102767000Y-97420049D01*
X102754290Y-97440999D01*
X102752584Y-97447655D01*
X102749083Y-97453569D01*
X102746579Y-97471093D01*
X102742185Y-97488245D01*
X102617185Y-97488245D01*
X102617185Y-97054758D01*
X104164619Y-97054758D01*
X104164619Y-102840103D01*
G37*
D11*
X118154819Y-102528666D02*
X117678628Y-102861999D01*
X118154819Y-103100094D02*
X117154819Y-103100094D01*
X117154819Y-103100094D02*
X117154819Y-102719142D01*
X117154819Y-102719142D02*
X117202438Y-102623904D01*
X117202438Y-102623904D02*
X117250057Y-102576285D01*
X117250057Y-102576285D02*
X117345295Y-102528666D01*
X117345295Y-102528666D02*
X117488152Y-102528666D01*
X117488152Y-102528666D02*
X117583390Y-102576285D01*
X117583390Y-102576285D02*
X117631009Y-102623904D01*
X117631009Y-102623904D02*
X117678628Y-102719142D01*
X117678628Y-102719142D02*
X117678628Y-103100094D01*
X117154819Y-101671523D02*
X117154819Y-101861999D01*
X117154819Y-101861999D02*
X117202438Y-101957237D01*
X117202438Y-101957237D02*
X117250057Y-102004856D01*
X117250057Y-102004856D02*
X117392914Y-102100094D01*
X117392914Y-102100094D02*
X117583390Y-102147713D01*
X117583390Y-102147713D02*
X117964342Y-102147713D01*
X117964342Y-102147713D02*
X118059580Y-102100094D01*
X118059580Y-102100094D02*
X118107200Y-102052475D01*
X118107200Y-102052475D02*
X118154819Y-101957237D01*
X118154819Y-101957237D02*
X118154819Y-101766761D01*
X118154819Y-101766761D02*
X118107200Y-101671523D01*
X118107200Y-101671523D02*
X118059580Y-101623904D01*
X118059580Y-101623904D02*
X117964342Y-101576285D01*
X117964342Y-101576285D02*
X117726247Y-101576285D01*
X117726247Y-101576285D02*
X117631009Y-101623904D01*
X117631009Y-101623904D02*
X117583390Y-101671523D01*
X117583390Y-101671523D02*
X117535771Y-101766761D01*
X117535771Y-101766761D02*
X117535771Y-101957237D01*
X117535771Y-101957237D02*
X117583390Y-102052475D01*
X117583390Y-102052475D02*
X117631009Y-102100094D01*
X117631009Y-102100094D02*
X117726247Y-102147713D01*
X128543333Y-97469580D02*
X128495714Y-97517200D01*
X128495714Y-97517200D02*
X128352857Y-97564819D01*
X128352857Y-97564819D02*
X128257619Y-97564819D01*
X128257619Y-97564819D02*
X128114762Y-97517200D01*
X128114762Y-97517200D02*
X128019524Y-97421961D01*
X128019524Y-97421961D02*
X127971905Y-97326723D01*
X127971905Y-97326723D02*
X127924286Y-97136247D01*
X127924286Y-97136247D02*
X127924286Y-96993390D01*
X127924286Y-96993390D02*
X127971905Y-96802914D01*
X127971905Y-96802914D02*
X128019524Y-96707676D01*
X128019524Y-96707676D02*
X128114762Y-96612438D01*
X128114762Y-96612438D02*
X128257619Y-96564819D01*
X128257619Y-96564819D02*
X128352857Y-96564819D01*
X128352857Y-96564819D02*
X128495714Y-96612438D01*
X128495714Y-96612438D02*
X128543333Y-96660057D01*
X129400476Y-96564819D02*
X129210000Y-96564819D01*
X129210000Y-96564819D02*
X129114762Y-96612438D01*
X129114762Y-96612438D02*
X129067143Y-96660057D01*
X129067143Y-96660057D02*
X128971905Y-96802914D01*
X128971905Y-96802914D02*
X128924286Y-96993390D01*
X128924286Y-96993390D02*
X128924286Y-97374342D01*
X128924286Y-97374342D02*
X128971905Y-97469580D01*
X128971905Y-97469580D02*
X129019524Y-97517200D01*
X129019524Y-97517200D02*
X129114762Y-97564819D01*
X129114762Y-97564819D02*
X129305238Y-97564819D01*
X129305238Y-97564819D02*
X129400476Y-97517200D01*
X129400476Y-97517200D02*
X129448095Y-97469580D01*
X129448095Y-97469580D02*
X129495714Y-97374342D01*
X129495714Y-97374342D02*
X129495714Y-97136247D01*
X129495714Y-97136247D02*
X129448095Y-97041009D01*
X129448095Y-97041009D02*
X129400476Y-96993390D01*
X129400476Y-96993390D02*
X129305238Y-96945771D01*
X129305238Y-96945771D02*
X129114762Y-96945771D01*
X129114762Y-96945771D02*
X129019524Y-96993390D01*
X129019524Y-96993390D02*
X128971905Y-97041009D01*
X128971905Y-97041009D02*
X128924286Y-97136247D01*
X116614819Y-103623666D02*
X116138628Y-103956999D01*
X116614819Y-104195094D02*
X115614819Y-104195094D01*
X115614819Y-104195094D02*
X115614819Y-103814142D01*
X115614819Y-103814142D02*
X115662438Y-103718904D01*
X115662438Y-103718904D02*
X115710057Y-103671285D01*
X115710057Y-103671285D02*
X115805295Y-103623666D01*
X115805295Y-103623666D02*
X115948152Y-103623666D01*
X115948152Y-103623666D02*
X116043390Y-103671285D01*
X116043390Y-103671285D02*
X116091009Y-103718904D01*
X116091009Y-103718904D02*
X116138628Y-103814142D01*
X116138628Y-103814142D02*
X116138628Y-104195094D01*
X115614819Y-102718904D02*
X115614819Y-103195094D01*
X115614819Y-103195094D02*
X116091009Y-103242713D01*
X116091009Y-103242713D02*
X116043390Y-103195094D01*
X116043390Y-103195094D02*
X115995771Y-103099856D01*
X115995771Y-103099856D02*
X115995771Y-102861761D01*
X115995771Y-102861761D02*
X116043390Y-102766523D01*
X116043390Y-102766523D02*
X116091009Y-102718904D01*
X116091009Y-102718904D02*
X116186247Y-102671285D01*
X116186247Y-102671285D02*
X116424342Y-102671285D01*
X116424342Y-102671285D02*
X116519580Y-102718904D01*
X116519580Y-102718904D02*
X116567200Y-102766523D01*
X116567200Y-102766523D02*
X116614819Y-102861761D01*
X116614819Y-102861761D02*
X116614819Y-103099856D01*
X116614819Y-103099856D02*
X116567200Y-103195094D01*
X116567200Y-103195094D02*
X116519580Y-103242713D01*
X114304819Y-109824404D02*
X115114342Y-109824404D01*
X115114342Y-109824404D02*
X115209580Y-109776785D01*
X115209580Y-109776785D02*
X115257200Y-109729166D01*
X115257200Y-109729166D02*
X115304819Y-109633928D01*
X115304819Y-109633928D02*
X115304819Y-109443452D01*
X115304819Y-109443452D02*
X115257200Y-109348214D01*
X115257200Y-109348214D02*
X115209580Y-109300595D01*
X115209580Y-109300595D02*
X115114342Y-109252976D01*
X115114342Y-109252976D02*
X114304819Y-109252976D01*
X114400057Y-108824404D02*
X114352438Y-108776785D01*
X114352438Y-108776785D02*
X114304819Y-108681547D01*
X114304819Y-108681547D02*
X114304819Y-108443452D01*
X114304819Y-108443452D02*
X114352438Y-108348214D01*
X114352438Y-108348214D02*
X114400057Y-108300595D01*
X114400057Y-108300595D02*
X114495295Y-108252976D01*
X114495295Y-108252976D02*
X114590533Y-108252976D01*
X114590533Y-108252976D02*
X114733390Y-108300595D01*
X114733390Y-108300595D02*
X115304819Y-108872023D01*
X115304819Y-108872023D02*
X115304819Y-108252976D01*
X116043333Y-95049580D02*
X115995714Y-95097200D01*
X115995714Y-95097200D02*
X115852857Y-95144819D01*
X115852857Y-95144819D02*
X115757619Y-95144819D01*
X115757619Y-95144819D02*
X115614762Y-95097200D01*
X115614762Y-95097200D02*
X115519524Y-95001961D01*
X115519524Y-95001961D02*
X115471905Y-94906723D01*
X115471905Y-94906723D02*
X115424286Y-94716247D01*
X115424286Y-94716247D02*
X115424286Y-94573390D01*
X115424286Y-94573390D02*
X115471905Y-94382914D01*
X115471905Y-94382914D02*
X115519524Y-94287676D01*
X115519524Y-94287676D02*
X115614762Y-94192438D01*
X115614762Y-94192438D02*
X115757619Y-94144819D01*
X115757619Y-94144819D02*
X115852857Y-94144819D01*
X115852857Y-94144819D02*
X115995714Y-94192438D01*
X115995714Y-94192438D02*
X116043333Y-94240057D01*
X116900476Y-94478152D02*
X116900476Y-95144819D01*
X116662381Y-94097200D02*
X116424286Y-94811485D01*
X116424286Y-94811485D02*
X117043333Y-94811485D01*
X111414819Y-100341666D02*
X110938628Y-100674999D01*
X111414819Y-100913094D02*
X110414819Y-100913094D01*
X110414819Y-100913094D02*
X110414819Y-100532142D01*
X110414819Y-100532142D02*
X110462438Y-100436904D01*
X110462438Y-100436904D02*
X110510057Y-100389285D01*
X110510057Y-100389285D02*
X110605295Y-100341666D01*
X110605295Y-100341666D02*
X110748152Y-100341666D01*
X110748152Y-100341666D02*
X110843390Y-100389285D01*
X110843390Y-100389285D02*
X110891009Y-100436904D01*
X110891009Y-100436904D02*
X110938628Y-100532142D01*
X110938628Y-100532142D02*
X110938628Y-100913094D01*
X110414819Y-100008332D02*
X110414819Y-99389285D01*
X110414819Y-99389285D02*
X110795771Y-99722618D01*
X110795771Y-99722618D02*
X110795771Y-99579761D01*
X110795771Y-99579761D02*
X110843390Y-99484523D01*
X110843390Y-99484523D02*
X110891009Y-99436904D01*
X110891009Y-99436904D02*
X110986247Y-99389285D01*
X110986247Y-99389285D02*
X111224342Y-99389285D01*
X111224342Y-99389285D02*
X111319580Y-99436904D01*
X111319580Y-99436904D02*
X111367200Y-99484523D01*
X111367200Y-99484523D02*
X111414819Y-99579761D01*
X111414819Y-99579761D02*
X111414819Y-99865475D01*
X111414819Y-99865475D02*
X111367200Y-99960713D01*
X111367200Y-99960713D02*
X111319580Y-100008332D01*
X112189580Y-106926666D02*
X112237200Y-106974285D01*
X112237200Y-106974285D02*
X112284819Y-107117142D01*
X112284819Y-107117142D02*
X112284819Y-107212380D01*
X112284819Y-107212380D02*
X112237200Y-107355237D01*
X112237200Y-107355237D02*
X112141961Y-107450475D01*
X112141961Y-107450475D02*
X112046723Y-107498094D01*
X112046723Y-107498094D02*
X111856247Y-107545713D01*
X111856247Y-107545713D02*
X111713390Y-107545713D01*
X111713390Y-107545713D02*
X111522914Y-107498094D01*
X111522914Y-107498094D02*
X111427676Y-107450475D01*
X111427676Y-107450475D02*
X111332438Y-107355237D01*
X111332438Y-107355237D02*
X111284819Y-107212380D01*
X111284819Y-107212380D02*
X111284819Y-107117142D01*
X111284819Y-107117142D02*
X111332438Y-106974285D01*
X111332438Y-106974285D02*
X111380057Y-106926666D01*
X111284819Y-106593332D02*
X111284819Y-105926666D01*
X111284819Y-105926666D02*
X112284819Y-106355237D01*
X131613333Y-97469580D02*
X131565714Y-97517200D01*
X131565714Y-97517200D02*
X131422857Y-97564819D01*
X131422857Y-97564819D02*
X131327619Y-97564819D01*
X131327619Y-97564819D02*
X131184762Y-97517200D01*
X131184762Y-97517200D02*
X131089524Y-97421961D01*
X131089524Y-97421961D02*
X131041905Y-97326723D01*
X131041905Y-97326723D02*
X130994286Y-97136247D01*
X130994286Y-97136247D02*
X130994286Y-96993390D01*
X130994286Y-96993390D02*
X131041905Y-96802914D01*
X131041905Y-96802914D02*
X131089524Y-96707676D01*
X131089524Y-96707676D02*
X131184762Y-96612438D01*
X131184762Y-96612438D02*
X131327619Y-96564819D01*
X131327619Y-96564819D02*
X131422857Y-96564819D01*
X131422857Y-96564819D02*
X131565714Y-96612438D01*
X131565714Y-96612438D02*
X131613333Y-96660057D01*
X132518095Y-96564819D02*
X132041905Y-96564819D01*
X132041905Y-96564819D02*
X131994286Y-97041009D01*
X131994286Y-97041009D02*
X132041905Y-96993390D01*
X132041905Y-96993390D02*
X132137143Y-96945771D01*
X132137143Y-96945771D02*
X132375238Y-96945771D01*
X132375238Y-96945771D02*
X132470476Y-96993390D01*
X132470476Y-96993390D02*
X132518095Y-97041009D01*
X132518095Y-97041009D02*
X132565714Y-97136247D01*
X132565714Y-97136247D02*
X132565714Y-97374342D01*
X132565714Y-97374342D02*
X132518095Y-97469580D01*
X132518095Y-97469580D02*
X132470476Y-97517200D01*
X132470476Y-97517200D02*
X132375238Y-97564819D01*
X132375238Y-97564819D02*
X132137143Y-97564819D01*
X132137143Y-97564819D02*
X132041905Y-97517200D01*
X132041905Y-97517200D02*
X131994286Y-97469580D01*
X115874819Y-100341666D02*
X115398628Y-100674999D01*
X115874819Y-100913094D02*
X114874819Y-100913094D01*
X114874819Y-100913094D02*
X114874819Y-100532142D01*
X114874819Y-100532142D02*
X114922438Y-100436904D01*
X114922438Y-100436904D02*
X114970057Y-100389285D01*
X114970057Y-100389285D02*
X115065295Y-100341666D01*
X115065295Y-100341666D02*
X115208152Y-100341666D01*
X115208152Y-100341666D02*
X115303390Y-100389285D01*
X115303390Y-100389285D02*
X115351009Y-100436904D01*
X115351009Y-100436904D02*
X115398628Y-100532142D01*
X115398628Y-100532142D02*
X115398628Y-100913094D01*
X114970057Y-99960713D02*
X114922438Y-99913094D01*
X114922438Y-99913094D02*
X114874819Y-99817856D01*
X114874819Y-99817856D02*
X114874819Y-99579761D01*
X114874819Y-99579761D02*
X114922438Y-99484523D01*
X114922438Y-99484523D02*
X114970057Y-99436904D01*
X114970057Y-99436904D02*
X115065295Y-99389285D01*
X115065295Y-99389285D02*
X115160533Y-99389285D01*
X115160533Y-99389285D02*
X115303390Y-99436904D01*
X115303390Y-99436904D02*
X115874819Y-100008332D01*
X115874819Y-100008332D02*
X115874819Y-99389285D01*
X119124819Y-113653333D02*
X119839104Y-113653333D01*
X119839104Y-113653333D02*
X119981961Y-113700952D01*
X119981961Y-113700952D02*
X120077200Y-113796190D01*
X120077200Y-113796190D02*
X120124819Y-113939047D01*
X120124819Y-113939047D02*
X120124819Y-114034285D01*
X119458152Y-112748571D02*
X120124819Y-112748571D01*
X119077200Y-112986666D02*
X119791485Y-113224761D01*
X119791485Y-113224761D02*
X119791485Y-112605714D01*
X114003333Y-95039580D02*
X113955714Y-95087200D01*
X113955714Y-95087200D02*
X113812857Y-95134819D01*
X113812857Y-95134819D02*
X113717619Y-95134819D01*
X113717619Y-95134819D02*
X113574762Y-95087200D01*
X113574762Y-95087200D02*
X113479524Y-94991961D01*
X113479524Y-94991961D02*
X113431905Y-94896723D01*
X113431905Y-94896723D02*
X113384286Y-94706247D01*
X113384286Y-94706247D02*
X113384286Y-94563390D01*
X113384286Y-94563390D02*
X113431905Y-94372914D01*
X113431905Y-94372914D02*
X113479524Y-94277676D01*
X113479524Y-94277676D02*
X113574762Y-94182438D01*
X113574762Y-94182438D02*
X113717619Y-94134819D01*
X113717619Y-94134819D02*
X113812857Y-94134819D01*
X113812857Y-94134819D02*
X113955714Y-94182438D01*
X113955714Y-94182438D02*
X114003333Y-94230057D01*
X114336667Y-94134819D02*
X114955714Y-94134819D01*
X114955714Y-94134819D02*
X114622381Y-94515771D01*
X114622381Y-94515771D02*
X114765238Y-94515771D01*
X114765238Y-94515771D02*
X114860476Y-94563390D01*
X114860476Y-94563390D02*
X114908095Y-94611009D01*
X114908095Y-94611009D02*
X114955714Y-94706247D01*
X114955714Y-94706247D02*
X114955714Y-94944342D01*
X114955714Y-94944342D02*
X114908095Y-95039580D01*
X114908095Y-95039580D02*
X114860476Y-95087200D01*
X114860476Y-95087200D02*
X114765238Y-95134819D01*
X114765238Y-95134819D02*
X114479524Y-95134819D01*
X114479524Y-95134819D02*
X114384286Y-95087200D01*
X114384286Y-95087200D02*
X114336667Y-95039580D01*
X134683333Y-97564819D02*
X134350000Y-97088628D01*
X134111905Y-97564819D02*
X134111905Y-96564819D01*
X134111905Y-96564819D02*
X134492857Y-96564819D01*
X134492857Y-96564819D02*
X134588095Y-96612438D01*
X134588095Y-96612438D02*
X134635714Y-96660057D01*
X134635714Y-96660057D02*
X134683333Y-96755295D01*
X134683333Y-96755295D02*
X134683333Y-96898152D01*
X134683333Y-96898152D02*
X134635714Y-96993390D01*
X134635714Y-96993390D02*
X134588095Y-97041009D01*
X134588095Y-97041009D02*
X134492857Y-97088628D01*
X134492857Y-97088628D02*
X134111905Y-97088628D01*
X135540476Y-96898152D02*
X135540476Y-97564819D01*
X135302381Y-96517200D02*
X135064286Y-97231485D01*
X135064286Y-97231485D02*
X135683333Y-97231485D01*
X117833333Y-95144819D02*
X117500000Y-94668628D01*
X117261905Y-95144819D02*
X117261905Y-94144819D01*
X117261905Y-94144819D02*
X117642857Y-94144819D01*
X117642857Y-94144819D02*
X117738095Y-94192438D01*
X117738095Y-94192438D02*
X117785714Y-94240057D01*
X117785714Y-94240057D02*
X117833333Y-94335295D01*
X117833333Y-94335295D02*
X117833333Y-94478152D01*
X117833333Y-94478152D02*
X117785714Y-94573390D01*
X117785714Y-94573390D02*
X117738095Y-94621009D01*
X117738095Y-94621009D02*
X117642857Y-94668628D01*
X117642857Y-94668628D02*
X117261905Y-94668628D01*
X118785714Y-95144819D02*
X118214286Y-95144819D01*
X118500000Y-95144819D02*
X118500000Y-94144819D01*
X118500000Y-94144819D02*
X118404762Y-94287676D01*
X118404762Y-94287676D02*
X118309524Y-94382914D01*
X118309524Y-94382914D02*
X118214286Y-94430533D01*
X105964819Y-92773333D02*
X106679104Y-92773333D01*
X106679104Y-92773333D02*
X106821961Y-92820952D01*
X106821961Y-92820952D02*
X106917200Y-92916190D01*
X106917200Y-92916190D02*
X106964819Y-93059047D01*
X106964819Y-93059047D02*
X106964819Y-93154285D01*
X106060057Y-92344761D02*
X106012438Y-92297142D01*
X106012438Y-92297142D02*
X105964819Y-92201904D01*
X105964819Y-92201904D02*
X105964819Y-91963809D01*
X105964819Y-91963809D02*
X106012438Y-91868571D01*
X106012438Y-91868571D02*
X106060057Y-91820952D01*
X106060057Y-91820952D02*
X106155295Y-91773333D01*
X106155295Y-91773333D02*
X106250533Y-91773333D01*
X106250533Y-91773333D02*
X106393390Y-91820952D01*
X106393390Y-91820952D02*
X106964819Y-92392380D01*
X106964819Y-92392380D02*
X106964819Y-91773333D01*
X112203333Y-95024580D02*
X112155714Y-95072200D01*
X112155714Y-95072200D02*
X112012857Y-95119819D01*
X112012857Y-95119819D02*
X111917619Y-95119819D01*
X111917619Y-95119819D02*
X111774762Y-95072200D01*
X111774762Y-95072200D02*
X111679524Y-94976961D01*
X111679524Y-94976961D02*
X111631905Y-94881723D01*
X111631905Y-94881723D02*
X111584286Y-94691247D01*
X111584286Y-94691247D02*
X111584286Y-94548390D01*
X111584286Y-94548390D02*
X111631905Y-94357914D01*
X111631905Y-94357914D02*
X111679524Y-94262676D01*
X111679524Y-94262676D02*
X111774762Y-94167438D01*
X111774762Y-94167438D02*
X111917619Y-94119819D01*
X111917619Y-94119819D02*
X112012857Y-94119819D01*
X112012857Y-94119819D02*
X112155714Y-94167438D01*
X112155714Y-94167438D02*
X112203333Y-94215057D01*
X113155714Y-95119819D02*
X112584286Y-95119819D01*
X112870000Y-95119819D02*
X112870000Y-94119819D01*
X112870000Y-94119819D02*
X112774762Y-94262676D01*
X112774762Y-94262676D02*
X112679524Y-94357914D01*
X112679524Y-94357914D02*
X112584286Y-94405533D01*
X113271905Y-105914819D02*
X113271905Y-104914819D01*
X113271905Y-104914819D02*
X113510000Y-104914819D01*
X113510000Y-104914819D02*
X113652857Y-104962438D01*
X113652857Y-104962438D02*
X113748095Y-105057676D01*
X113748095Y-105057676D02*
X113795714Y-105152914D01*
X113795714Y-105152914D02*
X113843333Y-105343390D01*
X113843333Y-105343390D02*
X113843333Y-105486247D01*
X113843333Y-105486247D02*
X113795714Y-105676723D01*
X113795714Y-105676723D02*
X113748095Y-105771961D01*
X113748095Y-105771961D02*
X113652857Y-105867200D01*
X113652857Y-105867200D02*
X113510000Y-105914819D01*
X113510000Y-105914819D02*
X113271905Y-105914819D01*
X114795714Y-105914819D02*
X114224286Y-105914819D01*
X114510000Y-105914819D02*
X114510000Y-104914819D01*
X114510000Y-104914819D02*
X114414762Y-105057676D01*
X114414762Y-105057676D02*
X114319524Y-105152914D01*
X114319524Y-105152914D02*
X114224286Y-105200533D01*
D15*
X118867419Y-107671904D02*
X119676942Y-107671904D01*
X119676942Y-107671904D02*
X119772180Y-107624285D01*
X119772180Y-107624285D02*
X119819800Y-107576666D01*
X119819800Y-107576666D02*
X119867419Y-107481428D01*
X119867419Y-107481428D02*
X119867419Y-107290952D01*
X119867419Y-107290952D02*
X119819800Y-107195714D01*
X119819800Y-107195714D02*
X119772180Y-107148095D01*
X119772180Y-107148095D02*
X119676942Y-107100476D01*
X119676942Y-107100476D02*
X118867419Y-107100476D01*
X119867419Y-106100476D02*
X119867419Y-106671904D01*
X119867419Y-106386190D02*
X118867419Y-106386190D01*
X118867419Y-106386190D02*
X119010276Y-106481428D01*
X119010276Y-106481428D02*
X119105514Y-106576666D01*
X119105514Y-106576666D02*
X119153133Y-106671904D01*
D11*
X111384819Y-104003094D02*
X110384819Y-104003094D01*
X110384819Y-104003094D02*
X110384819Y-103764999D01*
X110384819Y-103764999D02*
X110432438Y-103622142D01*
X110432438Y-103622142D02*
X110527676Y-103526904D01*
X110527676Y-103526904D02*
X110622914Y-103479285D01*
X110622914Y-103479285D02*
X110813390Y-103431666D01*
X110813390Y-103431666D02*
X110956247Y-103431666D01*
X110956247Y-103431666D02*
X111146723Y-103479285D01*
X111146723Y-103479285D02*
X111241961Y-103526904D01*
X111241961Y-103526904D02*
X111337200Y-103622142D01*
X111337200Y-103622142D02*
X111384819Y-103764999D01*
X111384819Y-103764999D02*
X111384819Y-104003094D01*
X110480057Y-103050713D02*
X110432438Y-103003094D01*
X110432438Y-103003094D02*
X110384819Y-102907856D01*
X110384819Y-102907856D02*
X110384819Y-102669761D01*
X110384819Y-102669761D02*
X110432438Y-102574523D01*
X110432438Y-102574523D02*
X110480057Y-102526904D01*
X110480057Y-102526904D02*
X110575295Y-102479285D01*
X110575295Y-102479285D02*
X110670533Y-102479285D01*
X110670533Y-102479285D02*
X110813390Y-102526904D01*
X110813390Y-102526904D02*
X111384819Y-103098332D01*
X111384819Y-103098332D02*
X111384819Y-102479285D01*
D16*
X119060000Y-84680000D02*
X119060000Y-87480000D01*
X119060000Y-84680000D02*
X120560000Y-84680000D01*
X119060000Y-89680000D02*
X119060000Y-90880000D01*
X122760000Y-84680000D02*
X130060000Y-84680000D01*
X128260000Y-90880000D02*
X119060000Y-90880000D01*
X131060000Y-90880000D02*
X130460000Y-90880000D01*
X132260000Y-84680000D02*
X132960000Y-84680000D01*
X134760000Y-90380000D02*
X136260000Y-90380000D01*
X134760000Y-90880000D02*
X133260000Y-90880000D01*
X134760000Y-90880000D02*
X134760000Y-90380000D01*
X135160000Y-85180000D02*
X136260000Y-85180000D01*
X136260000Y-90380000D02*
X136260000Y-85180000D01*
X109825000Y-97171252D02*
X109825000Y-96648748D01*
X111295000Y-97171252D02*
X111295000Y-96648748D01*
X117177500Y-104432742D02*
X117177500Y-104907258D01*
X118222500Y-104432742D02*
X118222500Y-104907258D01*
X128569420Y-95280000D02*
X128850580Y-95280000D01*
X128569420Y-96300000D02*
X128850580Y-96300000D01*
X115647500Y-106077258D02*
X115647500Y-105602742D01*
X116692500Y-106077258D02*
X116692500Y-105602742D01*
D17*
X115730000Y-108012500D02*
X115730000Y-108012500D01*
X115730000Y-108012500D02*
X115730000Y-108632500D01*
X115730000Y-110112500D02*
X115730000Y-109492500D01*
X115730000Y-110112500D02*
X115730000Y-110112500D01*
X118190000Y-108012500D02*
X118190000Y-108012500D01*
X118190000Y-108012500D02*
X118190000Y-108632500D01*
X118190000Y-110112500D02*
X118190000Y-109492500D01*
X118190000Y-110112500D02*
X118190000Y-110112500D01*
D12*
X116260000Y-111097500D02*
G75*
G02*
X116060000Y-111097500I-100000J0D01*
G01*
X116060000Y-111097500D02*
G75*
G02*
X116260000Y-111097500I100000J0D01*
G01*
D16*
X115475000Y-97171252D02*
X115475000Y-96648748D01*
X116945000Y-97171252D02*
X116945000Y-96648748D01*
X111867500Y-100412258D02*
X111867500Y-99937742D01*
X112912500Y-100412258D02*
X112912500Y-99937742D01*
X114035580Y-106250000D02*
X113754420Y-106250000D01*
X114035580Y-107270000D02*
X113754420Y-107270000D01*
X131639420Y-95280000D02*
X131920580Y-95280000D01*
X131639420Y-96300000D02*
X131920580Y-96300000D01*
X113467500Y-99937742D02*
X113467500Y-100412258D01*
X114512500Y-99937742D02*
X114512500Y-100412258D01*
X116240000Y-111930000D02*
X117620000Y-111930000D01*
X116240000Y-113310000D02*
X116240000Y-111930000D01*
X116240000Y-114580000D02*
X116240000Y-117230000D01*
X116240000Y-114580000D02*
X119000000Y-114580000D01*
X116240000Y-117230000D02*
X119000000Y-117230000D01*
X119000000Y-114580000D02*
X119000000Y-117230000D01*
X113435000Y-97171252D02*
X113435000Y-96648748D01*
X114905000Y-97171252D02*
X114905000Y-96648748D01*
X134612742Y-95267500D02*
X135087258Y-95267500D01*
X134612742Y-96312500D02*
X135087258Y-96312500D01*
X117467500Y-96447742D02*
X117467500Y-96922258D01*
X118512500Y-96447742D02*
X118512500Y-96922258D01*
X107160000Y-93810000D02*
X107160000Y-92430000D01*
X108540000Y-93810000D02*
X107160000Y-93810000D01*
X109810000Y-91050000D02*
X115000000Y-91050000D01*
X109810000Y-93810000D02*
X109810000Y-91050000D01*
X109810000Y-93810000D02*
X115000000Y-93810000D01*
X115000000Y-93810000D02*
X115000000Y-91050000D01*
X111870000Y-96830580D02*
X111870000Y-96549420D01*
X112890000Y-96830580D02*
X112890000Y-96549420D01*
X113275000Y-102462500D02*
X113275000Y-104747500D01*
X113275000Y-104747500D02*
X114745000Y-104747500D01*
X114745000Y-104747500D02*
X114745000Y-102462500D01*
X111625000Y-102465000D02*
X111625000Y-104750000D01*
X111625000Y-104750000D02*
X113095000Y-104750000D01*
X113095000Y-104750000D02*
X113095000Y-102465000D01*
%LPC*%
D10*
G36*
X136690000Y-98875000D02*
G01*
X136190000Y-98875000D01*
X136190000Y-98175000D01*
X136690000Y-98175000D01*
X136690000Y-98875000D01*
G37*
D18*
X130160000Y-87780000D03*
X123160000Y-87780000D03*
D19*
X129360000Y-91280000D03*
X131160000Y-84280000D03*
X132160000Y-91280000D03*
X134060000Y-84280000D03*
X121660000Y-84280000D03*
D20*
X117660000Y-88580000D03*
D21*
X110560000Y-97860000D03*
X110560000Y-95960000D03*
D22*
X100500000Y-96600000D03*
D23*
X100900000Y-97400000D03*
X100900000Y-98200000D03*
D22*
X100500000Y-99000000D03*
D23*
X100900000Y-99800000D03*
X100900000Y-100600000D03*
D22*
X100500000Y-101400000D03*
D23*
X100900000Y-102200000D03*
X100900000Y-103000000D03*
D22*
X100500000Y-103800000D03*
D24*
X117700000Y-103845000D03*
X117700000Y-105495000D03*
D25*
X127935000Y-95790000D03*
X129485000Y-95790000D03*
D26*
X116170000Y-106665000D03*
X116170000Y-105015000D03*
D27*
X116160000Y-109957500D03*
X116560000Y-109957500D03*
X116960000Y-109957500D03*
X117360000Y-109957500D03*
X117760000Y-109957500D03*
D28*
X117705000Y-109062500D03*
D27*
X117760000Y-108167500D03*
X117360000Y-108167500D03*
X116960000Y-108167500D03*
X116560000Y-108167500D03*
X116160000Y-108167500D03*
D28*
X116215000Y-109062500D03*
D29*
X110850000Y-87500000D03*
X111333274Y-86333274D03*
X111333274Y-88666726D03*
X112500000Y-85850000D03*
D30*
X112500000Y-87500000D03*
D29*
X112500000Y-89150000D03*
X113666726Y-86333274D03*
X113666726Y-88666726D03*
X114150000Y-87500000D03*
D21*
X116210000Y-97860000D03*
X116210000Y-95960000D03*
D26*
X112390000Y-101000000D03*
X112390000Y-99350000D03*
D31*
X114670000Y-106760000D03*
X113120000Y-106760000D03*
D25*
X131005000Y-95790000D03*
X132555000Y-95790000D03*
D24*
X113990000Y-99350000D03*
X113990000Y-101000000D03*
D32*
X117620000Y-113310000D03*
D33*
X117620000Y-115850000D03*
D21*
X114170000Y-97860000D03*
X114170000Y-95960000D03*
D34*
X134025000Y-95790000D03*
X135675000Y-95790000D03*
D24*
X117990000Y-95860000D03*
X117990000Y-97510000D03*
D32*
X108540000Y-92430000D03*
D33*
X111080000Y-92430000D03*
X113620000Y-92430000D03*
D35*
X112380000Y-97465000D03*
X112380000Y-95915000D03*
D36*
X114010000Y-104050000D03*
X114010000Y-102475000D03*
D29*
X110850000Y-112500000D03*
X111333274Y-111333274D03*
X111333274Y-113666726D03*
X112500000Y-110850000D03*
D30*
X112500000Y-112500000D03*
D29*
X112500000Y-114150000D03*
X113666726Y-111333274D03*
X113666726Y-113666726D03*
X114150000Y-112500000D03*
D37*
X135290000Y-98300000D03*
D38*
X134490000Y-98300000D03*
X133990000Y-98300000D03*
X133490000Y-98300000D03*
X132990000Y-98300000D03*
X132490000Y-98300000D03*
X131990000Y-98300000D03*
X131490000Y-98300000D03*
X130990000Y-98300000D03*
X130490000Y-98300000D03*
X129990000Y-98300000D03*
X129490000Y-98300000D03*
X128990000Y-98300000D03*
X128490000Y-98300000D03*
X127990000Y-98300000D03*
X127490000Y-98300000D03*
X126990000Y-98300000D03*
X126490000Y-98300000D03*
X125990000Y-98300000D03*
X125490000Y-98300000D03*
X124990000Y-98300000D03*
X124490000Y-98300000D03*
X123990000Y-98300000D03*
X123490000Y-98300000D03*
X122990000Y-98300000D03*
X122490000Y-98300000D03*
X121990000Y-98300000D03*
D39*
X120820000Y-100875000D03*
D40*
X120820000Y-101675000D03*
X120820000Y-102175000D03*
X120820000Y-102675000D03*
X120820000Y-103175000D03*
X120820000Y-103675000D03*
X120820000Y-104175000D03*
X120820000Y-104675000D03*
X120820000Y-105175000D03*
X120820000Y-105675000D03*
X120820000Y-106175000D03*
X120820000Y-106675000D03*
X120820000Y-107175000D03*
X120820000Y-107675000D03*
X120820000Y-108175000D03*
X120820000Y-108675000D03*
X120820000Y-109175000D03*
X120820000Y-109675000D03*
X120820000Y-110175000D03*
X120820000Y-110675000D03*
X120820000Y-111175000D03*
X120820000Y-111675000D03*
X120820000Y-112175000D03*
D39*
X120820000Y-112975000D03*
D38*
X121990000Y-115550000D03*
X122490000Y-115550000D03*
X122990000Y-115550000D03*
X123490000Y-115550000D03*
X123990000Y-115550000D03*
X124490000Y-115550000D03*
X124990000Y-115550000D03*
X125490000Y-115550000D03*
X125990000Y-115550000D03*
X126490000Y-115550000D03*
X126990000Y-115550000D03*
X127490000Y-115550000D03*
X127990000Y-115550000D03*
X128490000Y-115550000D03*
X128990000Y-115550000D03*
X129490000Y-115550000D03*
X129990000Y-115550000D03*
X130490000Y-115550000D03*
X130990000Y-115550000D03*
X131490000Y-115550000D03*
X131990000Y-115550000D03*
X132490000Y-115550000D03*
X132990000Y-115550000D03*
X133490000Y-115550000D03*
X133990000Y-115550000D03*
X134490000Y-115550000D03*
D37*
X135290000Y-115550000D03*
D32*
X130240000Y-106925000D03*
D36*
X112360000Y-104052500D03*
X112360000Y-102477500D03*
%LPD*%
M02*
