G04 #@! TF.GenerationSoftware,KiCad,Pcbnew,9.0.3*
G04 #@! TF.CreationDate,2025-07-21T23:34:22+01:00*
G04 #@! TF.ProjectId,dectspansion,64656374-7370-4616-9e73-696f6e2e6b69,rev?*
G04 #@! TF.SameCoordinates,Original*
G04 #@! TF.FileFunction,Copper,L1,Top*
G04 #@! TF.FilePolarity,Positive*
%FSLAX46Y46*%
G04 Gerber Fmt 4.6, Leading zero omitted, Abs format (unit mm)*
G04 Created by KiCad (PCBNEW 9.0.3) date 2025-07-21 23:34:22*
%MOMM*%
%LPD*%
G01*
G04 APERTURE LIST*
G04 Aperture macros list*
%AMRoundRect*
0 Rectangle with rounded corners*
0 $1 Rounding radius*
0 $2 $3 $4 $5 $6 $7 $8 $9 X,Y pos of 4 corners*
0 Add a 4 corners polygon primitive as box body*
4,1,4,$2,$3,$4,$5,$6,$7,$8,$9,$2,$3,0*
0 Add four circle primitives for the rounded corners*
1,1,$1+$1,$2,$3*
1,1,$1+$1,$4,$5*
1,1,$1+$1,$6,$7*
1,1,$1+$1,$8,$9*
0 Add four rect primitives between the rounded corners*
20,1,$1+$1,$2,$3,$4,$5,0*
20,1,$1+$1,$4,$5,$6,$7,0*
20,1,$1+$1,$6,$7,$8,$9,0*
20,1,$1+$1,$8,$9,$2,$3,0*%
%AMFreePoly0*
4,1,7,0.350000,-0.050000,2.550000,-0.050000,2.550000,-0.250000,-0.350000,-0.250000,-0.350000,0.250000,0.350000,0.250000,0.350000,-0.050000,0.350000,-0.050000,$1*%
G04 Aperture macros list end*
G04 #@! TA.AperFunction,WasherPad*
%ADD10C,1.900000*%
G04 #@! TD*
G04 #@! TA.AperFunction,SMDPad,CuDef*
%ADD11R,2.000000X3.000000*%
G04 #@! TD*
G04 #@! TA.AperFunction,SMDPad,CuDef*
%ADD12R,3.000000X2.000000*%
G04 #@! TD*
G04 #@! TA.AperFunction,SMDPad,CuDef*
%ADD13RoundRect,0.250000X0.475000X-0.250000X0.475000X0.250000X-0.475000X0.250000X-0.475000X-0.250000X0*%
G04 #@! TD*
G04 #@! TA.AperFunction,SMDPad,CuDef*
%ADD14RoundRect,0.150000X1.600000X0.150000X-1.600000X0.150000X-1.600000X-0.150000X1.600000X-0.150000X0*%
G04 #@! TD*
G04 #@! TA.AperFunction,SMDPad,CuDef*
%ADD15RoundRect,0.150000X1.200000X0.150000X-1.200000X0.150000X-1.200000X-0.150000X1.200000X-0.150000X0*%
G04 #@! TD*
G04 #@! TA.AperFunction,SMDPad,CuDef*
%ADD16RoundRect,0.225000X-0.225000X-0.250000X0.225000X-0.250000X0.225000X0.250000X-0.225000X0.250000X0*%
G04 #@! TD*
G04 #@! TA.AperFunction,ComponentPad*
%ADD17C,0.700000*%
G04 #@! TD*
G04 #@! TA.AperFunction,ComponentPad*
%ADD18C,4.400000*%
G04 #@! TD*
G04 #@! TA.AperFunction,SMDPad,CuDef*
%ADD19RoundRect,0.200000X0.275000X-0.200000X0.275000X0.200000X-0.275000X0.200000X-0.275000X-0.200000X0*%
G04 #@! TD*
G04 #@! TA.AperFunction,SMDPad,CuDef*
%ADD20RoundRect,0.200000X-0.275000X0.200000X-0.275000X-0.200000X0.275000X-0.200000X0.275000X0.200000X0*%
G04 #@! TD*
G04 #@! TA.AperFunction,SMDPad,CuDef*
%ADD21RoundRect,0.200000X-0.200000X-0.275000X0.200000X-0.275000X0.200000X0.275000X-0.200000X0.275000X0*%
G04 #@! TD*
G04 #@! TA.AperFunction,ComponentPad*
%ADD22R,1.700000X1.700000*%
G04 #@! TD*
G04 #@! TA.AperFunction,ComponentPad*
%ADD23C,1.700000*%
G04 #@! TD*
G04 #@! TA.AperFunction,SMDPad,CuDef*
%ADD24RoundRect,0.225000X0.250000X-0.225000X0.250000X0.225000X-0.250000X0.225000X-0.250000X-0.225000X0*%
G04 #@! TD*
G04 #@! TA.AperFunction,SMDPad,CuDef*
%ADD25RoundRect,0.218750X0.256250X-0.218750X0.256250X0.218750X-0.256250X0.218750X-0.256250X-0.218750X0*%
G04 #@! TD*
G04 #@! TA.AperFunction,SMDPad,CuDef*
%ADD26R,0.660000X0.550000*%
G04 #@! TD*
G04 #@! TA.AperFunction,SMDPad,CuDef*
%ADD27RoundRect,0.075000X-0.075000X0.370000X-0.075000X-0.370000X0.075000X-0.370000X0.075000X0.370000X0*%
G04 #@! TD*
G04 #@! TA.AperFunction,SMDPad,CuDef*
%ADD28R,0.550000X0.800000*%
G04 #@! TD*
G04 #@! TA.AperFunction,SMDPad,CuDef*
%ADD29RoundRect,0.075000X-0.370000X-0.075000X0.370000X-0.075000X0.370000X0.075000X-0.370000X0.075000X0*%
G04 #@! TD*
G04 #@! TA.AperFunction,SMDPad,CuDef*
%ADD30FreePoly0,270.000000*%
G04 #@! TD*
G04 #@! TA.AperFunction,SMDPad,CuDef*
%ADD31R,1.700000X1.700000*%
G04 #@! TD*
G04 #@! TA.AperFunction,ViaPad*
%ADD32C,0.800000*%
G04 #@! TD*
G04 #@! TA.AperFunction,Conductor*
%ADD33C,0.250000*%
G04 #@! TD*
G04 #@! TA.AperFunction,Conductor*
%ADD34C,0.500000*%
G04 #@! TD*
G04 #@! TA.AperFunction,Conductor*
%ADD35C,0.300000*%
G04 #@! TD*
G04 #@! TA.AperFunction,Conductor*
%ADD36C,0.200000*%
G04 #@! TD*
G04 APERTURE END LIST*
D10*
X130160000Y-87780000D03*
X123160000Y-87780000D03*
D11*
X129360000Y-91280000D03*
X131160000Y-84280000D03*
X132160000Y-91280000D03*
X134060000Y-84280000D03*
X121660000Y-84280000D03*
D12*
X117660000Y-88580000D03*
D13*
X110560000Y-97860000D03*
X110560000Y-95960000D03*
D14*
X100500000Y-96600000D03*
D15*
X100900000Y-97400000D03*
X100900000Y-98200000D03*
D14*
X100500000Y-99000000D03*
D15*
X100900000Y-99800000D03*
X100900000Y-100600000D03*
D14*
X100500000Y-101400000D03*
D15*
X100900000Y-102200000D03*
X100900000Y-103000000D03*
D14*
X100500000Y-103800000D03*
D16*
X127935000Y-95790000D03*
X129485000Y-95790000D03*
D17*
X110850000Y-87500000D03*
X111333274Y-86333274D03*
X111333274Y-88666726D03*
X112500000Y-85850000D03*
D18*
X112500000Y-87500000D03*
D17*
X112500000Y-89150000D03*
X113666726Y-86333274D03*
X113666726Y-88666726D03*
X114150000Y-87500000D03*
D13*
X116210000Y-97860000D03*
X116210000Y-95960000D03*
D19*
X114520000Y-101985000D03*
X114520000Y-100335000D03*
D16*
X131005000Y-95790000D03*
X132555000Y-95790000D03*
D20*
X116120000Y-100335000D03*
X116120000Y-101985000D03*
D13*
X114170000Y-97860000D03*
X114170000Y-95960000D03*
D21*
X134025000Y-95790000D03*
X135675000Y-95790000D03*
D20*
X117990000Y-95860000D03*
X117990000Y-97510000D03*
D22*
X108500000Y-91960000D03*
D23*
X111040000Y-91960000D03*
X113580000Y-91960000D03*
D24*
X112380000Y-97465000D03*
X112380000Y-95915000D03*
D25*
X116140000Y-105035000D03*
X116140000Y-103460000D03*
D17*
X110850000Y-112500000D03*
X111333274Y-111333274D03*
X111333274Y-113666726D03*
X112500000Y-110850000D03*
D18*
X112500000Y-112500000D03*
D17*
X112500000Y-114150000D03*
X113666726Y-111333274D03*
X113666726Y-113666726D03*
X114150000Y-112500000D03*
D26*
X135290000Y-98300000D03*
D27*
X134490000Y-98300000D03*
X133990000Y-98300000D03*
X133490000Y-98300000D03*
X132990000Y-98300000D03*
X132490000Y-98300000D03*
X131990000Y-98300000D03*
X131490000Y-98300000D03*
X130990000Y-98300000D03*
X130490000Y-98300000D03*
X129990000Y-98300000D03*
X129490000Y-98300000D03*
X128990000Y-98300000D03*
X128490000Y-98300000D03*
X127990000Y-98300000D03*
X127490000Y-98300000D03*
X126990000Y-98300000D03*
X126490000Y-98300000D03*
X125990000Y-98300000D03*
X125490000Y-98300000D03*
X124990000Y-98300000D03*
X124490000Y-98300000D03*
X123990000Y-98300000D03*
X123490000Y-98300000D03*
X122990000Y-98300000D03*
X122490000Y-98300000D03*
X121990000Y-98300000D03*
D28*
X120820000Y-100875000D03*
D29*
X120820000Y-101675000D03*
X120820000Y-102175000D03*
X120820000Y-102675000D03*
X120820000Y-103175000D03*
X120820000Y-103675000D03*
X120820000Y-104175000D03*
X120820000Y-104675000D03*
X120820000Y-105175000D03*
X120820000Y-105675000D03*
X120820000Y-106175000D03*
X120820000Y-106675000D03*
X120820000Y-107175000D03*
X120820000Y-107675000D03*
X120820000Y-108175000D03*
X120820000Y-108675000D03*
X120820000Y-109175000D03*
X120820000Y-109675000D03*
X120820000Y-110175000D03*
X120820000Y-110675000D03*
X120820000Y-111175000D03*
X120820000Y-111675000D03*
X120820000Y-112175000D03*
D28*
X120820000Y-112975000D03*
D27*
X121990000Y-115550000D03*
X122490000Y-115550000D03*
X122990000Y-115550000D03*
X123490000Y-115550000D03*
X123990000Y-115550000D03*
X124490000Y-115550000D03*
X124990000Y-115550000D03*
X125490000Y-115550000D03*
X125990000Y-115550000D03*
X126490000Y-115550000D03*
X126990000Y-115550000D03*
X127490000Y-115550000D03*
X127990000Y-115550000D03*
X128490000Y-115550000D03*
X128990000Y-115550000D03*
X129490000Y-115550000D03*
X129990000Y-115550000D03*
X130490000Y-115550000D03*
X130990000Y-115550000D03*
X131490000Y-115550000D03*
X131990000Y-115550000D03*
X132490000Y-115550000D03*
X132990000Y-115550000D03*
X133490000Y-115550000D03*
X133990000Y-115550000D03*
X134490000Y-115550000D03*
D26*
X135290000Y-115550000D03*
D30*
X136440000Y-98525000D03*
D31*
X130240000Y-106925000D03*
D25*
X114490000Y-105037500D03*
X114490000Y-103462500D03*
D32*
X118730000Y-101675000D03*
X127500000Y-114060000D03*
X116970000Y-112320000D03*
X118740000Y-103070000D03*
X106520000Y-101080000D03*
X135640000Y-91930000D03*
X127440000Y-117000000D03*
X129000000Y-114090000D03*
X113200000Y-104790000D03*
X119340000Y-94390000D03*
X117610000Y-104900000D03*
X105950000Y-91930000D03*
X123980000Y-94410000D03*
X115880000Y-112330000D03*
X110130000Y-101070000D03*
X123060000Y-116970000D03*
X108785000Y-102255000D03*
X116735000Y-110205000D03*
X107970000Y-103000000D03*
X115200000Y-110210000D03*
X116140000Y-106360000D03*
X124990000Y-116650000D03*
X125988994Y-116605101D03*
X114490000Y-106390000D03*
X123990000Y-95850000D03*
X119360000Y-95850000D03*
D33*
X110945000Y-97465000D02*
X110560000Y-97850000D01*
D34*
X116120000Y-100335000D02*
X117335000Y-100335000D01*
D35*
X120820000Y-101675000D02*
X118730000Y-101675000D01*
D34*
X118730000Y-101675000D02*
X118675000Y-101675000D01*
D36*
X127990000Y-114550000D02*
X127500000Y-114060000D01*
D34*
X114170000Y-97860000D02*
X116210000Y-97860000D01*
X118675000Y-101675000D02*
X117335000Y-100335000D01*
D33*
X127490000Y-114070000D02*
X127500000Y-114060000D01*
X100900000Y-99800000D02*
X100900000Y-100600000D01*
D34*
X117640000Y-97860000D02*
X117990000Y-97510000D01*
X116210000Y-97860000D02*
X116210000Y-100245000D01*
X112380000Y-97465000D02*
X110945000Y-97465000D01*
X108610000Y-99800000D02*
X100900000Y-99800000D01*
X110560000Y-97850000D02*
X108610000Y-99800000D01*
D36*
X127990000Y-115550000D02*
X127490000Y-115550000D01*
D34*
X116210000Y-97860000D02*
X117640000Y-97860000D01*
X112775000Y-97860000D02*
X112380000Y-97465000D01*
D36*
X127990000Y-115550000D02*
X127990000Y-114550000D01*
D34*
X116120000Y-100335000D02*
X114520000Y-100335000D01*
X116210000Y-100245000D02*
X116120000Y-100335000D01*
X114170000Y-97860000D02*
X112775000Y-97860000D01*
D35*
X127490000Y-115550000D02*
X127490000Y-114070000D01*
D33*
X132490000Y-98300000D02*
X132490000Y-99630000D01*
D34*
X105180000Y-99000000D02*
X106010000Y-98170000D01*
X104940000Y-101400000D02*
X105180000Y-101160000D01*
D33*
X126990000Y-98300000D02*
X126990000Y-99780000D01*
D34*
X100451000Y-103751000D02*
X100500000Y-103800000D01*
X100500000Y-99000000D02*
X105180000Y-99000000D01*
D33*
X126990000Y-98300000D02*
X126490000Y-98300000D01*
X125490000Y-98300000D02*
X125490000Y-99750000D01*
X130990000Y-115550000D02*
X131990000Y-115550000D01*
D34*
X104940000Y-103800000D02*
X105430000Y-104290000D01*
D33*
X131490000Y-115550000D02*
X131490000Y-116990000D01*
X133990000Y-115550000D02*
X133990000Y-114090000D01*
X132990000Y-115550000D02*
X132990000Y-114090000D01*
D35*
X121635000Y-102675000D02*
X122470000Y-103510000D01*
X121835000Y-102175000D02*
X122590000Y-102930000D01*
D33*
X122325000Y-106175000D02*
X122330000Y-106180000D01*
X130990000Y-115550000D02*
X130990000Y-114210000D01*
X125990000Y-98300000D02*
X125990000Y-99720000D01*
X126990000Y-99780000D02*
X127000000Y-99790000D01*
D35*
X120820000Y-102175000D02*
X120820000Y-102675000D01*
D33*
X125990000Y-98300000D02*
X126490000Y-98300000D01*
X131490000Y-115550000D02*
X131490000Y-114250000D01*
X120820000Y-111675000D02*
X120820000Y-112175000D01*
X128490000Y-98300000D02*
X128490000Y-99830000D01*
D34*
X100500000Y-103800000D02*
X104940000Y-103800000D01*
X105230000Y-96600000D02*
X105630000Y-96200000D01*
X135290000Y-98300000D02*
X135290000Y-99620000D01*
D33*
X125990000Y-99720000D02*
X126000000Y-99730000D01*
X120820000Y-109675000D02*
X119325000Y-109675000D01*
X130990000Y-115550000D02*
X130990000Y-117050000D01*
X120820000Y-111675000D02*
X120025000Y-111675000D01*
X131990000Y-115550000D02*
X131990000Y-117010000D01*
X120820000Y-106175000D02*
X122325000Y-106175000D01*
X125490000Y-99750000D02*
X125500000Y-99760000D01*
X133990000Y-115550000D02*
X133990000Y-117050000D01*
X119325000Y-109675000D02*
X119300000Y-109650000D01*
X133990000Y-115550000D02*
X134490000Y-115550000D01*
D35*
X120820000Y-102175000D02*
X121835000Y-102175000D01*
D33*
X132990000Y-115550000D02*
X132990000Y-117070000D01*
X126490000Y-98300000D02*
X126490000Y-99680000D01*
X126990000Y-98300000D02*
X126990000Y-96790000D01*
X126490000Y-98300000D02*
X126490000Y-96650000D01*
X125990000Y-98300000D02*
X125490000Y-98300000D01*
X131990000Y-115550000D02*
X131990000Y-114190000D01*
X125990000Y-115550000D02*
X125990000Y-113960000D01*
D34*
X100500000Y-96600000D02*
X105230000Y-96600000D01*
D33*
X125490000Y-98300000D02*
X125490000Y-96690000D01*
D35*
X120820000Y-102675000D02*
X121635000Y-102675000D01*
D33*
X120025000Y-111675000D02*
X119460000Y-112240000D01*
D34*
X100500000Y-101400000D02*
X104940000Y-101400000D01*
D33*
X129990000Y-98300000D02*
X129990000Y-99930000D01*
X125990000Y-98300000D02*
X125990000Y-96630000D01*
D35*
X130490000Y-96305000D02*
X131005000Y-95790000D01*
X130490000Y-98300000D02*
X130490000Y-96305000D01*
D34*
X134060000Y-84280000D02*
X134060000Y-95555000D01*
D35*
X134025000Y-95790000D02*
X132555000Y-95790000D01*
X117205000Y-110675000D02*
X120820000Y-110675000D01*
D33*
X120281822Y-110651000D02*
X120621000Y-110651000D01*
D35*
X116735000Y-110205000D02*
X117205000Y-110675000D01*
D33*
X120621000Y-110651000D02*
X120645000Y-110675000D01*
X108730000Y-102200000D02*
X108785000Y-102255000D01*
D35*
X100900000Y-102200000D02*
X108730000Y-102200000D01*
D33*
X120645000Y-110675000D02*
X120820000Y-110675000D01*
D35*
X115200000Y-110210000D02*
X116165000Y-111175000D01*
X107970000Y-103000000D02*
X100900000Y-103000000D01*
D33*
X107990000Y-103000000D02*
X107970000Y-103000000D01*
D35*
X116165000Y-111175000D02*
X120820000Y-111175000D01*
D34*
X127935000Y-92705000D02*
X129360000Y-91280000D01*
X122360000Y-84280000D02*
X129360000Y-91280000D01*
X127935000Y-95790000D02*
X127935000Y-92705000D01*
X121660000Y-84280000D02*
X122360000Y-84280000D01*
D33*
X129490000Y-98300000D02*
X129490000Y-95795000D01*
X129490000Y-95795000D02*
X129485000Y-95790000D01*
X116140000Y-102005000D02*
X116120000Y-101985000D01*
X116140000Y-103460000D02*
X116140000Y-102005000D01*
X116140000Y-106360000D02*
X116140000Y-105035000D01*
X116411000Y-105306000D02*
X116140000Y-105035000D01*
X124990000Y-115550000D02*
X124990000Y-116650000D01*
X114490000Y-103462500D02*
X114490000Y-102015000D01*
X114490000Y-102015000D02*
X114520000Y-101985000D01*
X114490000Y-106390000D02*
X114490000Y-105037500D01*
X125490000Y-115550000D02*
X125490000Y-116106107D01*
X125490000Y-116106107D02*
X125988994Y-116605101D01*
D34*
X117990000Y-95860000D02*
X119350000Y-95860000D01*
D35*
X123990000Y-98300000D02*
X123990000Y-95850000D01*
D34*
X119350000Y-95860000D02*
X119360000Y-95850000D01*
D33*
X132705822Y-97070000D02*
X134395000Y-97070000D01*
X131990000Y-98300000D02*
X131990000Y-97785822D01*
X131990000Y-98300000D02*
X132014000Y-98276000D01*
X134395000Y-97070000D02*
X135675000Y-95790000D01*
X131990000Y-97785822D02*
X132705822Y-97070000D01*
G04 #@! TA.AperFunction,Conductor*
G36*
X126987228Y-81680273D02*
G01*
X135978140Y-81680499D01*
X136024596Y-81680500D01*
X136035391Y-81680971D01*
X136182239Y-81693818D01*
X136195275Y-81695662D01*
X136221903Y-81700891D01*
X136230009Y-81702771D01*
X136357362Y-81736895D01*
X136372454Y-81742000D01*
X136387124Y-81748040D01*
X136392232Y-81750281D01*
X136519922Y-81809824D01*
X136538628Y-81820624D01*
X136663572Y-81908110D01*
X136680130Y-81922003D01*
X136787989Y-82029861D01*
X136801882Y-82046419D01*
X136889365Y-82171355D01*
X136900173Y-82190074D01*
X136960408Y-82319248D01*
X136962551Y-82324114D01*
X136967623Y-82336333D01*
X136972872Y-82351777D01*
X137007233Y-82480009D01*
X137009068Y-82487870D01*
X137014197Y-82513608D01*
X137016116Y-82527034D01*
X137029056Y-82674927D01*
X137029528Y-82685807D01*
X137020908Y-97583181D01*
X137001185Y-97650209D01*
X136948354Y-97695933D01*
X136879190Y-97705837D01*
X136845398Y-97695904D01*
X136832419Y-97689977D01*
X136832414Y-97689975D01*
X136690000Y-97669500D01*
X136190000Y-97669500D01*
X136189997Y-97669500D01*
X136118059Y-97674644D01*
X135980005Y-97715182D01*
X135858969Y-97792967D01*
X135858965Y-97792971D01*
X135764750Y-97901700D01*
X135764744Y-97901709D01*
X135704976Y-98032580D01*
X135704975Y-98032585D01*
X135684500Y-98174999D01*
X135684500Y-98207690D01*
X135675855Y-98237130D01*
X135669332Y-98267117D01*
X135665577Y-98272132D01*
X135664815Y-98274729D01*
X135648181Y-98295371D01*
X135554457Y-98389095D01*
X135493134Y-98422580D01*
X135423442Y-98417596D01*
X135379095Y-98389095D01*
X135200904Y-98210904D01*
X135167419Y-98149581D01*
X135172403Y-98079889D01*
X135200904Y-98035542D01*
X135707212Y-97529234D01*
X135667830Y-97525000D01*
X135123951Y-97525000D01*
X135056912Y-97505315D01*
X135011157Y-97452511D01*
X135001213Y-97383353D01*
X135030238Y-97319797D01*
X135036270Y-97313319D01*
X135096204Y-97253386D01*
X135547772Y-96801819D01*
X135609095Y-96768334D01*
X135635453Y-96765500D01*
X135931613Y-96765500D01*
X135931616Y-96765500D01*
X136002196Y-96759086D01*
X136164606Y-96708478D01*
X136310185Y-96620472D01*
X136430472Y-96500185D01*
X136518478Y-96354606D01*
X136569086Y-96192196D01*
X136575500Y-96121616D01*
X136575500Y-95458384D01*
X136569086Y-95387804D01*
X136518478Y-95225394D01*
X136430472Y-95079815D01*
X136430470Y-95079813D01*
X136430469Y-95079811D01*
X136310188Y-94959530D01*
X136310138Y-94959500D01*
X136164606Y-94871522D01*
X136002196Y-94820914D01*
X136002194Y-94820913D01*
X136002192Y-94820913D01*
X135952778Y-94816423D01*
X135931616Y-94814500D01*
X135418384Y-94814500D01*
X135399145Y-94816248D01*
X135347807Y-94820913D01*
X135185393Y-94871522D01*
X135039811Y-94959530D01*
X135039810Y-94959531D01*
X135022181Y-94977161D01*
X134960858Y-95010646D01*
X134891166Y-95005662D01*
X134835233Y-94963790D01*
X134810816Y-94898326D01*
X134810500Y-94889480D01*
X134810500Y-86404499D01*
X134830185Y-86337460D01*
X134882989Y-86291705D01*
X134934500Y-86280499D01*
X135107871Y-86280499D01*
X135107872Y-86280499D01*
X135167483Y-86274091D01*
X135302331Y-86223796D01*
X135417546Y-86137546D01*
X135503796Y-86022331D01*
X135554091Y-85887483D01*
X135560500Y-85827873D01*
X135560499Y-82732128D01*
X135554091Y-82672517D01*
X135503884Y-82537906D01*
X135503797Y-82537671D01*
X135503793Y-82537664D01*
X135417547Y-82422455D01*
X135417544Y-82422452D01*
X135302335Y-82336206D01*
X135302328Y-82336202D01*
X135167482Y-82285908D01*
X135167483Y-82285908D01*
X135107883Y-82279501D01*
X135107881Y-82279500D01*
X135107873Y-82279500D01*
X135107864Y-82279500D01*
X133012129Y-82279500D01*
X133012123Y-82279501D01*
X132952516Y-82285908D01*
X132817671Y-82336202D01*
X132817664Y-82336206D01*
X132702455Y-82422452D01*
X132697324Y-82427584D01*
X132636001Y-82461069D01*
X132566309Y-82456085D01*
X132521962Y-82427584D01*
X132517187Y-82422809D01*
X132402093Y-82336649D01*
X132402086Y-82336645D01*
X132267379Y-82286403D01*
X132267372Y-82286401D01*
X132207844Y-82280000D01*
X131410000Y-82280000D01*
X131410000Y-86280000D01*
X132207828Y-86280000D01*
X132207844Y-86279999D01*
X132267372Y-86273598D01*
X132267379Y-86273596D01*
X132402086Y-86223354D01*
X132402093Y-86223350D01*
X132517187Y-86137190D01*
X132521962Y-86132416D01*
X132583285Y-86098931D01*
X132652977Y-86103915D01*
X132697324Y-86132416D01*
X132702455Y-86137547D01*
X132817664Y-86223793D01*
X132817671Y-86223797D01*
X132862618Y-86240561D01*
X132952517Y-86274091D01*
X133012127Y-86280500D01*
X133185500Y-86280499D01*
X133252539Y-86300183D01*
X133298294Y-86352987D01*
X133309500Y-86404499D01*
X133309500Y-89155500D01*
X133289815Y-89222539D01*
X133237011Y-89268294D01*
X133185500Y-89279500D01*
X131112129Y-89279500D01*
X131112123Y-89279501D01*
X131052516Y-89285908D01*
X130917671Y-89336202D01*
X130917669Y-89336203D01*
X130834311Y-89398606D01*
X130809548Y-89407842D01*
X130786358Y-89420505D01*
X130777329Y-89419859D01*
X130768847Y-89423023D01*
X130743024Y-89417406D01*
X130716666Y-89415521D01*
X130704951Y-89409124D01*
X130700574Y-89408172D01*
X130685689Y-89398606D01*
X130630948Y-89357626D01*
X130589078Y-89301694D01*
X130584094Y-89232003D01*
X130617579Y-89170680D01*
X130666939Y-89140431D01*
X130716799Y-89124231D01*
X130920228Y-89020579D01*
X131104937Y-88886379D01*
X131266379Y-88724937D01*
X131400579Y-88540228D01*
X131504231Y-88336799D01*
X131574784Y-88119660D01*
X131581616Y-88076525D01*
X131610500Y-87894162D01*
X131610500Y-87665837D01*
X131574784Y-87440339D01*
X131539078Y-87330448D01*
X131504231Y-87223201D01*
X131504229Y-87223198D01*
X131504229Y-87223196D01*
X131431012Y-87079500D01*
X131400579Y-87019772D01*
X131266379Y-86835063D01*
X131104937Y-86673621D01*
X130920228Y-86539421D01*
X130871287Y-86514484D01*
X130820492Y-86466510D01*
X130803697Y-86398690D01*
X130826234Y-86332555D01*
X130880949Y-86289103D01*
X130905735Y-86284264D01*
X130910000Y-86280000D01*
X130910000Y-84530000D01*
X129660000Y-84530000D01*
X129660000Y-85827844D01*
X129666401Y-85887372D01*
X129666403Y-85887379D01*
X129716645Y-86022086D01*
X129716649Y-86022093D01*
X129802809Y-86137186D01*
X129829097Y-86156866D01*
X129870968Y-86212800D01*
X129875952Y-86282492D01*
X129842467Y-86343815D01*
X129793105Y-86374064D01*
X129603196Y-86435770D01*
X129399771Y-86539421D01*
X129215061Y-86673622D01*
X129053622Y-86835061D01*
X128919421Y-87019771D01*
X128815770Y-87223196D01*
X128745215Y-87440339D01*
X128709500Y-87665837D01*
X128709500Y-87894162D01*
X128745215Y-88119660D01*
X128815770Y-88336803D01*
X128868762Y-88440804D01*
X128919421Y-88540228D01*
X129053621Y-88724937D01*
X129215063Y-88886379D01*
X129399772Y-89020579D01*
X129447731Y-89045015D01*
X129498527Y-89092989D01*
X129515322Y-89160810D01*
X129492785Y-89226945D01*
X129438070Y-89270397D01*
X129391436Y-89279500D01*
X128472230Y-89279500D01*
X128405191Y-89259815D01*
X128384549Y-89243181D01*
X123196818Y-84055450D01*
X123163333Y-83994127D01*
X123160499Y-83967769D01*
X123160499Y-82732155D01*
X129660000Y-82732155D01*
X129660000Y-84030000D01*
X130910000Y-84030000D01*
X130910000Y-82280000D01*
X130112155Y-82280000D01*
X130052627Y-82286401D01*
X130052620Y-82286403D01*
X129917913Y-82336645D01*
X129917906Y-82336649D01*
X129802812Y-82422809D01*
X129802809Y-82422812D01*
X129716649Y-82537906D01*
X129716645Y-82537913D01*
X129666403Y-82672620D01*
X129666401Y-82672627D01*
X129660000Y-82732155D01*
X123160499Y-82732155D01*
X123160499Y-82732129D01*
X123160498Y-82732123D01*
X123160497Y-82732116D01*
X123154091Y-82672517D01*
X123103884Y-82537906D01*
X123103797Y-82537671D01*
X123103793Y-82537664D01*
X123017547Y-82422455D01*
X123017544Y-82422452D01*
X122902335Y-82336206D01*
X122902328Y-82336202D01*
X122767482Y-82285908D01*
X122767483Y-82285908D01*
X122707883Y-82279501D01*
X122707881Y-82279500D01*
X122707873Y-82279500D01*
X122707864Y-82279500D01*
X120612129Y-82279500D01*
X120612123Y-82279501D01*
X120552516Y-82285908D01*
X120417671Y-82336202D01*
X120417664Y-82336206D01*
X120302455Y-82422452D01*
X120302452Y-82422455D01*
X120216206Y-82537664D01*
X120216202Y-82537671D01*
X120165908Y-82672517D01*
X120159501Y-82732116D01*
X120159501Y-82732123D01*
X120159500Y-82732135D01*
X120159500Y-85827870D01*
X120159501Y-85827876D01*
X120165908Y-85887483D01*
X120216202Y-86022328D01*
X120216206Y-86022335D01*
X120302452Y-86137544D01*
X120302455Y-86137547D01*
X120417664Y-86223793D01*
X120417671Y-86223797D01*
X120552517Y-86274091D01*
X120552516Y-86274091D01*
X120559444Y-86274835D01*
X120612127Y-86280500D01*
X122391437Y-86280499D01*
X122458476Y-86300184D01*
X122504231Y-86352987D01*
X122514175Y-86422146D01*
X122485150Y-86485702D01*
X122447732Y-86514984D01*
X122399771Y-86539421D01*
X122215061Y-86673622D01*
X122053622Y-86835061D01*
X121919421Y-87019771D01*
X121815770Y-87223196D01*
X121745215Y-87440339D01*
X121709500Y-87665837D01*
X121709500Y-87894162D01*
X121745215Y-88119660D01*
X121815770Y-88336803D01*
X121868762Y-88440804D01*
X121919421Y-88540228D01*
X122053621Y-88724937D01*
X122215063Y-88886379D01*
X122399772Y-89020579D01*
X122486702Y-89064872D01*
X122603196Y-89124229D01*
X122603198Y-89124229D01*
X122603201Y-89124231D01*
X122699437Y-89155500D01*
X122820339Y-89194784D01*
X123045838Y-89230500D01*
X123045843Y-89230500D01*
X123274162Y-89230500D01*
X123499660Y-89194784D01*
X123716799Y-89124231D01*
X123920228Y-89020579D01*
X124104937Y-88886379D01*
X124266379Y-88724937D01*
X124400579Y-88540228D01*
X124504231Y-88336799D01*
X124574784Y-88119660D01*
X124581616Y-88076525D01*
X124610500Y-87894162D01*
X124610500Y-87891230D01*
X124610815Y-87890156D01*
X124610882Y-87889307D01*
X124611060Y-87889321D01*
X124630185Y-87824191D01*
X124682989Y-87778436D01*
X124752147Y-87768492D01*
X124815703Y-87797517D01*
X124822181Y-87803549D01*
X127823181Y-90804549D01*
X127856666Y-90865872D01*
X127859500Y-90892230D01*
X127859500Y-91667769D01*
X127839815Y-91734808D01*
X127823181Y-91755450D01*
X127352045Y-92226586D01*
X127318870Y-92276240D01*
X127318868Y-92276243D01*
X127269919Y-92349499D01*
X127269912Y-92349511D01*
X127213343Y-92486082D01*
X127213340Y-92486092D01*
X127184500Y-92631079D01*
X127184500Y-94988126D01*
X127164815Y-95055165D01*
X127148181Y-95075807D01*
X127137032Y-95086955D01*
X127137029Y-95086959D01*
X127048001Y-95231294D01*
X127047996Y-95231305D01*
X126994651Y-95392290D01*
X126984500Y-95491647D01*
X126984500Y-96088337D01*
X126984501Y-96088355D01*
X126994650Y-96187707D01*
X126994651Y-96187710D01*
X127047996Y-96348694D01*
X127048001Y-96348705D01*
X127137029Y-96493040D01*
X127137032Y-96493044D01*
X127256955Y-96612967D01*
X127256959Y-96612970D01*
X127401294Y-96701998D01*
X127401297Y-96701999D01*
X127401303Y-96702003D01*
X127562292Y-96755349D01*
X127661655Y-96765500D01*
X128208344Y-96765499D01*
X128208352Y-96765498D01*
X128208355Y-96765498D01*
X128271124Y-96759086D01*
X128307708Y-96755349D01*
X128468697Y-96702003D01*
X128613044Y-96612968D01*
X128622319Y-96603693D01*
X128626185Y-96601581D01*
X128628559Y-96597868D01*
X128656582Y-96584983D01*
X128683642Y-96570208D01*
X128688036Y-96570522D01*
X128692041Y-96568681D01*
X128722578Y-96572992D01*
X128753334Y-96575192D01*
X128758091Y-96578006D01*
X128761225Y-96578449D01*
X128775225Y-96588143D01*
X128790964Y-96597455D01*
X128794436Y-96600448D01*
X128806956Y-96612968D01*
X128813996Y-96617310D01*
X128821464Y-96623748D01*
X128835285Y-96645134D01*
X128852316Y-96664065D01*
X128854918Y-96675513D01*
X128859388Y-96682430D01*
X128859420Y-96695321D01*
X128864500Y-96717667D01*
X128864500Y-97247440D01*
X128844815Y-97314479D01*
X128792011Y-97360234D01*
X128772615Y-97367209D01*
X128771030Y-97367634D01*
X128722729Y-97370804D01*
X128602697Y-97355000D01*
X128377302Y-97355000D01*
X128257270Y-97370804D01*
X128223527Y-97368593D01*
X128223293Y-97370374D01*
X128215236Y-97369313D01*
X128195451Y-97366708D01*
X128102727Y-97354500D01*
X128102720Y-97354500D01*
X127877280Y-97354500D01*
X127877272Y-97354500D01*
X127790393Y-97365938D01*
X127764764Y-97369313D01*
X127764762Y-97369313D01*
X127756708Y-97370374D01*
X127756316Y-97367399D01*
X127723684Y-97367399D01*
X127723292Y-97370374D01*
X127715237Y-97369313D01*
X127715236Y-97369313D01*
X127686271Y-97365499D01*
X127602727Y-97354500D01*
X127602720Y-97354500D01*
X127377280Y-97354500D01*
X127377272Y-97354500D01*
X127281792Y-97367071D01*
X127264764Y-97369313D01*
X127264763Y-97369313D01*
X127256707Y-97370374D01*
X127256472Y-97368595D01*
X127222729Y-97370804D01*
X127102697Y-97355000D01*
X126877302Y-97355000D01*
X126756839Y-97370861D01*
X126756451Y-97367915D01*
X126723549Y-97367915D01*
X126723161Y-97370861D01*
X126602697Y-97355000D01*
X126377302Y-97355000D01*
X126256839Y-97370861D01*
X126256451Y-97367915D01*
X126223549Y-97367915D01*
X126223161Y-97370861D01*
X126102697Y-97355000D01*
X125877302Y-97355000D01*
X125756839Y-97370861D01*
X125756451Y-97367915D01*
X125723549Y-97367915D01*
X125723161Y-97370861D01*
X125602697Y-97355000D01*
X125377302Y-97355000D01*
X125257270Y-97370804D01*
X125223527Y-97368593D01*
X125223293Y-97370374D01*
X125215236Y-97369313D01*
X125195451Y-97366708D01*
X125102727Y-97354500D01*
X125102720Y-97354500D01*
X124877280Y-97354500D01*
X124877272Y-97354500D01*
X124794062Y-97365455D01*
X124780685Y-97367216D01*
X124711650Y-97356452D01*
X124659394Y-97310072D01*
X124640500Y-97244278D01*
X124640500Y-96524361D01*
X124660185Y-96457322D01*
X124676816Y-96436682D01*
X124689464Y-96424035D01*
X124788013Y-96276547D01*
X124855894Y-96112666D01*
X124860734Y-96088337D01*
X124890499Y-95938695D01*
X124890500Y-95938693D01*
X124890500Y-95761306D01*
X124890499Y-95761304D01*
X124855896Y-95587341D01*
X124855893Y-95587332D01*
X124788016Y-95423459D01*
X124788009Y-95423446D01*
X124689464Y-95275965D01*
X124689461Y-95275961D01*
X124564038Y-95150538D01*
X124564034Y-95150535D01*
X124416553Y-95051990D01*
X124416540Y-95051983D01*
X124252667Y-94984106D01*
X124252658Y-94984103D01*
X124078694Y-94949500D01*
X124078691Y-94949500D01*
X123901309Y-94949500D01*
X123901306Y-94949500D01*
X123727341Y-94984103D01*
X123727332Y-94984106D01*
X123563459Y-95051983D01*
X123563446Y-95051990D01*
X123415965Y-95150535D01*
X123415961Y-95150538D01*
X123290538Y-95275961D01*
X123290535Y-95275965D01*
X123191990Y-95423446D01*
X123191983Y-95423459D01*
X123124106Y-95587332D01*
X123124103Y-95587341D01*
X123089500Y-95761304D01*
X123089500Y-95938695D01*
X123124103Y-96112658D01*
X123124106Y-96112667D01*
X123191983Y-96276540D01*
X123191990Y-96276553D01*
X123290534Y-96424033D01*
X123290535Y-96424034D01*
X123290536Y-96424035D01*
X123303180Y-96436679D01*
X123336665Y-96497999D01*
X123339500Y-96524361D01*
X123339500Y-97244278D01*
X123319815Y-97311317D01*
X123267011Y-97357072D01*
X123199314Y-97367216D01*
X123184323Y-97365243D01*
X123102727Y-97354500D01*
X123102720Y-97354500D01*
X122877280Y-97354500D01*
X122877272Y-97354500D01*
X122790393Y-97365938D01*
X122764764Y-97369313D01*
X122764762Y-97369313D01*
X122756708Y-97370374D01*
X122756316Y-97367399D01*
X122723684Y-97367399D01*
X122723292Y-97370374D01*
X122715237Y-97369313D01*
X122715236Y-97369313D01*
X122686271Y-97365499D01*
X122602727Y-97354500D01*
X122602720Y-97354500D01*
X122377280Y-97354500D01*
X122377272Y-97354500D01*
X122290393Y-97365938D01*
X122264764Y-97369313D01*
X122264762Y-97369313D01*
X122256708Y-97370374D01*
X122256316Y-97367399D01*
X122223684Y-97367399D01*
X122223292Y-97370374D01*
X122215237Y-97369313D01*
X122215236Y-97369313D01*
X122186271Y-97365499D01*
X122102727Y-97354500D01*
X122102720Y-97354500D01*
X121877280Y-97354500D01*
X121877272Y-97354500D01*
X121764764Y-97369313D01*
X121764763Y-97369313D01*
X121624770Y-97427300D01*
X121624767Y-97427301D01*
X121624767Y-97427302D01*
X121585798Y-97457204D01*
X121504549Y-97519549D01*
X121412300Y-97639770D01*
X121354313Y-97779763D01*
X121354313Y-97779764D01*
X121339500Y-97892272D01*
X121339500Y-98707727D01*
X121354313Y-98820235D01*
X121354313Y-98820236D01*
X121370990Y-98860499D01*
X121412302Y-98960233D01*
X121504549Y-99080451D01*
X121624767Y-99172698D01*
X121764764Y-99230687D01*
X121871586Y-99244750D01*
X121877264Y-99245498D01*
X121877280Y-99245500D01*
X121877287Y-99245500D01*
X122102713Y-99245500D01*
X122102720Y-99245500D01*
X122215236Y-99230687D01*
X122215236Y-99230686D01*
X122223295Y-99229626D01*
X122223698Y-99232689D01*
X122256302Y-99232689D01*
X122256705Y-99229626D01*
X122264763Y-99230686D01*
X122264764Y-99230687D01*
X122377280Y-99245500D01*
X122377287Y-99245500D01*
X122602713Y-99245500D01*
X122602720Y-99245500D01*
X122715236Y-99230687D01*
X122715236Y-99230686D01*
X122723295Y-99229626D01*
X122723698Y-99232689D01*
X122756302Y-99232689D01*
X122756705Y-99229626D01*
X122764763Y-99230686D01*
X122764764Y-99230687D01*
X122877280Y-99245500D01*
X122877287Y-99245500D01*
X123102713Y-99245500D01*
X123102720Y-99245500D01*
X123215236Y-99230687D01*
X123215236Y-99230686D01*
X123223295Y-99229626D01*
X123223698Y-99232689D01*
X123256302Y-99232689D01*
X123256705Y-99229626D01*
X123264763Y-99230686D01*
X123264764Y-99230687D01*
X123377280Y-99245500D01*
X123377287Y-99245500D01*
X123602713Y-99245500D01*
X123602720Y-99245500D01*
X123715236Y-99230687D01*
X123715236Y-99230686D01*
X123723295Y-99229626D01*
X123723698Y-99232689D01*
X123756302Y-99232689D01*
X123756705Y-99229626D01*
X123764763Y-99230686D01*
X123764764Y-99230687D01*
X123877280Y-99245500D01*
X123877287Y-99245500D01*
X124102713Y-99245500D01*
X124102720Y-99245500D01*
X124215236Y-99230687D01*
X124215236Y-99230686D01*
X124223295Y-99229626D01*
X124223698Y-99232689D01*
X124256302Y-99232689D01*
X124256705Y-99229626D01*
X124264763Y-99230686D01*
X124264764Y-99230687D01*
X124377280Y-99245500D01*
X124377287Y-99245500D01*
X124602713Y-99245500D01*
X124602720Y-99245500D01*
X124715236Y-99230687D01*
X124715236Y-99230686D01*
X124723295Y-99229626D01*
X124723698Y-99232689D01*
X124756302Y-99232689D01*
X124756705Y-99229626D01*
X124764763Y-99230686D01*
X124764764Y-99230687D01*
X124877280Y-99245500D01*
X124877287Y-99245500D01*
X125102713Y-99245500D01*
X125102720Y-99245500D01*
X125215236Y-99230687D01*
X125215236Y-99230686D01*
X125223295Y-99229626D01*
X125223529Y-99231409D01*
X125257270Y-99229196D01*
X125377302Y-99244999D01*
X125377317Y-99245000D01*
X125602683Y-99245000D01*
X125602697Y-99244999D01*
X125723162Y-99229139D01*
X125723557Y-99232142D01*
X125756443Y-99232142D01*
X125756838Y-99229139D01*
X125877302Y-99244999D01*
X125877317Y-99245000D01*
X126102683Y-99245000D01*
X126102697Y-99244999D01*
X126223162Y-99229139D01*
X126223557Y-99232142D01*
X126256443Y-99232142D01*
X126256838Y-99229139D01*
X126377302Y-99244999D01*
X126377317Y-99245000D01*
X126602683Y-99245000D01*
X126602697Y-99244999D01*
X126723162Y-99229139D01*
X126723557Y-99232142D01*
X126756443Y-99232142D01*
X126756838Y-99229139D01*
X126877302Y-99244999D01*
X126877317Y-99245000D01*
X127102683Y-99245000D01*
X127102697Y-99244999D01*
X127222729Y-99229196D01*
X127256470Y-99231406D01*
X127256705Y-99229626D01*
X127264763Y-99230686D01*
X127264764Y-99230687D01*
X127377280Y-99245500D01*
X127377287Y-99245500D01*
X127602713Y-99245500D01*
X127602720Y-99245500D01*
X127715236Y-99230687D01*
X127715236Y-99230686D01*
X127723295Y-99229626D01*
X127723698Y-99232689D01*
X127756302Y-99232689D01*
X127756705Y-99229626D01*
X127764763Y-99230686D01*
X127764764Y-99230687D01*
X127877280Y-99245500D01*
X127877287Y-99245500D01*
X128102713Y-99245500D01*
X128102720Y-99245500D01*
X128215236Y-99230687D01*
X128215236Y-99230686D01*
X128223295Y-99229626D01*
X128223529Y-99231409D01*
X128257270Y-99229196D01*
X128377302Y-99244999D01*
X128377317Y-99245000D01*
X128602683Y-99245000D01*
X128602697Y-99244999D01*
X128722729Y-99229196D01*
X128756470Y-99231406D01*
X128756705Y-99229626D01*
X128764763Y-99230686D01*
X128764764Y-99230687D01*
X128877280Y-99245500D01*
X128877287Y-99245500D01*
X129102713Y-99245500D01*
X129102720Y-99245500D01*
X129215236Y-99230687D01*
X129215236Y-99230686D01*
X129223295Y-99229626D01*
X129223698Y-99232689D01*
X129256302Y-99232689D01*
X129256705Y-99229626D01*
X129264763Y-99230686D01*
X129264764Y-99230687D01*
X129377280Y-99245500D01*
X129377287Y-99245500D01*
X129602713Y-99245500D01*
X129602720Y-99245500D01*
X129715236Y-99230687D01*
X129715236Y-99230686D01*
X129723295Y-99229626D01*
X129723529Y-99231409D01*
X129757270Y-99229196D01*
X129877302Y-99244999D01*
X129877317Y-99245000D01*
X130102683Y-99245000D01*
X130102697Y-99244999D01*
X130222729Y-99229196D01*
X130256470Y-99231406D01*
X130256705Y-99229626D01*
X130264763Y-99230686D01*
X130264764Y-99230687D01*
X130377280Y-99245500D01*
X130377287Y-99245500D01*
X130602713Y-99245500D01*
X130602720Y-99245500D01*
X130715236Y-99230687D01*
X130715236Y-99230686D01*
X130723295Y-99229626D01*
X130723698Y-99232689D01*
X130756302Y-99232689D01*
X130756705Y-99229626D01*
X130764763Y-99230686D01*
X130764764Y-99230687D01*
X130877280Y-99245500D01*
X130877287Y-99245500D01*
X131102713Y-99245500D01*
X131102720Y-99245500D01*
X131215236Y-99230687D01*
X131215236Y-99230686D01*
X131223295Y-99229626D01*
X131223698Y-99232689D01*
X131256302Y-99232689D01*
X131256705Y-99229626D01*
X131264763Y-99230686D01*
X131264764Y-99230687D01*
X131377280Y-99245500D01*
X131377287Y-99245500D01*
X131602713Y-99245500D01*
X131602720Y-99245500D01*
X131715236Y-99230687D01*
X131715236Y-99230686D01*
X131723295Y-99229626D01*
X131723698Y-99232689D01*
X131756302Y-99232689D01*
X131756705Y-99229626D01*
X131764763Y-99230686D01*
X131764764Y-99230687D01*
X131877280Y-99245500D01*
X131877287Y-99245500D01*
X132102713Y-99245500D01*
X132102720Y-99245500D01*
X132215236Y-99230687D01*
X132215236Y-99230686D01*
X132223295Y-99229626D01*
X132223529Y-99231409D01*
X132257270Y-99229196D01*
X132377302Y-99244999D01*
X132377317Y-99245000D01*
X132602683Y-99245000D01*
X132602697Y-99244999D01*
X132722729Y-99229196D01*
X132756470Y-99231406D01*
X132756705Y-99229626D01*
X132764763Y-99230686D01*
X132764764Y-99230687D01*
X132877280Y-99245500D01*
X132877287Y-99245500D01*
X133102713Y-99245500D01*
X133102720Y-99245500D01*
X133215236Y-99230687D01*
X133215236Y-99230686D01*
X133223295Y-99229626D01*
X133223698Y-99232689D01*
X133256302Y-99232689D01*
X133256705Y-99229626D01*
X133264763Y-99230686D01*
X133264764Y-99230687D01*
X133377280Y-99245500D01*
X133377287Y-99245500D01*
X133602713Y-99245500D01*
X133602720Y-99245500D01*
X133715236Y-99230687D01*
X133715236Y-99230686D01*
X133723295Y-99229626D01*
X133723698Y-99232689D01*
X133756302Y-99232689D01*
X133756705Y-99229626D01*
X133764763Y-99230686D01*
X133764764Y-99230687D01*
X133877280Y-99245500D01*
X133877287Y-99245500D01*
X134102713Y-99245500D01*
X134102720Y-99245500D01*
X134215236Y-99230687D01*
X134215236Y-99230686D01*
X134223295Y-99229626D01*
X134223698Y-99232689D01*
X134256302Y-99232689D01*
X134256705Y-99229626D01*
X134264763Y-99230686D01*
X134264764Y-99230687D01*
X134377280Y-99245500D01*
X134377287Y-99245500D01*
X134602713Y-99245500D01*
X134602720Y-99245500D01*
X134715236Y-99230687D01*
X134855233Y-99172698D01*
X134914936Y-99126886D01*
X134949162Y-99100624D01*
X135014331Y-99075430D01*
X135024648Y-99075000D01*
X135560500Y-99075000D01*
X135627539Y-99094685D01*
X135673294Y-99147489D01*
X135684500Y-99199000D01*
X135684500Y-101075002D01*
X135689644Y-101146940D01*
X135730182Y-101284994D01*
X135807967Y-101406030D01*
X135807971Y-101406034D01*
X135889882Y-101477011D01*
X135916706Y-101500254D01*
X135957174Y-101518735D01*
X136047580Y-101560023D01*
X136047583Y-101560023D01*
X136047584Y-101560024D01*
X136190000Y-101580500D01*
X136190003Y-101580500D01*
X136390000Y-101580500D01*
X136461940Y-101575355D01*
X136599992Y-101534819D01*
X136721032Y-101457031D01*
X136800961Y-101364788D01*
X136859737Y-101327015D01*
X136929607Y-101327015D01*
X136988385Y-101364789D01*
X137017410Y-101428345D01*
X137018672Y-101446064D01*
X137009491Y-117314635D01*
X137009019Y-117325372D01*
X136996102Y-117472994D01*
X136994191Y-117486379D01*
X136989110Y-117511920D01*
X136987267Y-117519821D01*
X136952893Y-117648099D01*
X136947679Y-117663459D01*
X136942501Y-117675959D01*
X136940323Y-117680910D01*
X136880155Y-117809933D01*
X136869350Y-117828648D01*
X136781861Y-117953589D01*
X136767967Y-117970147D01*
X136660108Y-118078000D01*
X136643550Y-118091893D01*
X136518603Y-118179377D01*
X136499882Y-118190184D01*
X136370852Y-118250345D01*
X136365902Y-118252523D01*
X136353410Y-118257697D01*
X136338048Y-118262911D01*
X136209766Y-118297278D01*
X136201868Y-118299120D01*
X136176338Y-118304198D01*
X136162952Y-118306108D01*
X136015226Y-118319028D01*
X136004422Y-118319500D01*
X116061499Y-118319500D01*
X116059806Y-118319003D01*
X116014130Y-118319459D01*
X116005877Y-118319266D01*
X115886660Y-118312511D01*
X115870252Y-118310478D01*
X115757073Y-118288707D01*
X115741082Y-118284508D01*
X115701764Y-118271327D01*
X115641767Y-118251213D01*
X115638864Y-118250200D01*
X115626717Y-118245787D01*
X115614354Y-118240521D01*
X115509308Y-118188882D01*
X115503141Y-118185632D01*
X115461239Y-118162022D01*
X115460997Y-118161773D01*
X115460121Y-118161385D01*
X112551822Y-116482689D01*
X104588503Y-111886189D01*
X104588504Y-111886186D01*
X104588491Y-111886183D01*
X104517480Y-111845185D01*
X102140209Y-110472666D01*
X100504941Y-109528543D01*
X100495820Y-109522733D01*
X100374691Y-109437922D01*
X100362842Y-109428497D01*
X100337922Y-109406060D01*
X100333213Y-109401591D01*
X100242003Y-109310385D01*
X100228110Y-109293829D01*
X100140612Y-109168878D01*
X100129804Y-109150159D01*
X100065342Y-109011932D01*
X100057948Y-108991622D01*
X100024554Y-108867013D01*
X100023040Y-108860705D01*
X100021272Y-108852393D01*
X100016063Y-108827892D01*
X100013829Y-108812952D01*
X100000971Y-108666064D01*
X100000500Y-108655253D01*
X100000500Y-106259760D01*
X100002026Y-106240364D01*
X100009639Y-106192293D01*
X100021624Y-106155406D01*
X100039237Y-106120839D01*
X100062033Y-106089464D01*
X100089464Y-106062033D01*
X100120839Y-106039237D01*
X100155406Y-106021624D01*
X100192293Y-106009639D01*
X100240365Y-106002025D01*
X100259760Y-106000500D01*
X104568995Y-106000500D01*
X104660041Y-105982389D01*
X104704328Y-105973580D01*
X104728376Y-105963618D01*
X104731927Y-105962809D01*
X104741726Y-105958089D01*
X104831811Y-105920775D01*
X104864331Y-105899045D01*
X104873601Y-105894582D01*
X104886978Y-105883913D01*
X104946542Y-105844114D01*
X104984570Y-105806085D01*
X104996541Y-105796541D01*
X105006088Y-105784567D01*
X105044114Y-105746542D01*
X105083913Y-105686978D01*
X105094582Y-105673601D01*
X105099045Y-105664331D01*
X105120775Y-105631811D01*
X105158089Y-105541726D01*
X105162809Y-105531927D01*
X105163618Y-105528376D01*
X105173580Y-105504328D01*
X105187313Y-105435289D01*
X105200500Y-105368995D01*
X105200500Y-105231004D01*
X105173581Y-105095678D01*
X105173580Y-105095674D01*
X105173580Y-105095672D01*
X105163619Y-105071624D01*
X105162809Y-105068073D01*
X105158084Y-105058263D01*
X105120775Y-104968189D01*
X105120775Y-104968188D01*
X105103887Y-104942915D01*
X105103887Y-104942914D01*
X105099046Y-104935670D01*
X105094582Y-104926399D01*
X105083908Y-104913014D01*
X105044114Y-104853458D01*
X105044112Y-104853455D01*
X105044110Y-104853453D01*
X105011021Y-104820365D01*
X105006093Y-104815437D01*
X104996541Y-104803459D01*
X104984562Y-104793906D01*
X104979634Y-104788978D01*
X104946545Y-104755888D01*
X104946544Y-104755887D01*
X104926334Y-104742383D01*
X104886982Y-104716089D01*
X104873601Y-104705418D01*
X104864332Y-104700954D01*
X104857093Y-104696117D01*
X104857087Y-104696114D01*
X104831814Y-104679227D01*
X104831813Y-104679226D01*
X104831811Y-104679225D01*
X104831808Y-104679223D01*
X104831803Y-104679221D01*
X104744957Y-104643249D01*
X104744952Y-104643247D01*
X104741733Y-104641913D01*
X104731927Y-104637191D01*
X104728380Y-104636381D01*
X104718736Y-104632386D01*
X104718727Y-104632384D01*
X104714873Y-104630788D01*
X104704328Y-104626420D01*
X104704324Y-104626419D01*
X104568995Y-104599500D01*
X104568993Y-104599500D01*
X104500207Y-104599500D01*
X104389801Y-104599500D01*
X104322762Y-104579815D01*
X104277007Y-104527011D01*
X104265804Y-104476362D01*
X104260931Y-103775362D01*
X104280149Y-103708187D01*
X104332634Y-103662066D01*
X104384928Y-103650500D01*
X107295638Y-103650500D01*
X107362677Y-103670185D01*
X107383319Y-103686819D01*
X107395961Y-103699461D01*
X107395965Y-103699464D01*
X107543446Y-103798009D01*
X107543459Y-103798016D01*
X107615083Y-103827683D01*
X107707334Y-103865894D01*
X107707336Y-103865894D01*
X107707341Y-103865896D01*
X107881304Y-103900499D01*
X107881307Y-103900500D01*
X107881309Y-103900500D01*
X108058693Y-103900500D01*
X108058694Y-103900499D01*
X108116682Y-103888964D01*
X108232658Y-103865896D01*
X108232661Y-103865894D01*
X108232666Y-103865894D01*
X108396547Y-103798013D01*
X108544035Y-103699464D01*
X108669464Y-103574035D01*
X108768013Y-103426547D01*
X108835894Y-103262666D01*
X108840367Y-103240174D01*
X108872752Y-103178264D01*
X108933467Y-103143690D01*
X108937794Y-103142749D01*
X109047658Y-103120896D01*
X109047661Y-103120894D01*
X109047666Y-103120894D01*
X109211547Y-103053013D01*
X109359035Y-102954464D01*
X109484464Y-102829035D01*
X109583013Y-102681547D01*
X109650894Y-102517666D01*
X109659776Y-102473016D01*
X109685499Y-102343695D01*
X109685500Y-102343693D01*
X109685500Y-102166306D01*
X109685499Y-102166304D01*
X109650896Y-101992341D01*
X109650893Y-101992332D01*
X109583016Y-101828459D01*
X109583009Y-101828446D01*
X109484464Y-101680965D01*
X109484461Y-101680961D01*
X109359038Y-101555538D01*
X109359034Y-101555535D01*
X109211553Y-101456990D01*
X109211540Y-101456983D01*
X109047667Y-101389106D01*
X109047658Y-101389103D01*
X108873694Y-101354500D01*
X108873691Y-101354500D01*
X108696309Y-101354500D01*
X108696306Y-101354500D01*
X108522341Y-101389103D01*
X108522332Y-101389106D01*
X108358452Y-101456987D01*
X108358450Y-101456988D01*
X108251274Y-101528602D01*
X108184597Y-101549480D01*
X108182383Y-101549500D01*
X104368599Y-101549500D01*
X104301560Y-101529815D01*
X104255805Y-101477011D01*
X104244602Y-101426362D01*
X104244204Y-101369167D01*
X104239382Y-100675362D01*
X104258600Y-100608187D01*
X104311085Y-100562066D01*
X104363379Y-100550500D01*
X108683920Y-100550500D01*
X108781462Y-100531096D01*
X108828913Y-100521658D01*
X108965495Y-100465084D01*
X109049554Y-100408918D01*
X109088416Y-100382952D01*
X110574548Y-98896817D01*
X110635871Y-98863333D01*
X110662229Y-98860499D01*
X111085002Y-98860499D01*
X111085008Y-98860499D01*
X111187797Y-98849999D01*
X111354334Y-98794814D01*
X111503656Y-98702712D01*
X111627712Y-98578656D01*
X111719814Y-98429334D01*
X111719814Y-98429332D01*
X111723605Y-98423187D01*
X111725707Y-98424484D01*
X111764136Y-98380815D01*
X111831324Y-98361644D01*
X111869380Y-98367934D01*
X111982292Y-98405349D01*
X112081655Y-98415500D01*
X112218764Y-98415499D01*
X112285804Y-98435183D01*
X112295279Y-98442079D01*
X112296583Y-98442950D01*
X112296584Y-98442951D01*
X112298179Y-98444017D01*
X112419498Y-98525080D01*
X112419511Y-98525087D01*
X112548842Y-98578657D01*
X112556087Y-98581658D01*
X112556091Y-98581658D01*
X112556092Y-98581659D01*
X112701079Y-98610500D01*
X112701082Y-98610500D01*
X113082770Y-98610500D01*
X113149809Y-98630185D01*
X113170451Y-98646819D01*
X113226344Y-98702712D01*
X113375666Y-98794814D01*
X113542203Y-98849999D01*
X113644991Y-98860500D01*
X114695008Y-98860499D01*
X114695016Y-98860498D01*
X114695019Y-98860498D01*
X114751302Y-98854748D01*
X114797797Y-98849999D01*
X114964334Y-98794814D01*
X115113656Y-98702712D01*
X115113657Y-98702710D01*
X115119803Y-98698920D01*
X115120560Y-98700147D01*
X115134308Y-98694599D01*
X115153389Y-98681954D01*
X115166095Y-98681774D01*
X115177880Y-98677020D01*
X115200366Y-98681290D01*
X115223252Y-98680968D01*
X115237918Y-98688423D01*
X115246523Y-98690058D01*
X115255560Y-98695175D01*
X115264170Y-98700538D01*
X115266344Y-98702712D01*
X115400895Y-98785703D01*
X115401060Y-98785806D01*
X115424061Y-98811606D01*
X115447321Y-98837465D01*
X115447391Y-98837774D01*
X115447556Y-98837959D01*
X115447837Y-98839736D01*
X115459500Y-98891057D01*
X115459500Y-99460500D01*
X115439815Y-99527539D01*
X115387011Y-99573294D01*
X115335500Y-99584500D01*
X115272977Y-99584500D01*
X115208828Y-99566617D01*
X115084606Y-99491522D01*
X114922196Y-99440914D01*
X114922194Y-99440913D01*
X114922192Y-99440913D01*
X114872778Y-99436423D01*
X114851616Y-99434500D01*
X114188384Y-99434500D01*
X114169145Y-99436248D01*
X114117807Y-99440913D01*
X113955393Y-99491522D01*
X113809811Y-99579530D01*
X113689530Y-99699811D01*
X113601522Y-99845393D01*
X113550913Y-100007807D01*
X113544500Y-100078386D01*
X113544500Y-100591613D01*
X113550913Y-100662192D01*
X113550913Y-100662194D01*
X113550914Y-100662196D01*
X113601522Y-100824606D01*
X113687928Y-100967539D01*
X113689530Y-100970188D01*
X113791661Y-101072319D01*
X113825146Y-101133642D01*
X113820162Y-101203334D01*
X113791661Y-101247681D01*
X113689531Y-101349810D01*
X113689530Y-101349811D01*
X113601522Y-101495393D01*
X113550913Y-101657807D01*
X113548809Y-101680965D01*
X113544500Y-101728384D01*
X113544500Y-102241616D01*
X113545507Y-102252698D01*
X113550913Y-102312192D01*
X113550913Y-102312194D01*
X113550914Y-102312196D01*
X113601522Y-102474606D01*
X113689528Y-102620185D01*
X113689529Y-102620186D01*
X113693409Y-102626604D01*
X113691714Y-102627628D01*
X113713792Y-102683089D01*
X113700435Y-102751670D01*
X113678015Y-102782313D01*
X113665716Y-102794611D01*
X113665716Y-102794612D01*
X113577455Y-102937704D01*
X113577450Y-102937715D01*
X113571901Y-102954461D01*
X113524564Y-103097315D01*
X113524564Y-103097316D01*
X113524563Y-103097316D01*
X113514500Y-103195818D01*
X113514500Y-103729181D01*
X113524563Y-103827683D01*
X113577450Y-103987284D01*
X113577455Y-103987295D01*
X113665716Y-104130387D01*
X113665719Y-104130391D01*
X113697647Y-104162319D01*
X113731132Y-104223642D01*
X113726148Y-104293334D01*
X113697647Y-104337681D01*
X113665719Y-104369608D01*
X113665716Y-104369612D01*
X113577455Y-104512704D01*
X113577450Y-104512715D01*
X113550773Y-104593219D01*
X113524564Y-104672315D01*
X113524564Y-104672316D01*
X113524563Y-104672316D01*
X113514500Y-104770818D01*
X113514500Y-105304181D01*
X113524563Y-105402683D01*
X113577450Y-105562284D01*
X113577455Y-105562295D01*
X113665716Y-105705387D01*
X113665719Y-105705391D01*
X113712872Y-105752544D01*
X113746357Y-105813867D01*
X113741373Y-105883559D01*
X113728294Y-105909115D01*
X113691989Y-105963449D01*
X113691983Y-105963460D01*
X113624106Y-106127332D01*
X113624103Y-106127341D01*
X113589500Y-106301304D01*
X113589500Y-106478695D01*
X113624103Y-106652658D01*
X113624106Y-106652667D01*
X113691983Y-106816540D01*
X113691990Y-106816553D01*
X113790535Y-106964034D01*
X113790538Y-106964038D01*
X113915961Y-107089461D01*
X113915965Y-107089464D01*
X114063446Y-107188009D01*
X114063459Y-107188016D01*
X114186363Y-107238923D01*
X114227334Y-107255894D01*
X114227336Y-107255894D01*
X114227341Y-107255896D01*
X114401304Y-107290499D01*
X114401307Y-107290500D01*
X114401309Y-107290500D01*
X114578693Y-107290500D01*
X114578694Y-107290499D01*
X114638757Y-107278552D01*
X114752658Y-107255896D01*
X114752661Y-107255894D01*
X114752666Y-107255894D01*
X114916547Y-107188013D01*
X115064035Y-107089464D01*
X115189464Y-106964035D01*
X115221920Y-106915460D01*
X115275531Y-106870656D01*
X115344856Y-106861949D01*
X115407884Y-106892103D01*
X115428122Y-106915459D01*
X115440531Y-106934029D01*
X115440538Y-106934038D01*
X115565961Y-107059461D01*
X115565965Y-107059464D01*
X115713446Y-107158009D01*
X115713459Y-107158016D01*
X115785880Y-107188013D01*
X115877334Y-107225894D01*
X115877336Y-107225894D01*
X115877341Y-107225896D01*
X116051304Y-107260499D01*
X116051307Y-107260500D01*
X116051309Y-107260500D01*
X116228693Y-107260500D01*
X116228694Y-107260499D01*
X116286682Y-107248964D01*
X116402658Y-107225896D01*
X116402661Y-107225894D01*
X116402666Y-107225894D01*
X116566547Y-107158013D01*
X116714035Y-107059464D01*
X116839464Y-106934035D01*
X116938013Y-106786547D01*
X117005894Y-106622666D01*
X117017905Y-106562286D01*
X117034532Y-106478695D01*
X117040500Y-106448691D01*
X117040500Y-106271309D01*
X117040500Y-106271306D01*
X117040499Y-106271304D01*
X117005896Y-106097341D01*
X117005893Y-106097332D01*
X116938015Y-105933457D01*
X116938014Y-105933456D01*
X116938013Y-105933453D01*
X116912720Y-105895601D01*
X116891843Y-105828925D01*
X116910327Y-105761545D01*
X116928143Y-105739029D01*
X116937196Y-105729974D01*
X116964281Y-105702891D01*
X117052549Y-105559787D01*
X117105436Y-105400185D01*
X117115500Y-105301674D01*
X117115500Y-104768326D01*
X117105436Y-104669815D01*
X117052549Y-104510213D01*
X117052545Y-104510207D01*
X117052544Y-104510204D01*
X116964283Y-104367112D01*
X116964280Y-104367108D01*
X116932353Y-104335181D01*
X116898868Y-104273858D01*
X116903852Y-104204166D01*
X116932353Y-104159819D01*
X116964281Y-104127891D01*
X117052549Y-103984787D01*
X117105436Y-103825185D01*
X117115500Y-103726674D01*
X117115500Y-103193326D01*
X117105436Y-103094815D01*
X117052549Y-102935213D01*
X117052545Y-102935207D01*
X117052544Y-102935204D01*
X116964283Y-102792112D01*
X116964280Y-102792108D01*
X116958692Y-102786520D01*
X116925207Y-102725197D01*
X116930191Y-102655505D01*
X116948767Y-102622360D01*
X116950464Y-102620192D01*
X116950472Y-102620185D01*
X117038478Y-102474606D01*
X117089086Y-102312196D01*
X117095500Y-102241616D01*
X117095500Y-101728384D01*
X117089086Y-101657804D01*
X117038478Y-101495394D01*
X116962169Y-101369164D01*
X116944334Y-101301613D01*
X116965851Y-101235139D01*
X117019892Y-101190851D01*
X117089297Y-101182810D01*
X117152032Y-101213569D01*
X117155968Y-101217336D01*
X117838042Y-101899410D01*
X117864922Y-101939638D01*
X117931985Y-102101544D01*
X117931990Y-102101553D01*
X118030535Y-102249034D01*
X118030538Y-102249038D01*
X118155961Y-102374461D01*
X118155965Y-102374464D01*
X118303446Y-102473009D01*
X118303459Y-102473016D01*
X118411237Y-102517658D01*
X118467334Y-102540894D01*
X118467336Y-102540894D01*
X118467341Y-102540896D01*
X118641304Y-102575499D01*
X118641307Y-102575500D01*
X118641309Y-102575500D01*
X118818693Y-102575500D01*
X118818694Y-102575499D01*
X118884971Y-102562316D01*
X118992658Y-102540896D01*
X118992661Y-102540894D01*
X118992666Y-102540894D01*
X119156547Y-102473013D01*
X119304035Y-102374464D01*
X119304038Y-102374461D01*
X119316681Y-102361819D01*
X119378004Y-102328334D01*
X119404362Y-102325500D01*
X119764782Y-102325500D01*
X119831821Y-102345185D01*
X119877576Y-102397989D01*
X119887721Y-102465686D01*
X119875000Y-102562302D01*
X119875000Y-102787697D01*
X119890804Y-102907729D01*
X119888595Y-102941472D01*
X119890374Y-102941707D01*
X119874500Y-103062272D01*
X119874500Y-103287727D01*
X119890374Y-103408292D01*
X119887399Y-103408683D01*
X119887399Y-103441316D01*
X119890374Y-103441708D01*
X119874500Y-103562272D01*
X119874500Y-103787727D01*
X119890374Y-103908292D01*
X119887399Y-103908683D01*
X119887399Y-103941316D01*
X119890374Y-103941708D01*
X119874500Y-104062272D01*
X119874500Y-104287727D01*
X119890374Y-104408292D01*
X119887399Y-104408683D01*
X119887399Y-104441316D01*
X119890374Y-104441708D01*
X119874500Y-104562272D01*
X119874500Y-104787727D01*
X119885499Y-104871271D01*
X119885943Y-104874642D01*
X119890374Y-104908292D01*
X119887399Y-104908683D01*
X119887399Y-104941316D01*
X119890374Y-104941708D01*
X119889313Y-104949762D01*
X119889313Y-104949764D01*
X119886887Y-104968189D01*
X119874500Y-105062272D01*
X119874500Y-105287727D01*
X119885200Y-105368993D01*
X119889306Y-105400185D01*
X119890374Y-105408292D01*
X119887399Y-105408683D01*
X119887399Y-105441316D01*
X119890374Y-105441708D01*
X119874500Y-105562272D01*
X119874500Y-105787727D01*
X119890374Y-105908293D01*
X119888593Y-105908527D01*
X119890804Y-105942270D01*
X119875000Y-106062302D01*
X119875000Y-106287697D01*
X119890804Y-106407729D01*
X119888595Y-106441472D01*
X119890374Y-106441707D01*
X119874500Y-106562272D01*
X119874500Y-106787727D01*
X119884272Y-106861949D01*
X119888242Y-106892103D01*
X119890374Y-106908292D01*
X119887399Y-106908683D01*
X119887399Y-106941316D01*
X119890374Y-106941708D01*
X119874500Y-107062272D01*
X119874500Y-107287727D01*
X119890374Y-107408292D01*
X119887399Y-107408683D01*
X119887399Y-107441316D01*
X119890374Y-107441708D01*
X119874500Y-107562272D01*
X119874500Y-107787727D01*
X119890374Y-107908292D01*
X119887399Y-107908683D01*
X119887399Y-107941316D01*
X119890374Y-107941708D01*
X119874500Y-108062272D01*
X119874500Y-108287727D01*
X119890374Y-108408292D01*
X119887399Y-108408683D01*
X119887399Y-108441316D01*
X119890374Y-108441708D01*
X119874500Y-108562272D01*
X119874500Y-108787727D01*
X119890374Y-108908292D01*
X119887399Y-108908683D01*
X119887399Y-108941316D01*
X119890374Y-108941708D01*
X119874500Y-109062272D01*
X119874500Y-109287727D01*
X119890374Y-109408293D01*
X119888593Y-109408527D01*
X119890804Y-109442270D01*
X119875000Y-109562302D01*
X119875000Y-109787697D01*
X119887721Y-109884314D01*
X119876956Y-109953350D01*
X119830576Y-110005606D01*
X119764782Y-110024500D01*
X117717782Y-110024500D01*
X117650743Y-110004815D01*
X117604988Y-109952011D01*
X117603221Y-109947952D01*
X117533016Y-109778459D01*
X117533009Y-109778446D01*
X117434464Y-109630965D01*
X117434461Y-109630961D01*
X117309038Y-109505538D01*
X117309034Y-109505535D01*
X117161553Y-109406990D01*
X117161540Y-109406983D01*
X116997667Y-109339106D01*
X116997658Y-109339103D01*
X116823694Y-109304500D01*
X116823691Y-109304500D01*
X116646309Y-109304500D01*
X116646306Y-109304500D01*
X116472341Y-109339103D01*
X116472332Y-109339106D01*
X116308459Y-109406983D01*
X116308446Y-109406990D01*
X116160965Y-109505535D01*
X116160961Y-109505538D01*
X116052681Y-109613819D01*
X115991358Y-109647304D01*
X115921666Y-109642320D01*
X115877319Y-109613819D01*
X115774038Y-109510538D01*
X115774034Y-109510535D01*
X115626553Y-109411990D01*
X115626540Y-109411983D01*
X115462667Y-109344106D01*
X115462658Y-109344103D01*
X115288694Y-109309500D01*
X115288691Y-109309500D01*
X115111309Y-109309500D01*
X115111306Y-109309500D01*
X114937341Y-109344103D01*
X114937332Y-109344106D01*
X114773459Y-109411983D01*
X114773446Y-109411990D01*
X114625965Y-109510535D01*
X114625961Y-109510538D01*
X114500538Y-109635961D01*
X114500535Y-109635965D01*
X114401990Y-109783446D01*
X114401983Y-109783459D01*
X114334106Y-109947332D01*
X114334103Y-109947341D01*
X114299500Y-110121304D01*
X114299500Y-110224135D01*
X114279815Y-110291174D01*
X114227011Y-110336929D01*
X114157853Y-110346873D01*
X114098188Y-110321083D01*
X114064871Y-110294514D01*
X113808096Y-110133172D01*
X113534880Y-110001598D01*
X113534866Y-110001592D01*
X113248645Y-109901438D01*
X113248633Y-109901434D01*
X112952982Y-109833954D01*
X112952966Y-109833952D01*
X112651633Y-109800000D01*
X112348366Y-109800000D01*
X112047033Y-109833952D01*
X112047017Y-109833954D01*
X111751366Y-109901434D01*
X111751354Y-109901438D01*
X111465133Y-110001592D01*
X111465119Y-110001598D01*
X111191903Y-110133172D01*
X110935127Y-110294515D01*
X110775425Y-110421871D01*
X111917263Y-111563709D01*
X111783398Y-111660967D01*
X111660967Y-111783398D01*
X111563709Y-111917263D01*
X110939938Y-111293492D01*
X111133274Y-111293492D01*
X111133274Y-111373056D01*
X111163722Y-111446565D01*
X111219983Y-111502826D01*
X111293492Y-111533274D01*
X111373056Y-111533274D01*
X111446565Y-111502826D01*
X111502826Y-111446565D01*
X111533274Y-111373056D01*
X111533274Y-111293492D01*
X111502826Y-111219983D01*
X111446565Y-111163722D01*
X111373056Y-111133274D01*
X111293492Y-111133274D01*
X111219983Y-111163722D01*
X111163722Y-111219983D01*
X111133274Y-111293492D01*
X110939938Y-111293492D01*
X110421871Y-110775425D01*
X110294515Y-110935127D01*
X110133172Y-111191903D01*
X110001598Y-111465119D01*
X110001592Y-111465133D01*
X109901438Y-111751354D01*
X109901434Y-111751366D01*
X109833954Y-112047017D01*
X109833952Y-112047033D01*
X109800000Y-112348366D01*
X109800000Y-112651633D01*
X109833952Y-112952966D01*
X109833954Y-112952982D01*
X109901434Y-113248633D01*
X109901438Y-113248645D01*
X110001592Y-113534866D01*
X110001598Y-113534880D01*
X110133172Y-113808096D01*
X110294515Y-114064872D01*
X110421871Y-114224573D01*
X111019500Y-113626944D01*
X111133274Y-113626944D01*
X111133274Y-113706508D01*
X111163722Y-113780017D01*
X111219983Y-113836278D01*
X111293492Y-113866726D01*
X111373056Y-113866726D01*
X111446565Y-113836278D01*
X111502826Y-113780017D01*
X111533274Y-113706508D01*
X111533274Y-113626944D01*
X111502826Y-113553435D01*
X111446565Y-113497174D01*
X111373056Y-113466726D01*
X111293492Y-113466726D01*
X111219983Y-113497174D01*
X111163722Y-113553435D01*
X111133274Y-113626944D01*
X111019500Y-113626944D01*
X111563708Y-113082736D01*
X111660967Y-113216602D01*
X111783398Y-113339033D01*
X111917262Y-113436290D01*
X110775425Y-114578127D01*
X110935127Y-114705484D01*
X111191903Y-114866827D01*
X111465119Y-114998401D01*
X111465133Y-114998407D01*
X111751354Y-115098561D01*
X111751366Y-115098565D01*
X112047017Y-115166045D01*
X112047033Y-115166047D01*
X112348366Y-115199999D01*
X112348368Y-115200000D01*
X112651632Y-115200000D01*
X112651633Y-115199999D01*
X112952966Y-115166047D01*
X112952982Y-115166045D01*
X113248633Y-115098565D01*
X113248645Y-115098561D01*
X113534866Y-114998407D01*
X113534880Y-114998401D01*
X113808096Y-114866827D01*
X114064872Y-114705484D01*
X114224573Y-114578126D01*
X113273391Y-113626944D01*
X113466726Y-113626944D01*
X113466726Y-113706508D01*
X113497174Y-113780017D01*
X113553435Y-113836278D01*
X113626944Y-113866726D01*
X113706508Y-113866726D01*
X113780017Y-113836278D01*
X113836278Y-113780017D01*
X113866726Y-113706508D01*
X113866726Y-113626944D01*
X113836278Y-113553435D01*
X113780017Y-113497174D01*
X113706508Y-113466726D01*
X113626944Y-113466726D01*
X113553435Y-113497174D01*
X113497174Y-113553435D01*
X113466726Y-113626944D01*
X113273391Y-113626944D01*
X113082737Y-113436290D01*
X113216602Y-113339033D01*
X113339033Y-113216602D01*
X113436290Y-113082737D01*
X114578126Y-114224573D01*
X114705484Y-114064872D01*
X114866827Y-113808096D01*
X114998401Y-113534880D01*
X114998407Y-113534866D01*
X115098561Y-113248645D01*
X115098565Y-113248633D01*
X115166045Y-112952982D01*
X115166047Y-112952966D01*
X115199999Y-112651633D01*
X115200000Y-112651631D01*
X115200000Y-112348368D01*
X115199999Y-112348366D01*
X115166047Y-112047033D01*
X115166045Y-112047017D01*
X115098565Y-111751366D01*
X115098561Y-111751354D01*
X114998407Y-111465133D01*
X114998401Y-111465119D01*
X114905397Y-111271995D01*
X114903703Y-111261707D01*
X114898081Y-111252927D01*
X114898123Y-111227822D01*
X114894045Y-111203054D01*
X114898181Y-111193484D01*
X114898199Y-111183057D01*
X114911808Y-111161959D01*
X114921767Y-111138919D01*
X114930420Y-111133105D01*
X114936072Y-111124343D01*
X114958924Y-111113953D01*
X114979762Y-111099953D01*
X114991875Y-111098972D01*
X114999677Y-111095426D01*
X115026533Y-111096167D01*
X115034971Y-111095485D01*
X115038147Y-111095947D01*
X115111309Y-111110500D01*
X115138166Y-111110500D01*
X115147046Y-111111792D01*
X115170976Y-111122769D01*
X115196231Y-111130185D01*
X115208242Y-111139863D01*
X115210553Y-111140924D01*
X115211614Y-111142581D01*
X115216873Y-111146819D01*
X115750325Y-111680272D01*
X115750326Y-111680273D01*
X115750329Y-111680275D01*
X115750331Y-111680277D01*
X115856873Y-111751465D01*
X115975256Y-111800501D01*
X115975260Y-111800501D01*
X115975261Y-111800502D01*
X116100928Y-111825500D01*
X119764782Y-111825500D01*
X119831821Y-111845185D01*
X119877576Y-111897989D01*
X119887721Y-111965686D01*
X119875000Y-112062302D01*
X119875000Y-112287697D01*
X119889800Y-112400104D01*
X119889801Y-112400108D01*
X119947736Y-112539978D01*
X120019376Y-112633340D01*
X120032521Y-112654614D01*
X120063835Y-112719032D01*
X120626253Y-112156615D01*
X120687576Y-112123130D01*
X120757268Y-112128114D01*
X120801615Y-112156615D01*
X120838385Y-112193385D01*
X120871870Y-112254708D01*
X120866886Y-112324400D01*
X120838385Y-112368747D01*
X120233747Y-112973384D01*
X120172424Y-113006869D01*
X120102732Y-113001885D01*
X120058386Y-112973385D01*
X120045000Y-112959999D01*
X120045000Y-113396448D01*
X120555543Y-112885905D01*
X120616866Y-112852420D01*
X120686557Y-112857404D01*
X120730905Y-112885905D01*
X120909094Y-113064094D01*
X120942579Y-113125417D01*
X120937595Y-113195109D01*
X120909094Y-113239456D01*
X120322785Y-113825764D01*
X120437628Y-113868598D01*
X120437627Y-113868598D01*
X120497155Y-113874999D01*
X120497172Y-113875000D01*
X121142828Y-113875000D01*
X121142844Y-113874999D01*
X121202373Y-113868598D01*
X121207483Y-113867391D01*
X121277252Y-113871130D01*
X121333925Y-113911996D01*
X121359506Y-113977014D01*
X121360000Y-113988067D01*
X121360000Y-114992213D01*
X121355777Y-115024299D01*
X121354313Y-115029762D01*
X121339500Y-115142272D01*
X121339500Y-115957727D01*
X121354313Y-116070235D01*
X121354313Y-116070236D01*
X121387195Y-116149621D01*
X121412302Y-116210233D01*
X121504549Y-116330451D01*
X121624767Y-116422698D01*
X121764764Y-116480687D01*
X121871586Y-116494750D01*
X121877264Y-116495498D01*
X121877280Y-116495500D01*
X121877287Y-116495500D01*
X122102713Y-116495500D01*
X122102720Y-116495500D01*
X122215236Y-116480687D01*
X122215236Y-116480686D01*
X122223295Y-116479626D01*
X122223698Y-116482689D01*
X122256302Y-116482689D01*
X122256705Y-116479626D01*
X122264763Y-116480686D01*
X122264764Y-116480687D01*
X122377280Y-116495500D01*
X122377287Y-116495500D01*
X122602713Y-116495500D01*
X122602720Y-116495500D01*
X122715236Y-116480687D01*
X122715236Y-116480686D01*
X122723295Y-116479626D01*
X122723698Y-116482689D01*
X122756302Y-116482689D01*
X122756705Y-116479626D01*
X122764763Y-116480686D01*
X122764764Y-116480687D01*
X122877280Y-116495500D01*
X122877287Y-116495500D01*
X123102713Y-116495500D01*
X123102720Y-116495500D01*
X123215236Y-116480687D01*
X123215236Y-116480686D01*
X123223295Y-116479626D01*
X123223698Y-116482689D01*
X123256302Y-116482689D01*
X123256705Y-116479626D01*
X123264763Y-116480686D01*
X123264764Y-116480687D01*
X123377280Y-116495500D01*
X123377287Y-116495500D01*
X123602713Y-116495500D01*
X123602720Y-116495500D01*
X123715236Y-116480687D01*
X123715236Y-116480686D01*
X123723295Y-116479626D01*
X123723503Y-116481209D01*
X123749363Y-116478779D01*
X123762572Y-116479779D01*
X123764764Y-116480687D01*
X123877280Y-116495500D01*
X123970188Y-116495500D01*
X123974863Y-116495854D01*
X124003340Y-116506611D01*
X124032539Y-116515185D01*
X124035702Y-116518836D01*
X124040224Y-116520544D01*
X124058367Y-116544992D01*
X124078294Y-116567989D01*
X124079480Y-116573442D01*
X124081862Y-116576652D01*
X124082616Y-116587857D01*
X124089500Y-116619500D01*
X124089500Y-116738695D01*
X124124103Y-116912658D01*
X124124106Y-116912667D01*
X124191983Y-117076540D01*
X124191990Y-117076553D01*
X124290535Y-117224034D01*
X124290538Y-117224038D01*
X124415961Y-117349461D01*
X124415965Y-117349464D01*
X124563446Y-117448009D01*
X124563459Y-117448016D01*
X124673448Y-117493574D01*
X124727334Y-117515894D01*
X124727336Y-117515894D01*
X124727341Y-117515896D01*
X124901304Y-117550499D01*
X124901307Y-117550500D01*
X124901309Y-117550500D01*
X125078693Y-117550500D01*
X125078694Y-117550499D01*
X125136682Y-117538964D01*
X125252658Y-117515896D01*
X125252661Y-117515894D01*
X125252666Y-117515894D01*
X125416547Y-117448013D01*
X125458750Y-117419812D01*
X125525427Y-117398934D01*
X125575094Y-117408353D01*
X125670834Y-117448009D01*
X125726328Y-117470995D01*
X125726330Y-117470995D01*
X125726335Y-117470997D01*
X125900298Y-117505600D01*
X125900301Y-117505601D01*
X125900303Y-117505601D01*
X126077687Y-117505601D01*
X126077688Y-117505600D01*
X126138148Y-117493574D01*
X126251652Y-117470997D01*
X126251655Y-117470995D01*
X126251660Y-117470995D01*
X126415541Y-117403114D01*
X126563029Y-117304565D01*
X126688458Y-117179136D01*
X126787007Y-117031648D01*
X126854888Y-116867767D01*
X126889494Y-116693792D01*
X126889494Y-116619500D01*
X126890712Y-116615350D01*
X126889777Y-116611129D01*
X126900470Y-116582119D01*
X126909179Y-116552461D01*
X126912446Y-116549629D01*
X126913942Y-116545572D01*
X126938623Y-116526947D01*
X126961983Y-116506706D01*
X126967238Y-116505353D01*
X126969714Y-116503486D01*
X126986153Y-116500487D01*
X127004173Y-116495851D01*
X127008829Y-116495500D01*
X127102720Y-116495500D01*
X127215236Y-116480687D01*
X127217440Y-116479774D01*
X127230679Y-116478776D01*
X127249006Y-116482689D01*
X127256302Y-116482689D01*
X127256705Y-116479626D01*
X127264763Y-116480686D01*
X127264764Y-116480687D01*
X127377280Y-116495500D01*
X127377287Y-116495500D01*
X127602713Y-116495500D01*
X127602720Y-116495500D01*
X127715236Y-116480687D01*
X127715236Y-116480686D01*
X127723295Y-116479626D01*
X127723698Y-116482689D01*
X127756302Y-116482689D01*
X127756705Y-116479626D01*
X127764763Y-116480686D01*
X127764764Y-116480687D01*
X127877280Y-116495500D01*
X127877287Y-116495500D01*
X128102713Y-116495500D01*
X128102720Y-116495500D01*
X128215236Y-116480687D01*
X128215236Y-116480686D01*
X128223295Y-116479626D01*
X128223698Y-116482689D01*
X128256302Y-116482689D01*
X128256705Y-116479626D01*
X128264763Y-116480686D01*
X128264764Y-116480687D01*
X128377280Y-116495500D01*
X128377287Y-116495500D01*
X128602713Y-116495500D01*
X128602720Y-116495500D01*
X128715236Y-116480687D01*
X128715236Y-116480686D01*
X128723295Y-116479626D01*
X128723698Y-116482689D01*
X128756302Y-116482689D01*
X128756705Y-116479626D01*
X128764763Y-116480686D01*
X128764764Y-116480687D01*
X128877280Y-116495500D01*
X128877287Y-116495500D01*
X129102713Y-116495500D01*
X129102720Y-116495500D01*
X129215236Y-116480687D01*
X129215236Y-116480686D01*
X129223295Y-116479626D01*
X129223698Y-116482689D01*
X129256302Y-116482689D01*
X129256705Y-116479626D01*
X129264763Y-116480686D01*
X129264764Y-116480687D01*
X129377280Y-116495500D01*
X129377287Y-116495500D01*
X129602713Y-116495500D01*
X129602720Y-116495500D01*
X129715236Y-116480687D01*
X129715236Y-116480686D01*
X129723295Y-116479626D01*
X129723698Y-116482689D01*
X129756302Y-116482689D01*
X129756705Y-116479626D01*
X129764763Y-116480686D01*
X129764764Y-116480687D01*
X129877280Y-116495500D01*
X129877287Y-116495500D01*
X130102713Y-116495500D01*
X130102720Y-116495500D01*
X130215236Y-116480687D01*
X130215236Y-116480686D01*
X130223295Y-116479626D01*
X130223698Y-116482689D01*
X130256302Y-116482689D01*
X130256705Y-116479626D01*
X130264763Y-116480686D01*
X130264764Y-116480687D01*
X130377280Y-116495500D01*
X130377287Y-116495500D01*
X130602713Y-116495500D01*
X130602720Y-116495500D01*
X130715236Y-116480687D01*
X130715236Y-116480686D01*
X130723295Y-116479626D01*
X130723529Y-116481409D01*
X130757270Y-116479196D01*
X130877302Y-116494999D01*
X130877317Y-116495000D01*
X131102683Y-116495000D01*
X131102697Y-116494999D01*
X131223162Y-116479139D01*
X131223557Y-116482142D01*
X131256443Y-116482142D01*
X131256838Y-116479139D01*
X131377302Y-116494999D01*
X131377317Y-116495000D01*
X131602683Y-116495000D01*
X131602697Y-116494999D01*
X131723162Y-116479139D01*
X131723557Y-116482142D01*
X131756443Y-116482142D01*
X131756838Y-116479139D01*
X131877302Y-116494999D01*
X131877317Y-116495000D01*
X132102683Y-116495000D01*
X132102697Y-116494999D01*
X132222729Y-116479196D01*
X132256470Y-116481406D01*
X132256705Y-116479626D01*
X132264763Y-116480686D01*
X132264764Y-116480687D01*
X132377280Y-116495500D01*
X132377287Y-116495500D01*
X132602713Y-116495500D01*
X132602720Y-116495500D01*
X132715236Y-116480687D01*
X132715236Y-116480686D01*
X132723295Y-116479626D01*
X132723529Y-116481409D01*
X132757270Y-116479196D01*
X132877302Y-116494999D01*
X132877317Y-116495000D01*
X133102683Y-116495000D01*
X133102697Y-116494999D01*
X133222729Y-116479196D01*
X133256470Y-116481406D01*
X133256705Y-116479626D01*
X133264763Y-116480686D01*
X133264764Y-116480687D01*
X133377280Y-116495500D01*
X133377287Y-116495500D01*
X133602713Y-116495500D01*
X133602720Y-116495500D01*
X133715236Y-116480687D01*
X133715236Y-116480686D01*
X133723295Y-116479626D01*
X133723529Y-116481409D01*
X133757270Y-116479196D01*
X133877302Y-116494999D01*
X133877317Y-116495000D01*
X134102683Y-116495000D01*
X134102697Y-116494999D01*
X134223162Y-116479139D01*
X134223557Y-116482142D01*
X134256443Y-116482142D01*
X134256838Y-116479139D01*
X134377302Y-116494999D01*
X134377317Y-116495000D01*
X134602683Y-116495000D01*
X134602697Y-116494999D01*
X134715104Y-116480199D01*
X134715108Y-116480198D01*
X134854978Y-116422263D01*
X134948340Y-116350624D01*
X134969614Y-116337479D01*
X135034032Y-116306163D01*
X134490001Y-115762132D01*
X134490000Y-115762132D01*
X134352181Y-115899950D01*
X134332744Y-115910562D01*
X134316011Y-115925063D01*
X134302679Y-115926979D01*
X134290858Y-115933435D01*
X134268771Y-115931855D01*
X134246853Y-115935007D01*
X134234601Y-115929411D01*
X134221166Y-115928451D01*
X134203439Y-115915180D01*
X134183297Y-115905982D01*
X134176014Y-115894650D01*
X134165233Y-115886579D01*
X134157495Y-115865833D01*
X134145523Y-115847204D01*
X134142371Y-115825285D01*
X134140816Y-115821115D01*
X134140500Y-115812269D01*
X134140500Y-115738730D01*
X134160185Y-115671691D01*
X134176819Y-115651049D01*
X134277868Y-115550000D01*
X134277867Y-115549999D01*
X134702132Y-115549999D01*
X134702132Y-115550000D01*
X135288384Y-116136252D01*
X135292721Y-116144196D01*
X135299969Y-116149621D01*
X135309205Y-116174383D01*
X135321869Y-116197575D01*
X135321223Y-116206603D01*
X135324387Y-116215085D01*
X135318770Y-116240906D01*
X135316885Y-116267267D01*
X135311066Y-116276319D01*
X135309536Y-116283358D01*
X135288385Y-116311613D01*
X135274998Y-116325000D01*
X135667821Y-116325000D01*
X135667836Y-116324999D01*
X135707213Y-116320765D01*
X135707213Y-116320764D01*
X135200905Y-115814456D01*
X135167420Y-115753133D01*
X135172404Y-115683441D01*
X135200905Y-115639093D01*
X135289999Y-115549999D01*
X135643552Y-115549999D01*
X135643552Y-115550000D01*
X136089780Y-115996228D01*
X136113598Y-115932373D01*
X136119999Y-115872844D01*
X136120000Y-115872827D01*
X136120000Y-115227172D01*
X136119999Y-115227155D01*
X136113598Y-115167627D01*
X136113597Y-115167621D01*
X136089781Y-115103769D01*
X136089780Y-115103769D01*
X135643552Y-115549999D01*
X135289999Y-115549999D01*
X135200904Y-115460904D01*
X135167419Y-115399581D01*
X135172403Y-115329889D01*
X135200904Y-115285542D01*
X135707212Y-114779234D01*
X135667830Y-114775000D01*
X135287934Y-114775000D01*
X135287934Y-114787934D01*
X135288385Y-114788386D01*
X135321870Y-114849710D01*
X135316884Y-114919401D01*
X135288384Y-114963747D01*
X134702132Y-115549999D01*
X134277867Y-115549999D01*
X134176819Y-115448951D01*
X134162115Y-115422023D01*
X134145523Y-115396205D01*
X134144631Y-115390004D01*
X134143334Y-115387628D01*
X134140500Y-115361270D01*
X134140500Y-115287730D01*
X134160185Y-115220691D01*
X134212989Y-115174936D01*
X134282147Y-115164992D01*
X134345703Y-115194017D01*
X134352181Y-115200049D01*
X134490000Y-115337868D01*
X135039934Y-114787934D01*
X135039934Y-114775000D01*
X135023827Y-114775000D01*
X134956788Y-114755315D01*
X134948340Y-114749376D01*
X134854978Y-114677736D01*
X134715108Y-114619801D01*
X134715104Y-114619800D01*
X134602697Y-114605000D01*
X134377302Y-114605000D01*
X134256839Y-114620861D01*
X134256451Y-114617915D01*
X134223549Y-114617915D01*
X134223161Y-114620861D01*
X134102697Y-114605000D01*
X133877302Y-114605000D01*
X133757270Y-114620804D01*
X133723527Y-114618593D01*
X133723293Y-114620374D01*
X133715236Y-114619313D01*
X133691393Y-114616174D01*
X133602727Y-114604500D01*
X133602720Y-114604500D01*
X133377280Y-114604500D01*
X133377272Y-114604500D01*
X133288607Y-114616174D01*
X133264764Y-114619313D01*
X133264763Y-114619313D01*
X133256707Y-114620374D01*
X133256472Y-114618595D01*
X133222729Y-114620804D01*
X133102697Y-114605000D01*
X132877302Y-114605000D01*
X132757270Y-114620804D01*
X132723527Y-114618593D01*
X132723293Y-114620374D01*
X132715236Y-114619313D01*
X132691393Y-114616174D01*
X132602727Y-114604500D01*
X132602720Y-114604500D01*
X132377280Y-114604500D01*
X132377272Y-114604500D01*
X132288607Y-114616174D01*
X132264764Y-114619313D01*
X132264763Y-114619313D01*
X132256707Y-114620374D01*
X132256472Y-114618595D01*
X132222729Y-114620804D01*
X132102697Y-114605000D01*
X131877302Y-114605000D01*
X131756839Y-114620861D01*
X131756451Y-114617915D01*
X131723549Y-114617915D01*
X131723161Y-114620861D01*
X131602697Y-114605000D01*
X131377302Y-114605000D01*
X131256839Y-114620861D01*
X131256451Y-114617915D01*
X131223549Y-114617915D01*
X131223161Y-114620861D01*
X131102697Y-114605000D01*
X130877302Y-114605000D01*
X130757270Y-114620804D01*
X130723527Y-114618593D01*
X130723293Y-114620374D01*
X130715236Y-114619313D01*
X130691393Y-114616174D01*
X130602727Y-114604500D01*
X130602720Y-114604500D01*
X130377280Y-114604500D01*
X130377272Y-114604500D01*
X130290393Y-114615938D01*
X130264764Y-114619313D01*
X130264762Y-114619313D01*
X130256708Y-114620374D01*
X130256316Y-114617399D01*
X130223684Y-114617399D01*
X130223292Y-114620374D01*
X130215237Y-114619313D01*
X130215236Y-114619313D01*
X130186271Y-114615499D01*
X130102727Y-114604500D01*
X130102720Y-114604500D01*
X129877280Y-114604500D01*
X129877272Y-114604500D01*
X129790393Y-114615938D01*
X129764764Y-114619313D01*
X129764762Y-114619313D01*
X129756708Y-114620374D01*
X129756316Y-114617399D01*
X129723684Y-114617399D01*
X129723292Y-114620374D01*
X129715237Y-114619313D01*
X129715236Y-114619313D01*
X129686271Y-114615499D01*
X129602727Y-114604500D01*
X129602720Y-114604500D01*
X129377280Y-114604500D01*
X129377272Y-114604500D01*
X129290393Y-114615938D01*
X129264764Y-114619313D01*
X129264762Y-114619313D01*
X129256708Y-114620374D01*
X129256316Y-114617399D01*
X129223684Y-114617399D01*
X129223292Y-114620374D01*
X129215237Y-114619313D01*
X129215236Y-114619313D01*
X129186271Y-114615499D01*
X129102727Y-114604500D01*
X129102720Y-114604500D01*
X128877280Y-114604500D01*
X128877272Y-114604500D01*
X128758897Y-114620085D01*
X128758771Y-114620145D01*
X128758541Y-114620132D01*
X128756708Y-114620374D01*
X128756662Y-114620030D01*
X128742493Y-114619262D01*
X128723478Y-114620468D01*
X128715403Y-114619382D01*
X128715236Y-114619313D01*
X128698311Y-114617084D01*
X128697979Y-114617040D01*
X128666219Y-114602886D01*
X128634417Y-114588816D01*
X128634321Y-114588670D01*
X128634160Y-114588599D01*
X128614992Y-114559365D01*
X128595947Y-114530491D01*
X128595913Y-114530268D01*
X128595849Y-114530170D01*
X128595845Y-114529815D01*
X128590501Y-114494146D01*
X128590501Y-114470944D01*
X128580347Y-114433048D01*
X128549577Y-114318216D01*
X128549573Y-114318209D01*
X128470524Y-114181290D01*
X128470518Y-114181282D01*
X128436819Y-114147583D01*
X128403334Y-114086260D01*
X128400500Y-114059902D01*
X128400500Y-113971306D01*
X128400499Y-113971304D01*
X128365896Y-113797341D01*
X128365893Y-113797332D01*
X128298016Y-113633459D01*
X128298009Y-113633446D01*
X128199464Y-113485965D01*
X128199461Y-113485961D01*
X128074038Y-113360538D01*
X128074034Y-113360535D01*
X127926553Y-113261990D01*
X127926540Y-113261983D01*
X127762667Y-113194106D01*
X127762658Y-113194103D01*
X127588694Y-113159500D01*
X127588691Y-113159500D01*
X127411309Y-113159500D01*
X127411306Y-113159500D01*
X127237341Y-113194103D01*
X127237332Y-113194106D01*
X127073459Y-113261983D01*
X127073446Y-113261990D01*
X126925965Y-113360535D01*
X126925961Y-113360538D01*
X126800538Y-113485961D01*
X126800535Y-113485965D01*
X126701990Y-113633446D01*
X126701983Y-113633459D01*
X126634106Y-113797332D01*
X126634103Y-113797341D01*
X126599500Y-113971304D01*
X126599500Y-114148695D01*
X126634103Y-114322658D01*
X126634106Y-114322667D01*
X126679827Y-114433048D01*
X126687296Y-114502517D01*
X126656020Y-114564996D01*
X126595931Y-114600648D01*
X126565266Y-114604500D01*
X126377272Y-114604500D01*
X126288607Y-114616174D01*
X126264764Y-114619313D01*
X126264763Y-114619313D01*
X126256707Y-114620374D01*
X126256472Y-114618595D01*
X126222729Y-114620804D01*
X126102697Y-114605000D01*
X125877302Y-114605000D01*
X125757270Y-114620804D01*
X125723527Y-114618593D01*
X125723293Y-114620374D01*
X125715236Y-114619313D01*
X125691393Y-114616174D01*
X125602727Y-114604500D01*
X125602720Y-114604500D01*
X125377280Y-114604500D01*
X125377272Y-114604500D01*
X125290393Y-114615938D01*
X125264764Y-114619313D01*
X125264762Y-114619313D01*
X125256708Y-114620374D01*
X125256316Y-114617399D01*
X125223684Y-114617399D01*
X125223292Y-114620374D01*
X125215237Y-114619313D01*
X125215236Y-114619313D01*
X125186271Y-114615499D01*
X125102727Y-114604500D01*
X125102720Y-114604500D01*
X124877280Y-114604500D01*
X124877275Y-114604500D01*
X124877267Y-114604501D01*
X124840184Y-114609383D01*
X124771149Y-114598617D01*
X124718894Y-114552236D01*
X124700000Y-114486444D01*
X124700000Y-109585000D01*
X121876732Y-109585000D01*
X121875995Y-109584783D01*
X121875257Y-109584991D01*
X121842511Y-109574951D01*
X121809693Y-109565315D01*
X121809191Y-109564736D01*
X121808457Y-109564511D01*
X121786328Y-109538350D01*
X121763938Y-109512511D01*
X121763664Y-109511557D01*
X121763333Y-109511166D01*
X121753793Y-109477186D01*
X121749196Y-109442270D01*
X121751409Y-109408529D01*
X121749626Y-109408295D01*
X121754614Y-109370408D01*
X121765500Y-109287720D01*
X121765500Y-109062280D01*
X121750687Y-108949764D01*
X121750686Y-108949763D01*
X121749626Y-108941705D01*
X121752689Y-108941301D01*
X121752689Y-108908698D01*
X121749626Y-108908295D01*
X121755891Y-108860705D01*
X121765500Y-108787720D01*
X121765500Y-108562280D01*
X121750687Y-108449764D01*
X121750686Y-108449763D01*
X121749626Y-108441705D01*
X121751268Y-108441488D01*
X121748853Y-108414711D01*
X121749899Y-108402135D01*
X121750687Y-108400236D01*
X121765500Y-108287720D01*
X121765500Y-108259720D01*
X129258829Y-108259720D01*
X129258829Y-108259722D01*
X129282622Y-108268597D01*
X129282623Y-108268598D01*
X129342155Y-108274999D01*
X129342172Y-108275000D01*
X131137828Y-108275000D01*
X131137844Y-108274999D01*
X131197372Y-108268598D01*
X131221169Y-108259721D01*
X130240000Y-107278552D01*
X129258829Y-108259720D01*
X121765500Y-108259720D01*
X121765500Y-108062280D01*
X121750687Y-107949764D01*
X121750686Y-107949763D01*
X121749626Y-107941705D01*
X121752689Y-107941301D01*
X121752689Y-107908698D01*
X121749626Y-107908295D01*
X121753039Y-107882372D01*
X121765500Y-107787720D01*
X121765500Y-107562280D01*
X121750687Y-107449764D01*
X121750686Y-107449763D01*
X121749626Y-107441705D01*
X121752689Y-107441301D01*
X121752689Y-107408698D01*
X121749626Y-107408295D01*
X121750687Y-107400236D01*
X121765500Y-107287720D01*
X121765500Y-107062280D01*
X121750687Y-106949764D01*
X121750686Y-106949763D01*
X121749626Y-106941705D01*
X121752689Y-106941301D01*
X121752689Y-106908698D01*
X121749626Y-106908295D01*
X121754581Y-106870656D01*
X121765500Y-106787720D01*
X121765500Y-106562280D01*
X121750687Y-106449764D01*
X121750686Y-106449763D01*
X121749626Y-106441705D01*
X121751406Y-106441470D01*
X121749196Y-106407729D01*
X121764999Y-106287697D01*
X121765000Y-106287683D01*
X121765000Y-106062316D01*
X121764998Y-106062297D01*
X121762068Y-106040037D01*
X121760372Y-106027155D01*
X128890000Y-106027155D01*
X128890000Y-107822844D01*
X128896401Y-107882375D01*
X128905277Y-107906170D01*
X129886448Y-106925000D01*
X129886448Y-106924999D01*
X130593552Y-106924999D01*
X130593552Y-106925000D01*
X131574721Y-107906169D01*
X131583598Y-107882372D01*
X131589999Y-107822844D01*
X131590000Y-107822827D01*
X131590000Y-106027172D01*
X131589999Y-106027155D01*
X131583598Y-105967623D01*
X131583597Y-105967622D01*
X131574722Y-105943829D01*
X131574720Y-105943829D01*
X130593552Y-106924999D01*
X129886448Y-106924999D01*
X128905277Y-105943829D01*
X128896402Y-105967623D01*
X128896402Y-105967624D01*
X128890000Y-106027155D01*
X121760372Y-106027155D01*
X121749196Y-105942270D01*
X121751409Y-105908529D01*
X121749626Y-105908295D01*
X121752838Y-105883896D01*
X121765500Y-105787720D01*
X121765500Y-105590277D01*
X129258829Y-105590277D01*
X130240000Y-106571448D01*
X130240001Y-106571448D01*
X131221170Y-105590277D01*
X131221170Y-105590276D01*
X131197375Y-105581401D01*
X131137844Y-105575000D01*
X129342155Y-105575000D01*
X129282627Y-105581401D01*
X129282623Y-105581402D01*
X129258829Y-105590277D01*
X121765500Y-105590277D01*
X121765500Y-105562280D01*
X121750687Y-105449764D01*
X121749900Y-105447864D01*
X121748853Y-105435289D01*
X121752689Y-105416607D01*
X121752689Y-105408698D01*
X121749626Y-105408295D01*
X121756531Y-105355843D01*
X121765500Y-105287720D01*
X121765500Y-105062280D01*
X121750687Y-104949764D01*
X121750686Y-104949763D01*
X121749626Y-104941705D01*
X121752689Y-104941301D01*
X121752689Y-104908698D01*
X121749626Y-104908295D01*
X121754055Y-104874650D01*
X121765500Y-104787720D01*
X121765500Y-104562280D01*
X121750687Y-104449764D01*
X121750686Y-104449763D01*
X121749626Y-104441705D01*
X121752689Y-104441301D01*
X121752689Y-104408698D01*
X121749626Y-104408295D01*
X121750784Y-104399500D01*
X121765500Y-104287720D01*
X121765500Y-104062280D01*
X121750687Y-103949764D01*
X121750686Y-103949763D01*
X121749626Y-103941705D01*
X121752689Y-103941301D01*
X121752689Y-103908698D01*
X121749626Y-103908295D01*
X121755208Y-103865893D01*
X121765500Y-103787720D01*
X121765500Y-103562280D01*
X121750687Y-103449764D01*
X121750685Y-103449760D01*
X121749944Y-103444127D01*
X121749892Y-103444015D01*
X121749903Y-103443810D01*
X121749626Y-103441705D01*
X121750020Y-103441653D01*
X121750765Y-103428000D01*
X121749498Y-103408723D01*
X121750591Y-103400467D01*
X121750687Y-103400236D01*
X121759267Y-103335061D01*
X132094170Y-103335061D01*
X132094170Y-103614939D01*
X132123067Y-103825183D01*
X132132280Y-103892208D01*
X132132281Y-103892214D01*
X132207791Y-104161710D01*
X132319293Y-104418412D01*
X132319292Y-104418412D01*
X132464710Y-104657541D01*
X132464717Y-104657552D01*
X132624099Y-104853458D01*
X132641340Y-104874650D01*
X132845885Y-105065681D01*
X133074535Y-105227080D01*
X133074534Y-105227080D01*
X133074536Y-105227081D01*
X133323035Y-105355843D01*
X133586752Y-105449568D01*
X133586754Y-105449568D01*
X133586763Y-105449571D01*
X133766168Y-105486851D01*
X133860773Y-105506510D01*
X133860774Y-105506511D01*
X133878650Y-105507733D01*
X134140000Y-105525610D01*
X134419225Y-105506511D01*
X134566033Y-105476003D01*
X134693236Y-105449571D01*
X134693241Y-105449569D01*
X134693248Y-105449568D01*
X134956965Y-105355843D01*
X135205464Y-105227081D01*
X135434115Y-105065681D01*
X135638660Y-104874650D01*
X135815287Y-104657546D01*
X135960706Y-104418414D01*
X136072210Y-104161707D01*
X136147720Y-103892209D01*
X136185830Y-103614939D01*
X136185830Y-103335061D01*
X136147720Y-103057791D01*
X136072210Y-102788293D01*
X135960706Y-102531587D01*
X135960707Y-102531587D01*
X135865156Y-102374461D01*
X135815287Y-102292454D01*
X135815284Y-102292450D01*
X135815282Y-102292447D01*
X135638666Y-102075357D01*
X135638664Y-102075355D01*
X135638660Y-102075350D01*
X135434115Y-101884319D01*
X135205464Y-101722919D01*
X135205465Y-101722919D01*
X134956963Y-101594156D01*
X134693253Y-101500433D01*
X134693236Y-101500428D01*
X134419227Y-101443489D01*
X134419225Y-101443488D01*
X134140000Y-101424390D01*
X133860774Y-101443488D01*
X133860772Y-101443489D01*
X133586763Y-101500428D01*
X133586746Y-101500433D01*
X133323036Y-101594156D01*
X133074535Y-101722919D01*
X132982744Y-101787713D01*
X132845885Y-101884319D01*
X132655297Y-102062316D01*
X132641333Y-102075357D01*
X132464717Y-102292447D01*
X132464710Y-102292458D01*
X132319292Y-102531587D01*
X132207791Y-102788289D01*
X132132281Y-103057785D01*
X132132280Y-103057791D01*
X132113309Y-103195818D01*
X132094170Y-103335061D01*
X121759267Y-103335061D01*
X121765500Y-103287720D01*
X121765500Y-103062280D01*
X121750687Y-102949764D01*
X121750686Y-102949763D01*
X121749626Y-102941705D01*
X121751406Y-102941470D01*
X121749196Y-102907729D01*
X121764999Y-102787697D01*
X121765000Y-102787683D01*
X121765000Y-102562316D01*
X121764999Y-102562302D01*
X121749139Y-102441838D01*
X121752142Y-102441442D01*
X121752142Y-102408557D01*
X121749139Y-102408162D01*
X121764999Y-102287697D01*
X121765000Y-102287683D01*
X121765000Y-102062316D01*
X121764999Y-102062302D01*
X121749196Y-101942270D01*
X121751409Y-101908529D01*
X121749626Y-101908295D01*
X121752782Y-101884320D01*
X121765500Y-101787720D01*
X121765500Y-101562280D01*
X121750687Y-101449764D01*
X121692698Y-101309767D01*
X121673368Y-101284577D01*
X121620624Y-101215838D01*
X121595430Y-101150669D01*
X121595000Y-101140352D01*
X121595000Y-100453552D01*
X121594999Y-100453551D01*
X121084456Y-100964094D01*
X121023133Y-100997579D01*
X120953441Y-100992595D01*
X120909094Y-100964094D01*
X120820000Y-100875000D01*
X120730905Y-100964095D01*
X120669582Y-100997579D01*
X120599890Y-100992595D01*
X120555543Y-100964094D01*
X120045000Y-100453551D01*
X120045000Y-100900500D01*
X120025315Y-100967539D01*
X119972511Y-101013294D01*
X119921000Y-101024500D01*
X119404362Y-101024500D01*
X119337323Y-101004815D01*
X119316681Y-100988181D01*
X119304038Y-100975538D01*
X119304034Y-100975535D01*
X119156553Y-100876990D01*
X119156540Y-100876983D01*
X118992670Y-100809107D01*
X118992660Y-100809104D01*
X118877023Y-100786102D01*
X118815112Y-100753717D01*
X118813534Y-100752166D01*
X118213088Y-100151719D01*
X118085603Y-100024234D01*
X120322786Y-100024234D01*
X120820000Y-100521448D01*
X120820001Y-100521448D01*
X121317213Y-100024234D01*
X121202376Y-99981401D01*
X121142844Y-99975000D01*
X120497155Y-99975000D01*
X120437627Y-99981401D01*
X120437623Y-99981402D01*
X120322786Y-100024234D01*
X118085603Y-100024234D01*
X117813420Y-99752051D01*
X117735242Y-99699815D01*
X117735241Y-99699814D01*
X117690501Y-99669919D01*
X117690488Y-99669912D01*
X117553917Y-99613343D01*
X117553907Y-99613340D01*
X117408920Y-99584500D01*
X117408918Y-99584500D01*
X117084500Y-99584500D01*
X117017461Y-99564815D01*
X116971706Y-99512011D01*
X116960500Y-99460500D01*
X116960500Y-98891057D01*
X116980185Y-98824018D01*
X117019401Y-98785520D01*
X117153656Y-98702712D01*
X117209549Y-98646819D01*
X117270872Y-98613334D01*
X117297230Y-98610500D01*
X117713920Y-98610500D01*
X117811462Y-98591096D01*
X117858913Y-98581658D01*
X117995495Y-98525084D01*
X118048385Y-98489744D01*
X118118416Y-98442952D01*
X118122622Y-98438745D01*
X118132031Y-98432284D01*
X118154825Y-98424826D01*
X118175872Y-98413334D01*
X118196844Y-98411079D01*
X118198437Y-98410558D01*
X118199387Y-98410805D01*
X118202230Y-98410500D01*
X118321613Y-98410500D01*
X118321616Y-98410500D01*
X118392196Y-98404086D01*
X118554606Y-98353478D01*
X118700185Y-98265472D01*
X118820472Y-98145185D01*
X118908478Y-97999606D01*
X118959086Y-97837196D01*
X118965500Y-97766616D01*
X118965500Y-97253384D01*
X118959086Y-97182804D01*
X118908478Y-97020394D01*
X118820472Y-96874815D01*
X118820470Y-96874813D01*
X118820469Y-96874811D01*
X118794211Y-96848553D01*
X118760726Y-96787230D01*
X118765710Y-96717538D01*
X118807582Y-96661605D01*
X118873046Y-96637188D01*
X118929344Y-96646311D01*
X118933452Y-96648012D01*
X118933453Y-96648013D01*
X119097334Y-96715894D01*
X119097336Y-96715894D01*
X119097341Y-96715896D01*
X119271304Y-96750499D01*
X119271307Y-96750500D01*
X119271309Y-96750500D01*
X119448693Y-96750500D01*
X119448694Y-96750499D01*
X119523176Y-96735684D01*
X119622658Y-96715896D01*
X119622661Y-96715894D01*
X119622666Y-96715894D01*
X119762535Y-96657958D01*
X119786540Y-96648016D01*
X119786540Y-96648015D01*
X119786547Y-96648013D01*
X119934035Y-96549464D01*
X120059464Y-96424035D01*
X120158013Y-96276547D01*
X120225894Y-96112666D01*
X120230734Y-96088337D01*
X120260499Y-95938695D01*
X120260500Y-95938693D01*
X120260500Y-95761306D01*
X120260499Y-95761304D01*
X120225896Y-95587341D01*
X120225893Y-95587332D01*
X120158016Y-95423459D01*
X120158009Y-95423446D01*
X120059464Y-95275965D01*
X120059461Y-95275961D01*
X119934038Y-95150538D01*
X119934034Y-95150535D01*
X119786553Y-95051990D01*
X119786540Y-95051983D01*
X119622667Y-94984106D01*
X119622658Y-94984103D01*
X119448694Y-94949500D01*
X119448691Y-94949500D01*
X119271309Y-94949500D01*
X119271306Y-94949500D01*
X119097341Y-94984103D01*
X119097332Y-94984106D01*
X118933453Y-95051986D01*
X118915492Y-95063988D01*
X118878654Y-95088602D01*
X118860607Y-95094253D01*
X118844699Y-95104477D01*
X118813739Y-95108928D01*
X118811978Y-95109480D01*
X118809764Y-95109500D01*
X118742977Y-95109500D01*
X118678828Y-95091617D01*
X118554606Y-95016522D01*
X118392196Y-94965914D01*
X118392194Y-94965913D01*
X118392192Y-94965913D01*
X118342778Y-94961423D01*
X118321616Y-94959500D01*
X117658384Y-94959500D01*
X117639145Y-94961248D01*
X117587807Y-94965913D01*
X117425393Y-95016522D01*
X117358300Y-95057082D01*
X117279815Y-95104528D01*
X117279813Y-95104529D01*
X117273396Y-95108409D01*
X117272203Y-95106436D01*
X117217811Y-95128092D01*
X117149230Y-95114738D01*
X117141163Y-95110170D01*
X117004124Y-95025643D01*
X117004119Y-95025641D01*
X116837697Y-94970494D01*
X116837690Y-94970493D01*
X116734986Y-94960000D01*
X116460000Y-94960000D01*
X116460000Y-95836000D01*
X116440315Y-95903039D01*
X116387511Y-95948794D01*
X116336000Y-95960000D01*
X116210000Y-95960000D01*
X116210000Y-96086000D01*
X116190315Y-96153039D01*
X116137511Y-96198794D01*
X116086000Y-96210000D01*
X112911362Y-96210000D01*
X112844323Y-96190315D01*
X112823681Y-96173681D01*
X112815000Y-96165000D01*
X111915000Y-96165000D01*
X111906319Y-96173681D01*
X111844996Y-96207166D01*
X111818638Y-96210000D01*
X109335001Y-96210000D01*
X109335001Y-96259986D01*
X109345494Y-96362697D01*
X109400641Y-96529119D01*
X109400643Y-96529124D01*
X109492684Y-96678345D01*
X109616655Y-96802316D01*
X109616659Y-96802319D01*
X109619656Y-96804168D01*
X109621279Y-96805972D01*
X109622323Y-96806798D01*
X109622181Y-96806976D01*
X109666381Y-96856116D01*
X109677602Y-96925079D01*
X109649759Y-96989161D01*
X109619661Y-97015241D01*
X109616349Y-97017283D01*
X109616343Y-97017288D01*
X109492289Y-97141342D01*
X109400187Y-97290663D01*
X109400185Y-97290668D01*
X109374363Y-97368595D01*
X109345001Y-97457203D01*
X109345001Y-97457204D01*
X109345000Y-97457204D01*
X109334500Y-97559983D01*
X109334500Y-97962769D01*
X109314815Y-98029808D01*
X109298181Y-98050450D01*
X108335451Y-99013181D01*
X108274128Y-99046666D01*
X108247770Y-99049500D01*
X104351221Y-99049500D01*
X104284182Y-99029815D01*
X104238427Y-98977011D01*
X104227224Y-98926362D01*
X104224435Y-98525084D01*
X104204518Y-95660013D01*
X109335000Y-95660013D01*
X109335000Y-95710000D01*
X110310000Y-95710000D01*
X110810000Y-95710000D01*
X111275000Y-95710000D01*
X111283681Y-95701319D01*
X111345004Y-95667834D01*
X111371362Y-95665000D01*
X112130000Y-95665000D01*
X112130000Y-94965000D01*
X112630000Y-94965000D01*
X112630000Y-95665000D01*
X113388638Y-95665000D01*
X113455677Y-95684685D01*
X113476319Y-95701319D01*
X113485000Y-95710000D01*
X113920000Y-95710000D01*
X114420000Y-95710000D01*
X115960000Y-95710000D01*
X115960000Y-94960000D01*
X115685029Y-94960000D01*
X115685012Y-94960001D01*
X115582302Y-94970494D01*
X115415880Y-95025641D01*
X115415875Y-95025643D01*
X115260509Y-95121475D01*
X115259812Y-95120346D01*
X115202110Y-95143622D01*
X115133468Y-95130579D01*
X115114805Y-95118585D01*
X114964124Y-95025643D01*
X114964119Y-95025641D01*
X114797697Y-94970494D01*
X114797690Y-94970493D01*
X114694986Y-94960000D01*
X114420000Y-94960000D01*
X114420000Y-95710000D01*
X113920000Y-95710000D01*
X113920000Y-94960000D01*
X113645029Y-94960000D01*
X113645012Y-94960001D01*
X113542302Y-94970494D01*
X113375880Y-95025641D01*
X113375875Y-95025643D01*
X113220509Y-95121475D01*
X113218900Y-95118867D01*
X113166775Y-95139801D01*
X113098153Y-95126652D01*
X113089115Y-95120834D01*
X113088879Y-95121218D01*
X112938492Y-95028457D01*
X112938481Y-95028452D01*
X112777606Y-94975144D01*
X112678322Y-94965000D01*
X112630000Y-94965000D01*
X112130000Y-94965000D01*
X112129999Y-94964999D01*
X112081693Y-94965000D01*
X112081675Y-94965001D01*
X111982392Y-94975144D01*
X111821518Y-95028452D01*
X111821507Y-95028457D01*
X111677271Y-95117424D01*
X111671605Y-95121905D01*
X111670691Y-95120749D01*
X111616536Y-95150321D01*
X111546844Y-95145337D01*
X111509605Y-95121404D01*
X111509007Y-95122161D01*
X111503346Y-95117684D01*
X111354124Y-95025643D01*
X111354119Y-95025641D01*
X111187697Y-94970494D01*
X111187690Y-94970493D01*
X111084986Y-94960000D01*
X110810000Y-94960000D01*
X110810000Y-95710000D01*
X110310000Y-95710000D01*
X110310000Y-94960000D01*
X110035029Y-94960000D01*
X110035012Y-94960001D01*
X109932302Y-94970494D01*
X109765880Y-95025641D01*
X109765875Y-95025643D01*
X109616654Y-95117684D01*
X109492684Y-95241654D01*
X109400643Y-95390875D01*
X109400641Y-95390880D01*
X109345494Y-95557302D01*
X109345493Y-95557309D01*
X109335000Y-95660013D01*
X104204518Y-95660013D01*
X104203582Y-95525362D01*
X104222800Y-95458187D01*
X104275285Y-95412066D01*
X104327579Y-95400500D01*
X104568995Y-95400500D01*
X104660041Y-95382389D01*
X104704328Y-95373580D01*
X104728376Y-95363618D01*
X104731927Y-95362809D01*
X104741726Y-95358089D01*
X104831811Y-95320775D01*
X104864331Y-95299045D01*
X104873601Y-95294582D01*
X104886978Y-95283913D01*
X104946542Y-95244114D01*
X104984570Y-95206085D01*
X104996541Y-95196541D01*
X105006088Y-95184567D01*
X105044114Y-95146542D01*
X105083913Y-95086978D01*
X105094582Y-95073601D01*
X105099045Y-95064331D01*
X105120775Y-95031811D01*
X105158089Y-94941726D01*
X105162809Y-94931927D01*
X105163618Y-94928376D01*
X105173580Y-94904328D01*
X105190172Y-94820914D01*
X105200500Y-94768995D01*
X105200500Y-94631004D01*
X105173581Y-94495678D01*
X105173580Y-94495674D01*
X105173580Y-94495672D01*
X105163619Y-94471624D01*
X105162809Y-94468073D01*
X105158084Y-94458263D01*
X105120775Y-94368189D01*
X105120775Y-94368188D01*
X105103887Y-94342915D01*
X105103887Y-94342914D01*
X105099046Y-94335670D01*
X105094582Y-94326399D01*
X105083908Y-94313014D01*
X105044114Y-94253458D01*
X105044112Y-94253455D01*
X105044110Y-94253453D01*
X105011021Y-94220365D01*
X105006093Y-94215437D01*
X104996541Y-94203459D01*
X104984562Y-94193906D01*
X104979634Y-94188978D01*
X104946545Y-94155888D01*
X104946544Y-94155887D01*
X104926334Y-94142383D01*
X104886982Y-94116089D01*
X104873601Y-94105418D01*
X104864332Y-94100954D01*
X104857093Y-94096117D01*
X104857087Y-94096114D01*
X104831814Y-94079227D01*
X104831813Y-94079226D01*
X104831811Y-94079225D01*
X104831808Y-94079223D01*
X104831803Y-94079221D01*
X104744957Y-94043249D01*
X104744952Y-94043247D01*
X104741733Y-94041913D01*
X104731927Y-94037191D01*
X104728380Y-94036381D01*
X104718736Y-94032386D01*
X104718727Y-94032384D01*
X104714873Y-94030788D01*
X104704328Y-94026420D01*
X104704324Y-94026419D01*
X104568995Y-93999500D01*
X104568993Y-93999500D01*
X104500207Y-93999500D01*
X100259757Y-93999500D01*
X100240359Y-93997973D01*
X100192299Y-93990361D01*
X100155401Y-93978372D01*
X100120844Y-93960764D01*
X100089459Y-93937961D01*
X100062037Y-93910539D01*
X100039233Y-93879152D01*
X100021627Y-93844598D01*
X100009638Y-93807700D01*
X100006783Y-93789675D01*
X100002026Y-93759635D01*
X100000500Y-93740239D01*
X100000500Y-91345171D01*
X100000972Y-91334358D01*
X100003407Y-91306543D01*
X100013866Y-91187058D01*
X100016105Y-91172090D01*
X100023078Y-91139290D01*
X100024582Y-91133022D01*
X100043579Y-91062135D01*
X107149500Y-91062135D01*
X107149500Y-92857870D01*
X107149501Y-92857876D01*
X107155908Y-92917483D01*
X107206202Y-93052328D01*
X107206206Y-93052335D01*
X107292452Y-93167544D01*
X107292455Y-93167547D01*
X107407664Y-93253793D01*
X107407671Y-93253797D01*
X107542517Y-93304091D01*
X107542516Y-93304091D01*
X107549444Y-93304835D01*
X107602127Y-93310500D01*
X109397872Y-93310499D01*
X109457483Y-93304091D01*
X109592331Y-93253796D01*
X109707546Y-93167546D01*
X109793796Y-93052331D01*
X109842810Y-92920916D01*
X109884681Y-92864984D01*
X109950145Y-92840566D01*
X110018418Y-92855417D01*
X110046673Y-92876569D01*
X110160213Y-92990109D01*
X110332179Y-93115048D01*
X110332181Y-93115049D01*
X110332184Y-93115051D01*
X110521588Y-93211557D01*
X110723757Y-93277246D01*
X110933713Y-93310500D01*
X110933714Y-93310500D01*
X111146286Y-93310500D01*
X111146287Y-93310500D01*
X111356243Y-93277246D01*
X111558412Y-93211557D01*
X111747816Y-93115051D01*
X111834138Y-93052335D01*
X111919786Y-92990109D01*
X111919788Y-92990106D01*
X111919792Y-92990104D01*
X112070104Y-92839792D01*
X112070106Y-92839788D01*
X112070109Y-92839786D01*
X112155890Y-92721717D01*
X112195051Y-92667816D01*
X112199793Y-92658508D01*
X112247763Y-92607711D01*
X112315583Y-92590911D01*
X112381719Y-92613445D01*
X112420763Y-92658500D01*
X112425373Y-92667547D01*
X112464728Y-92721716D01*
X113097037Y-92089408D01*
X113114075Y-92152993D01*
X113179901Y-92267007D01*
X113272993Y-92360099D01*
X113387007Y-92425925D01*
X113450590Y-92442962D01*
X112818282Y-93075269D01*
X112818282Y-93075270D01*
X112872449Y-93114624D01*
X113061782Y-93211095D01*
X113263870Y-93276757D01*
X113473754Y-93310000D01*
X113686246Y-93310000D01*
X113896127Y-93276757D01*
X113896130Y-93276757D01*
X114098217Y-93211095D01*
X114287554Y-93114622D01*
X114341716Y-93075270D01*
X114341717Y-93075270D01*
X113709408Y-92442962D01*
X113772993Y-92425925D01*
X113887007Y-92360099D01*
X113980099Y-92267007D01*
X114045925Y-92152993D01*
X114062962Y-92089408D01*
X114695270Y-92721717D01*
X114695270Y-92721716D01*
X114734622Y-92667554D01*
X114831095Y-92478217D01*
X114896757Y-92276130D01*
X114896757Y-92276127D01*
X114930000Y-92066246D01*
X114930000Y-91853753D01*
X114896757Y-91643872D01*
X114896757Y-91643869D01*
X114831095Y-91441782D01*
X114734624Y-91252449D01*
X114695270Y-91198282D01*
X114695269Y-91198282D01*
X114062962Y-91830590D01*
X114045925Y-91767007D01*
X113980099Y-91652993D01*
X113887007Y-91559901D01*
X113772993Y-91494075D01*
X113709409Y-91477037D01*
X114341716Y-90844728D01*
X114287550Y-90805375D01*
X114098217Y-90708904D01*
X113896129Y-90643242D01*
X113686246Y-90610000D01*
X113473754Y-90610000D01*
X113263872Y-90643242D01*
X113263869Y-90643242D01*
X113061782Y-90708904D01*
X112872439Y-90805380D01*
X112818282Y-90844727D01*
X112818282Y-90844728D01*
X113450591Y-91477037D01*
X113387007Y-91494075D01*
X113272993Y-91559901D01*
X113179901Y-91652993D01*
X113114075Y-91767007D01*
X113097037Y-91830591D01*
X112464728Y-91198282D01*
X112464727Y-91198282D01*
X112425380Y-91252440D01*
X112425376Y-91252446D01*
X112420760Y-91261505D01*
X112372781Y-91312297D01*
X112304959Y-91329087D01*
X112238826Y-91306543D01*
X112199794Y-91261493D01*
X112195051Y-91252184D01*
X112195049Y-91252181D01*
X112195048Y-91252179D01*
X112070109Y-91080213D01*
X111919786Y-90929890D01*
X111747820Y-90804951D01*
X111558414Y-90708444D01*
X111558413Y-90708443D01*
X111558412Y-90708443D01*
X111356243Y-90642754D01*
X111356241Y-90642753D01*
X111356240Y-90642753D01*
X111194957Y-90617208D01*
X111146287Y-90609500D01*
X110933713Y-90609500D01*
X110885042Y-90617208D01*
X110723760Y-90642753D01*
X110622672Y-90675598D01*
X110528501Y-90706197D01*
X110521585Y-90708444D01*
X110332179Y-90804951D01*
X110160215Y-90929889D01*
X110046673Y-91043431D01*
X109985350Y-91076915D01*
X109915658Y-91071931D01*
X109859725Y-91030059D01*
X109842810Y-90999082D01*
X109793797Y-90867671D01*
X109793793Y-90867664D01*
X109707547Y-90752455D01*
X109707544Y-90752452D01*
X109592335Y-90666206D01*
X109592328Y-90666202D01*
X109457482Y-90615908D01*
X109457483Y-90615908D01*
X109397883Y-90609501D01*
X109397881Y-90609500D01*
X109397873Y-90609500D01*
X109397864Y-90609500D01*
X107602129Y-90609500D01*
X107602123Y-90609501D01*
X107542516Y-90615908D01*
X107407671Y-90666202D01*
X107407664Y-90666206D01*
X107292455Y-90752452D01*
X107292452Y-90752455D01*
X107206206Y-90867664D01*
X107206202Y-90867671D01*
X107155908Y-91002517D01*
X107149501Y-91062116D01*
X107149500Y-91062135D01*
X100043579Y-91062135D01*
X100057985Y-91008381D01*
X100065374Y-90988083D01*
X100129844Y-90849841D01*
X100140644Y-90831137D01*
X100228137Y-90706194D01*
X100242028Y-90689640D01*
X100333269Y-90598404D01*
X100337922Y-90593990D01*
X100362891Y-90571508D01*
X100374702Y-90562114D01*
X100496256Y-90477005D01*
X100505347Y-90471214D01*
X105914277Y-87348366D01*
X109800000Y-87348366D01*
X109800000Y-87651633D01*
X109833952Y-87952966D01*
X109833954Y-87952982D01*
X109901434Y-88248633D01*
X109901438Y-88248645D01*
X110001592Y-88534866D01*
X110001598Y-88534880D01*
X110133172Y-88808096D01*
X110294515Y-89064872D01*
X110421871Y-89224573D01*
X111019500Y-88626944D01*
X111133274Y-88626944D01*
X111133274Y-88706508D01*
X111163722Y-88780017D01*
X111219983Y-88836278D01*
X111293492Y-88866726D01*
X111373056Y-88866726D01*
X111446565Y-88836278D01*
X111502826Y-88780017D01*
X111533274Y-88706508D01*
X111533274Y-88626944D01*
X111502826Y-88553435D01*
X111446565Y-88497174D01*
X111373056Y-88466726D01*
X111293492Y-88466726D01*
X111219983Y-88497174D01*
X111163722Y-88553435D01*
X111133274Y-88626944D01*
X111019500Y-88626944D01*
X111563708Y-88082736D01*
X111660967Y-88216602D01*
X111783398Y-88339033D01*
X111917262Y-88436290D01*
X110775425Y-89578127D01*
X110935127Y-89705484D01*
X111191903Y-89866827D01*
X111465119Y-89998401D01*
X111465133Y-89998407D01*
X111751354Y-90098561D01*
X111751366Y-90098565D01*
X112047017Y-90166045D01*
X112047033Y-90166047D01*
X112348366Y-90199999D01*
X112348368Y-90200000D01*
X112651632Y-90200000D01*
X112651633Y-90199999D01*
X112952966Y-90166047D01*
X112952982Y-90166045D01*
X113248633Y-90098565D01*
X113248645Y-90098561D01*
X113534866Y-89998407D01*
X113534880Y-89998401D01*
X113808096Y-89866827D01*
X114064872Y-89705484D01*
X114224573Y-89578126D01*
X113273391Y-88626944D01*
X113466726Y-88626944D01*
X113466726Y-88706508D01*
X113497174Y-88780017D01*
X113553435Y-88836278D01*
X113626944Y-88866726D01*
X113706508Y-88866726D01*
X113780017Y-88836278D01*
X113836278Y-88780017D01*
X113866726Y-88706508D01*
X113866726Y-88626944D01*
X113836278Y-88553435D01*
X113780017Y-88497174D01*
X113706508Y-88466726D01*
X113626944Y-88466726D01*
X113553435Y-88497174D01*
X113497174Y-88553435D01*
X113466726Y-88626944D01*
X113273391Y-88626944D01*
X113082737Y-88436290D01*
X113216602Y-88339033D01*
X113339033Y-88216602D01*
X113436290Y-88082737D01*
X114578126Y-89224573D01*
X114705484Y-89064872D01*
X114866827Y-88808096D01*
X114998401Y-88534880D01*
X114998407Y-88534866D01*
X115098561Y-88248645D01*
X115098565Y-88248633D01*
X115166045Y-87952982D01*
X115166047Y-87952966D01*
X115199999Y-87651633D01*
X115200000Y-87651631D01*
X115200000Y-87532135D01*
X115659500Y-87532135D01*
X115659500Y-89627870D01*
X115659501Y-89627876D01*
X115665908Y-89687483D01*
X115716202Y-89822328D01*
X115716206Y-89822335D01*
X115802452Y-89937544D01*
X115802455Y-89937547D01*
X115917664Y-90023793D01*
X115917671Y-90023797D01*
X116052517Y-90074091D01*
X116052516Y-90074091D01*
X116059444Y-90074835D01*
X116112127Y-90080500D01*
X119207872Y-90080499D01*
X119267483Y-90074091D01*
X119402331Y-90023796D01*
X119517546Y-89937546D01*
X119603796Y-89822331D01*
X119654091Y-89687483D01*
X119660500Y-89627873D01*
X119660499Y-87532128D01*
X119654091Y-87472517D01*
X119642089Y-87440339D01*
X119603797Y-87337671D01*
X119603793Y-87337664D01*
X119517547Y-87222455D01*
X119517544Y-87222452D01*
X119402335Y-87136206D01*
X119402328Y-87136202D01*
X119267482Y-87085908D01*
X119267483Y-87085908D01*
X119207883Y-87079501D01*
X119207881Y-87079500D01*
X119207873Y-87079500D01*
X119207864Y-87079500D01*
X116112129Y-87079500D01*
X116112123Y-87079501D01*
X116052516Y-87085908D01*
X115917671Y-87136202D01*
X115917664Y-87136206D01*
X115802455Y-87222452D01*
X115802452Y-87222455D01*
X115716206Y-87337664D01*
X115716202Y-87337671D01*
X115665908Y-87472517D01*
X115659501Y-87532116D01*
X115659501Y-87532123D01*
X115659500Y-87532135D01*
X115200000Y-87532135D01*
X115200000Y-87348368D01*
X115199999Y-87348366D01*
X115166047Y-87047033D01*
X115166045Y-87047017D01*
X115098565Y-86751366D01*
X115098561Y-86751354D01*
X114998407Y-86465133D01*
X114998401Y-86465119D01*
X114866827Y-86191903D01*
X114705484Y-85935127D01*
X114578127Y-85775425D01*
X113436290Y-86917262D01*
X113339033Y-86783398D01*
X113216602Y-86660967D01*
X113082736Y-86563709D01*
X113352953Y-86293492D01*
X113466726Y-86293492D01*
X113466726Y-86373056D01*
X113497174Y-86446565D01*
X113553435Y-86502826D01*
X113626944Y-86533274D01*
X113706508Y-86533274D01*
X113780017Y-86502826D01*
X113836278Y-86446565D01*
X113866726Y-86373056D01*
X113866726Y-86293492D01*
X113836278Y-86219983D01*
X113780017Y-86163722D01*
X113706508Y-86133274D01*
X113626944Y-86133274D01*
X113553435Y-86163722D01*
X113497174Y-86219983D01*
X113466726Y-86293492D01*
X113352953Y-86293492D01*
X114224573Y-85421871D01*
X114064872Y-85294515D01*
X113808096Y-85133172D01*
X113534880Y-85001598D01*
X113534866Y-85001592D01*
X113248645Y-84901438D01*
X113248633Y-84901434D01*
X112952982Y-84833954D01*
X112952966Y-84833952D01*
X112651633Y-84800000D01*
X112348366Y-84800000D01*
X112047033Y-84833952D01*
X112047017Y-84833954D01*
X111751366Y-84901434D01*
X111751354Y-84901438D01*
X111465133Y-85001592D01*
X111465119Y-85001598D01*
X111191903Y-85133172D01*
X110935127Y-85294515D01*
X110775425Y-85421871D01*
X111917263Y-86563709D01*
X111783398Y-86660967D01*
X111660967Y-86783398D01*
X111563709Y-86917263D01*
X110939938Y-86293492D01*
X111133274Y-86293492D01*
X111133274Y-86373056D01*
X111163722Y-86446565D01*
X111219983Y-86502826D01*
X111293492Y-86533274D01*
X111373056Y-86533274D01*
X111446565Y-86502826D01*
X111502826Y-86446565D01*
X111533274Y-86373056D01*
X111533274Y-86293492D01*
X111502826Y-86219983D01*
X111446565Y-86163722D01*
X111373056Y-86133274D01*
X111293492Y-86133274D01*
X111219983Y-86163722D01*
X111163722Y-86219983D01*
X111133274Y-86293492D01*
X110939938Y-86293492D01*
X110421871Y-85775425D01*
X110294515Y-85935127D01*
X110133172Y-86191903D01*
X110001598Y-86465119D01*
X110001592Y-86465133D01*
X109901438Y-86751354D01*
X109901434Y-86751366D01*
X109833954Y-87047017D01*
X109833952Y-87047033D01*
X109800000Y-87348366D01*
X105914277Y-87348366D01*
X115496710Y-81815945D01*
X115503876Y-81812116D01*
X115608893Y-81760356D01*
X115621336Y-81755048D01*
X115632307Y-81751063D01*
X115634640Y-81750244D01*
X115734474Y-81716430D01*
X115750169Y-81712240D01*
X115853487Y-81691811D01*
X115856066Y-81691330D01*
X115867498Y-81689329D01*
X115880930Y-81687728D01*
X115997715Y-81680259D01*
X116005875Y-81680007D01*
X116052678Y-81680100D01*
X116053602Y-81679999D01*
X126987228Y-81680273D01*
G37*
G04 #@! TD.AperFunction*
G04 #@! TA.AperFunction,Conductor*
G36*
X125845703Y-98444017D02*
G01*
X125852181Y-98450049D01*
X126240000Y-98837868D01*
X126627819Y-98450049D01*
X126689142Y-98416564D01*
X126758834Y-98421548D01*
X126814767Y-98463420D01*
X126839184Y-98528884D01*
X126839500Y-98537730D01*
X126839500Y-98611270D01*
X126819815Y-98678309D01*
X126803181Y-98698951D01*
X126403747Y-99098385D01*
X126342424Y-99131870D01*
X126316066Y-99134704D01*
X126163934Y-99134704D01*
X126142688Y-99128465D01*
X126120600Y-99126886D01*
X126106543Y-99117852D01*
X126096895Y-99115019D01*
X126090309Y-99107418D01*
X126076253Y-99098385D01*
X125676819Y-98698951D01*
X125643334Y-98637628D01*
X125640500Y-98611270D01*
X125640500Y-98537730D01*
X125660185Y-98470691D01*
X125712989Y-98424936D01*
X125782147Y-98414992D01*
X125845703Y-98444017D01*
G37*
G04 #@! TD.AperFunction*
G04 #@! TA.AperFunction,Conductor*
G36*
X126359400Y-97473114D02*
G01*
X126403747Y-97501615D01*
X126803181Y-97901049D01*
X126817884Y-97927976D01*
X126834477Y-97953795D01*
X126835368Y-97959995D01*
X126836666Y-97962372D01*
X126839500Y-97988730D01*
X126839500Y-98062270D01*
X126819815Y-98129309D01*
X126767011Y-98175064D01*
X126697853Y-98185008D01*
X126634297Y-98155983D01*
X126627819Y-98149951D01*
X126240000Y-97762132D01*
X125852181Y-98149951D01*
X125832744Y-98160563D01*
X125816011Y-98175064D01*
X125802679Y-98176980D01*
X125790858Y-98183436D01*
X125768771Y-98181856D01*
X125746853Y-98185008D01*
X125734601Y-98179412D01*
X125721166Y-98178452D01*
X125703439Y-98165181D01*
X125683297Y-98155983D01*
X125676014Y-98144651D01*
X125665233Y-98136580D01*
X125657495Y-98115834D01*
X125645523Y-98097205D01*
X125642371Y-98075286D01*
X125640816Y-98071116D01*
X125640500Y-98062270D01*
X125640500Y-97988730D01*
X125660185Y-97921691D01*
X125676819Y-97901049D01*
X126076253Y-97501615D01*
X126137576Y-97468130D01*
X126207268Y-97473114D01*
X126233542Y-97490000D01*
X126249656Y-97490000D01*
X126289708Y-97468130D01*
X126359400Y-97473114D01*
G37*
G04 #@! TD.AperFunction*
M02*
