G04 #@! TF.GenerationSoftware,KiCad,Pcbnew,9.0.3*
G04 #@! TF.CreationDate,2025-07-23T17:28:07+01:00*
G04 #@! TF.ProjectId,dectspansion,64656374-7370-4616-9e73-696f6e2e6b69,Prototype 2*
G04 #@! TF.SameCoordinates,Original*
G04 #@! TF.FileFunction,Copper,L3,Inr*
G04 #@! TF.FilePolarity,Positive*
%FSLAX46Y46*%
G04 Gerber Fmt 4.6, Leading zero omitted, Abs format (unit mm)*
G04 Created by KiCad (PCBNEW 9.0.3) date 2025-07-23 17:28:07*
%MOMM*%
%LPD*%
G01*
G04 APERTURE LIST*
G04 #@! TA.AperFunction,WasherPad*
%ADD10C,1.900000*%
G04 #@! TD*
G04 #@! TA.AperFunction,ComponentPad*
%ADD11C,0.700000*%
G04 #@! TD*
G04 #@! TA.AperFunction,ComponentPad*
%ADD12C,4.400000*%
G04 #@! TD*
G04 #@! TA.AperFunction,ComponentPad*
%ADD13R,1.700000X1.700000*%
G04 #@! TD*
G04 #@! TA.AperFunction,ComponentPad*
%ADD14C,1.700000*%
G04 #@! TD*
G04 #@! TA.AperFunction,ViaPad*
%ADD15C,0.800000*%
G04 #@! TD*
G04 APERTURE END LIST*
D10*
X130160000Y-87780000D03*
X123160000Y-87780000D03*
D11*
X110850000Y-87500000D03*
X111333274Y-86333274D03*
X111333274Y-88666726D03*
X112500000Y-85850000D03*
D12*
X112500000Y-87500000D03*
D11*
X112500000Y-89150000D03*
X113666726Y-86333274D03*
X113666726Y-88666726D03*
X114150000Y-87500000D03*
D13*
X117620000Y-113310000D03*
D14*
X117620000Y-115850000D03*
D13*
X108540000Y-92430000D03*
D14*
X111080000Y-92430000D03*
X113620000Y-92430000D03*
D11*
X110850000Y-112500000D03*
X111333274Y-111333274D03*
X111333274Y-113666726D03*
X112500000Y-110850000D03*
D12*
X112500000Y-112500000D03*
D11*
X112500000Y-114150000D03*
X113666726Y-111333274D03*
X113666726Y-113666726D03*
X114150000Y-112500000D03*
D15*
X115870000Y-108126686D03*
X114670000Y-106960000D03*
X118740000Y-98930000D03*
X127990000Y-113890000D03*
X117220000Y-111840000D03*
X124280000Y-101670000D03*
X120710000Y-98970000D03*
X127080000Y-116960000D03*
X119470000Y-109070000D03*
X112350000Y-108970000D03*
X115730000Y-111830000D03*
X125120000Y-111610000D03*
X110236000Y-101854000D03*
X125984000Y-101600000D03*
X135280000Y-88610000D03*
X109510000Y-111400000D03*
X129730000Y-113900000D03*
X113510000Y-108180000D03*
X119340000Y-94390000D03*
X103670000Y-92440000D03*
X108480000Y-89370000D03*
X123980000Y-94410000D03*
X106580000Y-104920000D03*
X119000000Y-106660000D03*
X109440000Y-109910000D03*
X110930000Y-108970000D03*
X117580000Y-106630000D03*
X108785000Y-102210000D03*
X108748959Y-103421041D03*
X118530000Y-108170000D03*
X112360000Y-104052500D03*
X125480000Y-116880000D03*
X126190000Y-112790000D03*
X114010000Y-104050000D03*
X123990000Y-95850000D03*
X119360000Y-95850000D03*
G04 #@! TA.AperFunction,Conductor*
G36*
X126987228Y-81680273D02*
G01*
X135978140Y-81680499D01*
X136024594Y-81680500D01*
X136035393Y-81680971D01*
X136181839Y-81693783D01*
X136195180Y-81695687D01*
X136223815Y-81701383D01*
X136231636Y-81703207D01*
X136357159Y-81736840D01*
X136372503Y-81742048D01*
X136388599Y-81748716D01*
X136393469Y-81750858D01*
X136519922Y-81809824D01*
X136538628Y-81820624D01*
X136663572Y-81908110D01*
X136680130Y-81922003D01*
X136787989Y-82029861D01*
X136801882Y-82046419D01*
X136889365Y-82171355D01*
X136900173Y-82190074D01*
X136959125Y-82316495D01*
X136961298Y-82321434D01*
X136967942Y-82337473D01*
X136973155Y-82352828D01*
X137006781Y-82478322D01*
X137008622Y-82486220D01*
X137014303Y-82514774D01*
X137016215Y-82528162D01*
X137029056Y-82674928D01*
X137029528Y-82685808D01*
X137009491Y-117314634D01*
X137009019Y-117325372D01*
X136996160Y-117472321D01*
X136994225Y-117485826D01*
X136988679Y-117513560D01*
X136986860Y-117521341D01*
X136952917Y-117648009D01*
X136947608Y-117663597D01*
X136942012Y-117677030D01*
X136939929Y-117681752D01*
X136880156Y-117809932D01*
X136869347Y-117828652D01*
X136781861Y-117953589D01*
X136767967Y-117970147D01*
X136660108Y-118078000D01*
X136643550Y-118091893D01*
X136518601Y-118179378D01*
X136499880Y-118190185D01*
X136374452Y-118248667D01*
X136368810Y-118251129D01*
X136350558Y-118258560D01*
X136335889Y-118263490D01*
X136210073Y-118297197D01*
X136201312Y-118299207D01*
X136173455Y-118304543D01*
X136160930Y-118306286D01*
X136015217Y-118319029D01*
X136004414Y-118319500D01*
X116061410Y-118319500D01*
X116012803Y-118319465D01*
X116012666Y-118319424D01*
X116005877Y-118319266D01*
X115890237Y-118312713D01*
X115876470Y-118311158D01*
X115854770Y-118307469D01*
X115852130Y-118306991D01*
X115757075Y-118288707D01*
X115741082Y-118284508D01*
X115631819Y-118247878D01*
X115616530Y-118241590D01*
X115509308Y-118188881D01*
X115506038Y-118187213D01*
X115462264Y-118164061D01*
X115461427Y-118163246D01*
X115458238Y-118161835D01*
X113489872Y-117025398D01*
X111447559Y-115846268D01*
X109353164Y-114637068D01*
X105568999Y-112452279D01*
X105389016Y-112348366D01*
X109800000Y-112348366D01*
X109800000Y-112651633D01*
X109833952Y-112952966D01*
X109833954Y-112952982D01*
X109901434Y-113248633D01*
X109901438Y-113248645D01*
X110001592Y-113534866D01*
X110001598Y-113534880D01*
X110133172Y-113808096D01*
X110294515Y-114064872D01*
X110421871Y-114224573D01*
X111019500Y-113626944D01*
X111133274Y-113626944D01*
X111133274Y-113706508D01*
X111163722Y-113780017D01*
X111219983Y-113836278D01*
X111293492Y-113866726D01*
X111373056Y-113866726D01*
X111446565Y-113836278D01*
X111502826Y-113780017D01*
X111533274Y-113706508D01*
X111533274Y-113626944D01*
X111502826Y-113553435D01*
X111446565Y-113497174D01*
X111373056Y-113466726D01*
X111293492Y-113466726D01*
X111219983Y-113497174D01*
X111163722Y-113553435D01*
X111133274Y-113626944D01*
X111019500Y-113626944D01*
X111563708Y-113082736D01*
X111660967Y-113216602D01*
X111783398Y-113339033D01*
X111917262Y-113436290D01*
X110775425Y-114578127D01*
X110935127Y-114705484D01*
X111191903Y-114866827D01*
X111465119Y-114998401D01*
X111465133Y-114998407D01*
X111751354Y-115098561D01*
X111751366Y-115098565D01*
X112047017Y-115166045D01*
X112047033Y-115166047D01*
X112348366Y-115199999D01*
X112348368Y-115200000D01*
X112651632Y-115200000D01*
X112651633Y-115199999D01*
X112952966Y-115166047D01*
X112952982Y-115166045D01*
X113248633Y-115098565D01*
X113248645Y-115098561D01*
X113534866Y-114998407D01*
X113534880Y-114998401D01*
X113808096Y-114866827D01*
X114064872Y-114705484D01*
X114224573Y-114578126D01*
X113273391Y-113626944D01*
X113466726Y-113626944D01*
X113466726Y-113706508D01*
X113497174Y-113780017D01*
X113553435Y-113836278D01*
X113626944Y-113866726D01*
X113706508Y-113866726D01*
X113780017Y-113836278D01*
X113836278Y-113780017D01*
X113866726Y-113706508D01*
X113866726Y-113626944D01*
X113836278Y-113553435D01*
X113780017Y-113497174D01*
X113706508Y-113466726D01*
X113626944Y-113466726D01*
X113553435Y-113497174D01*
X113497174Y-113553435D01*
X113466726Y-113626944D01*
X113273391Y-113626944D01*
X113082737Y-113436290D01*
X113216602Y-113339033D01*
X113339033Y-113216602D01*
X113436290Y-113082737D01*
X114578126Y-114224573D01*
X114705484Y-114064872D01*
X114866827Y-113808096D01*
X114998401Y-113534880D01*
X114998407Y-113534866D01*
X115098561Y-113248645D01*
X115098565Y-113248633D01*
X115166045Y-112952982D01*
X115166047Y-112952966D01*
X115199999Y-112651633D01*
X115200000Y-112651631D01*
X115200000Y-112412135D01*
X116269500Y-112412135D01*
X116269500Y-114207870D01*
X116269501Y-114207876D01*
X116275908Y-114267483D01*
X116326202Y-114402328D01*
X116326206Y-114402335D01*
X116412452Y-114517544D01*
X116412455Y-114517547D01*
X116527664Y-114603793D01*
X116527671Y-114603797D01*
X116572618Y-114620561D01*
X116662517Y-114654091D01*
X116722127Y-114660500D01*
X116732685Y-114660499D01*
X116799723Y-114680179D01*
X116820372Y-114696818D01*
X117490591Y-115367037D01*
X117427007Y-115384075D01*
X117312993Y-115449901D01*
X117219901Y-115542993D01*
X117154075Y-115657007D01*
X117137037Y-115720591D01*
X116504728Y-115088282D01*
X116504727Y-115088282D01*
X116465380Y-115142439D01*
X116368904Y-115331782D01*
X116303242Y-115533869D01*
X116303242Y-115533872D01*
X116270000Y-115743753D01*
X116270000Y-115956246D01*
X116303242Y-116166127D01*
X116303242Y-116166130D01*
X116368904Y-116368217D01*
X116465375Y-116557550D01*
X116504728Y-116611716D01*
X117137037Y-115979408D01*
X117154075Y-116042993D01*
X117219901Y-116157007D01*
X117312993Y-116250099D01*
X117427007Y-116315925D01*
X117490590Y-116332962D01*
X116858282Y-116965269D01*
X116858282Y-116965270D01*
X116912449Y-117004624D01*
X117101782Y-117101095D01*
X117303870Y-117166757D01*
X117513754Y-117200000D01*
X117726246Y-117200000D01*
X117936127Y-117166757D01*
X117936130Y-117166757D01*
X118138217Y-117101095D01*
X118327554Y-117004622D01*
X118381716Y-116965270D01*
X118381717Y-116965270D01*
X118289345Y-116872898D01*
X118207751Y-116791304D01*
X124579500Y-116791304D01*
X124579500Y-116968695D01*
X124614103Y-117142658D01*
X124614106Y-117142667D01*
X124681983Y-117306540D01*
X124681990Y-117306553D01*
X124780535Y-117454034D01*
X124780538Y-117454038D01*
X124905961Y-117579461D01*
X124905965Y-117579464D01*
X125053446Y-117678009D01*
X125053459Y-117678016D01*
X125176363Y-117728923D01*
X125217334Y-117745894D01*
X125217336Y-117745894D01*
X125217341Y-117745896D01*
X125391304Y-117780499D01*
X125391307Y-117780500D01*
X125391309Y-117780500D01*
X125568693Y-117780500D01*
X125568694Y-117780499D01*
X125626682Y-117768964D01*
X125742658Y-117745896D01*
X125742661Y-117745894D01*
X125742666Y-117745894D01*
X125906547Y-117678013D01*
X126054035Y-117579464D01*
X126179464Y-117454035D01*
X126278013Y-117306547D01*
X126345894Y-117142666D01*
X126380500Y-116968691D01*
X126380500Y-116791309D01*
X126380500Y-116791306D01*
X126380499Y-116791304D01*
X126345896Y-116617341D01*
X126345893Y-116617332D01*
X126278016Y-116453459D01*
X126278009Y-116453446D01*
X126179464Y-116305965D01*
X126179461Y-116305961D01*
X126054038Y-116180538D01*
X126054034Y-116180535D01*
X125906553Y-116081990D01*
X125906540Y-116081983D01*
X125742667Y-116014106D01*
X125742658Y-116014103D01*
X125568694Y-115979500D01*
X125568691Y-115979500D01*
X125391309Y-115979500D01*
X125391306Y-115979500D01*
X125217341Y-116014103D01*
X125217332Y-116014106D01*
X125053459Y-116081983D01*
X125053446Y-116081990D01*
X124905965Y-116180535D01*
X124905961Y-116180538D01*
X124780538Y-116305961D01*
X124780535Y-116305965D01*
X124681990Y-116453446D01*
X124681983Y-116453459D01*
X124614106Y-116617332D01*
X124614103Y-116617341D01*
X124579500Y-116791304D01*
X118207751Y-116791304D01*
X117749408Y-116332962D01*
X117812993Y-116315925D01*
X117927007Y-116250099D01*
X118020099Y-116157007D01*
X118085925Y-116042993D01*
X118102962Y-115979408D01*
X118735270Y-116611717D01*
X118735270Y-116611716D01*
X118774622Y-116557554D01*
X118871095Y-116368217D01*
X118936757Y-116166130D01*
X118936757Y-116166127D01*
X118970000Y-115956246D01*
X118970000Y-115743753D01*
X118936757Y-115533872D01*
X118936757Y-115533869D01*
X118871095Y-115331782D01*
X118774624Y-115142449D01*
X118735270Y-115088282D01*
X118735269Y-115088282D01*
X118102962Y-115720590D01*
X118085925Y-115657007D01*
X118020099Y-115542993D01*
X117927007Y-115449901D01*
X117812993Y-115384075D01*
X117749409Y-115367037D01*
X118419627Y-114696818D01*
X118480950Y-114663333D01*
X118507307Y-114660499D01*
X118517872Y-114660499D01*
X118577483Y-114654091D01*
X118712331Y-114603796D01*
X118827546Y-114517546D01*
X118913796Y-114402331D01*
X118964091Y-114267483D01*
X118970500Y-114207873D01*
X118970500Y-113801304D01*
X127089500Y-113801304D01*
X127089500Y-113978695D01*
X127124103Y-114152658D01*
X127124106Y-114152667D01*
X127191983Y-114316540D01*
X127191990Y-114316553D01*
X127290535Y-114464034D01*
X127290538Y-114464038D01*
X127415961Y-114589461D01*
X127415965Y-114589464D01*
X127563446Y-114688009D01*
X127563459Y-114688016D01*
X127686363Y-114738923D01*
X127727334Y-114755894D01*
X127727336Y-114755894D01*
X127727341Y-114755896D01*
X127901304Y-114790499D01*
X127901307Y-114790500D01*
X127901309Y-114790500D01*
X128078693Y-114790500D01*
X128078694Y-114790499D01*
X128136682Y-114778964D01*
X128252658Y-114755896D01*
X128252661Y-114755894D01*
X128252666Y-114755894D01*
X128416547Y-114688013D01*
X128564035Y-114589464D01*
X128689464Y-114464035D01*
X128788013Y-114316547D01*
X128855894Y-114152666D01*
X128864338Y-114110218D01*
X128878964Y-114036682D01*
X128890500Y-113978691D01*
X128890500Y-113801309D01*
X128890500Y-113801306D01*
X128890499Y-113801304D01*
X128855896Y-113627341D01*
X128855893Y-113627332D01*
X128788016Y-113463459D01*
X128788009Y-113463446D01*
X128689464Y-113315965D01*
X128689461Y-113315961D01*
X128564038Y-113190538D01*
X128564034Y-113190535D01*
X128416553Y-113091990D01*
X128416540Y-113091983D01*
X128252667Y-113024106D01*
X128252658Y-113024103D01*
X128078694Y-112989500D01*
X128078691Y-112989500D01*
X127901309Y-112989500D01*
X127901306Y-112989500D01*
X127727341Y-113024103D01*
X127727332Y-113024106D01*
X127563459Y-113091983D01*
X127563446Y-113091990D01*
X127415965Y-113190535D01*
X127415961Y-113190538D01*
X127290538Y-113315961D01*
X127290535Y-113315965D01*
X127191990Y-113463446D01*
X127191983Y-113463459D01*
X127124106Y-113627332D01*
X127124103Y-113627341D01*
X127089500Y-113801304D01*
X118970500Y-113801304D01*
X118970499Y-112701304D01*
X125289500Y-112701304D01*
X125289500Y-112878695D01*
X125324103Y-113052658D01*
X125324106Y-113052667D01*
X125391983Y-113216540D01*
X125391990Y-113216553D01*
X125490535Y-113364034D01*
X125490538Y-113364038D01*
X125615961Y-113489461D01*
X125615965Y-113489464D01*
X125763446Y-113588009D01*
X125763459Y-113588016D01*
X125858378Y-113627332D01*
X125927334Y-113655894D01*
X125927336Y-113655894D01*
X125927341Y-113655896D01*
X126101304Y-113690499D01*
X126101307Y-113690500D01*
X126101309Y-113690500D01*
X126278693Y-113690500D01*
X126278694Y-113690499D01*
X126303213Y-113685622D01*
X126363650Y-113673601D01*
X126363655Y-113673600D01*
X126413446Y-113663695D01*
X126452666Y-113655894D01*
X126616547Y-113588013D01*
X126764035Y-113489464D01*
X126889464Y-113364035D01*
X126988013Y-113216547D01*
X127055894Y-113052666D01*
X127090500Y-112878691D01*
X127090500Y-112701309D01*
X127090500Y-112701306D01*
X127090499Y-112701304D01*
X127055896Y-112527341D01*
X127055893Y-112527332D01*
X126988016Y-112363459D01*
X126988009Y-112363446D01*
X126889464Y-112215965D01*
X126889461Y-112215961D01*
X126764038Y-112090538D01*
X126764034Y-112090535D01*
X126616553Y-111991990D01*
X126616540Y-111991983D01*
X126452667Y-111924106D01*
X126452658Y-111924103D01*
X126278694Y-111889500D01*
X126278691Y-111889500D01*
X126101309Y-111889500D01*
X126101306Y-111889500D01*
X125927341Y-111924103D01*
X125927332Y-111924106D01*
X125763459Y-111991983D01*
X125763446Y-111991990D01*
X125615965Y-112090535D01*
X125615961Y-112090538D01*
X125490538Y-112215961D01*
X125490535Y-112215965D01*
X125391990Y-112363446D01*
X125391983Y-112363459D01*
X125324106Y-112527332D01*
X125324103Y-112527341D01*
X125289500Y-112701304D01*
X118970499Y-112701304D01*
X118970499Y-112412128D01*
X118964091Y-112352517D01*
X118944503Y-112300000D01*
X118913797Y-112217671D01*
X118913793Y-112217664D01*
X118827547Y-112102455D01*
X118827544Y-112102452D01*
X118712335Y-112016206D01*
X118712328Y-112016202D01*
X118577482Y-111965908D01*
X118577483Y-111965908D01*
X118517883Y-111959501D01*
X118517881Y-111959500D01*
X118517873Y-111959500D01*
X118517865Y-111959500D01*
X118244500Y-111959500D01*
X118177461Y-111939815D01*
X118131706Y-111887011D01*
X118120500Y-111835500D01*
X118120500Y-111751306D01*
X118120499Y-111751304D01*
X118085896Y-111577341D01*
X118085893Y-111577332D01*
X118018016Y-111413459D01*
X118018009Y-111413446D01*
X117919464Y-111265965D01*
X117919461Y-111265961D01*
X117794038Y-111140538D01*
X117794034Y-111140535D01*
X117646553Y-111041990D01*
X117646540Y-111041983D01*
X117482667Y-110974106D01*
X117482658Y-110974103D01*
X117308694Y-110939500D01*
X117308691Y-110939500D01*
X117131309Y-110939500D01*
X117131306Y-110939500D01*
X116957341Y-110974103D01*
X116957332Y-110974106D01*
X116793459Y-111041983D01*
X116793446Y-111041990D01*
X116645965Y-111140535D01*
X116645961Y-111140538D01*
X116520538Y-111265961D01*
X116520535Y-111265965D01*
X116421990Y-111413446D01*
X116421983Y-111413459D01*
X116354106Y-111577332D01*
X116354103Y-111577341D01*
X116319500Y-111751304D01*
X116319500Y-111928695D01*
X116355294Y-112108641D01*
X116352776Y-112109141D01*
X116353274Y-112167839D01*
X116333277Y-112208219D01*
X116326206Y-112217664D01*
X116326202Y-112217672D01*
X116275908Y-112352517D01*
X116269501Y-112412116D01*
X116269501Y-112412123D01*
X116269500Y-112412135D01*
X115200000Y-112412135D01*
X115200000Y-112348368D01*
X115199999Y-112348366D01*
X115166047Y-112047033D01*
X115166045Y-112047017D01*
X115098565Y-111751366D01*
X115098561Y-111751354D01*
X114998407Y-111465133D01*
X114998401Y-111465119D01*
X114866827Y-111191903D01*
X114705484Y-110935127D01*
X114578127Y-110775425D01*
X113436290Y-111917262D01*
X113339033Y-111783398D01*
X113216602Y-111660967D01*
X113082736Y-111563709D01*
X113352953Y-111293492D01*
X113466726Y-111293492D01*
X113466726Y-111373056D01*
X113497174Y-111446565D01*
X113553435Y-111502826D01*
X113626944Y-111533274D01*
X113706508Y-111533274D01*
X113780017Y-111502826D01*
X113836278Y-111446565D01*
X113866726Y-111373056D01*
X113866726Y-111293492D01*
X113836278Y-111219983D01*
X113780017Y-111163722D01*
X113706508Y-111133274D01*
X113626944Y-111133274D01*
X113553435Y-111163722D01*
X113497174Y-111219983D01*
X113466726Y-111293492D01*
X113352953Y-111293492D01*
X114224573Y-110421871D01*
X114064872Y-110294515D01*
X113808096Y-110133172D01*
X113534880Y-110001598D01*
X113534866Y-110001592D01*
X113248645Y-109901438D01*
X113248633Y-109901434D01*
X112952982Y-109833954D01*
X112952966Y-109833952D01*
X112651633Y-109800000D01*
X112348366Y-109800000D01*
X112047033Y-109833952D01*
X112047017Y-109833954D01*
X111751366Y-109901434D01*
X111751354Y-109901438D01*
X111465133Y-110001592D01*
X111465119Y-110001598D01*
X111191903Y-110133172D01*
X110935127Y-110294515D01*
X110775425Y-110421871D01*
X111917263Y-111563709D01*
X111783398Y-111660967D01*
X111660967Y-111783398D01*
X111563709Y-111917263D01*
X110939938Y-111293492D01*
X111133274Y-111293492D01*
X111133274Y-111373056D01*
X111163722Y-111446565D01*
X111219983Y-111502826D01*
X111293492Y-111533274D01*
X111373056Y-111533274D01*
X111446565Y-111502826D01*
X111502826Y-111446565D01*
X111533274Y-111373056D01*
X111533274Y-111293492D01*
X111502826Y-111219983D01*
X111446565Y-111163722D01*
X111373056Y-111133274D01*
X111293492Y-111133274D01*
X111219983Y-111163722D01*
X111163722Y-111219983D01*
X111133274Y-111293492D01*
X110939938Y-111293492D01*
X110421871Y-110775425D01*
X110294515Y-110935127D01*
X110133172Y-111191903D01*
X110001598Y-111465119D01*
X110001592Y-111465133D01*
X109901438Y-111751354D01*
X109901434Y-111751366D01*
X109833954Y-112047017D01*
X109833952Y-112047033D01*
X109800000Y-112348366D01*
X105389016Y-112348366D01*
X101187475Y-109922604D01*
X101012018Y-109821304D01*
X108539500Y-109821304D01*
X108539500Y-109998695D01*
X108574103Y-110172658D01*
X108574106Y-110172667D01*
X108641983Y-110336540D01*
X108641990Y-110336553D01*
X108740535Y-110484034D01*
X108740538Y-110484038D01*
X108865961Y-110609461D01*
X108865965Y-110609464D01*
X109013446Y-110708009D01*
X109013459Y-110708016D01*
X109136363Y-110758923D01*
X109177334Y-110775894D01*
X109177336Y-110775894D01*
X109177341Y-110775896D01*
X109351304Y-110810499D01*
X109351307Y-110810500D01*
X109351309Y-110810500D01*
X109528693Y-110810500D01*
X109528694Y-110810499D01*
X109586682Y-110798964D01*
X109702658Y-110775896D01*
X109702661Y-110775894D01*
X109702666Y-110775894D01*
X109866547Y-110708013D01*
X110014035Y-110609464D01*
X110139464Y-110484035D01*
X110181001Y-110421871D01*
X110194662Y-110401427D01*
X110238009Y-110336553D01*
X110238009Y-110336552D01*
X110238013Y-110336547D01*
X110305894Y-110172666D01*
X110340500Y-109998691D01*
X110340500Y-109886094D01*
X110360185Y-109819055D01*
X110412989Y-109773300D01*
X110482147Y-109763356D01*
X110511949Y-109771532D01*
X110667334Y-109835894D01*
X110667336Y-109835894D01*
X110667341Y-109835896D01*
X110841304Y-109870499D01*
X110841307Y-109870500D01*
X110841309Y-109870500D01*
X111018693Y-109870500D01*
X111018694Y-109870499D01*
X111076682Y-109858964D01*
X111192658Y-109835896D01*
X111192661Y-109835894D01*
X111192666Y-109835894D01*
X111356547Y-109768013D01*
X111504035Y-109669464D01*
X111629464Y-109544035D01*
X111728013Y-109396547D01*
X111795894Y-109232666D01*
X111830500Y-109058691D01*
X111830500Y-108881309D01*
X111830500Y-108881306D01*
X111830499Y-108881304D01*
X111795896Y-108707341D01*
X111795893Y-108707332D01*
X111728016Y-108543459D01*
X111728009Y-108543446D01*
X111629464Y-108395965D01*
X111629461Y-108395961D01*
X111504038Y-108270538D01*
X111504034Y-108270535D01*
X111356553Y-108171990D01*
X111356540Y-108171983D01*
X111192667Y-108104106D01*
X111192658Y-108104103D01*
X111018694Y-108069500D01*
X111018691Y-108069500D01*
X110841309Y-108069500D01*
X110841306Y-108069500D01*
X110667341Y-108104103D01*
X110667332Y-108104106D01*
X110503459Y-108171983D01*
X110503446Y-108171990D01*
X110355965Y-108270535D01*
X110355961Y-108270538D01*
X110230538Y-108395961D01*
X110230535Y-108395965D01*
X110131990Y-108543446D01*
X110131983Y-108543459D01*
X110064106Y-108707332D01*
X110064103Y-108707341D01*
X110029500Y-108881304D01*
X110029500Y-108993905D01*
X110009815Y-109060944D01*
X109957011Y-109106699D01*
X109887853Y-109116643D01*
X109858048Y-109108466D01*
X109702667Y-109044106D01*
X109702658Y-109044103D01*
X109528694Y-109009500D01*
X109528691Y-109009500D01*
X109351309Y-109009500D01*
X109351306Y-109009500D01*
X109177341Y-109044103D01*
X109177332Y-109044106D01*
X109013459Y-109111983D01*
X109013446Y-109111990D01*
X108865965Y-109210535D01*
X108865961Y-109210538D01*
X108740538Y-109335961D01*
X108740535Y-109335965D01*
X108641990Y-109483446D01*
X108641983Y-109483459D01*
X108574106Y-109647332D01*
X108574103Y-109647341D01*
X108539500Y-109821304D01*
X101012018Y-109821304D01*
X100504941Y-109528543D01*
X100495820Y-109522732D01*
X100374946Y-109438099D01*
X100363098Y-109428676D01*
X100337411Y-109405549D01*
X100332701Y-109401079D01*
X100242003Y-109310385D01*
X100228110Y-109293829D01*
X100140612Y-109168878D01*
X100129806Y-109150164D01*
X100065337Y-109011923D01*
X100057947Y-108991619D01*
X100038803Y-108920184D01*
X100024737Y-108867698D01*
X100023228Y-108861413D01*
X100016039Y-108827599D01*
X100013801Y-108812636D01*
X100000972Y-108666063D01*
X100000500Y-108655251D01*
X100000500Y-106871304D01*
X113769500Y-106871304D01*
X113769500Y-107048695D01*
X113804103Y-107222658D01*
X113804106Y-107222667D01*
X113871983Y-107386540D01*
X113871990Y-107386553D01*
X113970535Y-107534034D01*
X113970538Y-107534038D01*
X114095961Y-107659461D01*
X114095965Y-107659464D01*
X114243446Y-107758009D01*
X114243459Y-107758016D01*
X114366363Y-107808923D01*
X114407334Y-107825894D01*
X114407336Y-107825894D01*
X114407341Y-107825896D01*
X114581304Y-107860499D01*
X114581307Y-107860500D01*
X114581309Y-107860500D01*
X114758693Y-107860500D01*
X114832930Y-107845733D01*
X114902522Y-107851960D01*
X114957699Y-107894823D01*
X114980944Y-107960712D01*
X114978740Y-107991540D01*
X114969500Y-108037995D01*
X114969500Y-108215381D01*
X115004103Y-108389344D01*
X115004106Y-108389353D01*
X115071983Y-108553226D01*
X115071990Y-108553239D01*
X115170535Y-108700720D01*
X115170538Y-108700724D01*
X115295961Y-108826147D01*
X115295965Y-108826150D01*
X115443446Y-108924695D01*
X115443459Y-108924702D01*
X115566363Y-108975609D01*
X115607334Y-108992580D01*
X115607336Y-108992580D01*
X115607341Y-108992582D01*
X115781304Y-109027185D01*
X115781307Y-109027186D01*
X115781309Y-109027186D01*
X115958693Y-109027186D01*
X115958694Y-109027185D01*
X116035393Y-109011929D01*
X116132658Y-108992582D01*
X116132661Y-108992580D01*
X116132666Y-108992580D01*
X116296547Y-108924699D01*
X116444035Y-108826150D01*
X116569464Y-108700721D01*
X116668013Y-108553233D01*
X116672062Y-108543459D01*
X116677958Y-108529221D01*
X116735894Y-108389352D01*
X116770500Y-108215377D01*
X116770500Y-108037995D01*
X116770500Y-108037992D01*
X116770499Y-108037990D01*
X116735896Y-107864027D01*
X116735893Y-107864018D01*
X116734435Y-107860499D01*
X116691985Y-107758013D01*
X116668016Y-107700145D01*
X116668009Y-107700132D01*
X116569464Y-107552651D01*
X116569461Y-107552647D01*
X116444038Y-107427224D01*
X116444034Y-107427221D01*
X116296553Y-107328676D01*
X116296540Y-107328669D01*
X116132667Y-107260792D01*
X116132658Y-107260789D01*
X115958694Y-107226186D01*
X115958691Y-107226186D01*
X115781309Y-107226186D01*
X115707067Y-107240953D01*
X115637476Y-107234724D01*
X115582299Y-107191861D01*
X115559055Y-107125971D01*
X115561260Y-107095142D01*
X115564947Y-107076610D01*
X115570500Y-107048691D01*
X115570500Y-106871309D01*
X115570500Y-106871306D01*
X115570499Y-106871304D01*
X115535896Y-106697341D01*
X115535893Y-106697332D01*
X115488399Y-106582669D01*
X115471266Y-106541304D01*
X116679500Y-106541304D01*
X116679500Y-106718695D01*
X116714103Y-106892658D01*
X116714106Y-106892667D01*
X116781983Y-107056540D01*
X116781990Y-107056553D01*
X116880535Y-107204034D01*
X116880538Y-107204038D01*
X117005961Y-107329461D01*
X117005965Y-107329464D01*
X117153446Y-107428009D01*
X117153459Y-107428016D01*
X117276363Y-107478923D01*
X117317334Y-107495894D01*
X117317336Y-107495894D01*
X117317341Y-107495896D01*
X117491304Y-107530499D01*
X117491307Y-107530500D01*
X117642289Y-107530500D01*
X117709328Y-107550185D01*
X117755083Y-107602989D01*
X117765027Y-107672147D01*
X117745392Y-107723390D01*
X117731989Y-107743448D01*
X117731983Y-107743459D01*
X117664106Y-107907332D01*
X117664103Y-107907341D01*
X117629500Y-108081304D01*
X117629500Y-108258695D01*
X117664103Y-108432658D01*
X117664106Y-108432667D01*
X117731983Y-108596540D01*
X117731990Y-108596553D01*
X117830535Y-108744034D01*
X117830538Y-108744038D01*
X117955961Y-108869461D01*
X117955965Y-108869464D01*
X118103446Y-108968009D01*
X118103459Y-108968016D01*
X118209477Y-109011929D01*
X118267334Y-109035894D01*
X118267336Y-109035894D01*
X118267341Y-109035896D01*
X118441304Y-109070499D01*
X118441307Y-109070500D01*
X118441309Y-109070500D01*
X118618693Y-109070500D01*
X118618694Y-109070499D01*
X118678058Y-109058691D01*
X118792658Y-109035896D01*
X118792661Y-109035894D01*
X118792666Y-109035894D01*
X118956547Y-108968013D01*
X119104035Y-108869464D01*
X119229464Y-108744035D01*
X119328013Y-108596547D01*
X119395894Y-108432666D01*
X119403195Y-108395965D01*
X119430499Y-108258695D01*
X119430500Y-108258693D01*
X119430500Y-108081306D01*
X119430499Y-108081304D01*
X119395896Y-107907341D01*
X119395893Y-107907332D01*
X119328016Y-107743459D01*
X119328009Y-107743446D01*
X119229464Y-107595965D01*
X119229461Y-107595961D01*
X119104038Y-107470538D01*
X119104034Y-107470535D01*
X118956553Y-107371990D01*
X118956540Y-107371983D01*
X118792667Y-107304106D01*
X118792658Y-107304103D01*
X118618694Y-107269500D01*
X118618691Y-107269500D01*
X118467711Y-107269500D01*
X118400672Y-107249815D01*
X118354917Y-107197011D01*
X118344973Y-107127853D01*
X118364608Y-107076610D01*
X118378010Y-107056551D01*
X118378013Y-107056547D01*
X118445894Y-106892666D01*
X118450143Y-106871309D01*
X118480499Y-106718695D01*
X118480500Y-106718693D01*
X118480500Y-106541306D01*
X118480499Y-106541304D01*
X118445896Y-106367341D01*
X118445893Y-106367332D01*
X118378016Y-106203459D01*
X118378009Y-106203446D01*
X118279464Y-106055965D01*
X118279461Y-106055961D01*
X118154038Y-105930538D01*
X118154034Y-105930535D01*
X118006553Y-105831990D01*
X118006540Y-105831983D01*
X117842667Y-105764106D01*
X117842658Y-105764103D01*
X117668694Y-105729500D01*
X117668691Y-105729500D01*
X117491309Y-105729500D01*
X117491306Y-105729500D01*
X117317341Y-105764103D01*
X117317332Y-105764106D01*
X117153459Y-105831983D01*
X117153446Y-105831990D01*
X117005965Y-105930535D01*
X117005961Y-105930538D01*
X116880538Y-106055961D01*
X116880535Y-106055965D01*
X116781990Y-106203446D01*
X116781983Y-106203459D01*
X116714106Y-106367332D01*
X116714103Y-106367341D01*
X116679500Y-106541304D01*
X115471266Y-106541304D01*
X115468016Y-106533458D01*
X115468009Y-106533446D01*
X115369464Y-106385965D01*
X115369461Y-106385961D01*
X115244038Y-106260538D01*
X115244034Y-106260535D01*
X115096553Y-106161990D01*
X115096540Y-106161983D01*
X114932667Y-106094106D01*
X114932658Y-106094103D01*
X114758694Y-106059500D01*
X114758691Y-106059500D01*
X114581309Y-106059500D01*
X114581306Y-106059500D01*
X114407341Y-106094103D01*
X114407332Y-106094106D01*
X114243459Y-106161983D01*
X114243446Y-106161990D01*
X114095965Y-106260535D01*
X114095961Y-106260538D01*
X113970538Y-106385961D01*
X113970535Y-106385965D01*
X113871990Y-106533446D01*
X113871983Y-106533459D01*
X113804106Y-106697332D01*
X113804103Y-106697341D01*
X113769500Y-106871304D01*
X100000500Y-106871304D01*
X100000500Y-106259760D01*
X100002026Y-106240364D01*
X100009639Y-106192293D01*
X100021624Y-106155406D01*
X100039237Y-106120839D01*
X100062033Y-106089464D01*
X100089464Y-106062033D01*
X100120839Y-106039237D01*
X100155406Y-106021624D01*
X100192293Y-106009639D01*
X100240365Y-106002025D01*
X100259760Y-106000500D01*
X104568995Y-106000500D01*
X104660041Y-105982389D01*
X104704328Y-105973580D01*
X104728376Y-105963618D01*
X104731927Y-105962809D01*
X104741726Y-105958089D01*
X104831811Y-105920775D01*
X104864331Y-105899045D01*
X104873601Y-105894582D01*
X104886978Y-105883913D01*
X104946542Y-105844114D01*
X104984570Y-105806085D01*
X104996541Y-105796541D01*
X105006088Y-105784567D01*
X105044114Y-105746542D01*
X105083913Y-105686978D01*
X105094582Y-105673601D01*
X105099045Y-105664331D01*
X105120775Y-105631811D01*
X105158089Y-105541726D01*
X105162809Y-105531927D01*
X105163618Y-105528376D01*
X105173580Y-105504328D01*
X105200500Y-105368993D01*
X105200500Y-105300000D01*
X105200500Y-105299500D01*
X105200500Y-105231007D01*
X105200500Y-105231004D01*
X105173581Y-105095678D01*
X105173580Y-105095674D01*
X105173580Y-105095672D01*
X105163619Y-105071624D01*
X105162809Y-105068073D01*
X105158084Y-105058263D01*
X105120775Y-104968189D01*
X105120775Y-104968188D01*
X105110306Y-104952522D01*
X105099044Y-104935667D01*
X105094582Y-104926399D01*
X105083908Y-104913014D01*
X105044114Y-104853458D01*
X105044112Y-104853455D01*
X105044110Y-104853453D01*
X105011021Y-104820365D01*
X105006093Y-104815437D01*
X104996541Y-104803459D01*
X104984562Y-104793906D01*
X104979634Y-104788978D01*
X104946545Y-104755888D01*
X104946544Y-104755887D01*
X104926334Y-104742383D01*
X104886982Y-104716089D01*
X104873601Y-104705418D01*
X104864332Y-104700954D01*
X104857093Y-104696117D01*
X104857087Y-104696114D01*
X104831814Y-104679227D01*
X104831813Y-104679226D01*
X104831811Y-104679225D01*
X104831808Y-104679223D01*
X104831803Y-104679221D01*
X104744957Y-104643249D01*
X104744952Y-104643247D01*
X104741733Y-104641913D01*
X104731927Y-104637191D01*
X104728380Y-104636381D01*
X104718736Y-104632386D01*
X104718727Y-104632384D01*
X104714873Y-104630788D01*
X104704328Y-104626420D01*
X104704324Y-104626419D01*
X104568995Y-104599500D01*
X104568993Y-104599500D01*
X104500207Y-104599500D01*
X98459759Y-104599500D01*
X98440360Y-104597973D01*
X98407745Y-104592807D01*
X98370847Y-104580817D01*
X98350232Y-104570313D01*
X98318849Y-104547511D01*
X98302488Y-104531150D01*
X98279686Y-104499766D01*
X98269181Y-104479150D01*
X98257192Y-104442255D01*
X98252025Y-104409631D01*
X98250500Y-104390244D01*
X98250500Y-103332345D01*
X107848459Y-103332345D01*
X107848459Y-103509736D01*
X107883062Y-103683699D01*
X107883065Y-103683708D01*
X107950942Y-103847581D01*
X107950949Y-103847594D01*
X108049494Y-103995075D01*
X108049497Y-103995079D01*
X108174920Y-104120502D01*
X108174924Y-104120505D01*
X108322405Y-104219050D01*
X108322418Y-104219057D01*
X108445322Y-104269964D01*
X108486293Y-104286935D01*
X108486295Y-104286935D01*
X108486300Y-104286937D01*
X108660263Y-104321540D01*
X108660266Y-104321541D01*
X108660268Y-104321541D01*
X108837652Y-104321541D01*
X108837653Y-104321540D01*
X108895641Y-104310005D01*
X109011617Y-104286937D01*
X109011620Y-104286935D01*
X109011625Y-104286935D01*
X109175506Y-104219054D01*
X109322994Y-104120505D01*
X109448423Y-103995076D01*
X109469318Y-103963804D01*
X111459500Y-103963804D01*
X111459500Y-104141195D01*
X111494103Y-104315158D01*
X111494106Y-104315167D01*
X111561983Y-104479040D01*
X111561990Y-104479053D01*
X111660535Y-104626534D01*
X111660538Y-104626538D01*
X111785961Y-104751961D01*
X111785965Y-104751964D01*
X111933446Y-104850509D01*
X111933459Y-104850516D01*
X112056363Y-104901423D01*
X112097334Y-104918394D01*
X112097336Y-104918394D01*
X112097341Y-104918396D01*
X112271304Y-104952999D01*
X112271307Y-104953000D01*
X112271309Y-104953000D01*
X112448693Y-104953000D01*
X112448694Y-104952999D01*
X112506682Y-104941464D01*
X112622658Y-104918396D01*
X112622661Y-104918394D01*
X112622666Y-104918394D01*
X112786547Y-104850513D01*
X112934035Y-104751964D01*
X113059464Y-104626535D01*
X113082733Y-104591709D01*
X113136344Y-104546906D01*
X113205669Y-104538197D01*
X113268696Y-104568351D01*
X113288937Y-104591711D01*
X113310532Y-104624030D01*
X113310538Y-104624038D01*
X113435961Y-104749461D01*
X113435965Y-104749464D01*
X113583446Y-104848009D01*
X113583459Y-104848016D01*
X113706363Y-104898923D01*
X113747334Y-104915894D01*
X113747336Y-104915894D01*
X113747341Y-104915896D01*
X113921304Y-104950499D01*
X113921307Y-104950500D01*
X113921309Y-104950500D01*
X114098693Y-104950500D01*
X114098694Y-104950499D01*
X114173246Y-104935670D01*
X114272658Y-104915896D01*
X114272661Y-104915894D01*
X114272666Y-104915894D01*
X114412535Y-104857958D01*
X114436540Y-104848016D01*
X114436540Y-104848015D01*
X114436547Y-104848013D01*
X114584035Y-104749464D01*
X114709464Y-104624035D01*
X114808013Y-104476547D01*
X114875894Y-104312666D01*
X114881013Y-104286935D01*
X114910499Y-104138695D01*
X114910500Y-104138693D01*
X114910500Y-103961306D01*
X114910499Y-103961304D01*
X114875896Y-103787341D01*
X114875893Y-103787332D01*
X114808016Y-103623459D01*
X114808009Y-103623446D01*
X114709464Y-103475965D01*
X114709461Y-103475961D01*
X114584038Y-103350538D01*
X114584034Y-103350535D01*
X114436553Y-103251990D01*
X114436540Y-103251983D01*
X114272667Y-103184106D01*
X114272658Y-103184103D01*
X114098694Y-103149500D01*
X114098691Y-103149500D01*
X113921309Y-103149500D01*
X113921306Y-103149500D01*
X113747341Y-103184103D01*
X113747332Y-103184106D01*
X113583459Y-103251983D01*
X113583446Y-103251990D01*
X113435965Y-103350535D01*
X113435961Y-103350538D01*
X113310536Y-103475963D01*
X113287265Y-103510791D01*
X113233652Y-103555595D01*
X113164327Y-103564301D01*
X113101300Y-103534145D01*
X113081063Y-103510791D01*
X113059464Y-103478465D01*
X113059462Y-103478462D01*
X112934038Y-103353038D01*
X112934034Y-103353035D01*
X112786553Y-103254490D01*
X112786540Y-103254483D01*
X112622667Y-103186606D01*
X112622658Y-103186603D01*
X112448694Y-103152000D01*
X112448691Y-103152000D01*
X112271309Y-103152000D01*
X112271306Y-103152000D01*
X112097341Y-103186603D01*
X112097332Y-103186606D01*
X111933459Y-103254483D01*
X111933446Y-103254490D01*
X111785965Y-103353035D01*
X111785961Y-103353038D01*
X111660538Y-103478461D01*
X111660535Y-103478465D01*
X111561990Y-103625946D01*
X111561983Y-103625959D01*
X111494106Y-103789832D01*
X111494103Y-103789841D01*
X111459500Y-103963804D01*
X109469318Y-103963804D01*
X109487760Y-103936204D01*
X109519418Y-103888826D01*
X109546968Y-103847594D01*
X109546968Y-103847593D01*
X109546972Y-103847588D01*
X109614853Y-103683707D01*
X109626343Y-103625946D01*
X109649458Y-103509736D01*
X109649459Y-103509734D01*
X109649459Y-103332347D01*
X109649458Y-103332345D01*
X109614855Y-103158382D01*
X109614852Y-103158373D01*
X109546975Y-102994500D01*
X109546973Y-102994496D01*
X109546972Y-102994494D01*
X109491437Y-102911380D01*
X109470559Y-102844703D01*
X109489043Y-102777323D01*
X109491399Y-102773655D01*
X109583013Y-102636547D01*
X109650894Y-102472666D01*
X109651821Y-102468009D01*
X109685499Y-102298695D01*
X109685500Y-102298693D01*
X109685500Y-102121306D01*
X109685499Y-102121304D01*
X109650896Y-101947341D01*
X109650893Y-101947332D01*
X109583016Y-101783459D01*
X109583014Y-101783455D01*
X109583013Y-101783453D01*
X109484464Y-101635965D01*
X109484461Y-101635961D01*
X109429804Y-101581304D01*
X123379500Y-101581304D01*
X123379500Y-101758695D01*
X123414103Y-101932658D01*
X123414106Y-101932667D01*
X123481983Y-102096540D01*
X123481990Y-102096553D01*
X123580535Y-102244034D01*
X123580538Y-102244038D01*
X123705961Y-102369461D01*
X123705965Y-102369464D01*
X123853446Y-102468009D01*
X123853459Y-102468016D01*
X123976363Y-102518923D01*
X124017334Y-102535894D01*
X124017336Y-102535894D01*
X124017341Y-102535896D01*
X124191304Y-102570499D01*
X124191307Y-102570500D01*
X124191309Y-102570500D01*
X124368693Y-102570500D01*
X124368694Y-102570499D01*
X124426682Y-102558964D01*
X124542658Y-102535896D01*
X124542661Y-102535894D01*
X124542666Y-102535894D01*
X124706547Y-102468013D01*
X124854035Y-102369464D01*
X124979464Y-102244035D01*
X125078013Y-102096547D01*
X125145894Y-101932666D01*
X125180500Y-101758691D01*
X125180500Y-101581309D01*
X125180500Y-101581306D01*
X125180499Y-101581304D01*
X125145896Y-101407341D01*
X125145893Y-101407332D01*
X125078016Y-101243459D01*
X125078009Y-101243446D01*
X124979464Y-101095965D01*
X124979461Y-101095961D01*
X124854038Y-100970538D01*
X124854034Y-100970535D01*
X124706553Y-100871990D01*
X124706540Y-100871983D01*
X124542667Y-100804106D01*
X124542658Y-100804103D01*
X124368694Y-100769500D01*
X124368691Y-100769500D01*
X124191309Y-100769500D01*
X124191306Y-100769500D01*
X124017341Y-100804103D01*
X124017332Y-100804106D01*
X123853459Y-100871983D01*
X123853446Y-100871990D01*
X123705965Y-100970535D01*
X123705961Y-100970538D01*
X123580538Y-101095961D01*
X123580535Y-101095965D01*
X123481990Y-101243446D01*
X123481983Y-101243459D01*
X123414106Y-101407332D01*
X123414103Y-101407341D01*
X123379500Y-101581304D01*
X109429804Y-101581304D01*
X109359038Y-101510538D01*
X109359034Y-101510535D01*
X109211553Y-101411990D01*
X109211540Y-101411983D01*
X109047667Y-101344106D01*
X109047658Y-101344103D01*
X108873694Y-101309500D01*
X108873691Y-101309500D01*
X108696309Y-101309500D01*
X108696306Y-101309500D01*
X108522341Y-101344103D01*
X108522332Y-101344106D01*
X108358459Y-101411983D01*
X108358446Y-101411990D01*
X108210965Y-101510535D01*
X108210961Y-101510538D01*
X108085538Y-101635961D01*
X108085535Y-101635965D01*
X107986990Y-101783446D01*
X107986983Y-101783459D01*
X107919106Y-101947332D01*
X107919103Y-101947341D01*
X107884500Y-102121304D01*
X107884500Y-102298695D01*
X107919103Y-102472658D01*
X107919106Y-102472667D01*
X107986983Y-102636540D01*
X107986990Y-102636553D01*
X108042521Y-102719660D01*
X108063399Y-102786337D01*
X108044915Y-102853718D01*
X108042521Y-102857442D01*
X107950949Y-102994487D01*
X107950942Y-102994500D01*
X107883065Y-103158373D01*
X107883062Y-103158382D01*
X107848459Y-103332345D01*
X98250500Y-103332345D01*
X98250500Y-98841304D01*
X117839500Y-98841304D01*
X117839500Y-99018695D01*
X117874103Y-99192658D01*
X117874106Y-99192667D01*
X117941983Y-99356540D01*
X117941990Y-99356553D01*
X118040535Y-99504034D01*
X118040538Y-99504038D01*
X118165961Y-99629461D01*
X118165965Y-99629464D01*
X118313446Y-99728009D01*
X118313459Y-99728016D01*
X118436363Y-99778923D01*
X118477334Y-99795894D01*
X118477336Y-99795894D01*
X118477341Y-99795896D01*
X118651304Y-99830499D01*
X118651307Y-99830500D01*
X118651309Y-99830500D01*
X118828693Y-99830500D01*
X118828694Y-99830499D01*
X118886682Y-99818964D01*
X119002658Y-99795896D01*
X119002661Y-99795894D01*
X119002666Y-99795894D01*
X119166547Y-99728013D01*
X119314035Y-99629464D01*
X119439464Y-99504035D01*
X119538013Y-99356547D01*
X119605894Y-99192666D01*
X119640500Y-99018691D01*
X119640500Y-98841309D01*
X119640500Y-98841306D01*
X119640499Y-98841304D01*
X119605896Y-98667341D01*
X119605893Y-98667332D01*
X119538016Y-98503459D01*
X119538009Y-98503446D01*
X119439464Y-98355965D01*
X119439461Y-98355961D01*
X119314038Y-98230538D01*
X119314034Y-98230535D01*
X119166553Y-98131990D01*
X119166540Y-98131983D01*
X119002667Y-98064106D01*
X119002658Y-98064103D01*
X118828694Y-98029500D01*
X118828691Y-98029500D01*
X118651309Y-98029500D01*
X118651306Y-98029500D01*
X118477341Y-98064103D01*
X118477332Y-98064106D01*
X118313459Y-98131983D01*
X118313446Y-98131990D01*
X118165965Y-98230535D01*
X118165961Y-98230538D01*
X118040538Y-98355961D01*
X118040535Y-98355965D01*
X117941990Y-98503446D01*
X117941983Y-98503459D01*
X117874106Y-98667332D01*
X117874103Y-98667341D01*
X117839500Y-98841304D01*
X98250500Y-98841304D01*
X98250500Y-95761304D01*
X118459500Y-95761304D01*
X118459500Y-95938695D01*
X118494103Y-96112658D01*
X118494106Y-96112667D01*
X118561983Y-96276540D01*
X118561990Y-96276553D01*
X118660535Y-96424034D01*
X118660538Y-96424038D01*
X118785961Y-96549461D01*
X118785965Y-96549464D01*
X118933446Y-96648009D01*
X118933459Y-96648016D01*
X119056363Y-96698923D01*
X119097334Y-96715894D01*
X119097336Y-96715894D01*
X119097341Y-96715896D01*
X119271304Y-96750499D01*
X119271307Y-96750500D01*
X119271309Y-96750500D01*
X119448693Y-96750500D01*
X119448694Y-96750499D01*
X119506682Y-96738964D01*
X119622658Y-96715896D01*
X119622661Y-96715894D01*
X119622666Y-96715894D01*
X119786547Y-96648013D01*
X119934035Y-96549464D01*
X120059464Y-96424035D01*
X120158013Y-96276547D01*
X120225894Y-96112666D01*
X120260500Y-95938691D01*
X120260500Y-95761309D01*
X120260500Y-95761306D01*
X120260499Y-95761304D01*
X123089500Y-95761304D01*
X123089500Y-95938695D01*
X123124103Y-96112658D01*
X123124106Y-96112667D01*
X123191983Y-96276540D01*
X123191990Y-96276553D01*
X123290535Y-96424034D01*
X123290538Y-96424038D01*
X123415961Y-96549461D01*
X123415965Y-96549464D01*
X123563446Y-96648009D01*
X123563459Y-96648016D01*
X123686363Y-96698923D01*
X123727334Y-96715894D01*
X123727336Y-96715894D01*
X123727341Y-96715896D01*
X123901304Y-96750499D01*
X123901307Y-96750500D01*
X123901309Y-96750500D01*
X124078693Y-96750500D01*
X124078694Y-96750499D01*
X124136682Y-96738964D01*
X124252658Y-96715896D01*
X124252661Y-96715894D01*
X124252666Y-96715894D01*
X124416547Y-96648013D01*
X124564035Y-96549464D01*
X124689464Y-96424035D01*
X124788013Y-96276547D01*
X124855894Y-96112666D01*
X124890500Y-95938691D01*
X124890500Y-95761309D01*
X124890500Y-95761306D01*
X124890499Y-95761304D01*
X124855896Y-95587341D01*
X124855893Y-95587332D01*
X124788016Y-95423459D01*
X124788009Y-95423446D01*
X124689464Y-95275965D01*
X124689461Y-95275961D01*
X124564038Y-95150538D01*
X124564034Y-95150535D01*
X124416553Y-95051990D01*
X124416540Y-95051983D01*
X124252667Y-94984106D01*
X124252658Y-94984103D01*
X124078694Y-94949500D01*
X124078691Y-94949500D01*
X123901309Y-94949500D01*
X123901306Y-94949500D01*
X123727341Y-94984103D01*
X123727332Y-94984106D01*
X123563459Y-95051983D01*
X123563446Y-95051990D01*
X123415965Y-95150535D01*
X123415961Y-95150538D01*
X123290538Y-95275961D01*
X123290535Y-95275965D01*
X123191990Y-95423446D01*
X123191983Y-95423459D01*
X123124106Y-95587332D01*
X123124103Y-95587341D01*
X123089500Y-95761304D01*
X120260499Y-95761304D01*
X120225896Y-95587341D01*
X120225893Y-95587332D01*
X120158016Y-95423459D01*
X120158009Y-95423446D01*
X120059464Y-95275965D01*
X120059461Y-95275961D01*
X119934038Y-95150538D01*
X119934034Y-95150535D01*
X119786553Y-95051990D01*
X119786540Y-95051983D01*
X119622667Y-94984106D01*
X119622658Y-94984103D01*
X119448694Y-94949500D01*
X119448691Y-94949500D01*
X119271309Y-94949500D01*
X119271306Y-94949500D01*
X119097341Y-94984103D01*
X119097332Y-94984106D01*
X118933459Y-95051983D01*
X118933446Y-95051990D01*
X118785965Y-95150535D01*
X118785961Y-95150538D01*
X118660538Y-95275961D01*
X118660535Y-95275965D01*
X118561990Y-95423446D01*
X118561983Y-95423459D01*
X118494106Y-95587332D01*
X118494103Y-95587341D01*
X118459500Y-95761304D01*
X98250500Y-95761304D01*
X98250500Y-95609755D01*
X98252025Y-95590368D01*
X98257193Y-95557740D01*
X98269177Y-95520856D01*
X98279690Y-95500225D01*
X98302484Y-95468853D01*
X98318853Y-95452484D01*
X98320753Y-95451103D01*
X98321385Y-95450022D01*
X98350224Y-95429690D01*
X98370856Y-95419177D01*
X98407742Y-95407192D01*
X98440366Y-95402025D01*
X98459756Y-95400500D01*
X104568995Y-95400500D01*
X104660041Y-95382389D01*
X104704328Y-95373580D01*
X104728376Y-95363618D01*
X104731927Y-95362809D01*
X104741726Y-95358089D01*
X104831811Y-95320775D01*
X104864331Y-95299045D01*
X104873601Y-95294582D01*
X104886978Y-95283913D01*
X104946542Y-95244114D01*
X104984570Y-95206085D01*
X104996541Y-95196541D01*
X105006088Y-95184567D01*
X105044114Y-95146542D01*
X105083913Y-95086978D01*
X105094582Y-95073601D01*
X105099045Y-95064331D01*
X105120775Y-95031811D01*
X105158089Y-94941726D01*
X105162809Y-94931927D01*
X105163618Y-94928376D01*
X105173580Y-94904328D01*
X105200500Y-94768993D01*
X105200500Y-94700000D01*
X105200500Y-94699500D01*
X105200500Y-94631007D01*
X105200500Y-94631004D01*
X105173581Y-94495678D01*
X105173580Y-94495674D01*
X105173580Y-94495672D01*
X105163619Y-94471624D01*
X105162809Y-94468073D01*
X105158084Y-94458263D01*
X105120775Y-94368189D01*
X105120775Y-94368188D01*
X105103887Y-94342915D01*
X105103887Y-94342914D01*
X105099046Y-94335670D01*
X105094582Y-94326399D01*
X105083908Y-94313014D01*
X105044114Y-94253458D01*
X105044112Y-94253455D01*
X105044110Y-94253453D01*
X105011021Y-94220365D01*
X105006093Y-94215437D01*
X104996541Y-94203459D01*
X104984562Y-94193906D01*
X104979634Y-94188978D01*
X104946545Y-94155888D01*
X104946544Y-94155887D01*
X104926334Y-94142383D01*
X104886982Y-94116089D01*
X104873601Y-94105418D01*
X104864332Y-94100954D01*
X104857093Y-94096117D01*
X104857087Y-94096114D01*
X104831814Y-94079227D01*
X104831813Y-94079226D01*
X104831811Y-94079225D01*
X104831808Y-94079223D01*
X104831803Y-94079221D01*
X104744957Y-94043249D01*
X104744952Y-94043247D01*
X104741733Y-94041913D01*
X104731927Y-94037191D01*
X104728380Y-94036381D01*
X104718736Y-94032386D01*
X104718727Y-94032384D01*
X104714873Y-94030788D01*
X104704328Y-94026420D01*
X104704324Y-94026419D01*
X104568995Y-93999500D01*
X104568993Y-93999500D01*
X104500207Y-93999500D01*
X100259757Y-93999500D01*
X100240359Y-93997973D01*
X100192299Y-93990361D01*
X100155401Y-93978372D01*
X100120844Y-93960764D01*
X100089459Y-93937961D01*
X100062037Y-93910539D01*
X100039233Y-93879152D01*
X100021627Y-93844598D01*
X100009638Y-93807700D01*
X100006783Y-93789675D01*
X100002026Y-93759635D01*
X100000500Y-93740239D01*
X100000500Y-91532135D01*
X107189500Y-91532135D01*
X107189500Y-93327870D01*
X107189501Y-93327876D01*
X107195908Y-93387483D01*
X107246202Y-93522328D01*
X107246206Y-93522335D01*
X107332452Y-93637544D01*
X107332455Y-93637547D01*
X107447664Y-93723793D01*
X107447671Y-93723797D01*
X107582517Y-93774091D01*
X107582516Y-93774091D01*
X107589444Y-93774835D01*
X107642127Y-93780500D01*
X109437872Y-93780499D01*
X109497483Y-93774091D01*
X109632331Y-93723796D01*
X109747546Y-93637546D01*
X109833796Y-93522331D01*
X109882810Y-93390916D01*
X109924681Y-93334984D01*
X109990145Y-93310566D01*
X110058418Y-93325417D01*
X110086673Y-93346569D01*
X110200213Y-93460109D01*
X110372179Y-93585048D01*
X110372181Y-93585049D01*
X110372184Y-93585051D01*
X110561588Y-93681557D01*
X110763757Y-93747246D01*
X110973713Y-93780500D01*
X110973714Y-93780500D01*
X111186286Y-93780500D01*
X111186287Y-93780500D01*
X111396243Y-93747246D01*
X111598412Y-93681557D01*
X111787816Y-93585051D01*
X111874138Y-93522335D01*
X111959786Y-93460109D01*
X111959788Y-93460106D01*
X111959792Y-93460104D01*
X112110104Y-93309792D01*
X112110106Y-93309788D01*
X112110109Y-93309786D01*
X112195890Y-93191717D01*
X112235051Y-93137816D01*
X112239793Y-93128508D01*
X112287763Y-93077711D01*
X112355583Y-93060911D01*
X112421719Y-93083445D01*
X112460763Y-93128500D01*
X112465373Y-93137547D01*
X112504728Y-93191716D01*
X113137037Y-92559408D01*
X113154075Y-92622993D01*
X113219901Y-92737007D01*
X113312993Y-92830099D01*
X113427007Y-92895925D01*
X113490590Y-92912962D01*
X112858282Y-93545269D01*
X112858282Y-93545270D01*
X112912449Y-93584624D01*
X113101782Y-93681095D01*
X113303870Y-93746757D01*
X113513754Y-93780000D01*
X113726246Y-93780000D01*
X113936127Y-93746757D01*
X113936130Y-93746757D01*
X114138217Y-93681095D01*
X114327554Y-93584622D01*
X114381716Y-93545270D01*
X114381717Y-93545270D01*
X113749408Y-92912962D01*
X113812993Y-92895925D01*
X113927007Y-92830099D01*
X114020099Y-92737007D01*
X114085925Y-92622993D01*
X114102962Y-92559409D01*
X114735270Y-93191717D01*
X114735270Y-93191716D01*
X114774622Y-93137554D01*
X114871095Y-92948217D01*
X114936757Y-92746130D01*
X114936757Y-92746127D01*
X114970000Y-92536246D01*
X114970000Y-92323753D01*
X114936757Y-92113872D01*
X114936757Y-92113869D01*
X114871095Y-91911782D01*
X114774624Y-91722449D01*
X114735270Y-91668282D01*
X114735269Y-91668282D01*
X114102962Y-92300590D01*
X114085925Y-92237007D01*
X114020099Y-92122993D01*
X113927007Y-92029901D01*
X113812993Y-91964075D01*
X113749409Y-91947037D01*
X114381716Y-91314728D01*
X114327550Y-91275375D01*
X114138217Y-91178904D01*
X113936129Y-91113242D01*
X113726246Y-91080000D01*
X113513754Y-91080000D01*
X113303872Y-91113242D01*
X113303869Y-91113242D01*
X113101782Y-91178904D01*
X112912439Y-91275380D01*
X112858282Y-91314727D01*
X112858282Y-91314728D01*
X113490591Y-91947037D01*
X113427007Y-91964075D01*
X113312993Y-92029901D01*
X113219901Y-92122993D01*
X113154075Y-92237007D01*
X113137037Y-92300591D01*
X112504728Y-91668282D01*
X112504727Y-91668282D01*
X112465380Y-91722440D01*
X112465376Y-91722446D01*
X112460760Y-91731505D01*
X112412781Y-91782297D01*
X112344959Y-91799087D01*
X112278826Y-91776543D01*
X112239794Y-91731493D01*
X112235051Y-91722184D01*
X112235049Y-91722181D01*
X112235048Y-91722179D01*
X112110109Y-91550213D01*
X111959786Y-91399890D01*
X111787820Y-91274951D01*
X111598414Y-91178444D01*
X111598413Y-91178443D01*
X111598412Y-91178443D01*
X111396243Y-91112754D01*
X111396241Y-91112753D01*
X111396240Y-91112753D01*
X111234957Y-91087208D01*
X111186287Y-91079500D01*
X110973713Y-91079500D01*
X110925042Y-91087208D01*
X110763760Y-91112753D01*
X110561585Y-91178444D01*
X110372179Y-91274951D01*
X110200215Y-91399889D01*
X110086673Y-91513431D01*
X110025350Y-91546915D01*
X109955658Y-91541931D01*
X109899725Y-91500059D01*
X109882810Y-91469082D01*
X109833797Y-91337671D01*
X109833793Y-91337664D01*
X109747547Y-91222455D01*
X109747544Y-91222452D01*
X109632335Y-91136206D01*
X109632328Y-91136202D01*
X109497482Y-91085908D01*
X109497483Y-91085908D01*
X109437883Y-91079501D01*
X109437881Y-91079500D01*
X109437873Y-91079500D01*
X109437864Y-91079500D01*
X107642129Y-91079500D01*
X107642123Y-91079501D01*
X107582516Y-91085908D01*
X107447671Y-91136202D01*
X107447664Y-91136206D01*
X107332455Y-91222452D01*
X107332452Y-91222455D01*
X107246206Y-91337664D01*
X107246202Y-91337671D01*
X107195908Y-91472517D01*
X107189501Y-91532116D01*
X107189500Y-91532135D01*
X100000500Y-91532135D01*
X100000500Y-91345170D01*
X100000972Y-91334358D01*
X100002690Y-91314728D01*
X100013898Y-91186693D01*
X100016130Y-91171763D01*
X100022878Y-91140027D01*
X100024367Y-91133823D01*
X100057983Y-91008387D01*
X100065375Y-90988082D01*
X100129844Y-90849841D01*
X100140644Y-90831137D01*
X100228137Y-90706194D01*
X100242028Y-90689640D01*
X100333848Y-90597825D01*
X100338501Y-90593411D01*
X100362601Y-90571713D01*
X100374418Y-90562313D01*
X100496262Y-90477001D01*
X100505341Y-90471218D01*
X105914278Y-87348366D01*
X109800000Y-87348366D01*
X109800000Y-87651633D01*
X109833952Y-87952966D01*
X109833954Y-87952982D01*
X109901434Y-88248633D01*
X109901438Y-88248645D01*
X110001592Y-88534866D01*
X110001598Y-88534880D01*
X110133172Y-88808096D01*
X110294515Y-89064872D01*
X110421871Y-89224573D01*
X111019500Y-88626944D01*
X111133274Y-88626944D01*
X111133274Y-88706508D01*
X111163722Y-88780017D01*
X111219983Y-88836278D01*
X111293492Y-88866726D01*
X111373056Y-88866726D01*
X111446565Y-88836278D01*
X111502826Y-88780017D01*
X111533274Y-88706508D01*
X111533274Y-88626944D01*
X111502826Y-88553435D01*
X111446565Y-88497174D01*
X111373056Y-88466726D01*
X111293492Y-88466726D01*
X111219983Y-88497174D01*
X111163722Y-88553435D01*
X111133274Y-88626944D01*
X111019500Y-88626944D01*
X111563708Y-88082736D01*
X111660967Y-88216602D01*
X111783398Y-88339033D01*
X111917262Y-88436290D01*
X110775425Y-89578127D01*
X110935127Y-89705484D01*
X111191903Y-89866827D01*
X111465119Y-89998401D01*
X111465133Y-89998407D01*
X111751354Y-90098561D01*
X111751366Y-90098565D01*
X112047017Y-90166045D01*
X112047033Y-90166047D01*
X112348366Y-90199999D01*
X112348368Y-90200000D01*
X112651632Y-90200000D01*
X112651633Y-90199999D01*
X112952966Y-90166047D01*
X112952982Y-90166045D01*
X113248633Y-90098565D01*
X113248645Y-90098561D01*
X113534866Y-89998407D01*
X113534880Y-89998401D01*
X113808096Y-89866827D01*
X114064872Y-89705484D01*
X114224573Y-89578126D01*
X113273391Y-88626944D01*
X113466726Y-88626944D01*
X113466726Y-88706508D01*
X113497174Y-88780017D01*
X113553435Y-88836278D01*
X113626944Y-88866726D01*
X113706508Y-88866726D01*
X113780017Y-88836278D01*
X113836278Y-88780017D01*
X113866726Y-88706508D01*
X113866726Y-88626944D01*
X113836278Y-88553435D01*
X113780017Y-88497174D01*
X113706508Y-88466726D01*
X113626944Y-88466726D01*
X113553435Y-88497174D01*
X113497174Y-88553435D01*
X113466726Y-88626944D01*
X113273391Y-88626944D01*
X113082737Y-88436290D01*
X113216602Y-88339033D01*
X113339033Y-88216602D01*
X113436290Y-88082737D01*
X114578126Y-89224573D01*
X114705484Y-89064872D01*
X114866827Y-88808096D01*
X114998401Y-88534880D01*
X114998407Y-88534866D01*
X115098561Y-88248645D01*
X115098565Y-88248633D01*
X115166045Y-87952982D01*
X115166047Y-87952966D01*
X115198399Y-87665837D01*
X121709500Y-87665837D01*
X121709500Y-87894162D01*
X121745215Y-88119660D01*
X121815770Y-88336803D01*
X121868762Y-88440804D01*
X121919421Y-88540228D01*
X122053621Y-88724937D01*
X122215063Y-88886379D01*
X122399772Y-89020579D01*
X122486702Y-89064872D01*
X122603196Y-89124229D01*
X122603198Y-89124229D01*
X122603201Y-89124231D01*
X122719592Y-89162049D01*
X122820339Y-89194784D01*
X123045838Y-89230500D01*
X123045843Y-89230500D01*
X123274162Y-89230500D01*
X123499660Y-89194784D01*
X123716799Y-89124231D01*
X123920228Y-89020579D01*
X124104937Y-88886379D01*
X124266379Y-88724937D01*
X124400579Y-88540228D01*
X124504231Y-88336799D01*
X124574784Y-88119660D01*
X124581616Y-88076525D01*
X124610500Y-87894162D01*
X124610500Y-87665837D01*
X128709500Y-87665837D01*
X128709500Y-87894162D01*
X128745215Y-88119660D01*
X128815770Y-88336803D01*
X128868762Y-88440804D01*
X128919421Y-88540228D01*
X129053621Y-88724937D01*
X129215063Y-88886379D01*
X129399772Y-89020579D01*
X129486702Y-89064872D01*
X129603196Y-89124229D01*
X129603198Y-89124229D01*
X129603201Y-89124231D01*
X129719592Y-89162049D01*
X129820339Y-89194784D01*
X130045838Y-89230500D01*
X130045843Y-89230500D01*
X130274162Y-89230500D01*
X130499660Y-89194784D01*
X130716799Y-89124231D01*
X130920228Y-89020579D01*
X131104937Y-88886379D01*
X131266379Y-88724937D01*
X131400579Y-88540228D01*
X131504231Y-88336799D01*
X131574784Y-88119660D01*
X131581616Y-88076525D01*
X131610500Y-87894162D01*
X131610500Y-87665837D01*
X131574784Y-87440339D01*
X131539078Y-87330448D01*
X131504231Y-87223201D01*
X131504229Y-87223198D01*
X131504229Y-87223196D01*
X131449550Y-87115884D01*
X131400579Y-87019772D01*
X131266379Y-86835063D01*
X131104937Y-86673621D01*
X130920228Y-86539421D01*
X130908164Y-86533274D01*
X130716803Y-86435770D01*
X130499660Y-86365215D01*
X130274162Y-86329500D01*
X130274157Y-86329500D01*
X130045843Y-86329500D01*
X130045838Y-86329500D01*
X129820339Y-86365215D01*
X129603196Y-86435770D01*
X129399771Y-86539421D01*
X129215061Y-86673622D01*
X129053622Y-86835061D01*
X128919421Y-87019771D01*
X128815770Y-87223196D01*
X128745215Y-87440339D01*
X128709500Y-87665837D01*
X124610500Y-87665837D01*
X124574784Y-87440339D01*
X124539078Y-87330448D01*
X124504231Y-87223201D01*
X124504229Y-87223198D01*
X124504229Y-87223196D01*
X124449550Y-87115884D01*
X124400579Y-87019772D01*
X124266379Y-86835063D01*
X124104937Y-86673621D01*
X123920228Y-86539421D01*
X123908164Y-86533274D01*
X123716803Y-86435770D01*
X123499660Y-86365215D01*
X123274162Y-86329500D01*
X123274157Y-86329500D01*
X123045843Y-86329500D01*
X123045838Y-86329500D01*
X122820339Y-86365215D01*
X122603196Y-86435770D01*
X122399771Y-86539421D01*
X122215061Y-86673622D01*
X122053622Y-86835061D01*
X121919421Y-87019771D01*
X121815770Y-87223196D01*
X121745215Y-87440339D01*
X121709500Y-87665837D01*
X115198399Y-87665837D01*
X115200000Y-87651632D01*
X115200000Y-87348368D01*
X115199999Y-87348366D01*
X115166047Y-87047033D01*
X115166045Y-87047017D01*
X115098565Y-86751366D01*
X115098561Y-86751354D01*
X114998407Y-86465133D01*
X114998401Y-86465119D01*
X114866827Y-86191903D01*
X114705484Y-85935127D01*
X114578127Y-85775425D01*
X113436290Y-86917262D01*
X113339033Y-86783398D01*
X113216602Y-86660967D01*
X113082736Y-86563709D01*
X113352953Y-86293492D01*
X113466726Y-86293492D01*
X113466726Y-86373056D01*
X113497174Y-86446565D01*
X113553435Y-86502826D01*
X113626944Y-86533274D01*
X113706508Y-86533274D01*
X113780017Y-86502826D01*
X113836278Y-86446565D01*
X113866726Y-86373056D01*
X113866726Y-86293492D01*
X113836278Y-86219983D01*
X113780017Y-86163722D01*
X113706508Y-86133274D01*
X113626944Y-86133274D01*
X113553435Y-86163722D01*
X113497174Y-86219983D01*
X113466726Y-86293492D01*
X113352953Y-86293492D01*
X114224573Y-85421871D01*
X114064872Y-85294515D01*
X113808096Y-85133172D01*
X113534880Y-85001598D01*
X113534866Y-85001592D01*
X113248645Y-84901438D01*
X113248633Y-84901434D01*
X112952982Y-84833954D01*
X112952966Y-84833952D01*
X112651633Y-84800000D01*
X112348366Y-84800000D01*
X112047033Y-84833952D01*
X112047017Y-84833954D01*
X111751366Y-84901434D01*
X111751354Y-84901438D01*
X111465133Y-85001592D01*
X111465119Y-85001598D01*
X111191903Y-85133172D01*
X110935127Y-85294515D01*
X110775425Y-85421871D01*
X111917263Y-86563709D01*
X111783398Y-86660967D01*
X111660967Y-86783398D01*
X111563709Y-86917263D01*
X110939938Y-86293492D01*
X111133274Y-86293492D01*
X111133274Y-86373056D01*
X111163722Y-86446565D01*
X111219983Y-86502826D01*
X111293492Y-86533274D01*
X111373056Y-86533274D01*
X111446565Y-86502826D01*
X111502826Y-86446565D01*
X111533274Y-86373056D01*
X111533274Y-86293492D01*
X111502826Y-86219983D01*
X111446565Y-86163722D01*
X111373056Y-86133274D01*
X111293492Y-86133274D01*
X111219983Y-86163722D01*
X111163722Y-86219983D01*
X111133274Y-86293492D01*
X110939938Y-86293492D01*
X110421871Y-85775425D01*
X110294515Y-85935127D01*
X110133172Y-86191903D01*
X110001598Y-86465119D01*
X110001592Y-86465133D01*
X109901438Y-86751354D01*
X109901434Y-86751366D01*
X109833954Y-87047017D01*
X109833952Y-87047033D01*
X109800000Y-87348366D01*
X105914278Y-87348366D01*
X115496704Y-81815949D01*
X115503869Y-81812119D01*
X115608899Y-81760353D01*
X115621325Y-81755053D01*
X115632351Y-81751048D01*
X115634673Y-81750232D01*
X115734471Y-81716431D01*
X115750169Y-81712240D01*
X115853498Y-81691808D01*
X115855962Y-81691349D01*
X115867509Y-81689328D01*
X115880954Y-81687727D01*
X115986581Y-81680972D01*
X115997715Y-81680260D01*
X116005877Y-81680007D01*
X116052678Y-81680100D01*
X116053602Y-81679999D01*
X126987228Y-81680273D01*
G37*
G04 #@! TD.AperFunction*
M02*
